<svg width="36" height="36" viewBox="0 0 36 36" fill="none" xmlns="http://www.w3.org/2000/svg">
    <g clip-path="url(#clip0_2680_15107)">
        <path d="M32.1202 35.7385H26.0825L23.9551 33.6111C23.7649 33.7537 23.5748 33.8845 23.3846 34.0033C22.1129 34.8234 20.6748 35.4295 19.1416 35.7385C19.1416 35.7385 19.106 35.7504 19.0941 35.7504C18.2859 35.9168 17.4421 36 16.5863 36C12.8663 36 9.52658 34.3955 7.23275 31.8283C5.21228 29.5939 4 26.6583 4 23.4137C4 22.5579 4.0832 21.7141 4.24959 20.9059L8.37372 25.0301C8.65896 26.4681 9.30076 27.7755 10.2159 28.8333C11.4163 30.2595 13.0802 31.2697 14.9818 31.6382C15.4929 31.7451 16.0396 31.7927 16.5863 31.7927C17.9175 31.7927 19.1773 31.4837 20.2945 30.9132C20.5084 30.8062 20.7105 30.6992 20.9125 30.5685C21.8158 30.0456 22.6121 29.3206 23.2301 28.4886C23.3252 28.3817 23.4084 28.2747 23.4797 28.1677C23.6342 27.9538 23.7649 27.728 23.8838 27.5022C24.4662 26.5038 24.8227 25.3628 24.9297 24.1506C24.9534 23.9723 24.9534 23.794 24.9534 23.6038C24.9653 23.5444 24.9653 23.4731 24.9653 23.4137C24.9653 20.8584 23.8244 18.5646 22.0059 17.0433C20.556 15.7834 18.6662 15.0347 16.5863 15.0347C16.5269 15.0347 16.4556 15.0347 16.3962 15.0466C16.206 15.0466 16.0277 15.0466 15.8495 15.0703C14.3638 15.2011 12.9851 15.7121 11.8323 16.5203C11.7253 16.5916 11.6184 16.6748 11.5114 16.7699L16.8953 22.1539L14.2212 24.8399L7.4348 18.0535L5.9967 16.6154L7.32783 12.5745L7.47045 12.1466L8.82535 8.03434L8.95609 7.63025H13.4605L12.3552 10.9937L12.2126 11.4216L12.1413 11.6355C12.2126 11.6118 12.2839 11.588 12.3552 11.5642C12.486 11.5048 12.6286 11.4573 12.7712 11.4097C13.9716 11.0294 15.2671 10.8273 16.5982 10.8273C23.551 10.8273 29.1964 16.4609 29.1964 23.4137C29.1964 24.7448 28.9825 26.0403 28.6022 27.2407C28.5546 27.3833 28.5071 27.5259 28.4596 27.6685C28.0792 28.7026 27.5801 29.6771 26.9501 30.5566L32.1321 35.7385H32.1202Z" fill="#FFF1F5"/>
        <path d="M12.9495 6.18026C14.6561 6.18026 16.0396 4.79676 16.0396 3.09013C16.0396 1.3835 14.6561 0 12.9495 0C11.2429 0 9.85938 1.3835 9.85938 3.09013C9.85938 4.79676 11.2429 6.18026 12.9495 6.18026Z" fill="#FFF1F5"/>
    </g>
    <defs>
        <clipPath id="clip0_2680_15107">
            <rect width="36" height="36" fill="white"/>
        </clipPath>
    </defs>
</svg>
