<svg width="287" height="225" viewBox="0 0 287 225" fill="none" xmlns="http://www.w3.org/2000/svg">
<path d="M66.0101 70.6673C66.0101 70.6673 50.5609 25.0021 104.448 30.5755C158.335 36.1489 132.588 15.9368 152.951 3.39376C173.314 -9.14925 233.311 29.8731 208.21 67.5107C183.109 105.148 248.324 70.7189 261.928 127.319C270.323 162.247 249.495 187.955 232.312 202.528" stroke="#C6D3D9" stroke-width="1.96045" stroke-miterlimit="10"/>
<path d="M237.568 158.891C233.518 135.465 219.179 114.501 195.884 106.998C189.924 105.09 183.831 103.628 177.653 102.626V102.658C177.331 104.602 176.569 106.448 175.423 108.053C172.995 111.376 169.649 114.106 165.774 115.528C161.82 116.99 156.921 117.179 153.25 114.88C151.04 113.498 148.896 111.064 148.509 108.438C148.067 105.479 149.576 102.678 151.7 100.723C133.699 100.869 116.766 103.828 103.197 107.196C103.667 109.163 104.319 111.083 105.143 112.93C106.296 115.506 107.926 117.84 109.947 119.811C112.468 117.316 114.675 114.525 116.52 111.497C118.284 112.074 119.84 113.156 120.994 114.609C122.147 116.063 122.848 117.822 123.009 119.67V119.765C123.72 126.477 117.251 131.52 111.816 134.622C105.536 138.228 98.5361 140.929 91.6596 143.174C88.824 144.103 85.139 144.894 82.1455 143.925C81.8232 143.822 81.5087 143.697 81.2042 143.549C78.2194 142.087 76.2219 139.022 74.6634 136.221C70.2236 128.266 67.3363 119.593 65.379 110.691C51.7953 112.426 50.2398 103.237 49.4333 100.984L37.8126 133.435C37.2031 135.767 37.1373 138.209 37.6198 140.571C38.1025 142.933 39.1211 145.153 40.5971 147.06C42.0729 148.968 43.9671 150.512 46.1336 151.574C48.3005 152.635 50.682 153.187 53.0954 153.185H101.202L123.055 209.177L129.248 225.069H164.624C161.754 225.069 160.184 224.369 159.044 223.228C157.868 222.052 157.205 220.459 157.202 218.796C157.202 215.356 160.029 212.535 164.624 212.535H164.948C164.601 212.535 164.268 212.503 163.92 212.471C164.136 212.448 164.349 212.413 164.56 212.365C164.333 212.36 164.106 212.343 163.88 212.314C165.953 212.069 167.873 211.105 169.306 209.589C170.739 208.074 171.593 206.103 171.718 204.023C171.724 203.914 171.724 203.806 171.718 203.699V203.532C171.669 201.399 170.852 199.355 169.419 197.773C167.985 196.191 166.029 195.177 163.909 194.917C164.15 194.897 164.38 194.877 164.612 194.877C164.403 194.825 164.17 194.794 163.952 194.762C164.296 194.731 164.644 194.708 164.977 194.708L190.858 194.845L195.62 194.865H201.271C201.532 194.865 201.796 194.865 202.046 194.897L210.44 194.94L216.048 194.971C218.392 194.991 220.633 195.937 222.28 197.603C223.927 199.268 224.847 201.518 224.839 203.859C224.836 205.183 224.529 206.488 223.941 207.675C226.347 207.367 228.578 206.256 230.272 204.521C234.31 200.402 236.049 194.235 237.252 188.753C239.379 178.988 239.252 168.699 237.568 158.891ZM172.177 159.55C167.301 167.047 158.998 166.373 158.998 166.373C158.998 166.373 158.31 167.044 156.702 164.189C155.095 161.333 150.518 159.381 150.518 159.381C150.153 162.248 149.398 166.606 141.908 160.958C134.417 155.31 136.676 147.076 137.316 142.727C137.956 138.377 140.507 136.935 140.507 136.935L143.521 135.347C143.521 135.347 134.804 133.108 134.385 133.025C133.966 132.942 126.203 126.448 134.081 124.734C141.959 123.019 154.24 129.837 156.613 131.184C158.987 132.532 172.858 144.252 172.858 144.252C172.858 144.252 177.079 152.064 172.177 159.55Z" fill="#212121"/>
<path d="M65.3672 110.696C65.3672 110.696 71.9366 109.899 74.3962 105.215L72.2523 117.23C72.2523 117.23 98.3865 108.343 103.179 107.196C103.179 107.196 104.724 117.141 110.871 119.811L117.214 111.754C117.214 111.754 125.167 113.761 122.991 124.587C120.816 135.413 90.7265 144.461 85.6236 144.251C80.5208 144.042 75.0276 140.906 69.4024 124.051L65.3672 110.696Z" fill="#212121"/>
<path d="M76.069 83.9307C77.7336 86.6371 79.4068 89.3378 81.1346 92.0041C82.1993 93.6469 84.1394 95.9892 82.0759 97.7065C81.4043 98.2208 80.5933 98.5207 79.7483 98.5666C78.4224 98.6841 77.0305 98.3659 76.224 97.2277L72.206 90.5763C71.4053 89.2498 70.1336 88.2733 68.6446 87.8407C67.1554 87.4083 65.5579 87.5519 64.17 88.2426" stroke="#212121" stroke-width="1.96045" stroke-miterlimit="10"/>
<path d="M91.2661 92.6914C92.3165 95.1856 91.6048 96.794 90.3764 97.6025C88.3674 98.9184 85.6782 98.2877 84.2547 96.3668L76.0838 83.9442" stroke="#212121" stroke-width="1.96045" stroke-miterlimit="10"/>
<path d="M82.9865 80.318C85.9598 83.9304 89.7109 90.6391 91.7859 93.4401C93.8609 96.2412 97.0695 94.5525 97.0695 94.5525C99.6755 93.1506 99.2335 90.8255 98.0941 88.0015C95.2873 81.0691 91.2808 76.4591 86.8122 73.4373C72.9644 64.0795 58.7579 70.9831 54.5304 87.1357L37.8126 133.434C37.2031 135.767 37.1373 138.209 37.6198 140.571C38.1025 142.933 39.1211 145.153 40.5971 147.06C42.0729 148.968 43.9671 150.512 46.1336 151.573C48.3005 152.635 50.682 153.186 53.0954 153.185H101.202L129.257 225.072" stroke="#212121" stroke-width="1.96045" stroke-miterlimit="10"/>
<path d="M100.163 84.8223C103.607 83.6296 103.449 78.1422 98.5618 76.2902C93.1633 74.2431 83.5775 71.3475 81.1696 70.625C81.1547 70.6135 81.1366 70.6067 81.1179 70.6049C80.9486 70.5533 80.8309 70.5103 80.7391 70.4903L80.6042 70.4473" stroke="#212121" stroke-width="1.96045" stroke-miterlimit="10"/>
<path d="M151.048 139.687C148.035 136.069 139.786 134.019 134.402 133.027C133.497 132.857 132.672 132.398 132.051 131.719C131.43 131.04 131.046 130.178 130.958 129.262C130.896 128.645 130.967 128.021 131.168 127.433C131.489 126.531 132.104 125.763 132.914 125.251C133.724 124.74 134.683 124.515 135.636 124.612C144.82 125.541 154.291 128.428 161.297 134.647C161.297 134.647 195.258 160.535 199.313 163.055C200.986 164.07 202.548 162.872 201.414 161.278L201.058 160.67C199.062 157.248 196.699 154.053 194.012 151.14" stroke="#212121" stroke-width="1.96045" stroke-miterlimit="10"/>
<path d="M151.677 100.719C108.965 101.075 72.2522 117.227 72.2522 117.227L75.9172 96.7056" stroke="#212121" stroke-width="1.96045" stroke-miterlimit="10"/>
<path d="M218.014 212.408C218.014 212.408 213.362 211.356 212.125 215.077C210.888 218.798 209.596 224.718 218.49 225.068C227.385 225.418 222.161 223.672 221.647 220.796C221.134 217.921 218.014 212.408 218.014 212.408Z" fill="#212121"/>
<path d="M146.944 144.409C146.944 144.409 141.924 140.608 137.404 144.461C137.214 144.628 137.048 144.821 136.91 145.034" stroke="#212121" stroke-width="1.96045" stroke-miterlimit="10"/>
<g opacity="0.77">
<path opacity="0.77" d="M84.2376 96.3533C85.6726 98.277 88.3589 98.9049 90.3593 97.5861C91.5733 96.7833 92.2851 95.1836 91.2605 92.7122C91.447 92.9846 91.6164 93.2254 91.7828 93.4462C93.855 96.2587 97.0665 94.5643 97.0665 94.5643C99.6724 93.1624 99.2333 90.8372 98.094 88.0104C96.979 85.2105 95.5161 82.5617 93.7402 80.1262C94.9025 79.0396 96.283 77.9416 97.7381 78.4232C99.308 78.945 99.7471 80.9118 99.925 82.5517C100.008 83.3143 100.091 84.0683 100.175 84.8309L101.432 96.058C101.851 99.7851 102.27 103.567 103.18 107.205C103.65 109.172 104.301 111.091 105.125 112.939C106.279 115.514 107.909 117.849 109.93 119.819C112.451 117.325 114.658 114.533 116.502 111.505C118.267 112.082 119.823 113.165 120.976 114.618C122.13 116.071 122.831 117.831 122.991 119.679V119.774C123.703 126.485 117.234 131.528 111.798 134.63C105.519 138.237 98.5187 140.938 91.6422 143.182C88.8066 144.111 85.1215 144.903 82.1281 143.934C81.8058 143.831 81.4913 143.705 81.1868 143.558C78.202 142.096 76.2045 139.031 74.646 136.23C67.184 122.827 64.0844 107.437 62.4514 92.1962C65.7175 91.7461 68.9721 91.2443 72.1865 90.5534C72.1865 90.5534 72.1865 90.5763 72.2065 90.5849L75.9117 96.7231L76.2159 97.2335C77.0195 98.3802 78.4115 98.687 79.7403 98.5723C80.5852 98.5305 81.3969 98.2303 82.065 97.7122C84.1257 95.9921 82.1913 93.6583 81.1236 92.0156" fill="white"/>
<path opacity="0.77" d="M84.2376 96.3533C85.6726 98.277 88.3589 98.9049 90.3593 97.5861C91.5733 96.7833 92.2851 95.1836 91.2605 92.7122C91.447 92.9846 91.6164 93.2254 91.7828 93.4462C93.855 96.2587 97.0665 94.5643 97.0665 94.5643C99.6724 93.1624 99.2333 90.8372 98.094 88.0104C96.979 85.2105 95.5161 82.5617 93.7402 80.1262C94.9025 79.0396 96.283 77.9416 97.7381 78.4232C99.308 78.945 99.7471 80.9118 99.925 82.5517C100.008 83.3143 100.091 84.0683 100.175 84.8309L101.432 96.058C101.851 99.7851 102.27 103.567 103.18 107.205C103.65 109.172 104.301 111.091 105.125 112.939C106.279 115.514 107.909 117.849 109.93 119.819C112.451 117.325 114.658 114.533 116.502 111.505C118.267 112.082 119.823 113.165 120.976 114.618C122.13 116.071 122.831 117.831 122.991 119.679V119.774C123.703 126.485 117.234 131.528 111.798 134.63C105.519 138.237 98.5187 140.938 91.6422 143.182C88.8066 144.111 85.1215 144.903 82.1281 143.934C81.8058 143.831 81.4913 143.705 81.1868 143.558C78.202 142.096 76.2045 139.031 74.646 136.23C67.184 122.827 64.0844 107.437 62.4514 92.1962C65.7175 91.7461 68.9721 91.2443 72.1865 90.5534C72.1865 90.5534 72.1865 90.5763 72.2065 90.5849L75.9117 96.7231L76.2159 97.2335C77.0195 98.3802 78.4115 98.687 79.7403 98.5723C80.5852 98.5305 81.3969 98.2303 82.065 97.7122C84.1257 95.9921 82.1913 93.6583 81.1236 92.0156" fill="#7F1A22"/>
<path opacity="0.77" d="M85.1176 97.2626C86.389 98.9828 88.5616 98.7649 90.3582 97.5866C91.4431 96.8698 92.3328 97.0791 91.4173 94.8687C91.5866 95.1095 91.6096 94.2953 91.7588 94.4759C93.6099 96.9874 91.7818 93.4381 91.7818 93.4381C94.3648 96.6978 99.9871 93.6273 98.9568 91.1072C97.8662 88.3922 96.7182 84.3784 95.2631 82.3716C96.4111 81.2879 96.1901 81.4484 97.6509 82.3114C98.0432 82.5631 98.3718 82.9028 98.6103 83.3033C98.8491 83.7038 98.9912 84.1542 99.0256 84.6193C99.1433 85.7116 99.261 86.758 99.3786 87.8245L100.498 97.859C100.874 101.193 101.247 104.562 102.059 107.807C102.479 109.562 103.061 111.274 103.798 112.922C104.826 115.19 108.126 118.966 109.929 120.694C112.17 118.473 114.857 114.387 116.501 111.672C119.658 112.641 119.52 115.657 119.744 118.951V119.037C120.381 125.026 114.607 129.525 109.768 132.297C104.16 135.517 97.9121 137.925 91.7731 139.932C89.2418 140.763 85.9528 141.48 83.2808 140.603C82.9927 140.512 82.7114 140.399 82.4399 140.267C79.7765 138.96 77.9914 136.228 76.5995 133.725C70.5064 122.793 67.6795 110.382 66.124 97.9392C66.0097 97.008 66.262 96.0694 66.8274 95.3205C67.3928 94.5717 68.2271 94.0714 69.1547 93.9255C70.9025 93.6388 72.6446 93.3521 74.3752 92.9679L74.424 92.9908L77.7302 98.4696C78.4506 99.4874 78.5683 98.6904 79.7536 98.5872C80.5027 98.5212 81.9549 98.375 82.5346 97.8905C84.3743 96.3595 83.3353 95.7259 82.3825 94.2609" fill="#7F1A22"/>
</g>
<path d="M146.339 149.943C146.339 149.943 136.807 146.812 136.664 152.076" stroke="#212121" stroke-width="1.96045" stroke-miterlimit="10"/>
<path opacity="0.54" d="M61.022 203.563L42.3296 155.724C42.098 154.799 42.0808 153.832 42.2788 152.899C42.4772 151.966 42.8858 151.09 43.4736 150.338C44.0617 149.586 44.8133 148.977 45.672 148.559C46.5305 148.141 47.4733 147.923 48.4284 147.923H122.675C124.342 147.923 125.961 148.484 127.271 149.514C128.58 150.545 129.504 151.986 129.893 153.606L150.356 201.433C150.578 202.355 150.587 203.316 150.383 204.242C150.179 205.169 149.768 206.037 149.179 206.782C148.591 207.527 147.842 208.129 146.988 208.544C146.133 208.958 145.196 209.173 144.246 209.173H68.2228C66.5679 209.174 64.9605 208.623 63.6558 207.606C62.351 206.589 61.424 205.166 61.022 203.563Z" fill="white"/>
<path d="M149.441 158.012C149.441 158.012 150.988 159.429 150.4 161.453C149.963 162.952 148.471 163.898 146.993 163.385C142.286 161.759 138.047 158.999 137.014 154.305C136.526 151.929 136.42 149.49 136.701 147.081C136.928 144.847 137.258 142.436 138.01 140.312C139.158 137.049 142.674 134.776 146.086 136.347" stroke="#212121" stroke-width="1.96045" stroke-miterlimit="10"/>
<path d="M61.022 203.563L42.3296 155.724C42.098 154.799 42.0808 153.832 42.2788 152.899C42.4772 151.966 42.8858 151.09 43.4736 150.338C44.0617 149.586 44.8133 148.977 45.672 148.559C46.5305 148.141 47.4733 147.923 48.4284 147.923H122.675C124.342 147.923 125.961 148.484 127.271 149.514C128.58 150.545 129.504 151.986 129.893 153.606L150.356 201.433C150.578 202.355 150.587 203.316 150.383 204.242C150.179 205.169 149.768 206.037 149.179 206.782C148.591 207.527 147.842 208.129 146.988 208.544C146.133 208.958 145.196 209.173 144.246 209.173H68.2228C66.5679 209.174 64.9605 208.623 63.6558 207.606C62.351 206.589 61.424 205.166 61.022 203.563Z" fill="#7F1A22"/>
<path d="M61.022 203.563L42.3296 155.724C42.098 154.799 42.0808 153.832 42.2788 152.899C42.4772 151.966 42.8858 151.09 43.4736 150.338C44.0617 149.586 44.8133 148.977 45.672 148.559C46.5305 148.141 47.4733 147.923 48.4284 147.923H122.675C124.342 147.923 125.961 148.484 127.271 149.514C128.58 150.545 129.504 151.986 129.893 153.606L150.356 201.433C150.578 202.355 150.587 203.316 150.383 204.242C150.179 205.169 149.768 206.037 149.179 206.782C148.591 207.527 147.842 208.129 146.988 208.544C146.133 208.958 145.196 209.173 144.246 209.173H68.2228C66.5679 209.174 64.9605 208.623 63.6558 207.606C62.351 206.589 61.424 205.166 61.022 203.563Z" stroke="#212121" stroke-width="1.96045" stroke-linecap="square" stroke-linejoin="round"/>
<path d="M63.757 201.636L46.5112 157.485C46.2979 156.631 46.2824 155.739 46.4655 154.878C46.6486 154.017 47.0258 153.209 47.5685 152.516C48.1109 151.822 48.8046 151.261 49.5964 150.875C50.3885 150.489 51.2581 150.289 52.1392 150.289H120.635C122.172 150.288 123.666 150.805 124.874 151.756C126.082 152.706 126.934 154.036 127.293 155.529L146.175 199.655C146.379 200.507 146.387 201.393 146.198 202.248C146.01 203.103 145.63 203.904 145.087 204.591C144.545 205.278 143.853 205.834 143.065 206.216C142.276 206.598 141.411 206.797 140.535 206.797H70.3982C68.8739 206.798 67.393 206.291 66.1902 205.356C64.9871 204.421 64.131 203.112 63.757 201.636Z" fill="#7F1A22"/>
<path d="M210.348 194.71L223.481 225.068" stroke="#212121" stroke-width="1.96045" stroke-miterlimit="10"/>
<path d="M396 224.92L-109 225.218" stroke="#212121" stroke-width="1.96045" stroke-miterlimit="10"/>
<path d="M150.494 88.0497C148.365 90.1512 145.185 90.1483 143.374 88.2045" stroke="#212121" stroke-width="1.96045" stroke-miterlimit="10"/>
<path d="M93.7402 80.1169C94.9026 79.0303 96.283 77.9322 97.7381 78.4139C99.308 78.9357 99.7471 80.9024 99.9251 82.5423C100.428 87.0492 100.93 91.5515 101.432 96.0489C102.069 101.783 102.741 107.654 105.125 112.924C106.279 115.499 107.909 117.834 109.93 119.804" stroke="#212121" stroke-width="1.96045" stroke-miterlimit="10"/>
<path d="M122.991 119.77V119.676C122.83 117.828 122.13 116.068 120.976 114.614C119.822 113.161 118.266 112.079 116.502 111.502C114.657 114.53 112.45 117.322 109.93 119.816C103.321 126.38 94.831 130.728 85.6378 132.256C86.0798 134.013 86.9896 135.613 87.6181 137.305C88.2467 138.996 88.5595 140.954 87.7961 142.585C86.8318 144.667 84.0651 144.395 82.1422 143.933C82.1221 143.933 82.1106 143.933 82.0905 143.933" stroke="#212121" stroke-width="1.96045" stroke-miterlimit="10"/>
<path d="M72.1922 90.5503C68.9778 91.2412 65.7232 91.7429 62.4572 92.193C64.0902 107.434 67.1783 122.824 74.6518 136.227C76.2102 139.028 78.2077 142.093 81.1925 143.555C81.497 143.703 81.8116 143.828 82.1339 143.93C85.1273 144.914 88.8124 144.108 91.6479 143.179C98.5359 140.932 105.524 138.234 111.804 134.627C117.225 131.522 123.694 126.482 122.997 119.77C122.929 119.031 122.778 118.302 122.546 117.597" stroke="#212121" stroke-width="1.96045" stroke-miterlimit="10"/>
<path d="M125.941 60.1481C126.423 62.1544 127.522 63.9588 129.085 65.3075C130.648 66.6564 132.595 67.4809 134.652 67.6653C134.823 66.8379 135.193 66.0641 135.731 65.4121C138.027 62.7086 139.006 67.7802 146.35 64.1392C156.527 59.0818 160.39 61.9832 160.39 61.9832C160.729 62.2355 160.677 64.5632 160.734 64.9875C161.021 67.4044 161.28 69.8098 161.564 72.2238C161.736 73.6974 161.905 75.1598 162.066 76.622C162.205 76.3731 162.358 76.1326 162.525 75.9021C163.452 72.6251 165.108 68.755 168.678 70.4207C169.401 70.7728 170.031 71.2903 170.515 71.9313C172.883 75.0391 171.089 78.0409 168.612 80.2628C167.992 80.9523 167.298 81.5721 166.543 82.1122C166.951 82.9551 168.615 86.3009 168.615 86.3124C168.788 86.6507 174.605 80.0735 175.038 79.3568C175.686 77.6011 176.033 75.749 176.066 73.8783C176.161 66.1862 173.027 57.2324 166.79 52.8201C165.243 51.7278 165.737 50.6756 165.642 49.1905C165.635 49.1102 165.605 49.034 165.554 48.9715C165.503 48.909 165.434 48.8634 165.357 48.8407C165.279 48.8181 165.197 48.8195 165.12 48.8445C165.044 48.8697 164.976 48.9173 164.927 48.9815C162.973 51.2292 158.134 51.0056 158.134 51.0056C141.339 46.8026 135.694 54.2625 132.304 55.5927C130.921 56.116 129.399 56.1412 127.999 55.6644C127.917 56.1271 127.709 56.5586 127.399 56.9124C127.089 57.2662 126.688 57.5285 126.24 57.6713L126.326 58.448C126.399 59.0423 126.263 59.6432 125.941 60.1481Z" fill="#7F1A22"/>
<path d="M134.663 67.6778C132.606 67.4932 130.659 66.6686 129.097 65.32C127.534 63.9714 126.434 62.1666 125.953 60.1606C125.764 59.3911 125.645 58.6061 125.597 57.8154L125.729 57.8011C125.909 57.7876 126.087 57.7489 126.257 57.6864C126.706 57.5436 127.106 57.2813 127.417 56.9275C127.726 56.574 127.934 56.1422 128.016 55.6795C128.069 55.4229 128.079 55.1594 128.048 54.8997L127.617 51.1038C127.617 51.1038 130.654 53.3601 134.023 52.0413C137.393 50.7225 143.049 43.2626 159.853 47.4542C159.853 47.4542 163.647 47.6778 165.593 45.4301C165.642 45.3659 165.709 45.3183 165.786 45.2933C165.863 45.2681 165.945 45.2669 166.023 45.2896C166.1 45.3122 166.169 45.3578 166.219 45.42C166.271 45.4825 166.301 45.5591 166.308 45.6394C166.408 47.1273 166.959 48.1795 168.509 49.269C174.746 53.6841 177.88 62.6348 177.782 70.3269C177.753 73.5178 176.692 76.6686 175.053 79.3722C174.619 80.0889 168.802 86.6658 168.63 86.3275C168.63 86.3275 166.965 82.9702 166.558 82.1273L166.46 81.941L166.647 81.8177C167.339 81.3478 168.001 80.8335 168.627 80.2781C171.101 78.0562 172.897 75.0545 170.53 71.9467C170.045 71.3057 169.416 70.7879 168.693 70.4358C165.111 68.7701 163.467 72.6405 162.54 75.9175C162.36 76.5436 162.249 77.1878 162.21 77.8383C162.166 77.437 162.123 77.0499 162.08 76.6485C161.92 75.1864 161.75 73.7242 161.578 72.2506C161.291 69.8366 161.021 67.4312 160.749 65.0144C160.706 64.6015 160.749 62.2621 160.404 62.0098C160.404 62.0098 156.538 59.1084 146.364 64.1658C139.02 67.8068 138.041 62.7323 135.745 65.4387C135.207 66.0909 134.837 66.8644 134.666 67.6921C134.614 67.9579 134.58 68.2271 134.566 68.4977C134.56 68.5327 134.56 68.5686 134.566 68.6038C134.531 69.1973 134.52 69.7879 134.505 70.367C134.451 75.9547 135.065 81.7919 137.261 86.9811C139.93 93.2713 146.993 99.4754 154.337 96.5425C156.633 95.6222 158.691 94.14 160.574 92.566" stroke="#212121" stroke-width="1.96045" stroke-miterlimit="10"/>
<path d="M139.689 81.3057C140.42 81.0615 140.772 80.1478 140.476 79.265C140.181 78.382 139.349 77.8642 138.618 78.1085C137.888 78.3525 137.535 79.2662 137.831 80.1492C138.127 81.0322 138.959 81.55 139.689 81.3057Z" fill="#212121"/>
<path d="M150.617 80.9561C151.348 80.7121 151.7 79.7984 151.405 78.9154C151.109 78.0323 150.277 77.5146 149.546 77.7588C148.816 78.0031 148.464 78.9168 148.759 79.7995C149.055 80.6826 149.887 81.2003 150.617 80.9561Z" fill="#212121"/>
<path d="M146.439 82.847C146.439 82.847 142.803 84.9083 142.582 82.7696C142.513 82.1102 141.623 75.6509 141.623 75.6509C141.623 75.6509 138.684 72.5402 134.181 74.8395" stroke="#212121" stroke-width="1.96045" stroke-miterlimit="10"/>
<path d="M145.621 73.8409C145.621 73.8409 151.493 70.9109 155.379 75.134" stroke="#212121" stroke-width="1.96045" stroke-miterlimit="10"/>
<path d="M151.005 97.2619L151.679 100.719C149.553 102.678 148.049 105.484 148.488 108.44C148.878 111.061 151.025 113.5 153.226 114.874C156.906 117.167 161.799 116.987 165.76 115.527C169.631 114.094 172.98 111.373 175.408 108.053C176.552 106.448 177.314 104.604 177.636 102.66V102.626" stroke="#212121" stroke-width="1.96045" stroke-miterlimit="10"/>
<path d="M151.679 100.719L152.994 106.963" stroke="#212121" stroke-width="1.96045" stroke-miterlimit="10"/>
<path d="M170.268 84.8222L172.254 97.9959C172.45 99.2855 173.103 100.462 174.093 101.312C175.084 102.161 176.347 102.628 177.653 102.626C183.834 103.627 189.931 105.087 195.895 106.995C219.19 114.501 233.529 135.464 237.578 158.888C239.263 168.695 239.389 178.982 237.274 188.736C236.072 194.226 234.332 200.393 230.294 204.504C225.051 209.865 217.003 207.658 210.807 205.235C191.57 197.761 175.569 184.464 161.753 169.24C154.366 161.098 144.82 154.573 144.82 154.573" stroke="#212121" stroke-width="1.96045" stroke-miterlimit="10"/>
<path d="M70.1143 191.755C67.956 191.735 66.0762 189.995 65.5912 187.572C64.6326 182.807 64.38 175.439 71.3742 173.831C80.1134 171.824 86.8349 181.331 90.1297 187.34C91.2375 189.347 89.9833 191.927 87.9198 191.927L70.1143 191.755Z" fill="#E0B5A4"/>
<path d="M72.9993 169.784C74.8544 168.551 74.8831 165.336 73.0627 162.604C71.2425 159.871 68.2629 158.655 66.4074 159.889C64.552 161.122 64.5236 164.337 66.3437 167.069C68.1642 169.802 71.1438 171.018 72.9993 169.784Z" fill="#E0B5A4"/>
<path d="M216.619 212.565C216.484 212.585 216.332 212.605 216.2 212.637H216.148L195.734 212.531L165.103 212.373C164.985 212.373 164.87 212.373 164.755 212.373C164.528 212.368 164.301 212.35 164.075 212.321C166.15 212.081 168.074 211.116 169.508 209.598C170.942 208.08 171.793 206.105 171.913 204.022C171.919 203.914 171.919 203.806 171.913 203.698V203.531C171.905 201.493 171.194 199.519 169.899 197.942C168.605 196.366 166.807 195.283 164.807 194.876C164.598 194.824 164.368 194.793 164.147 194.761C164.494 194.73 164.839 194.707 165.174 194.707L191.053 194.844L195.817 194.864L202.243 194.896C204.443 195.097 206.49 196.11 207.982 197.738C209.474 199.365 210.304 201.491 210.311 203.698C210.311 204.114 210.28 204.53 210.216 204.942C209.91 207.043 208.86 208.965 207.255 210.357C205.651 211.75 203.6 212.521 201.474 212.531H217.024C216.128 212.531 216.378 212.531 216.619 212.565Z" fill="white"/>
<path d="M175.211 223.229C175.794 223.814 176.488 224.279 177.252 224.595C178.016 224.911 178.835 225.072 179.662 225.069H164.629C161.759 225.069 160.192 224.37 159.05 223.229C157.876 222.051 157.215 220.458 157.21 218.796C157.21 215.356 160.034 212.535 164.629 212.535H179.662C178.421 212.533 177.207 212.899 176.175 213.587C175.142 214.275 174.337 215.253 173.862 216.399C173.387 217.544 173.263 218.805 173.505 220.02C173.748 221.236 174.347 222.353 175.225 223.229H175.211Z" fill="#E0B5A4"/>
<path d="M224.859 203.855C224.855 205.18 224.547 206.485 223.958 207.671C223.537 208.568 222.96 209.383 222.253 210.077C221.088 211.23 219.624 212.037 218.026 212.408C217.367 212.56 216.693 212.637 216.017 212.637C216.154 212.605 216.304 212.585 216.436 212.565C216.195 212.542 215.945 212.534 216.843 212.534H201.291C203.418 212.526 205.471 211.755 207.076 210.361C208.682 208.968 209.733 207.045 210.038 204.942C210.102 204.53 210.133 204.114 210.133 203.698C210.127 201.49 209.296 199.365 207.803 197.737C206.31 196.109 204.263 195.096 202.063 194.896L210.457 194.939L216.065 194.971C218.409 194.99 220.649 195.936 222.297 197.601C223.945 199.266 224.866 201.514 224.859 203.855Z" fill="#7F1A22"/>
<path d="M224.859 203.853C224.841 206.195 223.895 208.435 222.228 210.082C220.56 211.729 218.307 212.649 215.962 212.64L164.899 212.376C164.557 212.376 164.216 212.35 163.871 212.316C166.024 212.072 168.012 211.049 169.459 209.438C170.906 207.828 171.712 205.743 171.723 203.579C171.734 201.416 170.951 199.323 169.521 197.698C168.09 196.072 166.113 195.028 163.963 194.762C164.304 194.726 164.647 194.708 164.991 194.71L216.054 194.974C218.398 194.99 220.641 195.933 222.291 197.597C223.942 199.261 224.865 201.51 224.859 203.853Z" stroke="#212121" stroke-width="1.96045" stroke-linecap="square" stroke-linejoin="round"/>
<path d="M210.127 203.695C210.123 206.037 209.189 208.282 207.531 209.937C205.874 211.594 203.626 212.526 201.282 212.531H164.951C164.607 212.529 164.264 212.509 163.923 212.473C166.074 212.218 168.056 211.184 169.495 209.566C170.934 207.948 171.728 205.86 171.728 203.696C171.728 201.532 170.934 199.444 169.495 197.826C168.056 196.208 166.074 195.174 163.923 194.919C164.265 194.887 164.609 194.864 164.951 194.864H201.282C203.625 194.87 205.871 195.802 207.529 197.456C209.186 199.111 210.12 201.354 210.127 203.695Z" stroke="#212121" stroke-width="1.96045" stroke-linecap="square" stroke-linejoin="round"/>
<path d="M157.21 218.798C157.21 219.62 157.372 220.434 157.687 221.194C158.002 221.954 158.464 222.644 159.047 223.225C160.195 224.371 161.753 225.068 164.626 225.068H216.84C215.942 225.068 216.186 225.051 216.43 225.028C214.902 224.848 213.493 224.115 212.471 222.966C211.449 221.818 210.884 220.335 210.884 218.798C210.884 217.261 211.449 215.778 212.471 214.63C213.493 213.481 214.902 212.748 216.43 212.568C216.186 212.545 215.942 212.528 216.84 212.528H164.626C160.028 212.531 157.21 215.352 157.21 218.798Z" stroke="#212121" stroke-width="1.96045" stroke-linecap="square" stroke-linejoin="round"/>
<path d="M173.368 218.798C173.372 220.46 174.034 222.053 175.21 223.227C176.387 224.403 177.981 225.064 179.644 225.068H215.7C215.941 225.068 216.185 225.051 216.429 225.028C214.902 224.848 213.493 224.115 212.471 222.966C211.448 221.818 210.884 220.335 210.884 218.798C210.884 217.261 211.448 215.778 212.471 214.63C213.493 213.481 214.902 212.748 216.429 212.568C216.185 212.545 215.941 212.528 215.7 212.528H179.644C177.981 212.533 176.387 213.195 175.211 214.369C174.035 215.544 173.372 217.137 173.368 218.798Z" stroke="#212121" stroke-width="1.96045" stroke-linecap="square" stroke-linejoin="round"/>
<path d="M114.921 170.96H98.8141C98.0771 170.959 97.3565 170.743 96.74 170.34C96.1235 169.937 95.6376 169.364 95.3415 168.689C95.2272 168.439 95.1781 168.163 95.1994 167.888C95.2203 167.613 95.3107 167.348 95.462 167.117C95.6132 166.887 95.8204 166.698 96.0644 166.569C96.3083 166.44 96.5807 166.374 96.8568 166.379H113.979C113.173 167.735 113.583 169.618 114.921 170.96Z" fill="#E0B5A4"/>
<path d="M125.336 169.303C125.335 169.741 125.16 170.161 124.85 170.471C124.539 170.782 124.119 170.956 123.68 170.957H114.92C113.583 169.618 113.173 167.734 113.979 166.37H121.714C122.45 166.37 123.17 166.583 123.787 166.984C124.404 167.385 124.891 167.957 125.189 168.629C125.282 168.842 125.332 169.071 125.336 169.303Z" fill="#7F1A22"/>
<path d="M121.306 170.96C121.261 171.047 121.208 171.131 121.148 171.209C120 172.777 117.506 172.929 115.569 171.513C115.34 171.344 115.123 171.159 114.92 170.96C113.583 169.621 113.173 167.737 113.979 166.372C114.024 166.285 114.077 166.202 114.137 166.123C115.285 164.543 117.767 164.403 119.705 165.808C119.938 165.982 120.158 166.174 120.362 166.381C121.688 167.714 122.101 169.586 121.306 170.96Z" fill="white"/>
<path d="M129.385 179.403C129.382 179.842 129.206 180.262 128.894 180.572C128.582 180.881 128.16 181.055 127.721 181.055H110.819C111.634 179.684 111.227 177.815 109.886 176.468H125.763C126.501 176.468 127.222 176.682 127.839 177.085C128.456 177.488 128.942 178.061 129.239 178.735C129.334 178.945 129.383 179.173 129.385 179.403Z" fill="#7F1A22"/>
<path d="M110.819 181.054H102.866C102.13 181.055 101.409 180.841 100.792 180.44C100.175 180.039 99.6883 179.468 99.3907 178.795C99.2968 178.585 99.2472 178.357 99.2443 178.127C99.244 177.91 99.2865 177.695 99.3695 177.495C99.4524 177.294 99.5741 177.112 99.7276 176.958C99.8812 176.805 100.064 176.683 100.264 176.601C100.465 176.518 100.68 176.475 100.897 176.476H109.886C111.227 177.814 111.643 179.684 110.819 181.054Z" fill="#E0B5A4"/>
<path d="M110.82 181.054C110.782 181.145 110.733 181.229 110.673 181.307C109.525 182.884 107.04 183.027 105.105 181.619C104.871 181.445 104.651 181.253 104.445 181.046C103.117 179.707 102.709 177.838 103.504 176.459C103.55 176.37 103.603 176.286 103.662 176.206C104.81 174.638 107.304 174.486 109.238 175.905C109.469 176.073 109.685 176.257 109.887 176.459C111.227 177.815 111.643 179.684 110.82 181.054Z" fill="white"/>
<path d="M116.45 191.081H106.331C105.595 191.08 104.875 190.866 104.258 190.465C103.641 190.064 103.154 189.493 102.855 188.821C102.741 188.57 102.693 188.293 102.714 188.018C102.735 187.743 102.826 187.477 102.977 187.246C103.129 187.015 103.336 186.825 103.58 186.695C103.824 186.565 104.097 186.499 104.373 186.502H115.509C114.711 187.875 115.121 189.742 116.45 191.081Z" fill="#7F1A22"/>
<path d="M132.85 189.44C132.847 189.877 132.672 190.294 132.362 190.602C132.052 190.909 131.633 191.081 131.197 191.08H116.45C115.122 189.741 114.711 187.872 115.509 186.493H129.228C129.965 186.493 130.686 186.708 131.303 187.11C131.92 187.513 132.407 188.087 132.703 188.761C132.798 188.975 132.848 189.206 132.85 189.44Z" fill="#E0B5A4"/>
<path d="M122.836 191.081C122.79 191.169 122.737 191.253 122.678 191.333C121.53 192.91 119.047 193.054 117.11 191.646C116.877 191.471 116.658 191.279 116.453 191.072C115.124 189.734 114.714 187.864 115.512 186.485C115.556 186.397 115.607 186.312 115.667 186.233C116.815 184.665 119.309 184.53 121.246 185.932C121.476 186.099 121.693 186.284 121.894 186.485C123.232 187.841 123.639 189.722 122.836 191.081Z" fill="white"/>
<path d="M46.3821 99.6787L46.6346 99.7503L46.5399 100.117C46.4799 99.974 46.4271 99.8275 46.3821 99.6787Z" fill="#212121"/>
<path d="M91.2964 122.616C95.0745 121.508 97.0594 116.943 95.7303 112.42C94.4012 107.898 90.2612 105.129 86.4834 106.237C82.7054 107.345 80.7205 111.909 82.0496 116.432C83.3787 120.955 87.5186 123.724 91.2964 122.616Z" fill="#E0B5A4"/>
</svg>
