<svg width="22" height="28" viewBox="0 0 22 28" fill="none" xmlns="http://www.w3.org/2000/svg">
    <path d="M13.6666 0.666702H2.99998C1.53331 0.666702 0.346647 1.8667 0.346647 3.33337L0.333313 24.6667C0.333313 26.1334 1.51998 27.3334 2.98665 27.3334H19C20.4666 27.3334 21.6666 26.1334 21.6666 24.6667V8.6667L13.6666 0.666702ZM2.99998 3.33337H12.3333L19 10V21.44L16.5466 18.9867C18.2533 16.4 17.9733 12.8934 15.6933 10.6134C14.4 9.32004 12.7066 8.6667 11 8.6667C9.29331 8.6667 7.59998 9.32004 6.29331 10.6134C3.69331 13.2134 3.69331 17.4267 6.29331 20.0134C7.58665 21.3067 9.29331 21.96 11 21.96C12.28 21.96 13.56 21.5867 14.6666 20.8534L18.4666 24.6667H2.99998V3.33337ZM13.8133 18.1334C13.0666 18.88 12.0666 19.3067 11 19.3067C9.93331 19.3067 8.93331 18.8934 8.18665 18.1334C7.43998 17.3867 7.01331 16.3867 7.01331 15.32C7.01331 14.2534 7.42665 13.2534 8.18665 12.5067C8.93331 11.7467 9.93331 11.3334 11 11.3334C12.0666 11.3334 13.0666 11.7467 13.8133 12.5067C14.56 13.2534 14.9866 14.2534 14.9866 15.32C14.9866 16.3867 14.5733 17.3867 13.8133 18.1334Z" fill="#7F1A22"/>
</svg>
