<svg width="24" height="24" viewBox="0 0 24 24" fill="none" xmlns="http://www.w3.org/2000/svg">
    <path d="M14.8933 2.66667L21.3333 9.10667V21.3333H2.66667V2.66667H14.8933ZM14.8933 0H2.66667C1.2 0 0 1.2 0 2.66667V21.3333C0 22.8 1.2 24 2.66667 24H21.3333C22.8 24 24 22.8 24 21.3333V9.10667C24 8.4 23.72 7.72 23.2133 7.22667L16.7733 0.786667C16.28 0.28 15.6 0 14.8933 0ZM5.33333 16H18.6667V18.6667H5.33333V16ZM5.33333 10.6667H18.6667V13.3333H5.33333V10.6667ZM5.33333 5.33333H14.6667V8H5.33333V5.33333Z" fill="#7F1A22"/>
</svg>
