<svg width="65" height="64" viewBox="0 0 65 64" fill="none" xmlns="http://www.w3.org/2000/svg">
<path d="M56.2197 54.1801H9.38969C8.72142 54.1801 8.17969 54.7218 8.17969 55.3901V59.5201C8.17969 60.1883 8.72142 60.7301 9.38969 60.7301H56.2197C56.888 60.7301 57.4297 60.1883 57.4297 59.5201V55.3901C57.4297 54.7218 56.888 54.1801 56.2197 54.1801Z" fill="#B65F22"/>
<path d="M14.2595 48.28H51.3595C52.3063 48.28 53.2143 48.6562 53.8838 49.3257C54.5533 49.9952 54.9295 50.9032 54.9295 51.85V53.85H10.6895V51.85C10.6895 50.9032 11.0656 49.9952 11.7351 49.3257C12.4046 48.6562 13.3126 48.28 14.2595 48.28Z" fill="#686FB3"/>
<path d="M15.5195 39.48H49.9095V39.78C49.9095 40.8408 49.4881 41.8583 48.738 42.6084C47.9878 43.3586 46.9704 43.78 45.9095 43.78H19.5495C18.4887 43.78 17.4712 43.3586 16.7211 42.6084C15.971 41.8583 15.5495 40.8408 15.5495 39.78V39.48H15.5195Z" fill="#686FB3"/>
<path d="M51.7904 32.1801H13.6504V39.4801H51.7904V32.1801Z" fill="#F5A463"/>
<path d="M38.8597 36.01H27.1797" stroke="#1D1D1B" stroke-width="2" stroke-linecap="round" stroke-linejoin="round"/>
<path d="M47.7694 36.02H45.8594" stroke="#1D1D1B" stroke-width="2" stroke-linecap="round" stroke-linejoin="round"/>
<path d="M19.5799 36.01H17.6699" stroke="#1D1D1B" stroke-width="2" stroke-linecap="round" stroke-linejoin="round"/>
<path d="M27.4287 28.53H37.9988C38.4549 28.53 38.8924 28.7112 39.215 29.0338C39.5375 29.3564 39.7187 29.7939 39.7187 30.25V32.19H25.7188V30.24C25.7214 29.7873 25.9024 29.3539 26.2225 29.0338C26.5426 28.7137 26.976 28.5327 27.4287 28.53Z" fill="#F5A463"/>
<path d="M40.7899 11.29C40.7901 12.1826 40.6379 13.0687 40.3399 13.91L39.3399 15.91C38.8905 16.7845 38.5223 17.6983 38.2399 18.64H27.2399C26.9276 17.5693 26.5053 16.5338 25.9799 15.55L25.1099 13.92C24.7234 12.8171 24.5868 11.6422 24.7099 10.48C24.941 8.48247 25.8997 6.64002 27.4031 5.30453C28.9064 3.96903 30.849 3.23408 32.8599 3.24003C34.9732 3.27411 36.9886 4.13695 38.4718 5.64265C39.9551 7.14836 40.7875 9.17645 40.7899 11.29Z" fill="#F5A463"/>
<path d="M37.5998 24.86L37.9098 28.53H27.5998L27.8998 24.53C28.0538 22.5275 27.8368 20.5137 27.2598 18.59H38.2598C37.6353 20.6174 37.4112 22.7469 37.5998 24.86Z" fill="#F5A463"/>
<g style="mix-blend-mode:multiply" opacity="0.25">
<path d="M12.7497 59.5101V55.3801C12.7523 55.0609 12.881 54.7557 13.1076 54.5309C13.3342 54.3061 13.6405 54.18 13.9597 54.1801H9.38969C9.0705 54.18 8.76424 54.3061 8.5376 54.5309C8.31097 54.7557 8.18233 55.0609 8.17969 55.3801V59.5101C8.17969 59.831 8.30717 60.1387 8.53409 60.3657C8.76101 60.5926 9.06878 60.7201 9.38969 60.7201H13.9597C13.8008 60.7201 13.6434 60.6888 13.4966 60.6279C13.3498 60.5671 13.2164 60.478 13.1041 60.3657C12.9917 60.2533 12.9026 60.1199 12.8418 59.9731C12.781 59.8263 12.7497 59.669 12.7497 59.5101Z" fill="#1D1D1B"/>
<path d="M18.8295 48.28H14.2595C13.3126 48.28 12.4046 48.6562 11.7351 49.3257C11.0656 49.9952 10.6895 50.9032 10.6895 51.85V53.85H15.2595V51.85C15.2595 50.9032 15.6356 49.9952 16.3051 49.3257C16.9746 48.6562 17.8826 48.28 18.8295 48.28Z" fill="#1D1D1B"/>
<path d="M25.9606 15.54C27.4353 18.2989 28.0943 21.4205 27.8606 24.54L27.5606 28.54H27.4306C27.2057 28.5387 26.9827 28.582 26.7747 28.6675C26.5666 28.753 26.3776 28.8789 26.2185 29.0379C26.0595 29.197 25.9336 29.386 25.8481 29.5941C25.7626 29.8021 25.7193 30.0251 25.7206 30.25V32.19H29.0806V30.24C29.0806 30.0146 29.1252 29.7914 29.2117 29.5833C29.2983 29.3752 29.4252 29.1862 29.585 29.0273C29.7449 28.8684 29.9345 28.7427 30.1432 28.6573C30.3518 28.572 30.5752 28.5287 30.8006 28.53H30.9306L31.2306 24.53C31.4643 21.4105 30.8053 18.2889 29.3306 15.53L28.4606 13.9C28.0737 12.7938 27.9371 11.6155 28.0606 10.45C28.2708 8.76717 28.9971 7.19071 30.1395 5.93728C31.2819 4.68385 32.7844 3.81497 34.4406 3.45002C33.9154 3.33084 33.3791 3.26716 32.8406 3.26002C30.8304 3.25627 28.889 3.99199 27.3861 5.32707C25.8832 6.66215 24.9238 8.50334 24.6906 10.5C24.5671 11.6655 24.7037 12.8438 25.0906 13.95L25.9606 15.54Z" fill="#1D1D1B"/>
<path d="M18.8904 39.7801V39.4801H17.0104V32.1801H13.6504V39.4801H15.5204V39.7801C15.5204 40.8409 15.9418 41.8583 16.692 42.6085C17.4421 43.3586 18.4595 43.7801 19.5204 43.7801H22.8804C21.8213 43.7774 20.8064 43.3548 20.0584 42.6049C19.3104 41.8551 18.8904 40.8392 18.8904 39.7801Z" fill="#1D1D1B"/>
</g>
<g style="mix-blend-mode:overlay">
<path d="M56.2207 54.1801H51.2207C51.5399 54.18 51.8462 54.3061 52.0728 54.5309C52.2994 54.7557 52.4281 55.0609 52.4307 55.3801V59.5101C52.4307 59.831 52.3032 60.1387 52.0763 60.3657C51.8494 60.5926 51.5416 60.7201 51.2207 60.7201H56.2207C56.5416 60.7201 56.8494 60.5926 57.0763 60.3657C57.3032 60.1387 57.4307 59.831 57.4307 59.5101V55.3801C57.4281 55.0609 57.2994 54.7557 57.0728 54.5309C56.8462 54.3061 56.5399 54.18 56.2207 54.1801Z" fill="white"/>
<path d="M51.3594 48.28H46.3594C47.3062 48.28 48.2142 48.6562 48.8837 49.3257C49.5533 49.9952 49.9294 50.9032 49.9294 51.85V53.85H54.9294V51.85C54.9294 50.9032 54.5533 49.9952 53.8837 49.3257C53.2142 48.6562 52.3062 48.28 51.3594 48.28Z" fill="white"/>
<path d="M48.1398 32.1801V39.4801H46.2598V39.7801C46.2598 40.8409 45.8383 41.8583 45.0882 42.6085C44.338 43.3586 43.3206 43.7801 42.2598 43.7801H45.9098C46.9706 43.7801 47.988 43.3586 48.7382 42.6085C49.4883 41.8583 49.9098 40.8409 49.9098 39.7801V39.4801H51.7898V32.1801H48.1398Z" fill="white"/>
<path d="M40.3402 13.91C40.6382 13.0687 40.7904 12.1826 40.7902 11.29C40.7904 9.17035 39.9567 7.1357 38.4691 5.62568C36.9815 4.11566 34.9596 3.25154 32.8402 3.22002C32.2756 3.21509 31.7123 3.2721 31.1602 3.39002C32.2829 3.62049 33.3436 4.08777 34.2714 4.76067C35.1993 5.43358 35.9729 6.29664 36.5408 7.29225C37.1086 8.28787 37.4576 9.39314 37.5644 10.5343C37.6712 11.6755 37.5334 12.8263 37.1602 13.91L36.1602 15.91C34.7345 18.6835 34.121 21.8032 34.3902 24.91L34.7102 28.59H34.8402C35.2921 28.5765 35.7309 28.7425 36.0607 29.0518C36.3905 29.361 36.5845 29.7882 36.6002 30.24V32.18H39.7702V30.24C39.7702 30.0146 39.7256 29.7914 39.639 29.5833C39.5525 29.3752 39.4256 29.1862 39.2658 29.0273C39.1059 28.8684 38.9162 28.7426 38.7076 28.6573C38.499 28.572 38.2756 28.5287 38.0502 28.53H37.9202L37.6002 24.85C37.3224 21.7439 37.9328 18.6227 39.3602 15.85L40.3402 13.91Z" fill="white"/>
</g>
<path d="M56.2197 54.1799H9.38969C8.72142 54.1799 8.17969 54.7217 8.17969 55.3899V59.5199C8.17969 60.1882 8.72142 60.7299 9.38969 60.7299H56.2197C56.888 60.7299 57.4297 60.1882 57.4297 59.5199V55.3899C57.4297 54.7217 56.888 54.1799 56.2197 54.1799Z" stroke="#1D1D1B" stroke-width="2" stroke-linecap="round" stroke-linejoin="round"/>
<path d="M14.2595 48.28H51.3595C52.3063 48.28 53.2143 48.6562 53.8838 49.3257C54.5533 49.9952 54.9295 50.9032 54.9295 51.85V53.85H10.6895V51.85C10.6895 50.9032 11.0656 49.9952 11.7351 49.3257C12.4046 48.6562 13.3126 48.28 14.2595 48.28Z" stroke="#1D1D1B" stroke-width="2" stroke-linecap="round" stroke-linejoin="round"/>
<path d="M15.5195 39.48H49.9095V39.78C49.9095 40.8408 49.4881 41.8583 48.738 42.6084C47.9878 43.3586 46.9704 43.78 45.9095 43.78H19.5495C18.4887 43.78 17.4712 43.3586 16.7211 42.6084C15.971 41.8583 15.5495 40.8408 15.5495 39.78V39.48H15.5195Z" stroke="#1D1D1B" stroke-width="2" stroke-linecap="round" stroke-linejoin="round"/>
<path d="M51.7904 32.1799H13.6504V39.4799H51.7904V32.1799Z" stroke="#1D1D1B" stroke-width="2" stroke-linecap="round" stroke-linejoin="round"/>
<path d="M38.8597 36.01H27.1797" stroke="#1D1D1B" stroke-width="2" stroke-linecap="round" stroke-linejoin="round"/>
<path d="M47.7694 36.02H45.8594" stroke="#1D1D1B" stroke-width="2" stroke-linecap="round" stroke-linejoin="round"/>
<path d="M19.5799 36.01H17.6699" stroke="#1D1D1B" stroke-width="2" stroke-linecap="round" stroke-linejoin="round"/>
<path d="M27.4287 28.53H37.9988C38.4549 28.53 38.8924 28.7112 39.215 29.0338C39.5375 29.3564 39.7187 29.7939 39.7187 30.25V32.19H25.7188V30.24C25.7214 29.7873 25.9024 29.3539 26.2225 29.0338C26.5426 28.7137 26.976 28.5327 27.4287 28.53Z" stroke="#1D1D1B" stroke-width="2" stroke-linecap="round" stroke-linejoin="round"/>
<path d="M40.7906 11.29C40.7909 9.17032 39.9571 7.13566 38.4696 5.62564C36.982 4.11563 34.9601 3.2515 32.8406 3.21998C30.8304 3.21623 28.889 3.95195 27.3861 5.28703C25.8832 6.62211 24.9238 8.4633 24.6906 10.46C24.5671 11.6254 24.7037 12.8037 25.0906 13.91L25.9606 15.54C27.4353 18.2988 28.0943 21.4205 27.8606 24.54L27.5606 28.54H37.8706L37.6006 24.85C37.3229 21.7438 37.9332 18.6227 39.3606 15.85L40.3606 13.85C40.6452 13.0265 40.7905 12.1613 40.7906 11.29Z" stroke="#1D1D1B" stroke-width="2" stroke-linecap="round" stroke-linejoin="round"/>
<path d="M38.2087 18.62H27.2188" stroke="#1D1D1B" stroke-width="2" stroke-linecap="round" stroke-linejoin="round"/>
</svg>
