<svg width="32" height="32" viewBox="0 0 32 32" fill="none" xmlns="http://www.w3.org/2000/svg">
    <mask id="mask0_1831_145109" style="mask-type:alpha" maskUnits="userSpaceOnUse" x="0" y="0" width="32" height="32">
        <rect width="32" height="32" fill="#D9D9D9"/>
    </mask>
    <g mask="url(#mask0_1831_145109)">
        <path d="M5.33333 22.6666C4.95556 22.6666 4.63889 22.5389 4.38333 22.2833C4.12778 22.0278 4 21.7111 4 21.3333C4 20.9555 4.12778 20.6389 4.38333 20.3833C4.63889 20.1278 4.95556 20 5.33333 20C5.71111 20 6.02778 20.1278 6.28333 20.3833C6.53889 20.6389 6.66667 20.9555 6.66667 21.3333C6.66667 21.7111 6.53889 22.0278 6.28333 22.2833C6.02778 22.5389 5.71111 22.6666 5.33333 22.6666ZM5.33333 17.3333C4.95556 17.3333 4.63889 17.2055 4.38333 16.95C4.12778 16.6944 4 16.3778 4 16C4 15.6222 4.12778 15.3055 4.38333 15.05C4.63889 14.7944 4.95556 14.6666 5.33333 14.6666C5.71111 14.6666 6.02778 14.7944 6.28333 15.05C6.53889 15.3055 6.66667 15.6222 6.66667 16C6.66667 16.3778 6.53889 16.6944 6.28333 16.95C6.02778 17.2055 5.71111 17.3333 5.33333 17.3333ZM5.33333 12C4.95556 12 4.63889 11.8722 4.38333 11.6166C4.12778 11.3611 4 11.0444 4 10.6666C4 10.2889 4.12778 9.9722 4.38333 9.71665C4.63889 9.46109 4.95556 9.33331 5.33333 9.33331C5.71111 9.33331 6.02778 9.46109 6.28333 9.71665C6.53889 9.9722 6.66667 10.2889 6.66667 10.6666C6.66667 11.0444 6.53889 11.3611 6.28333 11.6166C6.02778 11.8722 5.71111 12 5.33333 12ZM9.33333 22.6666V20H28V22.6666H9.33333ZM9.33333 17.3333V14.6666H28V17.3333H9.33333ZM9.33333 12V9.33331H28V12H9.33333Z" fill="#7F1A22"/>
    </g>
</svg>
