<svg width="64" height="64" viewBox="0 0 64 64" fill="none" xmlns="http://www.w3.org/2000/svg">
    <path d="M58.26 16.6501V54.3401C58.2573 55.2543 57.893 56.1303 57.2466 56.7767C56.6002 57.4232 55.7242 57.7875 54.81 57.7901H9.49999C8.5858 57.7875 7.70981 57.4232 7.06338 56.7767C6.41695 56.1303 6.05263 55.2543 6.04999 54.3401V16.6501H58.26Z" fill="#F5C287"/>
    <path d="M58.26 9.00009V16.6101H6.04999V9.00009C6.0631 8.09286 6.43204 7.22708 7.07734 6.58926C7.72265 5.95144 8.59267 5.59262 9.49999 5.59009H54.81C55.7173 5.59262 56.5873 5.95144 57.2326 6.58926C57.8779 7.22708 58.2469 8.09286 58.26 9.00009Z" fill="#C8A49D"/>
    <path d="M38.86 11.5702C38.8482 11.9519 38.7239 12.3217 38.5028 12.6331C38.2817 12.9446 37.9736 13.1838 37.617 13.3209C37.2605 13.4579 36.8715 13.4867 36.4987 13.4036C36.1259 13.3204 35.7859 13.1291 35.5214 12.8536C35.2569 12.578 35.0796 12.2306 35.0118 11.8547C34.9439 11.4788 34.9885 11.0913 35.14 10.7407C35.2915 10.39 35.5431 10.0919 35.8633 9.8837C36.1835 9.67548 36.5581 9.56641 36.94 9.57016C37.1986 9.57133 37.4543 9.62446 37.692 9.7264C37.9297 9.82833 38.1444 9.977 38.3235 10.1636C38.5026 10.3501 38.6424 10.5708 38.7346 10.8124C38.8267 11.054 38.8694 11.3117 38.86 11.5702Z" fill="#F5C287"/>
    <path d="M46.54 11.5702C46.5347 12.0795 46.3294 12.5663 45.9683 12.9255C45.6072 13.2848 45.1193 13.4876 44.61 13.4902C44.2559 13.5008 43.907 13.4031 43.61 13.2102C43.3106 13.0528 43.0594 12.8172 42.8833 12.5284C42.7072 12.2396 42.6128 11.9084 42.61 11.5702C42.6109 11.2262 42.7042 10.8889 42.8801 10.5933C43.056 10.2978 43.3081 10.055 43.61 9.89016C43.907 9.69721 44.2559 9.59953 44.61 9.61016C44.8656 9.61146 45.1184 9.66327 45.354 9.7626C45.5895 9.86193 45.8031 10.0068 45.9824 10.189C46.1618 10.3711 46.3033 10.5869 46.399 10.8239C46.4947 11.061 46.5426 11.3146 46.54 11.5702Z" fill="#F5C287"/>
    <path d="M54.24 11.57C54.24 11.9656 54.1227 12.3523 53.9029 12.6812C53.6832 13.0101 53.3708 13.2664 53.0054 13.4178C52.6399 13.5692 52.2378 13.6088 51.8498 13.5316C51.4618 13.4545 51.1055 13.264 50.8258 12.9843C50.5461 12.7046 50.3556 12.3482 50.2784 11.9602C50.2013 11.5723 50.2409 11.1701 50.3922 10.8047C50.5436 10.4392 50.8 10.1269 51.1289 9.90711C51.4577 9.68735 51.8444 9.57005 52.24 9.57005C52.5049 9.56172 52.7687 9.60776 53.0151 9.70532C53.2615 9.80288 53.4853 9.9499 53.6727 10.1373C53.8601 10.3247 54.0072 10.5485 54.1047 10.7949C54.2023 11.0414 54.2483 11.3052 54.24 11.57Z" fill="#F5C287"/>
    <path d="M25.26 29.6701V33.8301C25.2582 34.1454 25.1707 34.4544 25.0069 34.7239C24.8431 34.9934 24.6091 35.2133 24.33 35.3601L19.05 30.2301L22.44 26.0601L25.26 29.6701Z" fill="#1EBDD5"/>
    <path d="M25.26 23.5501V29.6701L22.44 26.0601L19.05 30.2301L16.84 28.1201L11.62 32.0601V23.5501C11.62 23.1046 11.797 22.6772 12.1121 22.3622C12.4271 22.0471 12.8544 21.8701 13.3 21.8701H23.59C23.8101 21.8701 24.0281 21.9136 24.2314 21.9982C24.4347 22.0827 24.6192 22.2066 24.7744 22.3628C24.9296 22.5189 25.0524 22.7042 25.1358 22.908C25.2191 23.1117 25.2613 23.33 25.26 23.5501Z" fill="#F49DAD"/>
    <path d="M24.33 35.3601C24.096 35.4596 23.8443 35.5107 23.59 35.5101H13.3C13.079 35.5114 12.8599 35.4689 12.6555 35.3849C12.4511 35.301 12.2654 35.1773 12.1091 35.021C11.9528 34.8647 11.8291 34.679 11.7452 34.4746C11.6612 34.2702 11.6187 34.0511 11.62 33.8301V32.0601L16.84 28.1201L19.05 30.2301L24.33 35.3601Z" fill="#1EBDD5"/>
    <path d="M16.27 26.4102C17.0984 26.4102 17.77 25.7386 17.77 24.9102C17.77 24.0817 17.0984 23.4102 16.27 23.4102C15.4416 23.4102 14.77 24.0817 14.77 24.9102C14.77 25.7386 15.4416 26.4102 16.27 26.4102Z" fill="#F5C287"/>
    <path d="M9.04999 16.6501H6.04999V54.3401C6.05263 55.2543 6.41695 56.1303 7.06338 56.7767C7.70981 57.4232 8.5858 57.7875 9.49999 57.7901H12.5C11.5858 57.7875 10.7098 57.4232 10.0634 56.7767C9.41695 56.1303 9.05263 55.2543 9.04999 54.3401V16.6501Z" fill="#B89165"/>
    <path d="M12.5 5.59009H9.49999C8.59267 5.59262 7.72265 5.95144 7.07734 6.58926C6.43204 7.22708 6.0631 8.09286 6.04999 9.00009V16.6101H9.04999V9.00009C9.0631 8.09286 9.43204 7.22708 10.0773 6.58926C10.7226 5.95144 11.5927 5.59262 12.5 5.59009Z" fill="#967B76"/>
    <path d="M58.26 16.6501H55.26V54.3401C55.2574 55.2543 54.893 56.1303 54.2466 56.7767C53.6002 57.4232 52.7242 57.7875 51.81 57.7901H54.81C55.7242 57.7875 56.6002 57.4232 57.2466 56.7767C57.893 56.1303 58.2574 55.2543 58.26 54.3401V16.6501Z" fill="white"/>
    <path d="M54.81 5.59005H51.81C52.7173 5.59258 53.5873 5.9514 54.2326 6.58922C54.8779 7.22704 55.2469 8.09282 55.26 9.00005V16.61H58.26V9.00005C58.2574 8.08586 57.893 7.20987 57.2466 6.56344C56.6002 5.91702 55.7242 5.55269 54.81 5.55005" fill="white"/>
    <path d="M54.81 58.7901H9.49999C8.31977 58.7901 7.1879 58.3213 6.35336 57.4868C5.51883 56.6522 5.04999 55.5204 5.04999 54.3401V16.6501C5.04999 16.3849 5.15534 16.1306 5.34288 15.943C5.53042 15.7555 5.78477 15.6501 6.04999 15.6501H58.26C58.5252 15.6501 58.7796 15.7555 58.9671 15.943C59.1546 16.1306 59.26 16.3849 59.26 16.6501V54.3401C59.26 55.5204 58.7912 56.6522 57.9566 57.4868C57.1221 58.3213 55.9902 58.7901 54.81 58.7901ZM7.04999 17.6501V54.3401C7.04999 54.9899 7.30811 55.6131 7.76758 56.0726C8.22704 56.532 8.85021 56.7901 9.49999 56.7901H54.81C55.4598 56.7901 56.0829 56.532 56.5424 56.0726C57.0019 55.6131 57.26 54.9899 57.26 54.3401V17.6501H7.04999Z" fill="#710089"/>
    <path d="M58.26 17.6501H6.04999C5.78477 17.6501 5.53042 17.5447 5.34288 17.3572C5.15534 17.1697 5.04999 16.9153 5.04999 16.6501V9.00009C5.06053 7.82682 5.53402 6.70519 6.36742 5.87929C7.20082 5.05338 8.32667 4.59004 9.49999 4.59009H54.81C55.9833 4.59004 57.1092 5.05338 57.9426 5.87929C58.776 6.70519 59.2494 7.82682 59.26 9.00009V16.6101C59.2654 16.7447 59.2435 16.8791 59.1957 17.0051C59.1478 17.131 59.075 17.2461 58.9816 17.3432C58.8882 17.4403 58.7762 17.5176 58.6521 17.5703C58.5281 17.6231 58.3947 17.6502 58.26 17.6501ZM7.04999 15.6501H57.26V9.00009C57.26 8.35031 57.0019 7.72714 56.5424 7.26768C56.0829 6.80821 55.4598 6.55009 54.81 6.55009H9.49999C8.85021 6.55009 8.22704 6.80821 7.76758 7.26768C7.30811 7.72714 7.04999 8.35031 7.04999 9.00009V15.6501Z" fill="#710089"/>
    <path d="M36.94 14.49C36.3568 14.494 35.7856 14.3244 35.2991 14.0029C34.8126 13.6814 34.4327 13.2224 34.2077 12.6844C33.9827 12.1464 33.9228 11.5536 34.0356 10.9814C34.1484 10.4093 34.4288 9.88358 34.8412 9.47121C35.2535 9.05885 35.7792 8.77843 36.3514 8.66563C36.9235 8.55283 37.5163 8.61274 38.0543 8.83773C38.5924 9.06273 39.0513 9.44265 39.3728 9.92918C39.6944 10.4157 39.8639 10.9869 39.86 11.57C39.8547 12.3429 39.5454 13.0825 38.9989 13.629C38.4525 14.1755 37.7128 14.4848 36.94 14.49ZM36.94 10.61C36.8165 10.61 36.6943 10.6344 36.5803 10.6816C36.4662 10.7288 36.3626 10.7981 36.2753 10.8854C36.188 10.9726 36.1188 11.0763 36.0715 11.1903C36.0243 11.3044 36 11.4266 36 11.55C36 11.6735 36.0243 11.7957 36.0715 11.9098C36.1188 12.0238 36.188 12.1274 36.2753 12.2147C36.3626 12.302 36.4662 12.3712 36.5803 12.4185C36.6943 12.4657 36.8165 12.49 36.94 12.49C37.1893 12.49 37.4284 12.391 37.6047 12.2147C37.7809 12.0384 37.88 11.7993 37.88 11.55C37.88 11.3007 37.7809 11.0616 37.6047 10.8854C37.4284 10.7091 37.1893 10.61 36.94 10.61Z" fill="#710089"/>
    <path d="M44.61 14.4901C44.0614 14.4978 43.5226 14.3449 43.06 14.0501C42.6285 13.7962 42.2711 13.4336 42.0237 12.9984C41.7763 12.5632 41.6474 12.0707 41.65 11.5701C41.6426 11.0493 41.7751 10.5362 42.0337 10.0841C42.2923 9.63209 42.6674 9.25771 43.12 9.00006C43.5659 8.7206 44.0839 8.57805 44.61 8.59006C45.3897 8.59006 46.1375 8.89981 46.6889 9.45116C47.2402 10.0025 47.55 10.7503 47.55 11.5301C47.55 12.3098 47.2402 13.0576 46.6889 13.609C46.1375 14.1603 45.3897 14.4701 44.61 14.4701V14.4901ZM44.61 10.6101C44.456 10.6057 44.3038 10.6437 44.17 10.7201C44.0166 10.8039 43.8878 10.9265 43.7966 11.0757C43.7053 11.2248 43.6548 11.3953 43.65 11.5701C43.6497 11.7306 43.6934 11.8881 43.7762 12.0256C43.8591 12.1631 43.9779 12.2753 44.12 12.3501C44.2664 12.443 44.4366 12.4916 44.61 12.4901C44.8593 12.4901 45.0984 12.391 45.2747 12.2147C45.4509 12.0385 45.55 11.7994 45.55 11.5501C45.55 11.3008 45.4509 11.0617 45.2747 10.8854C45.0984 10.7091 44.8593 10.6101 44.61 10.6101Z" fill="#710089"/>
    <path d="M52.29 14.49C51.7103 14.4781 51.1472 14.2952 50.6712 13.9641C50.1953 13.6331 49.8279 13.1687 49.6151 12.6294C49.4024 12.0901 49.3538 11.5 49.4756 10.9331C49.5974 10.3663 49.884 9.84817 50.2994 9.4438C50.7149 9.03944 51.2406 8.76693 51.8105 8.66053C52.3804 8.55414 52.969 8.61861 53.5024 8.84584C54.0357 9.07307 54.49 9.45292 54.8081 9.93762C55.1261 10.4223 55.2938 10.9903 55.29 11.57C55.2874 11.9595 55.2075 12.3446 55.0548 12.7029C54.9021 13.0613 54.6798 13.3857 54.4006 13.6574C54.1215 13.9291 53.7912 14.1426 53.4289 14.2855C53.0665 14.4284 52.6794 14.4979 52.29 14.49ZM52.29 10.61C52.1665 10.61 52.0443 10.6343 51.9303 10.6815C51.8162 10.7288 51.7126 10.798 51.6253 10.8853C51.538 10.9726 51.4688 11.0762 51.4215 11.1903C51.3743 11.3043 51.35 11.4265 51.35 11.55C51.35 11.6734 51.3743 11.7957 51.4215 11.9097C51.4688 12.0238 51.538 12.1274 51.6253 12.2147C51.7126 12.302 51.8162 12.3712 51.9303 12.4184C52.0443 12.4657 52.1665 12.49 52.29 12.49C52.4134 12.49 52.5356 12.4657 52.6497 12.4184C52.7637 12.3712 52.8674 12.302 52.9547 12.2147C53.0419 12.1274 53.1112 12.0238 53.1584 11.9097C53.2057 11.7957 53.23 11.6734 53.23 11.55C53.23 11.4265 53.2057 11.3043 53.1584 11.1903C53.1112 11.0762 53.0419 10.9726 52.9547 10.8853C52.8674 10.798 52.7637 10.7288 52.6497 10.6815C52.5356 10.6343 52.4134 10.61 52.29 10.61Z" fill="#710089"/>
    <path d="M24.33 36.3601C24.0711 36.3564 23.8238 36.2524 23.64 36.0701L18.35 31.0001C18.1701 30.826 18.062 30.5906 18.0472 30.3407C18.0324 30.0907 18.1119 29.8443 18.27 29.6501L21.66 25.4801C21.7579 25.3659 21.879 25.2739 22.0152 25.2101C22.1514 25.1463 22.2996 25.1122 22.45 25.1101C22.5993 25.1135 22.746 25.1503 22.8792 25.2178C23.0125 25.2852 23.1289 25.3817 23.22 25.5001L26.05 29.1001C26.1876 29.2774 26.2615 29.4957 26.26 29.7201V33.8801C26.2589 34.3729 26.1245 34.8561 25.871 35.2787C25.6174 35.7012 25.2543 36.0473 24.82 36.2801C24.6654 36.3456 24.4974 36.373 24.33 36.3601ZM20.4 30.1501L24.26 33.8901V30.0001L22.42 27.6601L20.4 30.1501Z" fill="#710089"/>
    <path d="M11.62 33.0601C11.4676 33.0607 11.3171 33.0265 11.18 32.9601C11.0117 32.8777 10.87 32.7495 10.7709 32.5904C10.6719 32.4313 10.6196 32.2475 10.62 32.0601V23.5501C10.62 22.8393 10.9024 22.1577 11.405 21.6551C11.9075 21.1525 12.5892 20.8701 13.3 20.8701H23.59C24.299 20.8728 24.9781 21.1563 25.4786 21.6586C25.979 22.1609 26.26 22.8411 26.26 23.5501V29.6701C26.2592 29.8768 26.1943 30.0782 26.0743 30.2466C25.9543 30.4149 25.7851 30.5419 25.59 30.6101C25.3946 30.6782 25.1829 30.6839 24.9841 30.6266C24.7853 30.5693 24.6092 30.4517 24.48 30.2901L22.42 27.6701L19.83 30.8601C19.7424 30.9686 19.6331 31.0575 19.5091 31.1212C19.3851 31.1849 19.2492 31.222 19.11 31.2301C18.9724 31.2376 18.8348 31.2166 18.7058 31.1684C18.5767 31.1203 18.459 31.0459 18.36 30.9501L16.77 29.4301L12.23 32.8601C12.0542 32.992 11.8398 33.0623 11.62 33.0601ZM13.3 22.8701C13.2103 22.8688 13.1213 22.8854 13.0382 22.9191C12.9551 22.9528 12.8796 23.0029 12.8162 23.0663C12.7527 23.1297 12.7027 23.2052 12.669 23.2883C12.6353 23.3714 12.6186 23.4604 12.62 23.5501V30.0501L16.24 27.3201C16.4294 27.1747 16.6645 27.1018 16.9029 27.1146C17.1414 27.1274 17.3674 27.2252 17.54 27.3901L19 28.7601L21.7 25.4301C21.7979 25.3159 21.919 25.2239 22.0552 25.1601C22.1914 25.0963 22.3396 25.0622 22.49 25.0601C22.6393 25.0635 22.786 25.1003 22.9192 25.1678C23.0525 25.2353 23.1689 25.3317 23.26 25.4501L24.26 26.7701V23.5501C24.2613 23.4613 24.245 23.3731 24.2119 23.2906C24.1788 23.2082 24.1297 23.1332 24.0673 23.0699C24.005 23.0066 23.9307 22.9564 23.8487 22.9221C23.7668 22.8878 23.6788 22.8701 23.59 22.8701H13.3Z" fill="#710089"/>
    <path d="M23.59 36.51H13.3C12.5892 36.51 11.9075 36.2277 11.4049 35.7251C10.9024 35.2225 10.62 34.5408 10.62 33.83V32.06C10.62 31.9048 10.6561 31.7517 10.7256 31.6128C10.795 31.4739 10.8958 31.3532 11.02 31.26L16.24 27.32C16.4294 27.1745 16.6645 27.1016 16.9029 27.1145C17.1414 27.1273 17.3674 27.2251 17.54 27.39L25 34.64C25.1188 34.7545 25.2075 34.8965 25.2581 35.0536C25.3087 35.2106 25.3197 35.3777 25.29 35.54C25.2594 35.7035 25.1885 35.8568 25.0838 35.986C24.979 36.1153 24.8437 36.2163 24.69 36.28C24.3416 36.4269 23.9681 36.505 23.59 36.51ZM12.59 32.56V33.83C12.5886 33.9197 12.6053 34.0087 12.639 34.0918C12.6727 34.1749 12.7227 34.2504 12.7862 34.3138C12.8496 34.3773 12.9251 34.4273 13.0082 34.461C13.0913 34.4947 13.1803 34.5114 13.27 34.51H22L16.74 29.43L12.59 32.56Z" fill="#710089"/>
    <path d="M16.27 27.4101C15.776 27.4082 15.2936 27.2599 14.8838 26.984C14.474 26.7081 14.1551 26.3169 13.9674 25.8599C13.7798 25.403 13.7317 24.9006 13.8293 24.4163C13.9269 23.932 14.1657 23.4875 14.5158 23.1389C14.8658 22.7902 15.3113 22.5531 15.7959 22.4575C16.2806 22.3618 16.7828 22.4119 17.239 22.6014C17.6952 22.7909 18.0851 23.1114 18.3594 23.5223C18.6336 23.9332 18.78 24.4161 18.78 24.9101C18.78 25.2393 18.715 25.5652 18.5887 25.8692C18.4625 26.1731 18.2774 26.4492 18.0442 26.6814C17.811 26.9137 17.5342 27.0977 17.2298 27.2227C16.9253 27.3478 16.5991 27.4115 16.27 27.4101ZM16.27 24.4101C16.1716 24.4121 16.0759 24.4431 15.995 24.4992C15.9141 24.5553 15.8516 24.6341 15.8153 24.7256C15.7789 24.8171 15.7704 24.9173 15.7909 25.0137C15.8113 25.11 15.8597 25.1981 15.93 25.2671C16.0003 25.336 16.0894 25.3826 16.1861 25.4011C16.2828 25.4196 16.3828 25.4092 16.4736 25.371C16.5644 25.3329 16.6419 25.2688 16.6964 25.1869C16.7509 25.1049 16.78 25.0086 16.78 24.9101C16.78 24.8436 16.7668 24.7778 16.741 24.7165C16.7153 24.6551 16.6775 24.5996 16.63 24.553C16.5825 24.5064 16.5262 24.4698 16.4644 24.4453C16.4026 24.4208 16.3365 24.4088 16.27 24.4101Z" fill="#710089"/>
    <path d="M53.12 24.4102H29.12C28.8548 24.4102 28.6004 24.3048 28.4129 24.1173C28.2254 23.9297 28.12 23.6754 28.12 23.4102C28.12 23.1449 28.2254 22.8906 28.4129 22.703C28.6004 22.5155 28.8548 22.4102 29.12 22.4102H53.12C53.3852 22.4102 53.6396 22.5155 53.8271 22.703C54.0146 22.8906 54.12 23.1449 54.12 23.4102C54.12 23.6754 54.0146 23.9297 53.8271 24.1173C53.6396 24.3048 53.3852 24.4102 53.12 24.4102Z" fill="#710089"/>
    <path d="M53.12 30H29.12C28.8548 30 28.6004 29.8946 28.4129 29.7071C28.2254 29.5196 28.12 29.2652 28.12 29C28.12 28.7348 28.2254 28.4804 28.4129 28.2929C28.6004 28.1054 28.8548 28 29.12 28H53.12C53.3852 28 53.6396 28.1054 53.8271 28.2929C54.0146 28.4804 54.12 28.7348 54.12 29C54.12 29.2652 54.0146 29.5196 53.8271 29.7071C53.6396 29.8946 53.3852 30 53.12 30Z" fill="#710089"/>
    <path d="M53.12 35.5901H29.12C28.8548 35.5901 28.6004 35.4847 28.4129 35.2972C28.2254 35.1097 28.12 34.8553 28.12 34.5901C28.12 34.3249 28.2254 34.0705 28.4129 33.883C28.6004 33.6954 28.8548 33.5901 29.12 33.5901H53.12C53.3852 33.5901 53.6396 33.6954 53.8271 33.883C54.0146 34.0705 54.12 34.3249 54.12 34.5901C54.12 34.8553 54.0146 35.1097 53.8271 35.2972C53.6396 35.4847 53.3852 35.5901 53.12 35.5901Z" fill="#710089"/>
    <path d="M53.12 41.1902H11.62C11.3548 41.1902 11.1004 41.0848 10.9129 40.8973C10.7254 40.7098 10.62 40.4554 10.62 40.1902C10.62 39.925 10.7254 39.6706 10.9129 39.4831C11.1004 39.2955 11.3548 39.1902 11.62 39.1902H53.12C53.3852 39.1902 53.6396 39.2955 53.8271 39.4831C54.0146 39.6706 54.12 39.925 54.12 40.1902C54.12 40.4554 54.0146 40.7098 53.8271 40.8973C53.6396 41.0848 53.3852 41.1902 53.12 41.1902Z" fill="#710089"/>
    <path d="M53.12 46.78H11.62C11.3548 46.78 11.1004 46.6747 10.9129 46.4871C10.7254 46.2996 10.62 46.0452 10.62 45.78C10.62 45.5148 10.7254 45.2605 10.9129 45.0729C11.1004 44.8854 11.3548 44.78 11.62 44.78H53.12C53.3852 44.78 53.6396 44.8854 53.8271 45.0729C54.0146 45.2605 54.12 45.5148 54.12 45.78C54.12 46.0452 54.0146 46.2996 53.8271 46.4871C53.6396 46.6747 53.3852 46.78 53.12 46.78Z" fill="#710089"/>
    <path d="M53.12 52.3801H11.62C11.3548 52.3801 11.1004 52.2748 10.9129 52.0872C10.7254 51.8997 10.62 51.6453 10.62 51.3801C10.62 51.1149 10.7254 50.8606 10.9129 50.673C11.1004 50.4855 11.3548 50.3801 11.62 50.3801H53.12C53.3852 50.3801 53.6396 50.4855 53.8271 50.673C54.0146 50.8606 54.12 51.1149 54.12 51.3801C54.12 51.6453 54.0146 51.8997 53.8271 52.0872C53.6396 52.2748 53.3852 52.3801 53.12 52.3801Z" fill="#710089"/>
</svg>
