<svg width="58" height="54" viewBox="0 0 58 54" fill="none" xmlns="http://www.w3.org/2000/svg">
    <path d="M9.02999 40.72H1.45999V52.43H9.02999V40.72Z" fill="#EDBE65"/>
    <path d="M20.16 29.5801H12.59V52.4301H20.16V29.5801Z" fill="#F5A463"/>
    <path d="M31.6 17.9401H24.03V52.4301H31.6V17.9401Z" fill="#B65F22"/>
    <path d="M56.8 19.41V33.93C56.7973 34.5648 56.5433 35.1727 56.0935 35.6206C55.6437 36.0685 55.0348 36.32 54.4 36.32H52.4H53.4V50C53.4 50.7532 53.1008 51.4756 52.5682 52.0082C52.0356 52.5408 51.3132 52.84 50.56 52.84C50.1828 52.8467 49.8082 52.7781 49.4578 52.6384C49.1074 52.4986 48.7884 52.2905 48.5194 52.0261C48.2504 51.7617 48.0367 51.4464 47.8909 51.0985C47.745 50.7507 47.6699 50.3772 47.67 50V38C47.6876 37.7759 47.6586 37.5506 47.5849 37.3382C47.5113 37.1258 47.3944 36.931 47.2418 36.7659C47.0892 36.6008 46.9041 36.4691 46.6981 36.379C46.4922 36.289 46.2698 36.2425 46.045 36.2425C45.8202 36.2425 45.5978 36.289 45.3918 36.379C45.1859 36.4691 45.0008 36.6008 44.8481 36.7659C44.6955 36.931 44.5787 37.1258 44.505 37.3382C44.4313 37.5506 44.4024 37.7759 44.42 38V50C44.42 50.373 44.3465 50.7423 44.2038 51.0868C44.0611 51.4314 43.8519 51.7445 43.5882 52.0082C43.3245 52.2719 43.0114 52.4811 42.6668 52.6238C42.3222 52.7666 41.9529 52.84 41.58 52.84C41.2062 52.8413 40.8358 52.7689 40.4901 52.6267C40.1444 52.4846 39.8301 52.2756 39.5653 52.0118C39.3006 51.7479 39.0905 51.4344 38.9471 51.0892C38.8038 50.7439 38.73 50.3738 38.73 50V36.32H37.73C37.0952 36.32 36.4863 36.0685 36.0365 35.6206C35.5867 35.1727 35.3326 34.5648 35.33 33.93V19.41C35.3326 18.5445 35.6783 17.7153 36.2913 17.1042C36.9042 16.4932 37.7345 16.15 38.6 16.15H53.6C54.4541 16.1657 55.268 16.5161 55.8665 17.1258C56.4649 17.7355 56.8001 18.5557 56.8 19.41Z" fill="#F4C8A7"/>
    <path d="M53.35 36.3201H52.4V36.3601H53.35V36.3201Z" fill="#F4C8A7"/>
    <path d="M39.68 23.38V36.36" stroke="#1D1D1B" stroke-width="2" stroke-linecap="round" stroke-linejoin="round"/>
    <path d="M52.4 36.32V23.37" stroke="#1D1D1B" stroke-width="2" stroke-linecap="round" stroke-linejoin="round"/>
    <path d="M45.81 12.77C49.0132 12.77 51.61 10.1733 51.61 6.97004C51.61 3.76679 49.0132 1.17004 45.81 1.17004C42.6067 1.17004 40.01 3.76679 40.01 6.97004C40.01 10.1733 42.6067 12.77 45.81 12.77Z" fill="#F4C8A7"/>
    <g style="mix-blend-mode:multiply" opacity="0.25">
        <path d="M3.74999 40.72H1.45999V52.43H3.74999V40.72Z" fill="#1D1D1B"/>
        <path d="M14.88 29.5801H12.59V52.4301H14.88V29.5801Z" fill="#1D1D1B"/>
        <path d="M26.32 17.9401H24.03V52.4301H26.32V17.9401Z" fill="#1D1D1B"/>
        <path d="M40.58 50V36.32H39.58C38.9452 36.32 38.3362 36.0685 37.8864 35.6206C37.4366 35.1727 37.1826 34.5648 37.18 33.93V19.41C37.1826 18.5445 37.5283 17.7153 38.1413 17.1042C38.7542 16.4932 39.5844 16.15 40.45 16.15H38.56C37.6945 16.15 36.8642 16.4932 36.2513 17.1042C35.6383 17.7153 35.2926 18.5445 35.29 19.41V33.93C35.2926 34.5648 35.5466 35.1727 35.9964 35.6206C36.4462 36.0685 37.0552 36.32 37.69 36.32H38.69V50C38.69 50.373 38.7634 50.7423 38.9062 51.0868C39.0489 51.4314 39.2581 51.7445 39.5218 52.0082C39.7855 52.2719 40.0986 52.4811 40.4432 52.6238C40.7877 52.7666 41.157 52.84 41.53 52.84C41.844 52.8357 42.1551 52.7783 42.45 52.67C41.901 52.4721 41.4267 52.1093 41.0919 51.6313C40.7572 51.1533 40.5784 50.5836 40.58 50Z" fill="#1D1D1B"/>
        <path d="M49.52 50.0001V38.0001C49.528 37.7031 49.4541 37.4096 49.3065 37.1518C49.1589 36.8939 48.9432 36.6816 48.683 36.5382C48.4229 36.3947 48.1283 36.3255 47.8314 36.3381C47.5346 36.3508 47.247 36.4449 47 36.6101C47.2156 36.7609 47.3918 36.9614 47.5136 37.1946C47.6355 37.4278 47.6994 37.6869 47.7 37.9501V50.0001C47.6935 50.4537 47.7974 50.9022 48.0028 51.3068C48.2081 51.7115 48.5086 52.0601 48.8786 52.3228C49.2485 52.5855 49.6768 52.7544 50.1265 52.8149C50.5761 52.8754 51.0338 52.8257 51.46 52.6701C50.898 52.4839 50.4085 52.1261 50.0605 51.6471C49.7125 51.1682 49.5234 50.5921 49.52 50.0001Z" fill="#1D1D1B"/>
        <path d="M42.45 7.00005C42.4403 5.6735 42.8871 4.38399 43.7156 3.34792C44.5441 2.31186 45.7038 1.59231 47 1.31005C46.5995 1.22076 46.1902 1.17715 45.78 1.18005C44.9987 1.14759 44.219 1.27344 43.4876 1.55003C42.7562 1.82662 42.0883 2.24825 41.524 2.78957C40.9597 3.33088 40.5107 3.98071 40.204 4.69998C39.8973 5.41925 39.7392 6.19311 39.7392 6.97505C39.7392 7.75699 39.8973 8.53085 40.204 9.25012C40.5107 9.96939 40.9597 10.6192 41.524 11.1605C42.0883 11.7018 42.7562 12.1235 43.4876 12.4001C44.219 12.6767 44.9987 12.8025 45.78 12.7701C46.1902 12.7729 46.5995 12.7293 47 12.64C45.713 12.3579 44.5608 11.6453 43.7336 10.6199C42.9063 9.59443 42.4535 8.31755 42.45 7.00005Z" fill="#1D1D1B"/>
    </g>
    <g style="mix-blend-mode:overlay">
        <path d="M9.03 40.72H6.56V52.43H9.03V40.72Z" fill="white"/>
        <path d="M20.16 29.5801H17.69V52.4301H20.16V29.5801Z" fill="white"/>
        <path d="M31.6 17.9401H29.13V52.4301H31.6V17.9401Z" fill="white"/>
        <path d="M44 36.3201C43.7821 36.3199 43.5664 36.3637 43.3659 36.4489C43.1653 36.534 42.984 36.6587 42.8327 36.8156C42.6815 36.9724 42.5634 37.1582 42.4856 37.3617C42.4079 37.5652 42.3719 37.7823 42.38 38.0001V50.0001C42.3785 50.5737 42.2027 51.1334 41.8759 51.6049C41.549 52.0763 41.0866 52.4374 40.55 52.6401C40.8688 52.7655 41.2074 52.8332 41.55 52.8401C41.9255 52.844 42.298 52.7735 42.646 52.6326C42.9941 52.4916 43.3107 52.283 43.5776 52.0189C43.8445 51.7548 44.0564 51.4404 44.201 51.0939C44.3456 50.7473 44.42 50.3756 44.42 50.0001V38.0001C44.4212 37.7588 44.4756 37.5209 44.5793 37.3031C44.683 37.0853 44.8335 36.893 45.02 36.7401C44.7382 36.4872 44.3781 36.3389 44 36.3201Z" fill="white"/>
        <path d="M53.53 16.15H51.48C51.9089 16.1487 52.3339 16.2321 52.7306 16.3953C53.1273 16.5586 53.4878 16.7985 53.7916 17.1013C54.0954 17.4042 54.3364 17.764 54.5009 18.1602C54.6653 18.5564 54.75 18.9811 54.75 19.41V33.93C54.75 34.2447 54.6878 34.5563 54.5671 34.847C54.4464 35.1376 54.2694 35.4015 54.0464 35.6236C53.8234 35.8456 53.5588 36.0215 53.2677 36.141C52.9765 36.2605 52.6647 36.3214 52.35 36.32H51.3V50C51.2979 50.5722 51.123 51.1304 50.7982 51.6015C50.4735 52.0725 50.014 52.4345 49.48 52.64C49.7995 52.7633 50.1377 52.8309 50.48 52.84C50.8555 52.844 51.228 52.7735 51.576 52.6325C51.9241 52.4916 52.2407 52.283 52.5076 52.0189C52.7745 51.7548 52.9864 51.4404 53.131 51.0938C53.2756 50.7473 53.35 50.3755 53.35 50V36.32H54.35C54.9848 36.32 55.5937 36.0686 56.0435 35.6206C56.4933 35.1727 56.7473 34.5648 56.75 33.93V19.41C56.75 18.5523 56.4121 17.7291 55.8093 17.1189C55.2066 16.5087 54.3876 16.1606 53.53 16.15Z" fill="white"/>
        <path d="M45.81 1.18005C45.4274 1.181 45.0457 1.21783 44.67 1.29005C45.9822 1.55532 47.1622 2.26636 48.0099 3.30256C48.8576 4.33876 49.3207 5.63629 49.3207 6.97505C49.3207 8.31381 48.8576 9.61134 48.0099 10.6475C47.1622 11.6837 45.9822 12.3948 44.67 12.66C45.0457 12.7323 45.4274 12.7691 45.81 12.7701C46.5912 12.8025 47.371 12.6767 48.1024 12.4001C48.8338 12.1235 49.5017 11.7018 50.066 11.1605C50.6302 10.6192 51.0792 9.96939 51.3859 9.25012C51.6927 8.53085 51.8508 7.75699 51.8508 6.97505C51.8508 6.19311 51.6927 5.41925 51.3859 4.69998C51.0792 3.98071 50.6302 3.33088 50.066 2.78957C49.5017 2.24825 48.8338 1.82662 48.1024 1.55003C47.371 1.27344 46.5912 1.14759 45.81 1.18005Z" fill="white"/>
    </g>
    <path d="M9.02999 40.72H1.45999V52.43H9.02999V40.72Z" stroke="#1D1D1B" stroke-width="2" stroke-linecap="round" stroke-linejoin="round"/>
    <path d="M20.16 29.5801H12.59V52.4301H20.16V29.5801Z" stroke="#1D1D1B" stroke-width="2" stroke-linecap="round" stroke-linejoin="round"/>
    <path d="M31.6 17.9401H24.03V52.4301H31.6V17.9401Z" stroke="#1D1D1B" stroke-width="2" stroke-linecap="round" stroke-linejoin="round"/>
    <path d="M56.8 19.41V33.93C56.7973 34.5648 56.5433 35.1727 56.0935 35.6206C55.6437 36.0685 55.0348 36.32 54.4 36.32H52.4H53.4V50C53.4 50.7532 53.1008 51.4756 52.5682 52.0082C52.0356 52.5408 51.3132 52.84 50.56 52.84C50.1828 52.8467 49.8082 52.7781 49.4578 52.6384C49.1074 52.4986 48.7884 52.2905 48.5194 52.0261C48.2504 51.7617 48.0367 51.4464 47.8909 51.0985C47.745 50.7507 47.6699 50.3772 47.67 50V38C47.6876 37.7759 47.6586 37.5506 47.5849 37.3382C47.5113 37.1258 47.3944 36.931 47.2418 36.7659C47.0892 36.6008 46.9041 36.4691 46.6981 36.379C46.4922 36.289 46.2698 36.2425 46.045 36.2425C45.8202 36.2425 45.5978 36.289 45.3918 36.379C45.1859 36.4691 45.0008 36.6008 44.8481 36.7659C44.6955 36.931 44.5787 37.1258 44.505 37.3382C44.4313 37.5506 44.4024 37.7759 44.42 38V50C44.42 50.373 44.3465 50.7423 44.2038 51.0868C44.0611 51.4314 43.8519 51.7445 43.5882 52.0082C43.3245 52.2719 43.0114 52.4811 42.6668 52.6238C42.3222 52.7666 41.9529 52.84 41.58 52.84C41.2062 52.8413 40.8358 52.7689 40.4901 52.6267C40.1444 52.4846 39.8301 52.2756 39.5653 52.0118C39.3006 51.7479 39.0905 51.4344 38.9471 51.0892C38.8038 50.7439 38.73 50.3738 38.73 50V36.32H37.73C37.0952 36.32 36.4863 36.0685 36.0365 35.6206C35.5867 35.1727 35.3326 34.5648 35.33 33.93V19.41C35.3326 18.5445 35.6783 17.7153 36.2913 17.1042C36.9042 16.4932 37.7345 16.15 38.6 16.15H53.6C54.4541 16.1657 55.268 16.5161 55.8665 17.1258C56.4649 17.7355 56.8001 18.5557 56.8 19.41Z" stroke="#1D1D1B" stroke-width="2" stroke-linecap="round" stroke-linejoin="round"/>
    <path d="M53.35 36.3201H52.4V36.3601H53.35V36.3201Z" stroke="#1D1D1B" stroke-width="2" stroke-linecap="round" stroke-linejoin="round"/>
    <path d="M39.68 23.38V36.36" stroke="#1D1D1B" stroke-width="2" stroke-linecap="round" stroke-linejoin="round"/>
    <path d="M52.4 36.32V23.37" stroke="#1D1D1B" stroke-width="2" stroke-linecap="round" stroke-linejoin="round"/>
    <path d="M45.81 12.77C49.0132 12.77 51.61 10.1733 51.61 6.97004C51.61 3.76679 49.0132 1.17004 45.81 1.17004C42.6067 1.17004 40.01 3.76679 40.01 6.97004C40.01 10.1733 42.6067 12.77 45.81 12.77Z" stroke="#1D1D1B" stroke-width="2" stroke-linecap="round" stroke-linejoin="round"/>
</svg>
