<svg width="58" height="58" viewBox="0 0 58 58" fill="none" xmlns="http://www.w3.org/2000/svg">
    <path d="M54.0803 23.3798H48.2903V19.0798L54.0803 23.3798Z" fill="#FFB000"/>
    <path d="M48.2903 23.4202H54.0803L48.2903 27.0802V23.4202Z" fill="#FFB000"/>
    <path d="M3.92993 23.4199H9.71993V27.0799L3.92993 23.4199Z" fill="#FFB000"/>
    <path d="M9.71993 19.0798V23.3798H3.92993L9.71993 19.0798Z" fill="#FFB000"/>
    <path d="M54.0799 55.09H3.92993L13.8399 48.83L16.4699 47.17L28.9999 39.26L41.5399 47.17L44.1699 48.83L54.0799 55.09Z" fill="#FFB000"/>
    <path d="M28.9999 39.2599L16.4699 47.1699L13.8399 48.8299L3.92993 55.0899V23.4199L9.71993 27.0799L16.4699 31.3399L28.9999 39.2599Z" fill="#FFB000"/>
    <path d="M54.0802 23.4202V55.0902L44.1702 48.8302L41.5402 47.1702L29.0002 39.2602L48.2902 27.0802L54.0802 23.4202Z" fill="#FFB000"/>
    <path d="M48.29 2.44995V27.08L29 39.2599L16.47 31.34L9.71997 27.08V2.44995H48.29Z" fill="#E1F4FF"/>
    <path d="M36.9695 14.5899C36.9667 14.2388 36.9433 13.8882 36.8995 13.5399L34.0095 12.5399L35.3195 9.77987C34.8987 9.219 34.4004 8.7207 33.8395 8.29987L31.0695 9.57987L30.0695 6.68987C29.7211 6.64631 29.3705 6.62293 29.0195 6.61987C28.6851 6.62446 28.3512 6.64783 28.0195 6.68987L27.0195 9.57987L24.1595 8.26987C23.6009 8.69336 23.103 9.19131 22.6795 9.74987L23.9995 12.5099L21.1095 13.5099C21.0029 14.2025 21.0029 14.9073 21.1095 15.5999L23.9995 16.5999L22.6795 19.3699C23.1059 19.9259 23.6035 20.4235 24.1595 20.8499L26.9295 19.5299L27.9295 22.4199C28.2605 22.4699 28.5947 22.4966 28.9295 22.4999C29.281 22.4985 29.6319 22.4717 29.9795 22.4199L30.9795 19.5299L33.7495 20.8499C34.308 20.4264 34.806 19.9284 35.2295 19.3699L33.9195 16.5999L36.8095 15.5999C36.8821 15.2665 36.9355 14.9293 36.9695 14.5899Z" fill="#27A3FF"/>
    <path d="M29 16.8601C30.2537 16.8601 31.27 15.8438 31.27 14.5901C31.27 13.3364 30.2537 12.3201 29 12.3201C27.7463 12.3201 26.73 13.3364 26.73 14.5901C26.73 15.8438 27.7463 16.8601 29 16.8601Z" fill="#E1F4FF"/>
    <g style="mix-blend-mode:multiply" opacity="0.25">
        <path d="M54.0804 23.4199H49.0804V55.0899H54.0804V23.4199Z" fill="black"/>
        <path d="M48.2904 19.08V2.44995H43.2904L43.1604 30.32L48.2904 27.08L54.0804 23.3799L48.2904 19.08Z" fill="black"/>
        <path d="M48.2904 23.3799H43.2904V23.4199H48.2904V23.3799Z" fill="black"/>
    </g>
    <g style="mix-blend-mode:overlay">
        <path d="M14.7199 2.44995H9.71993V19.08L3.92993 23.3799L9.71993 26L14.6299 30.2099L14.7199 2.44995Z" fill="white"/>
        <path d="M8.92993 23.4199H3.92993V55.0899H8.92993V23.4199Z" fill="white"/>
        <path d="M14.72 23.3799H9.71997V23.4199H14.72V23.3799Z" fill="white"/>
    </g>
    <path d="M54.0803 23.3798H48.2903V19.0798L54.0803 23.3798Z" stroke="black" stroke-width="2" stroke-linecap="round" stroke-linejoin="round"/>
    <path d="M48.2903 23.4202H54.0803L48.2903 27.0802V23.4202Z" stroke="black" stroke-width="2" stroke-linecap="round" stroke-linejoin="round"/>
    <path d="M3.92993 23.4199H9.71993V27.0799L3.92993 23.4199Z" stroke="black" stroke-width="2" stroke-linecap="round" stroke-linejoin="round"/>
    <path d="M9.71993 19.0798V23.3798H3.92993L9.71993 19.0798Z" stroke="black" stroke-width="2" stroke-linecap="round" stroke-linejoin="round"/>
    <path d="M54.0799 55.09H3.92993L13.8399 48.83L16.4699 47.17L28.9999 39.26L41.5399 47.17L44.1699 48.83L54.0799 55.09Z" stroke="black" stroke-width="2" stroke-linecap="round" stroke-linejoin="round"/>
    <path d="M28.9999 39.2599L16.4699 47.1699L13.8399 48.8299L3.92993 55.0899V23.4199L9.71993 27.0799L16.4699 31.3399L28.9999 39.2599Z" stroke="black" stroke-width="2" stroke-linecap="round" stroke-linejoin="round"/>
    <path d="M54.0802 23.4202V55.0902L44.1702 48.8302L41.5402 47.1702L29.0002 39.2602L48.2902 27.0802L54.0802 23.4202Z" stroke="black" stroke-width="2" stroke-linecap="round" stroke-linejoin="round"/>
    <path d="M48.29 2.44995V27.08L29 39.2599L16.47 31.34L9.71997 27.08V2.44995H48.29Z" stroke="black" stroke-width="2" stroke-linecap="round" stroke-linejoin="round"/>
    <path d="M36.9695 14.5899C36.9667 14.2388 36.9433 13.8882 36.8995 13.5399L34.0095 12.5399L35.3195 9.77987C34.8987 9.219 34.4004 8.7207 33.8395 8.29987L31.0695 9.57987L30.0695 6.68987C29.7211 6.64631 29.3705 6.62293 29.0195 6.61987C28.6851 6.62446 28.3512 6.64783 28.0195 6.68987L27.0195 9.57987L24.1595 8.26987C23.6009 8.69336 23.103 9.19131 22.6795 9.74987L23.9995 12.5099L21.1095 13.5099C21.0029 14.2025 21.0029 14.9073 21.1095 15.5999L23.9995 16.5999L22.6795 19.3699C23.1059 19.9259 23.6035 20.4235 24.1595 20.8499L26.9295 19.5299L27.9295 22.4199C28.2605 22.4699 28.5947 22.4966 28.9295 22.4999C29.281 22.4985 29.6319 22.4717 29.9795 22.4199L30.9795 19.5299L33.7495 20.8499C34.308 20.4264 34.806 19.9284 35.2295 19.3699L33.9195 16.5999L36.8095 15.5999C36.8821 15.2665 36.9355 14.9293 36.9695 14.5899Z" stroke="black" stroke-width="2" stroke-linecap="round" stroke-linejoin="round"/>
    <path d="M29 16.8601C30.2537 16.8601 31.27 15.8438 31.27 14.5901C31.27 13.3364 30.2537 12.3201 29 12.3201C27.7463 12.3201 26.73 13.3364 26.73 14.5901C26.73 15.8438 27.7463 16.8601 29 16.8601Z" stroke="black" stroke-width="2" stroke-linecap="round" stroke-linejoin="round"/>
    <path d="M17.97 27.0798H40.04" stroke="black" stroke-width="2" stroke-linecap="round" stroke-linejoin="round"/>
    <path d="M18.1699 51.77H28.3499" stroke="black" stroke-width="2" stroke-linecap="round" stroke-linejoin="round"/>
    <path d="M30.9199 51.77H35.2899" stroke="black" stroke-width="2" stroke-linecap="round" stroke-linejoin="round"/>
</svg>