<svg width="64" height="64" viewBox="0 0 64 64" fill="none" xmlns="http://www.w3.org/2000/svg">
    <path d="M28.9 50.2701V51.6H3.07996V50.2701C3.08636 47.7557 3.84368 45.3006 5.2548 43.2196C6.66591 41.1385 8.66648 39.5264 11 38.59L11.27 38.44L11.56 38.35C11.8605 38.2322 12.1677 38.132 12.48 38.05L12.69 38.2001C13.032 38.3985 13.386 38.5755 13.75 38.73C13.8952 38.7935 14.0458 38.8437 14.2 38.8801C14.3498 38.9073 14.497 38.9474 14.64 39C14.7348 39.0404 14.8369 39.0609 14.94 39.0601H15.08C15.4093 39.1245 15.7444 39.1547 16.08 39.1501C16.2563 39.1657 16.4336 39.1657 16.61 39.1501C17.5864 39.0442 18.5264 38.7195 19.36 38.2001L19.57 38.05C19.8221 38.112 20.0695 38.1922 20.31 38.2901L20.46 38.35C20.5804 38.3781 20.6977 38.4183 20.81 38.4701C23.1929 39.3901 25.2418 41.0096 26.6875 43.1156C28.1331 45.2216 28.9079 47.7156 28.91 50.2701" fill="#53B4ED"/>
    <path d="M22 33.14C21.9946 34.0945 21.7678 35.0347 21.3375 35.8867C20.9071 36.7387 20.285 37.4792 19.52 38.05L19.31 38.2C18.4764 38.7195 17.5364 39.0442 16.56 39.15C16.3837 39.1657 16.2063 39.1657 16.03 39.15C15.6945 39.1546 15.3593 39.1245 15.03 39.06H14.89C14.7869 39.0608 14.6848 39.0404 14.59 39C14.4471 38.9474 14.2999 38.9072 14.15 38.88C13.9958 38.8436 13.8452 38.7934 13.7 38.73C13.336 38.5755 12.982 38.3985 12.64 38.2L12.43 38.05C11.6742 37.474 11.0617 36.7312 10.6402 35.8795C10.2187 35.0278 9.99958 34.0903 10 33.14C10 31.5487 10.6321 30.0226 11.7574 28.8974C12.8826 27.7722 14.4087 27.14 16 27.14C17.5913 27.14 19.1174 27.7722 20.2426 28.8974C21.3679 30.0226 22 31.5487 22 33.14Z" fill="#FFA76C"/>
    <path d="M60.92 50.2701V51.6H35.1V50.2701C35.1034 47.7577 35.8573 45.3037 37.2648 43.2226C38.6724 41.1416 40.6695 39.5284 43 38.59L43.27 38.44L43.56 38.35C43.861 38.2336 44.1682 38.1335 44.48 38.05L44.69 38.2001C45.032 38.3985 45.386 38.5755 45.75 38.73C45.8952 38.7935 46.0458 38.8437 46.2 38.8801C46.3498 38.9073 46.497 38.9474 46.64 39C46.7348 39.0404 46.8369 39.0609 46.94 39.0601H47.08C47.4093 39.1245 47.7444 39.1547 48.08 39.1501C48.2563 39.1662 48.4337 39.1662 48.61 39.1501C49.5864 39.0442 50.5264 38.7195 51.36 38.2001L51.57 38.05C51.8222 38.112 52.0695 38.1922 52.31 38.2901L52.46 38.35C52.5809 38.3765 52.6983 38.4167 52.81 38.4701C55.194 39.3897 57.2443 41.0087 58.6916 43.1146C60.139 45.2205 60.9157 47.7148 60.92 50.2701Z" fill="#3FE3BF"/>
    <path d="M54 33.14C53.9946 34.0945 53.7678 35.0347 53.3375 35.8867C52.9071 36.7387 52.285 37.4792 51.52 38.05L51.31 38.2C50.4764 38.7195 49.5364 39.0442 48.56 39.15C48.3837 39.1661 48.2063 39.1661 48.03 39.15C47.6945 39.1546 47.3593 39.1245 47.03 39.06H46.89C46.7869 39.0608 46.6848 39.0404 46.59 39C46.4471 38.9474 46.2999 38.9072 46.15 38.88C45.9958 38.8436 45.8452 38.7934 45.7 38.73C45.336 38.5755 44.982 38.3985 44.64 38.2L44.43 38.05C43.6742 37.474 43.0617 36.7312 42.6402 35.8795C42.2187 35.0278 41.9996 34.0903 42 33.14C42 31.5487 42.6321 30.0226 43.7574 28.8974C44.8826 27.7722 46.4087 27.14 48 27.14C49.5913 27.14 51.1174 27.7722 52.2426 28.8974C53.3679 30.0226 54 31.5487 54 33.14Z" fill="#FFA76C"/>
    <path d="M26.41 17.7401C26.423 18.7749 26.8308 19.7658 27.55 20.5101C26.4589 20.685 25.355 20.7686 24.25 20.7601C22.449 20.7718 20.6551 20.5329 18.92 20.0501L15 22.0001L16.26 19.0001C14 17.8501 12.5 16.1401 12.5 14.2601C12.5 10.7201 17.75 7.81006 24.25 7.81006C29 7.81006 33 9.33006 34.89 11.5301C29.99 12.3101 26.41 14.8001 26.41 17.7401Z" fill="#FC566A"/>
    <path d="M46.1399 22.46L47.3799 25.51L43.4799 23.51C41.7481 23.9921 39.9576 24.2311 38.1599 24.22C33.4699 24.22 29.4299 22.69 27.5499 20.49C26.8307 19.7457 26.423 18.7549 26.4099 17.72C26.4099 14.78 29.9899 12.29 34.8899 11.51C35.973 11.353 37.0655 11.2694 38.1599 11.26C44.6499 11.26 49.8999 14.17 49.8999 17.72C49.8999 19.6 48.4499 21.31 46.1399 22.44" fill="#FACC27"/>
    <path d="M24.25 7.81006C17.75 7.81006 12.5 10.7201 12.5 14.2601C12.5 16.1201 13.92 17.8101 16.18 18.9401H16.26L15 22.0001L18.78 20.0701L19.26 19.0001C17 17.8501 15.5 16.1401 15.5 14.2601C15.5 11.2601 19.21 8.76006 24.24 8.03006C23.75 7.96006 23.24 7.90006 22.73 7.87006C23.23 7.87006 23.73 7.81006 24.25 7.81006Z" fill="#FFACD4"/>
    <path d="M44.47 38.05C44.1582 38.1335 43.851 38.2336 43.55 38.35L43.26 38.44L42.99 38.59C40.6613 39.53 38.6664 41.1438 37.2607 43.2247C35.855 45.3056 35.1026 47.7589 35.1 50.2701V51.6H38.1V50.2701C38.1023 47.8122 38.8229 45.4086 40.1732 43.3548C41.5234 41.301 43.4444 39.6866 45.7 38.71C45.358 38.5575 45.0242 38.3873 44.7 38.2001L44.49 38.05" fill="#7EFFFF"/>
    <path d="M48 27.14C46.4087 27.14 44.8826 27.7722 43.7574 28.8974C42.6321 30.0226 42 31.5487 42 33.14C42.0054 34.0945 42.2322 35.0347 42.6625 35.8867C43.0929 36.7387 43.715 37.4792 44.48 38.05L44.69 38.2C45.0142 38.3873 45.348 38.5575 45.69 38.71L45.98 38.59L46.25 38.44L46.54 38.35C46.8411 38.2336 47.1482 38.1334 47.46 38.05C46.6987 37.4771 46.0804 36.7357 45.6536 35.8838C45.2268 35.0319 45.0031 34.0928 45 33.14C45.0098 32.0963 45.2917 31.0733 45.8178 30.1718C46.3439 29.2704 47.0961 28.5218 48 28C47.532 27.7255 47.0268 27.52 46.5 27.39C46.9855 27.2572 47.4866 27.1899 47.99 27.19" fill="#FFFFD8"/>
    <path d="M12.46 38.05C12.1477 38.132 11.8405 38.2322 11.54 38.35L11.25 38.44L10.98 38.59C8.65022 39.5296 6.65388 41.143 5.24651 43.2238C3.83913 45.3046 3.08476 47.758 3.07996 50.2701V51.6H6.07996V50.2701C6.08315 47.8111 6.80522 45.4066 8.15732 43.3527C9.50941 41.2988 11.4325 39.6851 13.69 38.71C13.348 38.5575 13.0142 38.3873 12.69 38.2001L12.48 38.05" fill="#A6FFFF"/>
    <path d="M16 27.14C14.4087 27.14 12.8826 27.7722 11.7574 28.8974C10.6321 30.0226 10 31.5487 10 33.14C10.0054 34.0945 10.2322 35.0347 10.6625 35.8867C11.0929 36.7387 11.715 37.4792 12.48 38.05L12.69 38.2C13.0142 38.3873 13.348 38.5575 13.69 38.71L13.98 38.59L14.25 38.44L14.54 38.35C14.8405 38.2321 15.1477 38.1319 15.46 38.05C14.6987 37.4771 14.0804 36.7357 13.6536 35.8838C13.2268 35.0319 13.0031 34.0928 13 33.14C13.0098 32.0963 13.2917 31.0733 13.8178 30.1718C14.3439 29.2704 15.0961 28.5218 16 28C15.532 27.7255 15.0268 27.52 14.5 27.39C14.9822 27.2578 15.48 27.1905 15.98 27.19" fill="#FFFFD8"/>
    <path d="M38.16 11.28C37.67 11.28 37.16 11.28 36.71 11.35C42.47 11.76 46.91 14.48 46.91 17.74C46.91 19.62 45.46 21.33 43.15 22.46L43.61 23.59L47.39 25.51L46.15 22.46C48.46 21.33 49.91 19.62 49.91 17.74C49.9248 17.5303 49.9248 17.3198 49.91 17.11C49.33 13.86 44.32 11.28 38.22 11.28" fill="#BB991D"/>
    <path d="M24.25 7.81006C24.75 7.81006 25.25 7.81006 25.73 7.87006C25.22 7.87006 24.73 7.96006 24.24 8.03006C27.64 8.52006 30.42 9.82006 31.89 11.5301C32.8087 11.4054 33.7333 11.3287 34.66 11.3001C32.72 9.25006 28.87 7.83006 24.38 7.81006H24.25Z" fill="#BD404F"/>
    <path d="M24.25 7.81006C23.73 7.81006 23.25 7.81006 22.73 7.87006C23.25 7.87006 23.73 7.96006 24.24 8.03006C24.75 8.10006 25.24 7.90006 25.73 7.87006C25.24 7.87006 24.73 7.81006 24.25 7.81006Z" fill="#BF819F"/>
    <path d="M51.54 38.05L51.33 38.2001C51.0064 38.3856 50.6725 38.5525 50.33 38.7001C52.5758 39.6885 54.4859 41.3083 55.8281 43.3624C57.1703 45.4165 57.8866 47.8163 57.89 50.2701V51.6H60.89V50.2701C60.8857 47.7148 60.109 45.2205 58.6616 43.1146C57.2143 41.0087 55.164 39.3897 52.78 38.4701C52.6683 38.4167 52.5508 38.3765 52.43 38.35L52.28 38.2901C52.0394 38.1922 51.7921 38.112 51.54 38.05Z" fill="#2FAA8F"/>
    <path d="M48 27.14C48.4968 27.1399 48.9913 27.2071 49.47 27.34C48.9515 27.4902 48.4567 27.7123 48 28C48.9112 28.5261 49.6681 29.2826 50.1946 30.1935C50.7212 31.1044 50.9989 32.1378 51 33.19C50.9946 34.1445 50.7678 35.0847 50.3375 35.9367C49.9071 36.7887 49.285 37.5292 48.52 38.1C48.7722 38.1619 49.0195 38.2421 49.26 38.34L49.41 38.4C49.5309 38.4264 49.6483 38.4667 49.76 38.52L50.31 38.75C50.6526 38.6025 50.9864 38.4355 51.31 38.25L51.52 38.1C52.2918 37.5241 52.918 36.7756 53.3486 35.9143C53.7793 35.0531 54.0023 34.1029 54 33.14C54 31.5487 53.3679 30.0226 52.2426 28.8974C51.1174 27.7722 49.5913 27.14 48 27.14Z" fill="#BF7D51"/>
    <path d="M48 27.14C47.4966 27.1399 46.9955 27.2072 46.51 27.34C47.0361 27.4866 47.538 27.7089 48 28C48.4689 27.7272 48.9738 27.5218 49.5 27.39C49.0213 27.2571 48.5268 27.1899 48.03 27.19" fill="#BFBFA2"/>
    <path d="M19.5299 38.05L19.3199 38.2001C18.9964 38.3856 18.6625 38.5525 18.3199 38.7001C20.5703 39.6845 22.4853 41.3027 23.8313 43.3573C25.1774 45.4119 25.8961 47.8138 25.8999 50.2701V51.6H28.8999V50.2701C28.8979 47.7156 28.1231 45.2216 26.6775 43.1156C25.2318 41.0096 23.1829 39.3901 20.7999 38.4701C20.6877 38.4183 20.5704 38.3781 20.4499 38.35L20.2999 38.2901C20.0594 38.1922 19.8121 38.112 19.5599 38.05" fill="#3E87B2"/>
    <path d="M16 27.14C16.4968 27.1399 16.9913 27.2071 17.47 27.34C16.9515 27.4902 16.4567 27.7123 16 28C16.9112 28.5261 17.6681 29.2826 18.1946 30.1935C18.7212 31.1044 18.9989 32.1378 19 33.19C18.9946 34.1445 18.7678 35.0847 18.3375 35.9367C17.9071 36.7887 17.285 37.5292 16.52 38.1C16.7722 38.1619 17.0195 38.2421 17.26 38.34L17.41 38.4C17.5304 38.428 17.6477 38.4682 17.76 38.52L18.31 38.75C18.6525 38.6025 18.9864 38.4355 19.31 38.25L19.52 38.1C20.2918 37.5241 20.918 36.7756 21.3486 35.9143C21.7793 35.0531 22.0023 34.1029 22 33.14C22 31.5487 21.3679 30.0226 20.2426 28.8974C19.1174 27.7722 17.5913 27.14 16 27.14Z" fill="#BF7D51"/>
    <path d="M15.9999 27.14C15.4999 27.1405 15.0021 27.2078 14.5199 27.34C15.0425 27.4875 15.541 27.7098 15.9999 28C16.4687 27.7272 16.9737 27.5218 17.4999 27.39C17.0212 27.2571 16.5267 27.1899 16.0299 27.19" fill="#BFBFA2"/>
    <path d="M28.9 52.6H3.07998C2.81477 52.6 2.56041 52.4947 2.37288 52.3071C2.18534 52.1196 2.07998 51.8652 2.07998 51.6V50.27C2.07472 47.5699 2.8763 44.9297 4.38188 42.6883C5.88746 40.4468 8.02838 38.7063 10.53 37.69L10.67 37.62C10.7538 37.5649 10.8446 37.5212 10.94 37.49L11.23 37.4C11.5 37.29 11.83 37.19 12.23 37.08C12.3828 37.039 12.5431 37.0349 12.6978 37.0679C12.8526 37.1009 12.9972 37.1702 13.12 37.27L13.25 37.36L13.49 37.49C13.6885 37.6059 13.8958 37.7063 14.11 37.79C14.2054 37.8382 14.3061 37.8751 14.41 37.9C14.6 37.9364 14.7872 37.9865 14.97 38.05H15.22C15.5075 38.0977 15.7985 38.1211 16.09 38.12C16.173 38.1295 16.2569 38.1295 16.34 38.12H16.5C17.2811 38.0285 18.0323 37.7655 18.7 37.35L18.86 37.24C18.9773 37.1446 19.1148 37.077 19.262 37.0423C19.4092 37.0077 19.5624 37.0069 19.71 37.04C19.9754 37.1053 20.2361 37.1888 20.49 37.29C20.5944 37.3133 20.6953 37.3502 20.79 37.4C20.8696 37.4172 20.9469 37.4441 21.02 37.48C21.0531 37.4742 21.0869 37.4742 21.12 37.48C23.7015 38.4793 25.9211 40.2351 27.4878 42.5173C29.0545 44.7995 29.8952 47.5018 29.9 50.27V51.6C29.9 51.8652 29.7946 52.1196 29.6071 52.3071C29.4196 52.4947 29.1652 52.6 28.9 52.6ZM4.07998 50.6H27.9V50.27C27.8868 47.9368 27.1786 45.6605 25.866 43.7315C24.5533 41.8025 22.6956 40.3085 20.53 39.44L20.33 39.37C20.2803 39.3614 20.2296 39.3614 20.18 39.37L20 39.25H19.93L19.7 39.16C18.7845 39.7074 17.7608 40.0486 16.7 40.16C16.1095 40.2271 15.512 40.2001 14.93 40.08H14.86C14.6775 40.0722 14.498 40.0315 14.33 39.96L14 39.86C13.781 39.8131 13.5667 39.7462 13.36 39.66C13.0639 39.5401 12.7766 39.3998 12.5 39.24L12.3 39.14L11.91 39.28L11.66 39.36H11.56L11.35 39.47C9.19364 40.3317 7.34681 41.8229 6.05008 43.7493C4.75335 45.6756 4.06684 47.9479 4.07998 50.27V50.6Z" fill="#122163"/>
    <path d="M16 40.18C15.6141 40.1795 15.229 40.1427 14.85 40.07H14.78C14.5976 40.0622 14.418 40.0215 14.25 39.95L14 39.86C13.781 39.8131 13.5668 39.7462 13.36 39.66C13.064 39.5401 12.7766 39.3998 12.5 39.24L12.21 39.09C12.1353 39.0725 12.0642 39.042 12 39C11.9208 38.9593 11.8469 38.9089 11.78 38.85C10.9069 38.1778 10.2015 37.3123 9.71917 36.3216C9.23682 35.3309 8.99066 34.2419 9.00001 33.14C9.00001 31.2835 9.73751 29.503 11.0503 28.1903C12.363 26.8775 14.1435 26.14 16 26.14C17.8565 26.14 19.637 26.8775 20.9498 28.1903C22.2625 29.503 23 31.2835 23 33.14C22.9977 34.2418 22.74 35.3281 22.2473 36.3137C21.7545 37.2992 21.0401 38.1571 20.16 38.82L20 39L19.88 39.09C18.9197 39.6891 17.8357 40.0619 16.71 40.18C16.4738 40.2011 16.2362 40.2011 16 40.18ZM15.19 38.1C15.4775 38.1477 15.7686 38.1711 16.06 38.17C16.1431 38.1795 16.2269 38.1795 16.31 38.17H16.47C17.2511 38.0785 18.0023 37.8156 18.67 37.4L18.83 37.29C19.494 36.819 20.0368 36.1973 20.414 35.4759C20.7912 34.7546 20.992 33.954 21 33.14C21 31.8139 20.4732 30.5422 19.5355 29.6045C18.5979 28.6668 17.3261 28.14 16 28.14C14.6739 28.14 13.4022 28.6668 12.4645 29.6045C11.5268 30.5422 11 31.8139 11 33.14C11.005 33.9404 11.1966 34.7285 11.5594 35.442C11.9221 36.1554 12.4462 36.7745 13.09 37.25L13.22 37.34L13.46 37.47C13.6586 37.586 13.8659 37.6863 14.08 37.77C14.1754 37.8182 14.2761 37.8551 14.38 37.88C14.5701 37.9164 14.7572 37.9665 14.94 38.03L15.19 38.1Z" fill="#122163"/>
    <path d="M60.92 52.6H35.1C34.8348 52.6 34.5804 52.4947 34.3929 52.3071C34.2054 52.1196 34.1 51.8652 34.1 51.6V50.27C34.0939 47.571 34.894 44.9317 36.3978 42.6904C37.9015 40.449 40.0403 38.7079 42.54 37.69L42.68 37.62C42.7638 37.5649 42.8546 37.5212 42.95 37.49L43.2 37.41C43.51 37.29 43.84 37.19 44.2 37.09C44.3535 37.046 44.5153 37.0393 44.6719 37.0707C44.8285 37.102 44.9753 37.1703 45.1 37.27L45.23 37.36L45.47 37.49C45.6686 37.6059 45.8759 37.7063 46.09 37.79C46.1827 37.8364 46.2799 37.8733 46.38 37.9C46.5737 37.9349 46.7643 37.9851 46.95 38.05H47.21C47.5009 38.0978 47.7952 38.1212 48.09 38.12C48.1664 38.1298 48.2437 38.1298 48.32 38.12H48.49C49.2711 38.0285 50.0223 37.7655 50.69 37.35L50.85 37.24C50.9673 37.1446 51.1048 37.077 51.252 37.0423C51.3993 37.0077 51.5524 37.0069 51.7 37.04C51.9622 37.1053 52.2195 37.1888 52.47 37.29C52.5747 37.3072 52.6759 37.341 52.77 37.39L53.02 37.48H53.11C55.6757 38.4815 57.8815 40.2304 59.4416 42.5001C61.0017 44.7699 61.8442 47.4558 61.86 50.21V51.6C61.8605 51.8551 61.7634 52.1008 61.5886 52.2867C61.4139 52.4726 61.1747 52.5847 60.92 52.6ZM36.1 50.6H59.92V50.27C59.9073 47.9353 59.1983 45.6576 57.8835 43.7282C56.5688 41.7989 54.7083 40.3058 52.54 39.44L52.34 39.37H52.19C52.1169 39.3522 52.0464 39.3253 51.98 39.29L51.75 39.2C50.8345 39.7474 49.8108 40.0886 48.75 40.2C48.1595 40.2666 47.5621 40.2396 46.98 40.12H46.8C46.6179 40.1028 46.4394 40.059 46.27 39.99L46 39.86C45.781 39.8131 45.5668 39.7462 45.36 39.66C45.064 39.5401 44.7766 39.3998 44.5 39.24L44.3 39.14L43.91 39.28L43.66 39.36H43.57C43.5046 39.4049 43.4341 39.4418 43.36 39.47C41.2047 40.3322 39.3593 41.8237 38.0642 43.7502C36.7692 45.6767 36.0847 47.9487 36.1 50.27V50.6Z" fill="#122163"/>
    <path d="M48 40.18C47.6141 40.1795 47.229 40.1427 46.85 40.07H46.8C46.6179 40.0528 46.4394 40.009 46.27 39.94L46 39.86C45.781 39.8131 45.5667 39.7462 45.36 39.66C45.0639 39.5401 44.7766 39.3998 44.5 39.24L44.21 39.09C44.1473 39.0593 44.09 39.0188 44.04 38.97C43.9608 38.9293 43.8869 38.8789 43.82 38.82C42.9436 38.155 42.233 37.2962 41.7438 36.3108C41.2545 35.3254 41 34.2402 41 33.14C41 31.2835 41.7375 29.503 43.0503 28.1903C44.363 26.8775 46.1435 26.14 48 26.14C49.8565 26.14 51.637 26.8775 52.9497 28.1903C54.2625 29.503 55 31.2835 55 33.14C54.9977 34.2418 54.74 35.3281 54.2473 36.3137C53.7545 37.2992 53.0401 38.1571 52.16 38.82L52 39L51.88 39.09C50.9176 39.6848 49.8346 40.0571 48.71 40.18C48.4738 40.2017 48.2362 40.2017 48 40.18ZM47.2 38.1C47.4909 38.1478 47.7852 38.1712 48.08 38.17C48.1564 38.1798 48.2337 38.1798 48.31 38.17H48.48C49.2611 38.0785 50.0123 37.8156 50.68 37.4L50.84 37.29C51.5021 36.8179 52.043 36.1958 52.4184 35.4744C52.7939 34.7531 52.9932 33.9532 53 33.14C53 31.8139 52.4732 30.5422 51.5355 29.6045C50.5979 28.6668 49.3261 28.14 48 28.14C46.6739 28.14 45.4021 28.6668 44.4645 29.6045C43.5268 30.5422 43 31.8139 43 33.14C43.005 33.9404 43.1965 34.7285 43.5593 35.442C43.9221 36.1554 44.4462 36.7745 45.09 37.25L45.22 37.34L45.46 37.47C45.6586 37.586 45.8659 37.6863 46.08 37.77C46.1727 37.8164 46.2699 37.8533 46.37 37.88C46.5637 37.9149 46.7543 37.9651 46.94 38.03L47.2 38.1Z" fill="#122163"/>
    <path d="M15 23.0001C14.7474 22.9992 14.5044 22.9027 14.32 22.7301C14.1704 22.5924 14.0664 22.4124 14.0217 22.2141C13.9771 22.0158 13.9939 21.8086 14.07 21.6201L15 19.4401C12.76 18.1001 11.5 16.2501 11.5 14.2601C11.5 10.0801 17.1 6.81006 24.25 6.81006C29.13 6.81006 33.5 8.37006 35.65 10.8801C35.7661 11.0149 35.8442 11.1784 35.8761 11.3535C35.9079 11.5286 35.8925 11.709 35.8314 11.8762C35.7702 12.0433 35.6655 12.1911 35.5282 12.3043C35.3908 12.4175 35.2258 12.492 35.05 12.5201C30.62 13.2201 27.41 15.4201 27.41 17.7401C27.4232 18.5221 27.7343 19.2697 28.28 19.8301C28.4038 19.9624 28.4892 20.126 28.5273 20.3031C28.5653 20.4803 28.5545 20.6645 28.4959 20.836C28.4374 21.0075 28.3333 21.1599 28.1949 21.2769C28.0565 21.3938 27.8889 21.471 27.71 21.5001C26.5655 21.6791 25.4084 21.7661 24.25 21.7601C22.4799 21.7711 20.7156 21.556 19 21.1201L15.44 22.9301C15.3005 22.9862 15.1501 23.0101 15 23.0001ZM24.25 8.81006C18.42 8.81006 13.5 11.3101 13.5 14.2601C13.5 15.6901 14.67 17.0801 16.7 18.0901C16.9269 18.2008 17.1036 18.3932 17.1944 18.6288C17.2853 18.8644 17.2837 19.1256 17.19 19.3601L16.96 19.9301L18.47 19.1601C18.6957 19.0451 18.9566 19.0201 19.2 19.0901C20.8442 19.5463 22.5438 19.7718 24.25 19.7601C24.8 19.7601 25.33 19.7601 25.83 19.7001C25.5459 19.072 25.4026 18.3894 25.41 17.7001C25.41 14.7001 28.28 12.1301 32.73 10.9301C30.1579 9.44253 27.2195 8.70792 24.25 8.81006Z" fill="#122163"/>
    <path d="M47.38 26.51C47.2231 26.5128 47.068 26.4749 46.93 26.4L43.37 24.59C41.6689 25.0318 39.9175 25.2503 38.16 25.24C33.29 25.24 28.93 23.67 26.79 21.16C25.9111 20.2375 25.4174 19.0142 25.41 17.74C25.41 14.33 29.16 11.43 34.73 10.54C35.8664 10.3777 37.0122 10.2909 38.16 10.28C45.3 10.28 50.9 13.56 50.9 17.74C50.9 19.74 49.64 21.58 47.4 22.91L48.31 25.14C48.3861 25.3285 48.403 25.5357 48.3583 25.7341C48.3136 25.9324 48.2096 26.1123 48.06 26.25C47.8741 26.4191 47.6313 26.5119 47.38 26.51ZM43.48 22.51C43.6358 22.5079 43.7899 22.5421 43.93 22.61L45.44 23.38L45.21 22.82C45.1133 22.5844 45.1102 22.3207 45.2013 22.0829C45.2923 21.845 45.4707 21.6509 45.7 21.54C47.7 20.54 48.9 19.15 48.9 17.72C48.9 14.72 43.98 12.26 38.16 12.26C37.1125 12.2687 36.0667 12.3488 35.03 12.5C30.62 13.2 27.41 15.4 27.41 17.72C27.4232 18.5021 27.7344 19.2496 28.28 19.81C30.06 21.89 33.92 23.22 38.16 23.22C39.8496 23.2274 41.5321 23.002 43.16 22.55C43.2646 22.5243 43.373 22.5175 43.48 22.53V22.51Z" fill="#122163"/>
    <path d="M27.07 13.6801H19.29C19.0248 13.6801 18.7705 13.5747 18.5829 13.3872C18.3954 13.1996 18.29 12.9453 18.29 12.6801C18.29 12.4148 18.3954 12.1605 18.5829 11.9729C18.7705 11.7854 19.0248 11.6801 19.29 11.6801H27.07C27.3353 11.6801 27.5896 11.7854 27.7771 11.9729C27.9647 12.1605 28.07 12.4148 28.07 12.6801C28.07 12.9453 27.9647 13.1996 27.7771 13.3872C27.5896 13.5747 27.3353 13.6801 27.07 13.6801Z" fill="#122163"/>
    <path d="M26.69 17.3501H19.29C19.0248 17.3501 18.7705 17.2447 18.5829 17.0572C18.3954 16.8697 18.29 16.6153 18.29 16.3501C18.29 16.0849 18.3954 15.8305 18.5829 15.643C18.7705 15.4555 19.0248 15.3501 19.29 15.3501H26.69C26.9553 15.3501 27.2096 15.4555 27.3971 15.643C27.5847 15.8305 27.69 16.0849 27.69 16.3501C27.69 16.6153 27.5847 16.8697 27.3971 17.0572C27.2096 17.2447 26.9553 17.3501 26.69 17.3501Z" fill="#122163"/>
    <path d="M41.9999 16.55H34.1799C33.9147 16.55 33.6604 16.4447 33.4728 16.2572C33.2853 16.0696 33.1799 15.8153 33.1799 15.55C33.1799 15.2848 33.2853 15.0305 33.4728 14.8429C33.6604 14.6554 33.9147 14.55 34.1799 14.55H41.9999C42.2651 14.55 42.5195 14.6554 42.707 14.8429C42.8946 15.0305 42.9999 15.2848 42.9999 15.55C42.9999 15.8153 42.8946 16.0696 42.707 16.2572C42.5195 16.4447 42.2651 16.55 41.9999 16.55Z" fill="#122163"/>
    <path d="M41.9999 20.2201H34.1799C33.9147 20.2201 33.6604 20.1147 33.4728 19.9272C33.2853 19.7397 33.1799 19.4853 33.1799 19.2201C33.1799 18.9549 33.2853 18.7005 33.4728 18.513C33.6604 18.3255 33.9147 18.2201 34.1799 18.2201H41.9999C42.2651 18.2201 42.5195 18.3255 42.707 18.513C42.8946 18.7005 42.9999 18.9549 42.9999 19.2201C42.9999 19.4853 42.8946 19.7397 42.707 19.9272C42.5195 20.1147 42.2651 20.2201 41.9999 20.2201Z" fill="#122163"/>
</svg>
