<svg width="58" height="49" viewBox="0 0 58 49" fill="none" xmlns="http://www.w3.org/2000/svg">
    <path d="M17.44 47.9299H3.87999C3.26203 47.9299 2.66939 47.6845 2.23243 47.2475C1.79547 46.8105 1.54999 46.2179 1.54999 45.5999V18.9999C1.54999 18.1884 1.87238 17.4101 2.44624 16.8362C3.0201 16.2623 3.79843 15.9399 4.60999 15.9399H17.44V47.9399" fill="#E8E8E8"/>
    <path d="M53.89 47.9299H40.33V15.9299H53.16C53.5627 15.9299 53.9614 16.0094 54.3333 16.1638C54.7052 16.3182 55.043 16.5445 55.3273 16.8297C55.6116 17.1149 55.8368 17.4534 55.99 17.8258C56.1432 18.1983 56.2213 18.5972 56.22 18.9999V45.5999C56.22 46.2179 55.9745 46.8105 55.5376 47.2475C55.1006 47.6845 54.508 47.9299 53.89 47.9299Z" fill="#E8E8E8"/>
    <path d="M40.33 47.9299H17.44V4.99994C17.4426 4.18746 17.7673 3.40916 18.3427 2.83559C18.9182 2.26201 19.6975 1.93994 20.51 1.93994H37.26C38.0725 1.93994 38.8518 2.26201 39.4273 2.83559C40.0027 3.40916 40.3274 4.18746 40.33 4.99994V47.9299Z" fill="#9FEBFF"/>
    <path d="M35 47.9299H22.87C22.7692 47.9299 22.6726 47.8899 22.6013 47.8186C22.53 47.7473 22.49 47.6507 22.49 47.5499V37.7399C22.49 37.3182 22.6575 36.9138 22.9557 36.6156C23.2539 36.3174 23.6583 36.1499 24.08 36.1499H33.75C34.1717 36.1499 34.5761 36.3174 34.8743 36.6156C35.1725 36.9138 35.34 37.3182 35.34 37.7399V47.5499C35.3405 47.6441 35.306 47.7352 35.2432 47.8054C35.1804 47.8756 35.0937 47.92 35 47.9299Z" fill="#00BDFF"/>
    <path d="M10.96 20.21H8.04002C7.30548 20.21 6.71002 20.8054 6.71002 21.54V24.46C6.71002 25.1945 7.30548 25.79 8.04002 25.79H10.96C11.6946 25.79 12.29 25.1945 12.29 24.46V21.54C12.29 20.8054 11.6946 20.21 10.96 20.21Z" fill="#00BDFF"/>
    <path d="M10.96 28.2599H8.04002C7.30548 28.2599 6.71002 28.8554 6.71002 29.5899V32.5099C6.71002 33.2444 7.30548 33.8399 8.04002 33.8399H10.96C11.6946 33.8399 12.29 33.2444 12.29 32.5099V29.5899C12.29 28.8554 11.6946 28.2599 10.96 28.2599Z" fill="#00BDFF"/>
    <path d="M10.96 36.3099H8.04002C7.30548 36.3099 6.71002 36.9054 6.71002 37.6399V40.5599C6.71002 41.2945 7.30548 41.8899 8.04002 41.8899H10.96C11.6946 41.8899 12.29 41.2945 12.29 40.5599V37.6399C12.29 36.9054 11.6946 36.3099 10.96 36.3099Z" fill="#00BDFF"/>
    <path d="M49.73 20.21H46.81C46.0754 20.21 45.48 20.8054 45.48 21.54V24.46C45.48 25.1945 46.0754 25.79 46.81 25.79H49.73C50.4645 25.79 51.06 25.1945 51.06 24.46V21.54C51.06 20.8054 50.4645 20.21 49.73 20.21Z" fill="#00BDFF"/>
    <path d="M49.73 28.2599H46.81C46.0754 28.2599 45.48 28.8554 45.48 29.5899V32.5099C45.48 33.2444 46.0754 33.8399 46.81 33.8399H49.73C50.4645 33.8399 51.06 33.2444 51.06 32.5099V29.5899C51.06 28.8554 50.4645 28.2599 49.73 28.2599Z" fill="#00BDFF"/>
    <path d="M49.73 36.3099H46.81C46.0754 36.3099 45.48 36.9054 45.48 37.6399V40.5599C45.48 41.2945 46.0754 41.8899 46.81 41.8899H49.73C50.4645 41.8899 51.06 41.2945 51.06 40.5599V37.6399C51.06 36.9054 50.4645 36.3099 49.73 36.3099Z" fill="#00BDFF"/>
    <path d="M25.9 12.16H23C22.8253 12.16 22.6524 12.1256 22.491 12.0587C22.3297 11.9919 22.183 11.8939 22.0595 11.7704C21.936 11.6469 21.8381 11.5003 21.7712 11.3389C21.7044 11.1776 21.67 11.0046 21.67 10.83V7.91996C21.67 7.56629 21.8098 7.22696 22.0589 6.97595C22.3081 6.72494 22.6463 6.5826 23 6.57996H25.9C26.2536 6.5826 26.5919 6.72494 26.841 6.97595C27.0902 7.22696 27.23 7.56629 27.23 7.91996V10.83C27.23 11.1827 27.0899 11.521 26.8404 11.7704C26.591 12.0198 26.2527 12.16 25.9 12.16Z" fill="#00BDFF"/>
    <path d="M25.9 20.2099H23C22.6473 20.2099 22.309 20.0698 22.0596 19.8203C21.8101 19.5709 21.67 19.2326 21.67 18.8799V15.9999C21.666 15.8222 21.6974 15.6456 21.7623 15.4802C21.8273 15.3148 21.9245 15.164 22.0482 15.0365C22.172 14.909 22.3199 14.8074 22.4833 14.7376C22.6467 14.6678 22.8223 14.6312 23 14.6299H25.9C26.0777 14.6312 26.2533 14.6678 26.4167 14.7376C26.5802 14.8074 26.728 14.909 26.8518 15.0365C26.9756 15.164 27.0728 15.3148 27.1377 15.4802C27.2026 15.6456 27.234 15.8222 27.23 15.9999V18.9199C27.23 19.2726 27.0899 19.6109 26.8405 19.8603C26.591 20.1098 26.2528 20.2499 25.9 20.2499" fill="#00BDFF"/>
    <path d="M25.9 22.6799H22.98C22.2455 22.6799 21.65 23.2754 21.65 24.0099V26.9299C21.65 27.6645 22.2455 28.2599 22.98 28.2599H25.9C26.6346 28.2599 27.23 27.6645 27.23 26.9299V24.0099C27.23 23.2754 26.6346 22.6799 25.9 22.6799Z" fill="#00BDFF"/>
    <path d="M35.24 12.16H32.32C31.969 12.1573 31.6333 12.016 31.386 11.7669C31.1387 11.5178 31 11.181 31 10.83V7.91996C31 7.56629 31.1398 7.22696 31.3889 6.97595C31.6381 6.72494 31.9763 6.5826 32.33 6.57996H35.25C35.6037 6.5826 35.9419 6.72494 36.1911 6.97595C36.4402 7.22696 36.58 7.56629 36.58 7.91996V10.83C36.58 11.1827 36.4399 11.521 36.1905 11.7704C35.941 12.0198 35.6027 12.16 35.25 12.16" fill="#00BDFF"/>
    <path d="M35.24 20.2099H32.32C31.969 20.2073 31.6333 20.066 31.386 19.8169C31.1387 19.5677 31 19.2309 31 18.8799V15.9999C31.0026 15.648 31.1436 15.3112 31.3924 15.0624C31.6413 14.8135 31.9781 14.6725 32.33 14.6699H35.25C35.6002 14.6751 35.9344 14.8173 36.1811 15.0658C36.4278 15.3144 36.5674 15.6497 36.57 15.9999V18.9199C36.57 19.2727 36.4299 19.611 36.1805 19.8604C35.931 20.1098 35.5927 20.2499 35.24 20.2499" fill="#00BDFF"/>
    <path d="M35.24 28.2599H32.32C31.9698 28.2547 31.6356 28.1126 31.3889 27.864C31.1422 27.6154 31.0026 27.2801 31 26.9299V23.9999C31.0026 23.648 31.1436 23.3112 31.3924 23.0624C31.6413 22.8135 31.9781 22.6725 32.33 22.6699H35.25C35.6002 22.6751 35.9344 22.8173 36.1811 23.0658C36.4278 23.3144 36.5674 23.6497 36.57 23.9999V26.9199C36.5674 27.2718 36.4264 27.6086 36.1776 27.8575C35.9287 28.1063 35.5919 28.2473 35.24 28.2499" fill="#00BDFF"/>
    <path d="M24.51 1.92993H20.51C19.6958 1.92993 18.9149 2.25338 18.3392 2.82911C17.7634 3.40485 17.44 4.18572 17.44 4.99993V47.9299L22.44 47.5499L21.44 4.99993C21.4426 4.18745 21.7673 3.40915 22.3427 2.83558C22.9182 2.262 23.6975 1.93993 24.51 1.93993" fill="#77B0BF"/>
    <path d="M8.61 15.9299H4.61C4.20732 15.9299 3.80859 16.0094 3.43668 16.1638C3.06477 16.3182 2.72699 16.5445 2.44271 16.8297C2.15844 17.1149 1.93325 17.4534 1.78006 17.8258C1.62687 18.1983 1.54869 18.5972 1.55 18.9999V45.5999C1.54986 46.2093 1.78847 46.7945 2.21467 47.2301C2.64088 47.6656 3.22076 47.9169 3.83 47.9299H7.88C7.26205 47.9299 6.6694 47.6845 6.23244 47.2475C5.79549 46.8105 5.55 46.2179 5.55 45.5999V18.9999C5.55 18.1884 5.8724 17.41 6.44626 16.8362C7.02012 16.2623 7.79844 15.9399 8.61 15.9399" fill="#AEAEAE"/>
    <path d="M53.16 15.9299H49.16C49.5627 15.9299 49.9614 16.0094 50.3334 16.1638C50.7053 16.3182 51.043 16.5445 51.3273 16.8297C51.6116 17.1149 51.8368 17.4534 51.99 17.8258C52.1432 18.1983 52.2214 18.5972 52.22 18.9999V45.5999C52.22 46.2179 51.9746 46.8105 51.5376 47.2475C51.1006 47.6845 50.508 47.9299 49.89 47.9299H53.89C54.4993 47.9169 55.0792 47.6656 55.5054 47.2301C55.9316 46.7945 56.1702 46.2093 56.17 45.5999V18.9999C56.17 18.1884 55.8476 17.41 55.2738 16.8362C54.6999 16.2623 53.9216 15.9399 53.11 15.9399" fill="white"/>
    <path d="M37.26 1.92993H33.26C34.0742 1.92993 34.8551 2.25338 35.4308 2.82911C36.0066 3.40485 36.33 4.18572 36.33 4.99993V7.12993C36.4984 7.36273 36.5894 7.6426 36.59 7.92993V10.8399C36.5883 11.1506 36.4788 11.4511 36.28 11.6899V15.0899C36.4963 15.3324 36.6171 15.6451 36.62 15.9699V18.8899C36.6177 19.2373 36.4816 19.5704 36.24 19.8199V23.0599C36.3769 23.1874 36.4851 23.3424 36.5575 23.5148C36.6299 23.6872 36.6648 23.873 36.66 24.0599V26.9799C36.6598 27.1699 36.6186 27.3576 36.5392 27.5302C36.4598 27.7027 36.3441 27.8562 36.2 27.9799L36.01 47.6099L40.42 47.9799V4.99993C40.4174 4.18745 40.0927 3.40915 39.5173 2.83558C38.9418 2.262 38.1625 1.93993 37.35 1.93993" fill="white"/>
    <path d="M36.31 7.11987L36.26 11.6799C36.4588 11.441 36.5683 11.1406 36.57 10.8299V7.91987C36.5694 7.63254 36.4784 7.35268 36.31 7.11987Z" fill="#00FFFF"/>
    <path d="M36.23 15.08V19.81C36.4716 19.5604 36.6077 19.2273 36.61 18.88V16C36.6071 15.6751 36.4862 15.3624 36.27 15.12" fill="#00FFFF"/>
    <path d="M36.15 23.0499V27.9299C36.2941 27.8061 36.4098 27.6527 36.4892 27.4801C36.5686 27.3075 36.6098 27.1198 36.61 26.9299V23.9999C36.6148 23.813 36.5799 23.6271 36.5075 23.4547C36.4351 23.2824 36.3269 23.1273 36.19 22.9999" fill="#00FFFF"/>
    <path d="M4.60999 15.9299H17.44V47.9299H3.87999C3.26203 47.9299 2.66939 47.6844 2.23243 47.2475C1.79547 46.8105 1.54999 46.2179 1.54999 45.5999V18.9999C1.54999 18.1884 1.87238 17.41 2.44624 16.8362C3.0201 16.2623 3.79843 15.9399 4.60999 15.9399V15.9299Z" stroke="black" stroke-width="2" stroke-linecap="round" stroke-linejoin="round"/>
    <path d="M40.33 15.9299H53.16C53.5627 15.9299 53.9614 16.0094 54.3333 16.1638C54.7052 16.3182 55.043 16.5445 55.3273 16.8297C55.6116 17.1149 55.8368 17.4534 55.99 17.8258C56.1432 18.1983 56.2213 18.5972 56.22 18.9999V45.5999C56.22 46.2179 55.9745 46.8105 55.5376 47.2475C55.1006 47.6844 54.508 47.9299 53.89 47.9299H40.33V15.9299Z" stroke="black" stroke-width="2" stroke-linecap="round" stroke-linejoin="round"/>
    <path d="M20.51 1.92995H37.26C37.6635 1.92863 38.0633 2.00713 38.4364 2.16095C38.8094 2.31476 39.1484 2.54085 39.4337 2.82618C39.7191 3.11152 39.9451 3.45048 40.099 3.82355C40.2528 4.19661 40.3313 4.59642 40.33 4.99995V47.9299H17.44V4.99995C17.4386 4.59642 17.5171 4.19661 17.671 3.82355C17.8248 3.45048 18.0509 3.11152 18.3362 2.82618C18.6215 2.54085 18.9605 2.31476 19.3336 2.16095C19.7066 2.00713 20.1064 1.92863 20.51 1.92995Z" stroke="black" stroke-width="2" stroke-linecap="round" stroke-linejoin="round"/>
    <path d="M24.08 36.15H33.75C34.1717 36.15 34.5761 36.3175 34.8743 36.6157C35.1725 36.9138 35.34 37.3183 35.34 37.74V47.55C35.34 47.6507 35.3 47.7474 35.2287 47.8187C35.1574 47.8899 35.0608 47.93 34.96 47.93H22.87C22.7692 47.93 22.6726 47.8899 22.6013 47.8187C22.53 47.7474 22.49 47.6507 22.49 47.55V37.74C22.49 37.3183 22.6575 36.9138 22.9557 36.6157C23.2539 36.3175 23.6583 36.15 24.08 36.15Z" stroke="black" stroke-width="2" stroke-linecap="round" stroke-linejoin="round"/>
    <path d="M10.96 20.21H8.03996C7.30542 20.21 6.70996 20.8054 6.70996 21.54V24.46C6.70996 25.1945 7.30542 25.79 8.03996 25.79H10.96C11.6945 25.79 12.29 25.1945 12.29 24.46V21.54C12.29 20.8054 11.6945 20.21 10.96 20.21Z" stroke="black" stroke-width="2" stroke-linecap="round" stroke-linejoin="round"/>
    <path d="M10.96 28.2599H8.03996C7.30542 28.2599 6.70996 28.8554 6.70996 29.5899V32.5099C6.70996 33.2444 7.30542 33.8399 8.03996 33.8399H10.96C11.6945 33.8399 12.29 33.2444 12.29 32.5099V29.5899C12.29 28.8554 11.6945 28.2599 10.96 28.2599Z" stroke="black" stroke-width="2" stroke-linecap="round" stroke-linejoin="round"/>
    <path d="M10.96 36.3099H8.03996C7.30542 36.3099 6.70996 36.9054 6.70996 37.6399V40.5599C6.70996 41.2945 7.30542 41.8899 8.03996 41.8899H10.96C11.6945 41.8899 12.29 41.2945 12.29 40.5599V37.6399C12.29 36.9054 11.6945 36.3099 10.96 36.3099Z" stroke="black" stroke-width="2" stroke-linecap="round" stroke-linejoin="round"/>
    <path d="M49.73 20.21H46.81C46.0754 20.21 45.48 20.8054 45.48 21.54V24.46C45.48 25.1945 46.0754 25.79 46.81 25.79H49.73C50.4645 25.79 51.06 25.1945 51.06 24.46V21.54C51.06 20.8054 50.4645 20.21 49.73 20.21Z" stroke="black" stroke-width="2" stroke-linecap="round" stroke-linejoin="round"/>
    <path d="M49.73 28.2599H46.81C46.0754 28.2599 45.48 28.8554 45.48 29.5899V32.5099C45.48 33.2444 46.0754 33.8399 46.81 33.8399H49.73C50.4645 33.8399 51.06 33.2444 51.06 32.5099V29.5899C51.06 28.8554 50.4645 28.2599 49.73 28.2599Z" stroke="black" stroke-width="2" stroke-linecap="round" stroke-linejoin="round"/>
    <path d="M49.73 36.3099H46.81C46.0754 36.3099 45.48 36.9054 45.48 37.6399V40.5599C45.48 41.2945 46.0754 41.8899 46.81 41.8899H49.73C50.4645 41.8899 51.06 41.2945 51.06 40.5599V37.6399C51.06 36.9054 50.4645 36.3099 49.73 36.3099Z" stroke="black" stroke-width="2" stroke-linecap="round" stroke-linejoin="round"/>
    <path d="M25.9 6.57996H22.98C22.2454 6.57996 21.65 7.17542 21.65 7.90996V10.83C21.65 11.5645 22.2454 12.16 22.98 12.16H25.9C26.6345 12.16 27.23 11.5645 27.23 10.83V7.90996C27.23 7.17542 26.6345 6.57996 25.9 6.57996Z" stroke="black" stroke-width="2" stroke-linecap="round" stroke-linejoin="round"/>
    <path d="M25.9 14.63H22.98C22.2454 14.63 21.65 15.2255 21.65 15.96V18.88C21.65 19.6145 22.2454 20.21 22.98 20.21H25.9C26.6345 20.21 27.23 19.6145 27.23 18.88V15.96C27.23 15.2255 26.6345 14.63 25.9 14.63Z" stroke="black" stroke-width="2" stroke-linecap="round" stroke-linejoin="round"/>
    <path d="M25.9 22.6799H22.98C22.2454 22.6799 21.65 23.2754 21.65 24.0099V26.9299C21.65 27.6645 22.2454 28.2599 22.98 28.2599H25.9C26.6345 28.2599 27.23 27.6645 27.23 26.9299V24.0099C27.23 23.2754 26.6345 22.6799 25.9 22.6799Z" stroke="black" stroke-width="2" stroke-linecap="round" stroke-linejoin="round"/>
    <path d="M35.24 6.57996H32.32C31.5854 6.57996 30.99 7.17542 30.99 7.90996V10.83C30.99 11.5645 31.5854 12.16 32.32 12.16H35.24C35.9745 12.16 36.57 11.5645 36.57 10.83V7.90996C36.57 7.17542 35.9745 6.57996 35.24 6.57996Z" stroke="black" stroke-width="2" stroke-linecap="round" stroke-linejoin="round"/>
    <path d="M35.24 14.63H32.32C31.5854 14.63 30.99 15.2255 30.99 15.96V18.88C30.99 19.6145 31.5854 20.21 32.32 20.21H35.24C35.9745 20.21 36.57 19.6145 36.57 18.88V15.96C36.57 15.2255 35.9745 14.63 35.24 14.63Z" stroke="black" stroke-width="2" stroke-linecap="round" stroke-linejoin="round"/>
    <path d="M35.24 22.6799H32.32C31.5854 22.6799 30.99 23.2754 30.99 24.0099V26.9299C30.99 27.6645 31.5854 28.2599 32.32 28.2599H35.24C35.9745 28.2599 36.57 27.6645 36.57 26.9299V24.0099C36.57 23.2754 35.9745 22.6799 35.24 22.6799Z" stroke="black" stroke-width="2" stroke-linecap="round" stroke-linejoin="round"/>
</svg>
