<svg width="64" height="64" viewBox="0 0 64 64" fill="none" xmlns="http://www.w3.org/2000/svg">
    <path d="M45.12 20.6701C45.1179 20.9506 45.191 21.2265 45.3317 21.4692C45.4724 21.7119 45.6755 21.9125 45.92 22.0501V19.2701C45.6739 19.4109 45.47 19.615 45.3294 19.8611C45.1887 20.1073 45.1164 20.3866 45.12 20.6701ZM39.17 27.9101C38.1947 27.5125 37.2575 27.0272 36.37 26.4601V26.3301H36.24L32.5 26.8301L33.8 23.7601C33.2976 22.9584 33.0212 22.0359 33 21.0901C33 19.0301 34.25 17.1901 36.35 15.7401C36.9756 15.306 37.6461 14.9405 38.35 14.6501C38.61 14.5201 38.87 14.3901 39.15 14.2801C41.0235 13.5582 42.9962 13.1266 45 13.0001C44.6046 12.4543 44.084 12.0114 43.482 11.7086C42.8799 11.4058 42.2139 11.252 41.54 11.2601H10.7C9.53743 11.2601 8.42233 11.7212 7.59933 12.5423C6.77633 13.3635 6.31265 14.4775 6.31 15.6401V40.5501H45.92V29.2401C43.6106 29.1848 41.3277 28.735 39.17 27.9101ZM35.64 36.9101C35.6423 37.2749 35.6156 37.6394 35.56 38.0001H16.93C16.8728 37.6295 16.8461 37.255 16.85 36.8801C16.8533 34.7916 17.5505 32.7634 18.8321 31.1143C20.1137 29.4653 21.907 28.2889 23.93 27.7701C23.2975 27.3991 22.7734 26.8685 22.4102 26.2315C22.0469 25.5945 21.8572 24.8734 21.86 24.1401C21.8321 23.5639 21.9214 22.9881 22.1226 22.4476C22.3239 21.907 22.6328 21.4129 23.0306 20.9953C23.4285 20.5777 23.907 20.2452 24.4372 20.018C24.9674 19.7909 25.5382 19.6737 26.115 19.6737C26.6918 19.6737 27.2626 19.7909 27.7928 20.018C28.323 20.2452 28.8015 20.5777 29.1994 20.9953C29.5972 21.4129 29.9061 21.907 30.1074 22.4476C30.3086 22.9881 30.3979 23.5639 30.37 24.1401C30.3733 24.8585 30.1909 25.5657 29.8405 26.1929C29.4901 26.8201 28.9835 27.3462 28.37 27.7201C30.4374 28.2029 32.2808 29.3707 33.6007 31.0336C34.9205 32.6966 35.6392 34.757 35.64 36.8801M38.7 20.6701C38.7079 20.9902 38.8099 21.3009 38.9932 21.5635C39.1766 21.826 39.4333 22.0287 39.7311 22.1462C40.029 22.2638 40.3549 22.291 40.6682 22.2245C40.9814 22.1579 41.2681 22.0006 41.4925 21.7721C41.7169 21.5436 41.869 21.2541 41.9298 20.9397C41.9907 20.6253 41.9575 20.3 41.8346 20.0043C41.7117 19.7086 41.5044 19.4557 41.2386 19.2771C40.9727 19.0985 40.6602 19.0021 40.34 19.0001C40.1243 18.9987 39.9104 19.0403 39.7108 19.1222C39.5113 19.2041 39.3299 19.3249 39.1774 19.4775C39.0248 19.63 38.9041 19.8113 38.8221 20.0109C38.7402 20.2105 38.6987 20.4243 38.7 20.6401" fill="#96B2F1"/>
    <path d="M48.55 47.22H3.54998C3.31831 47.22 3.09599 47.1287 2.93124 46.9658C2.76649 46.803 2.67262 46.5817 2.66998 46.35V40.86C2.67256 40.7436 2.69823 40.6288 2.74549 40.5224C2.79276 40.4159 2.86068 40.3199 2.94533 40.2399C3.02998 40.1599 3.12966 40.0975 3.23861 40.0564C3.34755 40.0152 3.46358 39.996 3.57998 40H48.58C48.6951 40 48.809 40.0229 48.9152 40.0672C49.0215 40.1115 49.1178 40.1765 49.1987 40.2584C49.2796 40.3402 49.3435 40.4373 49.3867 40.544C49.4298 40.6507 49.4513 40.7649 49.45 40.88V46.37C49.45 46.6008 49.3583 46.8221 49.1952 46.9852C49.032 47.1484 48.8107 47.24 48.58 47.24" fill="#96B2F1"/>
    <path d="M42.42 28.8499V37.9999H35.56C35.6172 37.6294 35.6439 37.2548 35.64 36.8799C35.6392 34.7568 34.9205 32.6964 33.6007 31.0335C32.2808 29.3705 30.4374 28.2027 28.37 27.7199C28.9835 27.346 29.4901 26.82 29.8405 26.1927C30.1909 25.5655 30.3733 24.8584 30.37 24.1399C30.3979 23.5638 30.3086 22.988 30.1073 22.4474C29.9061 21.9068 29.5972 21.4128 29.1994 20.9951C28.8015 20.5775 28.323 20.245 27.7928 20.0179C27.2626 19.7907 26.6918 19.6736 26.115 19.6736C25.5382 19.6736 24.9674 19.7907 24.4372 20.0179C23.907 20.245 23.4285 20.5775 23.0306 20.9951C22.6328 21.4128 22.3239 21.9068 22.1226 22.4474C21.9214 22.988 21.8321 23.5638 21.86 24.1399C21.8572 24.8732 22.0469 25.5944 22.4102 26.2314C22.7734 26.8684 23.2975 27.3989 23.93 27.7699C21.9069 28.2887 20.1137 29.4651 18.8321 31.1141C17.5505 32.7632 16.8533 34.7914 16.85 36.8799C16.846 37.2548 16.8728 37.6294 16.93 37.9999H10.05V14.6499H38.37C37.6661 14.9403 36.9956 15.3058 36.37 15.7399C34.27 17.1899 33 18.9999 33 21.0899C33.0116 22.0407 33.2812 22.9704 33.78 23.7799L32.48 26.8499L36.22 26.3499H36.35V26.4799C37.2375 27.047 38.1747 27.5324 39.15 27.9299C40.2114 28.3302 41.3055 28.6381 42.42 28.8499Z" fill="#0FC3E3"/>
    <path d="M35.64 36.89C35.6434 37.2615 35.6166 37.6327 35.56 38H16.93C16.8728 37.6294 16.846 37.2549 16.85 36.88C16.8533 34.7915 17.5505 32.7633 18.8321 31.1142C20.1137 29.4652 21.9069 28.2888 23.93 27.77C24.5984 28.1842 25.371 28.3994 26.1573 28.3906C26.9436 28.3817 27.7111 28.1491 28.37 27.72C30.4391 28.2032 32.2838 29.3724 33.6038 31.0374C34.9238 32.7024 35.6415 34.7652 35.64 36.89Z" fill="#F49DAD"/>
    <path d="M30.37 24.1499C30.3733 24.8684 30.1909 25.5755 29.8405 26.2028C29.49 26.83 28.9835 27.3561 28.37 27.7299C27.7111 28.1591 26.9435 28.3917 26.1573 28.4005C25.371 28.4094 24.5984 28.1941 23.93 27.7799C23.2975 27.4089 22.7734 26.8784 22.4102 26.2414C22.0469 25.6044 21.8572 24.8832 21.86 24.1499C21.832 23.5738 21.9214 22.998 22.1226 22.4574C22.3238 21.9169 22.6328 21.4228 23.0306 21.0052C23.4285 20.5876 23.907 20.2551 24.4372 20.0279C24.9674 19.8007 25.5382 19.6836 26.115 19.6836C26.6918 19.6836 27.2626 19.8007 27.7928 20.0279C28.323 20.2551 28.8015 20.5876 29.1993 21.0052C29.5972 21.4228 29.9061 21.9169 30.1073 22.4574C30.3086 22.998 30.3979 23.5738 30.37 24.1499Z" fill="#F5C287"/>
    <path d="M47 12.8799C46.3315 12.8797 45.6636 12.9197 45 12.9999C43.0058 13.1326 41.0434 13.5676 39.18 14.2899C38.9 14.3999 38.64 14.5299 38.38 14.6599C37.6761 14.9503 37.0056 15.3158 36.38 15.7499C34.27 17.1899 33 18.9999 33 21.0899C33.0116 22.0406 33.2812 22.9704 33.78 23.7799L32.48 26.8499L36.22 26.3499H36.35V26.4799C37.2375 27.047 38.1747 27.5323 39.15 27.9299C41.3077 28.7548 43.5906 29.2046 45.9 29.2599C46.2618 29.3013 46.6259 29.318 46.99 29.3099C54.7 29.3099 60.99 25.6499 60.99 21.1099C60.99 16.5699 54.71 12.8999 46.99 12.8999M40.32 22.2999C39.9999 22.2901 39.6898 22.1862 39.4284 22.0012C39.167 21.8162 38.9659 21.5584 38.8502 21.2598C38.7344 20.9612 38.7092 20.6352 38.7776 20.3223C38.8461 20.0095 39.0051 19.7238 39.2349 19.5008C39.4648 19.2778 39.7552 19.1275 40.0699 19.0685C40.3847 19.0096 40.7098 19.0446 41.0048 19.1693C41.2997 19.294 41.5514 19.5029 41.7284 19.7697C41.9054 20.0366 41.9998 20.3497 42 20.6699C41.9948 21.0953 41.8235 21.5018 41.5227 21.8026C41.2219 22.1034 40.8154 22.2747 40.39 22.2799M46.8 22.2799C46.5069 22.2848 46.2187 22.205 45.97 22.0499C45.7255 21.9123 45.5224 21.7117 45.3817 21.4691C45.241 21.2264 45.1679 20.9504 45.17 20.6699C45.1664 20.3864 45.2387 20.1071 45.3793 19.861C45.52 19.6148 45.7239 19.4107 45.97 19.2699C46.2158 19.1074 46.5054 19.0237 46.8 19.0299C47.2089 19.062 47.5908 19.2471 47.8692 19.5483C48.1477 19.8495 48.3024 20.2447 48.3024 20.6549C48.3024 21.0651 48.1477 21.4602 47.8692 21.7614C47.5908 22.0627 47.2089 22.2478 46.8 22.2799ZM53.21 22.2799C52.8872 22.2779 52.5723 22.1801 52.3051 21.9989C52.038 21.8177 51.8306 21.5612 51.7094 21.262C51.5882 20.9629 51.5585 20.6344 51.6242 20.3184C51.6898 20.0023 51.8479 19.7129 52.0782 19.4867C52.3086 19.2606 52.6009 19.108 52.9181 19.0481C53.2353 18.9883 53.5631 19.0241 53.86 19.1508C54.1569 19.2775 54.4095 19.4895 54.5857 19.76C54.762 20.0304 54.8539 20.3471 54.85 20.6699C54.8487 20.8835 54.8052 21.0947 54.7219 21.2914C54.6387 21.4881 54.5173 21.6664 54.3649 21.816C54.2125 21.9657 54.032 22.0837 53.8338 22.1633C53.6356 22.2429 53.4236 22.2825 53.21 22.2799Z" fill="#F5C287"/>
    <path d="M42 20.67C41.9921 20.9893 41.8906 21.2992 41.7081 21.5613C41.5255 21.8234 41.27 22.026 40.9733 22.1442C40.6766 22.2623 40.3517 22.2906 40.039 22.2257C39.7263 22.1607 39.4396 22.0054 39.2144 21.7789C38.9893 21.5524 38.8356 21.2647 38.7726 20.9516C38.7095 20.6385 38.7398 20.3138 38.8597 20.0178C38.9796 19.7218 39.1838 19.4675 39.447 19.2866C39.7101 19.1056 40.0207 19.006 40.34 19C40.5603 18.9945 40.7795 19.034 40.9841 19.116C41.1887 19.1981 41.3743 19.3211 41.5297 19.4774C41.6851 19.6338 41.807 19.8202 41.8878 20.0252C41.9687 20.2303 42.0069 20.4497 42 20.67Z" fill="#0FC3E3"/>
    <path d="M48.36 20.6701C48.3574 21.0963 48.1869 21.5043 47.8855 21.8056C47.5842 22.107 47.1762 22.2775 46.75 22.2801C46.4569 22.2851 46.1687 22.2052 45.92 22.0501C45.6755 21.9125 45.4724 21.712 45.3317 21.4693C45.191 21.2266 45.1179 20.9506 45.12 20.6701C45.1164 20.3866 45.1887 20.1073 45.3294 19.8612C45.47 19.615 45.6739 19.4109 45.92 19.2701C46.1658 19.1076 46.4554 19.0239 46.75 19.0301C47.1806 19.0354 47.5915 19.2108 47.8932 19.5181C48.1949 19.8254 48.3627 20.2395 48.36 20.6701Z" fill="#0FC3E3"/>
    <path d="M54.8 20.67C54.7941 20.9931 54.6929 21.3071 54.5091 21.5729C54.3254 21.8386 54.0672 22.0441 53.7671 22.1636C53.4669 22.2832 53.1382 22.3114 52.822 22.2448C52.5059 22.1782 52.2165 22.0196 51.9901 21.7891C51.7638 21.5586 51.6105 21.2664 51.5497 20.9491C51.4888 20.6318 51.5229 20.3036 51.6479 20.0057C51.7729 19.7078 51.983 19.4534 52.252 19.2745C52.5211 19.0956 52.8369 19.0001 53.16 19C53.3783 18.9986 53.5947 19.0411 53.7962 19.1249C53.9978 19.2087 54.1805 19.3321 54.3335 19.4879C54.4864 19.6437 54.6065 19.8286 54.6867 20.0316C54.7668 20.2347 54.8053 20.4518 54.8 20.67Z" fill="#0FC3E3"/>
    <path d="M13.7 11.25H10.7C9.53743 11.25 8.42233 11.7111 7.59933 12.5323C6.77633 13.3534 6.31265 14.4674 6.31 15.63V40H9.31V15.63C9.31265 14.4674 9.77633 13.3534 10.5993 12.5323C11.4223 11.7111 12.5374 11.25 13.7 11.25Z" fill="#7085B5"/>
    <path d="M6.58001 40H3.58001C3.34662 40 3.12279 40.0927 2.95776 40.2577C2.79273 40.4228 2.70001 40.6466 2.70001 40.88V46.37C2.70264 46.6017 2.79652 46.8229 2.96127 46.9858C3.12601 47.1487 3.34834 47.24 3.58001 47.24H6.58001C6.34834 47.24 6.12601 47.1487 5.96127 46.9858C5.79652 46.8229 5.70264 46.6017 5.70001 46.37V40.86C5.70524 40.6301 5.80025 40.4114 5.96472 40.2506C6.12919 40.0899 6.35005 39.9999 6.58001 40Z" fill="#7085B5"/>
    <path d="M45.68 29.23C45.13 29.23 44.58 29.29 44.01 29.29C43.6459 29.2981 43.2818 29.2814 42.92 29.24V40H45.92V29.24H45.68" fill="white"/>
    <path d="M48.55 40H45.55C45.6651 40 45.779 40.0228 45.8853 40.0672C45.9915 40.1115 46.0878 40.1765 46.1687 40.2583C46.2497 40.3402 46.3135 40.4373 46.3567 40.544C46.3998 40.6507 46.4213 40.7649 46.42 40.88V46.37C46.42 46.6007 46.3283 46.822 46.1652 46.9852C46.002 47.1483 45.7807 47.24 45.55 47.24H48.55C48.7807 47.24 49.002 47.1483 49.1652 46.9852C49.3283 46.822 49.42 46.6007 49.42 46.37V40.86C49.4213 40.7449 49.3998 40.6307 49.3567 40.524C49.3135 40.4173 49.2497 40.3202 49.1687 40.2383C49.0878 40.1565 48.9915 40.0915 48.8853 40.0471C48.779 40.0028 48.6651 39.98 48.55 39.98" fill="white"/>
    <path d="M47 12.8799C46.53 12.8799 46 12.8799 45.57 12.9399C52.57 13.3999 57.99 16.8799 57.99 21.0899C57.99 25.2999 52.6 28.7399 45.67 29.2299H45.91C46.2718 29.2713 46.636 29.288 47 29.2799C54.71 29.2799 61 25.6199 61 21.0799C61 16.5399 54.72 12.8699 47 12.8699" fill="white"/>
    <path d="M41.53 11.25H38.53C39.2064 11.2414 39.875 11.396 40.479 11.7006C41.083 12.0053 41.6047 12.451 42 13C42.6638 12.9232 43.3317 12.8865 44 12.89C44.31 12.89 44.61 12.89 44.91 12.89C44.5198 12.3736 44.015 11.9549 43.4354 11.6668C42.8558 11.3787 42.2172 11.2292 41.57 11.23" fill="white"/>
    <path d="M45.92 41.5499H6.31C6.04478 41.5499 5.79043 41.4446 5.60289 41.257C5.41535 41.0695 5.31 40.8151 5.31 40.5499V15.6299C5.31265 14.2021 5.88169 12.8337 6.89222 11.8251C7.90276 10.8164 9.27221 10.2499 10.7 10.2499H41.53C42.3624 10.2434 43.1843 10.4361 43.9271 10.8118C44.6699 11.1876 45.312 11.7355 45.8 12.4099C45.9018 12.5539 45.9638 12.7222 45.9796 12.8978C45.9954 13.0734 45.9645 13.2501 45.89 13.4099C45.8144 13.5698 45.6978 13.7069 45.552 13.807C45.4062 13.9071 45.2364 13.9668 45.06 13.9799C43.1689 14.1122 41.3083 14.5268 39.54 15.2099C39.2907 15.3063 39.047 15.4165 38.81 15.5399C38.1544 15.809 37.5278 16.1441 36.94 16.5399C35.61 17.4799 34 18.9999 34 21.0899C34.0073 21.8573 34.2252 22.6079 34.63 23.2599C34.713 23.3952 34.7627 23.5482 34.7749 23.7065C34.787 23.8647 34.7614 24.0236 34.7 24.1699L34.08 25.6299L36.15 25.3499C36.2945 25.3199 36.4439 25.3223 36.5874 25.3569C36.7309 25.3915 36.865 25.4574 36.98 25.5499C37.0698 25.6278 37.1474 25.7188 37.21 25.8199C37.9579 26.2738 38.7403 26.6684 39.55 26.9999C40.5409 27.3888 41.5651 27.6867 42.61 27.8899C43.7068 28.1118 44.8212 28.2356 45.94 28.2599C46.2052 28.2599 46.4596 28.3653 46.6471 28.5528C46.8346 28.7403 46.94 28.9947 46.94 29.2599V40.5499C46.94 40.6829 46.9135 40.8146 46.862 40.9373C46.8105 41.0599 46.7351 41.1711 46.6401 41.2642C46.5451 41.3573 46.4325 41.4306 46.3088 41.4796C46.1852 41.5287 46.053 41.5526 45.92 41.5499ZM7.31 39.5499H44.92V30.1899C44.0087 30.1346 43.1028 30.0109 42.21 29.8199C41.0449 29.5926 39.9033 29.2578 38.8 28.8199C37.8309 28.4207 36.8947 27.9459 36 27.3999L32.65 27.8399C32.4756 27.8625 32.2983 27.8387 32.136 27.7709C31.9737 27.7031 31.8322 27.5937 31.7257 27.4537C31.6192 27.3138 31.5515 27.1482 31.5294 26.9737C31.5074 26.7992 31.5317 26.622 31.6 26.4599L32.71 23.8399C32.2603 22.9919 32.017 22.0497 32 21.0899C32 18.7599 33.31 16.6299 35.78 14.9199C36.4728 14.4409 37.2175 14.0417 38 13.7299C38.2796 13.585 38.5667 13.4548 38.86 13.3399C39.9876 12.9028 41.1523 12.5681 42.34 12.3399C42.0845 12.2793 41.8226 12.2491 41.56 12.2499H10.7C9.80264 12.2499 8.9419 12.6057 8.30643 13.2393C7.67097 13.8729 7.31264 14.7326 7.31 15.6299V39.5499ZM35.56 38.9999H16.93C16.6873 39.0023 16.4521 38.9164 16.2681 38.7581C16.0841 38.5999 15.964 38.3802 15.93 38.1399C15.8695 37.7227 15.8394 37.3015 15.84 36.8799C15.8407 34.8734 16.4229 32.9102 17.5161 31.2277C18.6094 29.5452 20.1668 28.2157 22 27.3999C21.2604 26.4783 20.8582 25.3316 20.86 24.1499C20.829 23.4405 20.942 22.7322 21.1922 22.0677C21.4423 21.4031 21.8244 20.7961 22.3154 20.2832C22.8064 19.7703 23.3962 19.3621 24.0492 19.0833C24.7022 18.8044 25.4049 18.6606 26.115 18.6606C26.8251 18.6606 27.5278 18.8044 28.1808 19.0833C28.8338 19.3621 29.4236 19.7703 29.9146 20.2832C30.4056 20.7961 30.7877 21.4031 31.0378 22.0677C31.288 22.7322 31.401 23.4405 31.37 24.1499C31.3745 25.2913 31.0018 26.4021 30.31 27.3099C32.1929 28.1036 33.7988 29.4368 34.9253 31.1416C36.0518 32.8464 36.6484 34.8466 36.64 36.8899C36.641 37.3116 36.6109 37.7327 36.55 38.1499C36.5141 38.3867 36.3944 38.6027 36.2127 38.7586C36.0311 38.9146 35.7994 39.0002 35.56 38.9999ZM17.85 36.9999H34.64V36.8799C34.6299 34.9857 33.985 33.1495 32.8085 31.6648C31.632 30.1801 29.9918 29.1327 28.15 28.6899C27.9574 28.6451 27.7825 28.5443 27.6472 28.4001C27.5119 28.256 27.4224 28.0749 27.39 27.8799C27.3604 27.6865 27.3883 27.4887 27.47 27.3109C27.5518 27.1332 27.6839 26.9833 27.85 26.8799C28.3176 26.5949 28.7033 26.1936 28.9697 25.7152C29.2361 25.2368 29.374 24.6975 29.37 24.1499C29.3945 23.7073 29.3286 23.2643 29.1761 22.848C29.0236 22.4318 28.7878 22.051 28.4831 21.729C28.1785 21.407 27.8113 21.1504 27.4041 20.9751C26.997 20.7998 26.5583 20.7094 26.115 20.7094C25.6717 20.7094 25.233 20.7998 24.8259 20.9751C24.4187 21.1504 24.0515 21.407 23.7469 21.729C23.4422 22.051 23.2064 22.4318 23.0539 22.848C22.9014 23.2643 22.8355 23.7073 22.86 24.1499C22.8562 24.7099 23.0002 25.2609 23.2777 25.7473C23.5551 26.2337 23.9561 26.6382 24.44 26.9199C24.6105 27.0205 24.7472 27.1694 24.833 27.3477C24.9188 27.5261 24.9498 27.7259 24.9219 27.9219C24.8941 28.1178 24.8087 28.3011 24.6766 28.4485C24.5446 28.5959 24.3717 28.7008 24.18 28.7499C22.3702 29.2101 20.7653 30.2602 19.619 31.7343C18.4727 33.2085 17.8502 35.0225 17.85 36.8899V36.9999ZM40.34 23.2799C39.8203 23.274 39.314 23.1142 38.8851 22.8207C38.4561 22.5273 38.1237 22.1133 37.9299 21.6311C37.736 21.1489 37.6894 20.62 37.7959 20.1113C37.9023 19.6026 38.1571 19.1368 38.5281 18.7728C38.8991 18.4088 39.3696 18.1629 39.8802 18.0661C40.3909 17.9693 40.9187 18.026 41.3972 18.2289C41.8756 18.4319 42.2832 18.7721 42.5685 19.2065C42.8538 19.641 43.0039 20.1502 43 20.6699C42.9974 21.0161 42.9264 21.3585 42.7912 21.6772C42.656 21.9959 42.4592 22.2848 42.212 22.5273C41.9649 22.7698 41.6723 22.9611 41.3511 23.0903C41.0298 23.2194 40.6862 23.2839 40.34 23.2799ZM40.34 20.0299C40.2513 20.0187 40.1612 20.0264 40.0757 20.0527C39.9902 20.079 39.9113 20.1231 39.8442 20.1823C39.7772 20.2414 39.7234 20.3141 39.6866 20.3956C39.6498 20.4771 39.6308 20.5655 39.6308 20.6549C39.6308 20.7443 39.6498 20.8327 39.6866 20.9142C39.7234 20.9957 39.7772 21.0684 39.8442 21.1276C39.9113 21.1867 39.9902 21.2309 40.0757 21.2571C40.1612 21.2834 40.2513 21.2912 40.34 21.2799C40.501 21.2773 40.6546 21.2122 40.7685 21.0984C40.8823 20.9846 40.9474 20.8309 40.95 20.6699C40.9554 20.5855 40.9438 20.5009 40.9158 20.4212C40.8878 20.3414 40.8441 20.268 40.7871 20.2055C40.7302 20.143 40.6613 20.0926 40.5845 20.0572C40.5077 20.0219 40.4245 20.0024 40.34 19.9999V20.0299ZM45.92 23.0299C45.7439 23.0281 45.5714 22.9798 45.42 22.8899C45.0257 22.6601 44.6986 22.331 44.4712 21.9353C44.2438 21.5396 44.1242 21.0913 44.1242 20.6349C44.1242 20.1786 44.2438 19.7302 44.4712 19.3345C44.6986 18.9388 45.0257 18.6097 45.42 18.3799C45.572 18.2921 45.7445 18.2459 45.92 18.2459C46.0955 18.2459 46.268 18.2921 46.42 18.3799C46.5726 18.468 46.6992 18.5949 46.787 18.7477C46.8748 18.9004 46.9207 19.0737 46.92 19.2499V22.0299C46.9189 22.2044 46.8722 22.3756 46.7845 22.5265C46.6968 22.6774 46.5711 22.8027 46.42 22.8899C46.2706 22.9868 46.0979 23.0421 45.92 23.0499V23.0299Z" fill="#710089"/>
    <path d="M48.55 48.22H3.55001C3.05835 48.2122 2.58933 48.012 2.2435 47.6624C1.89767 47.3129 1.70257 46.8417 1.70001 46.35V40.86C1.70528 40.3649 1.90567 39.8918 2.25767 39.5435C2.60967 39.1953 3.08485 39 3.58001 39H48.58C49.0769 39.0026 49.5525 39.2019 49.9029 39.5542C50.2533 39.9064 50.45 40.3831 50.45 40.88V46.37C50.4474 46.6164 50.3961 46.8599 50.2991 47.0865C50.2021 47.313 50.0612 47.5181 49.8847 47.69C49.7081 47.862 49.4993 47.9973 49.2702 48.0882C49.0412 48.1792 48.7964 48.224 48.55 48.22ZM3.70001 46.22H48.42V41H3.70001V46.22Z" fill="#710089"/>
    <path d="M40.34 23.2799C39.8203 23.2739 39.3141 23.1141 38.8851 22.8207C38.4562 22.5272 38.1238 22.1132 37.9299 21.631C37.7361 21.1488 37.6894 20.6199 37.7959 20.1112C37.9024 19.6025 38.1572 19.1368 38.5281 18.7728C38.8991 18.4088 39.3696 18.1628 39.8803 18.066C40.3909 17.9692 40.9188 18.0259 41.3972 18.2289C41.8757 18.4318 42.2833 18.772 42.5685 19.2065C42.8538 19.6409 43.004 20.1501 43 20.6698C42.9974 21.0161 42.9265 21.3584 42.7913 21.6771C42.656 21.9959 42.4592 22.2848 42.2121 22.5273C41.9649 22.7698 41.6723 22.9611 41.3511 23.0902C41.0298 23.2194 40.6863 23.2838 40.34 23.2799ZM40.34 20.0299C40.2513 20.0186 40.1612 20.0264 40.0758 20.0526C39.9903 20.0789 39.9114 20.1231 39.8443 20.1822C39.7772 20.2413 39.7235 20.314 39.6867 20.3955C39.6499 20.477 39.6308 20.5654 39.6308 20.6549C39.6308 20.7443 39.6499 20.8327 39.6867 20.9142C39.7235 20.9957 39.7772 21.0684 39.8443 21.1275C39.9114 21.1866 39.9903 21.2308 40.0758 21.2571C40.1612 21.2833 40.2513 21.2911 40.34 21.2799C40.501 21.2773 40.6547 21.2122 40.7685 21.0983C40.8824 20.9845 40.9475 20.8308 40.95 20.6698C40.9554 20.5855 40.9438 20.5009 40.9158 20.4211C40.8878 20.3413 40.8441 20.268 40.7872 20.2054C40.7303 20.1429 40.6613 20.0925 40.5845 20.0572C40.5077 20.0219 40.4246 20.0024 40.34 19.9998V20.0299Z" fill="#710089"/>
    <path d="M42.42 38.9999H35.56C35.4172 38.9985 35.2764 38.9665 35.1471 38.9061C35.0177 38.8458 34.9028 38.7584 34.81 38.6499C34.716 38.5429 34.646 38.4171 34.6046 38.2808C34.5633 38.1446 34.5514 38.0011 34.57 37.8599C34.6199 37.529 34.6433 37.1946 34.64 36.8599C34.6298 34.9656 33.985 33.1294 32.8085 31.6448C31.632 30.1601 29.9918 29.1127 28.15 28.6699C27.9574 28.6251 27.7825 28.5243 27.6472 28.3801C27.5119 28.236 27.4224 28.0549 27.39 27.8599C27.3604 27.6665 27.3883 27.4687 27.47 27.2909C27.5518 27.1132 27.6839 26.9633 27.85 26.8599C28.3176 26.5749 28.7033 26.1736 28.9697 25.6952C29.2361 25.2168 29.374 24.6775 29.37 24.1299C29.3945 23.6873 29.3285 23.2443 29.176 22.828C29.0236 22.4118 28.7878 22.031 28.4831 21.709C28.1784 21.3869 27.8113 21.1304 27.4041 20.9551C26.9969 20.7798 26.5583 20.6894 26.115 20.6894C25.6717 20.6894 25.233 20.7798 24.8259 20.9551C24.4187 21.1304 24.0515 21.3869 23.7469 21.709C23.4422 22.031 23.2064 22.4118 23.0539 22.828C22.9014 23.2443 22.8354 23.6873 22.86 24.1299C22.8562 24.6898 23.0002 25.2409 23.2777 25.7273C23.5551 26.2137 23.9561 26.6182 24.44 26.8999C24.6105 27.0005 24.7472 27.1494 24.833 27.3277C24.9188 27.5061 24.9497 27.7059 24.9219 27.9018C24.8941 28.0978 24.8087 28.2811 24.6766 28.4285C24.5446 28.5759 24.3717 28.6808 24.18 28.7299C22.3702 29.1901 20.7653 30.2402 19.619 31.7143C18.4727 33.1884 17.8502 35.0025 17.85 36.8699C17.8466 37.2046 17.87 37.539 17.92 37.8699C17.9402 38.0125 17.9293 38.1577 17.8882 38.2957C17.847 38.4337 17.7766 38.5611 17.6816 38.6694C17.5867 38.7776 17.4694 38.8641 17.338 38.9229C17.2066 38.9816 17.064 39.0113 16.92 39.0099H10.05C9.78477 39.0099 9.53042 38.9045 9.34288 38.717C9.15534 38.5295 9.04999 38.2751 9.04999 38.0099V14.6499C9.04999 14.3847 9.15534 14.1303 9.34288 13.9428C9.53042 13.7553 9.78477 13.6499 10.05 13.6499H38.37C38.6003 13.6503 38.8234 13.7303 39.0016 13.8762C39.1798 14.0221 39.3022 14.2251 39.3481 14.4508C39.3939 14.6766 39.3604 14.9112 39.2533 15.1151C39.1461 15.319 38.9719 15.4796 38.76 15.5699C38.1195 15.8376 37.5094 16.1729 36.94 16.5699C35.61 17.4799 34 18.9999 34 21.0899C34.0073 21.8573 34.2252 22.6079 34.63 23.2599C34.713 23.3951 34.7627 23.5482 34.7749 23.7065C34.787 23.8647 34.7614 24.0235 34.7 24.1699L34.08 25.6299L36.15 25.3499C36.2945 25.3199 36.4439 25.3223 36.5874 25.3569C36.7309 25.3915 36.865 25.4574 36.98 25.5499C37.0698 25.6278 37.1474 25.7188 37.21 25.8199C37.958 26.2737 38.7404 26.6683 39.55 26.9999C40.5443 27.3762 41.5677 27.6705 42.61 27.8799C42.8411 27.9246 43.0491 28.0494 43.1972 28.2323C43.3454 28.4152 43.4243 28.6445 43.42 28.8799V37.9999C43.42 38.2651 43.3146 38.5195 43.1271 38.707C42.9396 38.8945 42.6852 38.9999 42.42 38.9999ZM36.64 36.9999H41.42V29.6499C40.528 29.4443 39.6524 29.1736 38.8 28.8399C37.8295 28.4359 36.8931 27.9543 36 27.3999L32.65 27.8399C32.4756 27.8625 32.2983 27.8387 32.136 27.7709C31.9737 27.7031 31.8322 27.5937 31.7257 27.4537C31.6192 27.3137 31.5515 27.1482 31.5294 26.9737C31.5074 26.7992 31.5317 26.622 31.6 26.4599L32.71 23.8399C32.2602 22.9919 32.017 22.0497 32 21.0899C32.0347 20.0303 32.306 18.9918 32.7939 18.0505C33.2818 17.1093 33.9741 16.289 34.82 15.6499H11.05V36.9999H15.85V36.8799C15.8498 34.8745 16.4305 32.912 17.5219 31.2297C18.6133 29.5473 20.1687 28.2171 22 27.3999C21.2604 26.4783 20.8582 25.3316 20.86 24.1499C20.829 23.4405 20.942 22.7322 21.1922 22.0677C21.4423 21.4031 21.8244 20.7961 22.3154 20.2832C22.8064 19.7703 23.3962 19.3621 24.0492 19.0832C24.7022 18.8044 25.4049 18.6606 26.115 18.6606C26.825 18.6606 27.5278 18.8044 28.1808 19.0832C28.8338 19.3621 29.4235 19.7703 29.9146 20.2832C30.4056 20.7961 30.7877 21.4031 31.0378 22.0677C31.2879 22.7322 31.4009 23.4405 31.37 24.1499C31.3744 25.2912 31.0018 26.4021 30.31 27.3099C32.1929 28.1035 33.7988 29.4368 34.9253 31.1416C36.0518 32.8464 36.6484 34.8466 36.64 36.8899V36.9999Z" fill="#710089"/>
    <path d="M35.56 39H16.93C16.6874 39.0024 16.4521 38.9165 16.2682 38.7582C16.0842 38.6 15.964 38.3803 15.93 38.14C15.8695 37.7227 15.8394 37.3016 15.84 36.88C15.84 34.5673 16.6109 32.3206 18.0308 30.495C19.4506 28.6695 21.4385 27.3693 23.68 26.8C23.8121 26.7675 23.9493 26.7623 24.0834 26.7846C24.2175 26.807 24.3457 26.8564 24.46 26.93C24.9608 27.2431 25.5395 27.4091 26.13 27.4091C26.7206 27.4091 27.2993 27.2431 27.8 26.93C27.9149 26.8534 28.0444 26.8014 28.1804 26.7773C28.3163 26.7532 28.4558 26.7575 28.59 26.79C30.8748 27.3208 32.9111 28.6126 34.3649 30.4534C35.8186 32.2941 36.6032 34.5745 36.59 36.92C36.591 37.3416 36.5609 37.7628 36.5 38.18C36.4595 38.403 36.3443 38.6056 36.1736 38.7545C36.0028 38.9035 35.7865 38.9901 35.56 39ZM17.85 37H34.64V36.88C34.6304 35.0529 34.0302 33.2779 32.9291 31.8199C31.8279 30.3619 30.2848 29.2991 28.53 28.79C27.8028 29.1741 26.9946 29.3798 26.1723 29.3902C25.3499 29.4007 24.5368 29.2155 23.8 28.85C22.0831 29.3719 20.5788 30.4305 19.5078 31.8703C18.4369 33.3102 17.8559 35.0555 17.85 36.85V37Z" fill="#710089"/>
    <path d="M26.12 29.3999C25.1567 29.4107 24.2112 29.1396 23.4 28.6199C22.6235 28.1611 21.9805 27.5072 21.535 26.7231C21.0894 25.9389 20.8567 25.0518 20.86 24.1499C20.829 23.4406 20.942 22.7322 21.1922 22.0677C21.4423 21.4032 21.8244 20.7961 22.3154 20.2832C22.8064 19.7703 23.3962 19.3621 24.0492 19.0833C24.7022 18.8044 25.4049 18.6606 26.115 18.6606C26.825 18.6606 27.5277 18.8044 28.1808 19.0833C28.8338 19.3621 29.4235 19.7703 29.9146 20.2832C30.4056 20.7961 30.7877 21.4032 31.0378 22.0677C31.2879 22.7322 31.4009 23.4406 31.37 24.1499C31.3775 25.0402 31.1526 25.9171 30.7177 26.694C30.2828 27.4709 29.6528 28.1209 28.89 28.5799C28.0698 29.1249 27.1047 29.4106 26.12 29.3999ZM26.12 20.8899C25.2554 20.8899 24.4262 21.2334 23.8148 21.8448C23.2034 22.4561 22.86 23.2853 22.86 24.1499C22.8561 24.7099 23.0002 25.2609 23.2777 25.7473C23.5551 26.2337 23.9561 26.6382 24.44 26.9199C24.94 27.2431 25.5248 27.4102 26.12 27.3999C26.7207 27.4062 27.3094 27.232 27.81 26.8999C28.2872 26.6174 28.6823 26.215 28.956 25.7325C29.2296 25.2501 29.3723 24.7046 29.37 24.1499C29.37 23.2871 29.0279 22.4594 28.4187 21.8483C27.8095 21.2372 26.9829 20.8926 26.12 20.8899Z" fill="#710089"/>
    <path d="M47 30.2898C46.6091 30.2988 46.218 30.2787 45.83 30.2298C44.6098 30.2071 43.3945 30.0698 42.2 29.8198C41.0349 29.5925 39.8934 29.2577 38.79 28.8198C37.8236 28.4218 36.8906 27.9469 36 27.3998L32.65 27.8398C32.4756 27.8624 32.2983 27.8386 32.136 27.7708C31.9737 27.703 31.8322 27.5936 31.7257 27.4536C31.6192 27.3137 31.5515 27.1481 31.5295 26.9736C31.5074 26.7991 31.5317 26.6219 31.6 26.4598L32.71 23.8398C32.2603 22.9918 32.017 22.0496 32 21.0898C32 18.7598 33.31 16.6298 35.78 14.9198C36.4728 14.4408 37.2175 14.0416 38 13.7298C38.2797 13.5849 38.5667 13.4547 38.86 13.3398C40.7988 12.5946 42.8379 12.1429 44.91 11.9998C45.6072 11.9217 46.3084 11.885 47.01 11.8898C55.42 11.8898 62.01 15.8898 62.01 21.0998C62.01 26.3098 55.42 30.2898 47 30.2898ZM37.22 25.8198C37.9648 26.2732 38.7438 26.6677 39.55 26.9998C40.5443 27.3761 41.5677 27.6704 42.61 27.8798C43.7068 28.1017 44.8212 28.2255 45.94 28.2498H46.06C46.3747 28.2927 46.6925 28.3095 47.01 28.2998C54.01 28.2998 60.01 24.9998 60.01 21.0998C60.01 17.1998 54.01 13.8898 47.01 13.8898C46.3719 13.8831 45.7339 13.9165 45.1 13.9898C43.1953 14.1173 41.3208 14.532 39.54 15.2198C39.2907 15.3162 39.047 15.4264 38.81 15.5498C38.1544 15.8189 37.5279 16.154 36.94 16.5498C35.61 17.4798 34 18.9998 34 21.0898C34.0073 21.8572 34.2252 22.6078 34.63 23.2598C34.713 23.3951 34.7627 23.5481 34.7749 23.7064C34.787 23.8646 34.7614 24.0235 34.7 24.1698L34.08 25.6298L36.15 25.3498C36.2945 25.3198 36.4439 25.3222 36.5874 25.3568C36.7309 25.3914 36.865 25.4573 36.98 25.5498C37.0769 25.6262 37.1613 25.7173 37.23 25.8198H37.22ZM53.15 23.2798C52.7917 23.302 52.4326 23.2505 52.0949 23.1286C51.7572 23.0067 51.448 22.8169 51.1864 22.571C50.9249 22.325 50.7164 22.0282 50.5739 21.6986C50.4314 21.3691 50.3579 21.0139 50.3579 20.6548C50.3579 20.2958 50.4314 19.9406 50.5739 19.611C50.7164 19.2815 50.9249 18.9846 51.1864 18.7387C51.448 18.4928 51.7572 18.303 52.0949 18.1811C52.4326 18.0592 52.7917 18.0077 53.15 18.0298C53.5084 18.0077 53.8674 18.0592 54.2051 18.1811C54.5428 18.303 54.852 18.4928 55.1136 18.7387C55.3752 18.9846 55.5836 19.2815 55.7261 19.611C55.8686 19.9406 55.9421 20.2958 55.9421 20.6548C55.9421 21.0139 55.8686 21.3691 55.7261 21.6986C55.5836 22.0282 55.3752 22.325 55.1136 22.571C54.852 22.8169 54.5428 23.0067 54.2051 23.1286C53.8674 23.2505 53.5084 23.302 53.15 23.2798ZM53.15 20.0298C53.066 20.0284 52.9827 20.0441 52.9049 20.0759C52.8272 20.1077 52.7567 20.1549 52.6978 20.2148C52.6389 20.2746 52.5928 20.3458 52.5622 20.4241C52.5316 20.5023 52.5173 20.5859 52.52 20.6698C52.5213 20.7512 52.5386 20.8316 52.571 20.9063C52.6034 20.9811 52.6501 21.0487 52.7086 21.1053C52.7671 21.162 52.8362 21.2065 52.912 21.2365C52.9877 21.2664 53.0686 21.2811 53.15 21.2798C53.2387 21.2911 53.3288 21.2833 53.4143 21.257C53.4998 21.2308 53.5787 21.1866 53.6458 21.1275C53.7128 21.0684 53.7666 20.9956 53.8034 20.9141C53.8402 20.8326 53.8592 20.7442 53.8592 20.6548C53.8592 20.5654 53.8402 20.477 53.8034 20.3955C53.7666 20.314 53.7128 20.2413 53.6458 20.1822C53.5787 20.123 53.4998 20.0789 53.4143 20.0526C53.3288 20.0263 53.2387 20.0186 53.15 20.0298ZM46.74 23.2798C46.0467 23.2772 45.3823 23.0021 44.8902 22.5137C44.3981 22.0254 44.1179 21.3631 44.11 20.6698C44.1047 20.2099 44.2224 19.757 44.451 19.3578C44.6795 18.9587 45.0107 18.628 45.41 18.3998C45.8076 18.1375 46.2737 17.9984 46.75 17.9998C47.4182 18.0411 48.0455 18.3356 48.5041 18.8234C48.9626 19.3111 49.2179 19.9554 49.2179 20.6248C49.2179 21.2943 48.9626 21.9385 48.5041 22.4263C48.0455 22.914 47.4182 23.2086 46.75 23.2498L46.74 23.2798ZM46.74 20.0298C46.6451 20.0259 46.5511 20.0503 46.47 20.0998C46.3629 20.1519 46.2725 20.2329 46.2089 20.3336C46.1453 20.4343 46.111 20.5507 46.11 20.6698C46.1074 20.7744 46.1341 20.8775 46.1872 20.9677C46.2402 21.0578 46.3174 21.1313 46.41 21.1798C46.5012 21.2426 46.608 21.2789 46.7185 21.2848C46.829 21.2906 46.939 21.2658 47.0363 21.213C47.1336 21.1602 47.2144 21.0815 47.2698 20.9857C47.3252 20.8898 47.3529 20.7805 47.35 20.6698C47.3554 20.5863 47.3441 20.5025 47.3167 20.4233C47.2894 20.3442 47.2465 20.2713 47.1906 20.2089C47.1348 20.1465 47.067 20.0959 46.9914 20.06C46.9157 20.0241 46.8337 20.0036 46.75 19.9998L46.74 20.0298ZM40.33 23.2798C39.8108 23.2719 39.3055 23.1105 38.8779 22.8158C38.4503 22.5212 38.1194 22.1065 37.9271 21.6242C37.7348 21.1418 37.6896 20.6133 37.7971 20.1053C37.9047 19.5972 38.1603 19.1324 38.5316 18.7694C38.903 18.4064 39.3735 18.1615 39.8838 18.0655C40.3942 17.9695 40.9215 18.0267 41.3994 18.2299C41.8773 18.4332 42.2843 18.7733 42.5691 19.2075C42.854 19.6417 43.0039 20.1505 43 20.6698C42.9974 21.0161 42.9264 21.3584 42.7912 21.6771C42.656 21.9958 42.4592 22.2848 42.212 22.5272C41.9649 22.7697 41.6723 22.961 41.3511 23.0902C41.0298 23.2193 40.6862 23.2838 40.34 23.2798H40.33ZM40.33 20.0298C40.2413 20.0186 40.1512 20.0263 40.0657 20.0526C39.9803 20.0789 39.9013 20.123 39.8343 20.1822C39.7672 20.2413 39.7134 20.314 39.6766 20.3955C39.6398 20.477 39.6208 20.5654 39.6208 20.6548C39.6208 20.7442 39.6398 20.8326 39.6766 20.9141C39.7134 20.9956 39.7672 21.0684 39.8343 21.1275C39.9013 21.1866 39.9803 21.2308 40.0657 21.257C40.1512 21.2833 40.2413 21.2911 40.33 21.2798C40.491 21.2772 40.6446 21.2122 40.7585 21.0983C40.8723 20.9845 40.9374 20.8308 40.94 20.6698C40.9454 20.5863 40.9341 20.5025 40.9067 20.4233C40.8794 20.3442 40.8365 20.2713 40.7806 20.2089C40.7248 20.1465 40.657 20.0959 40.5814 20.06C40.5057 20.0241 40.4237 20.0036 40.34 19.9998L40.33 20.0298Z" fill="#710089"/>
    <path d="M40.34 23.2799C39.8203 23.2739 39.3141 23.1141 38.8851 22.8207C38.4562 22.5272 38.1238 22.1132 37.9299 21.631C37.7361 21.1488 37.6894 20.6199 37.7959 20.1112C37.9024 19.6025 38.1572 19.1368 38.5281 18.7728C38.8991 18.4088 39.3696 18.1628 39.8803 18.066C40.3909 17.9692 40.9188 18.0259 41.3972 18.2289C41.8757 18.4318 42.2833 18.772 42.5685 19.2065C42.8538 19.6409 43.004 20.1501 43 20.6698C42.9974 21.0161 42.9265 21.3584 42.7913 21.6771C42.656 21.9959 42.4592 22.2848 42.2121 22.5273C41.9649 22.7698 41.6723 22.9611 41.3511 23.0902C41.0298 23.2194 40.6863 23.2838 40.34 23.2799ZM40.34 20.0299C40.2513 20.0186 40.1612 20.0264 40.0758 20.0526C39.9903 20.0789 39.9114 20.1231 39.8443 20.1822C39.7772 20.2413 39.7235 20.314 39.6867 20.3955C39.6499 20.477 39.6308 20.5654 39.6308 20.6549C39.6308 20.7443 39.6499 20.8327 39.6867 20.9142C39.7235 20.9957 39.7772 21.0684 39.8443 21.1275C39.9114 21.1866 39.9903 21.2308 40.0758 21.2571C40.1612 21.2833 40.2513 21.2911 40.34 21.2799C40.501 21.2773 40.6547 21.2122 40.7685 21.0983C40.8824 20.9845 40.9475 20.8308 40.95 20.6698C40.9554 20.5855 40.9438 20.5009 40.9158 20.4211C40.8878 20.3413 40.8441 20.268 40.7872 20.2054C40.7303 20.1429 40.6613 20.0925 40.5845 20.0572C40.5077 20.0219 40.4246 20.0024 40.34 19.9998V20.0299Z" fill="#710089"/>
    <path d="M46.75 23.28C46.0567 23.2774 45.3923 23.0022 44.9002 22.5139C44.4081 22.0255 44.1279 21.3632 44.12 20.67C44.1147 20.2101 44.2324 19.7571 44.461 19.358C44.6895 18.9589 45.0206 18.6282 45.42 18.4C45.8147 18.1396 46.2771 18.0005 46.75 18C47.4182 18.0413 48.0455 18.3358 48.504 18.8235C48.9626 19.3113 49.2179 19.9555 49.2179 20.625C49.2179 21.2945 48.9626 21.9387 48.504 22.4265C48.0455 22.9142 47.4182 23.2087 46.75 23.25V23.28ZM46.75 20.03C46.655 20.0261 46.5611 20.0505 46.48 20.1C46.3729 20.1521 46.2824 20.2331 46.2188 20.3338C46.1553 20.4345 46.121 20.5509 46.12 20.67C46.1174 20.7745 46.1441 20.8777 46.1971 20.9679C46.2501 21.058 46.3273 21.1315 46.42 21.18C46.5112 21.2428 46.6179 21.2791 46.7285 21.2849C46.839 21.2908 46.949 21.2659 47.0463 21.2132C47.1436 21.1604 47.2244 21.0817 47.2798 20.9858C47.3351 20.89 47.3629 20.7807 47.36 20.67C47.3654 20.5856 47.3538 20.501 47.3258 20.4212C47.2978 20.3415 47.254 20.2681 47.1971 20.2056C47.1402 20.1431 47.0713 20.0927 46.9945 20.0573C46.9176 20.022 46.8345 20.0025 46.75 20V20.03Z" fill="#710089"/>
    <path d="M53.16 23.2799C52.8017 23.302 52.4426 23.2506 52.1049 23.1286C51.7672 23.0067 51.458 22.817 51.1964 22.571C50.9349 22.3251 50.7264 22.0282 50.5839 21.6987C50.4414 21.3692 50.3679 21.0139 50.3679 20.6549C50.3679 20.2959 50.4414 19.9406 50.5839 19.6111C50.7264 19.2816 50.9349 18.9847 51.1964 18.7388C51.458 18.4928 51.7672 18.3031 52.1049 18.1812C52.4426 18.0593 52.8017 18.0078 53.16 18.0299C53.5184 18.0078 53.8774 18.0593 54.2151 18.1812C54.5528 18.3031 54.862 18.4928 55.1236 18.7388C55.3852 18.9847 55.5936 19.2816 55.7361 19.6111C55.8786 19.9406 55.9521 20.2959 55.9521 20.6549C55.9521 21.0139 55.8786 21.3692 55.7361 21.6987C55.5936 22.0282 55.3852 22.3251 55.1236 22.571C54.862 22.817 54.5528 23.0067 54.2151 23.1286C53.8774 23.2506 53.5184 23.302 53.16 23.2799ZM53.16 20.0299C53.076 20.0285 52.9927 20.0442 52.9149 20.076C52.8372 20.1078 52.7668 20.155 52.7078 20.2149C52.6489 20.2747 52.6028 20.3459 52.5722 20.4241C52.5417 20.5024 52.5273 20.586 52.53 20.6699C52.5313 20.7513 52.5486 20.8317 52.581 20.9064C52.6134 20.9811 52.6602 21.0488 52.7187 21.1054C52.7772 21.162 52.8462 21.2066 52.922 21.2366C52.9977 21.2665 53.0786 21.2812 53.16 21.2799C53.2487 21.2911 53.3388 21.2834 53.4243 21.2571C53.5098 21.2308 53.5887 21.1867 53.6558 21.1276C53.7228 21.0684 53.7766 20.9957 53.8134 20.9142C53.8502 20.8327 53.8692 20.7443 53.8692 20.6549C53.8692 20.5655 53.8502 20.4771 53.8134 20.3956C53.7766 20.3141 53.7228 20.2414 53.6558 20.1822C53.5887 20.1231 53.5098 20.079 53.4243 20.0527C53.3388 20.0264 53.2487 20.0187 53.16 20.0299Z" fill="#710089"/>
    <path d="M40.34 23.2799C39.8203 23.2739 39.3141 23.1141 38.8851 22.8207C38.4562 22.5272 38.1238 22.1132 37.9299 21.631C37.7361 21.1488 37.6894 20.6199 37.7959 20.1112C37.9024 19.6025 38.1572 19.1368 38.5281 18.7728C38.8991 18.4088 39.3696 18.1628 39.8803 18.066C40.3909 17.9692 40.9188 18.0259 41.3972 18.2289C41.8757 18.4318 42.2833 18.772 42.5685 19.2065C42.8538 19.6409 43.004 20.1501 43 20.6698C42.9974 21.0161 42.9265 21.3584 42.7913 21.6771C42.656 21.9959 42.4592 22.2848 42.2121 22.5273C41.9649 22.7698 41.6723 22.9611 41.3511 23.0902C41.0298 23.2194 40.6863 23.2838 40.34 23.2799ZM40.34 20.0299C40.2513 20.0186 40.1612 20.0264 40.0758 20.0526C39.9903 20.0789 39.9114 20.1231 39.8443 20.1822C39.7772 20.2413 39.7235 20.314 39.6867 20.3955C39.6499 20.477 39.6308 20.5654 39.6308 20.6549C39.6308 20.7443 39.6499 20.8327 39.6867 20.9142C39.7235 20.9957 39.7772 21.0684 39.8443 21.1275C39.9114 21.1866 39.9903 21.2308 40.0758 21.2571C40.1612 21.2833 40.2513 21.2911 40.34 21.2799C40.501 21.2773 40.6547 21.2122 40.7685 21.0983C40.8824 20.9845 40.9475 20.8308 40.95 20.6698C40.9554 20.5855 40.9438 20.5009 40.9158 20.4211C40.8878 20.3413 40.8441 20.268 40.7872 20.2054C40.7303 20.1429 40.6613 20.0925 40.5845 20.0572C40.5077 20.0219 40.4246 20.0024 40.34 19.9998V20.0299Z" fill="#710089"/>
    <path d="M46.75 23.28C46.0567 23.2774 45.3923 23.0022 44.9002 22.5139C44.4081 22.0255 44.1279 21.3632 44.12 20.67C44.1147 20.2101 44.2324 19.7571 44.461 19.358C44.6895 18.9589 45.0206 18.6282 45.42 18.4C45.8147 18.1396 46.2771 18.0005 46.75 18C47.4182 18.0413 48.0455 18.3358 48.504 18.8235C48.9626 19.3113 49.2179 19.9555 49.2179 20.625C49.2179 21.2945 48.9626 21.9387 48.504 22.4265C48.0455 22.9142 47.4182 23.2087 46.75 23.25V23.28ZM46.75 20.03C46.655 20.0261 46.5611 20.0505 46.48 20.1C46.3729 20.1521 46.2824 20.2331 46.2188 20.3338C46.1553 20.4345 46.121 20.5509 46.12 20.67C46.1174 20.7745 46.1441 20.8777 46.1971 20.9679C46.2501 21.058 46.3273 21.1315 46.42 21.18C46.5112 21.2428 46.6179 21.2791 46.7285 21.2849C46.839 21.2908 46.949 21.2659 47.0463 21.2132C47.1436 21.1604 47.2244 21.0817 47.2798 20.9858C47.3351 20.89 47.3629 20.7807 47.36 20.67C47.3654 20.5856 47.3538 20.501 47.3258 20.4212C47.2978 20.3415 47.254 20.2681 47.1971 20.2056C47.1402 20.1431 47.0713 20.0927 46.9945 20.0573C46.9176 20.022 46.8345 20.0025 46.75 20V20.03Z" fill="#710089"/>
    <path d="M53.16 23.2799C52.8017 23.302 52.4426 23.2506 52.1049 23.1286C51.7672 23.0067 51.458 22.817 51.1964 22.571C50.9349 22.3251 50.7264 22.0282 50.5839 21.6987C50.4414 21.3692 50.3679 21.0139 50.3679 20.6549C50.3679 20.2959 50.4414 19.9406 50.5839 19.6111C50.7264 19.2816 50.9349 18.9847 51.1964 18.7388C51.458 18.4928 51.7672 18.3031 52.1049 18.1812C52.4426 18.0593 52.8017 18.0078 53.16 18.0299C53.5184 18.0078 53.8774 18.0593 54.2151 18.1812C54.5528 18.3031 54.862 18.4928 55.1236 18.7388C55.3852 18.9847 55.5936 19.2816 55.7361 19.6111C55.8786 19.9406 55.9521 20.2959 55.9521 20.6549C55.9521 21.0139 55.8786 21.3692 55.7361 21.6987C55.5936 22.0282 55.3852 22.3251 55.1236 22.571C54.862 22.817 54.5528 23.0067 54.2151 23.1286C53.8774 23.2506 53.5184 23.302 53.16 23.2799ZM53.16 20.0299C53.076 20.0285 52.9927 20.0442 52.9149 20.076C52.8372 20.1078 52.7668 20.155 52.7078 20.2149C52.6489 20.2747 52.6028 20.3459 52.5722 20.4241C52.5417 20.5024 52.5273 20.586 52.53 20.6699C52.5313 20.7513 52.5486 20.8317 52.581 20.9064C52.6134 20.9811 52.6602 21.0488 52.7187 21.1054C52.7772 21.162 52.8462 21.2066 52.922 21.2366C52.9977 21.2665 53.0786 21.2812 53.16 21.2799C53.2487 21.2911 53.3388 21.2834 53.4243 21.2571C53.5098 21.2308 53.5887 21.1867 53.6558 21.1276C53.7228 21.0684 53.7766 20.9957 53.8134 20.9142C53.8502 20.8327 53.8692 20.7443 53.8692 20.6549C53.8692 20.5655 53.8502 20.4771 53.8134 20.3956C53.7766 20.3141 53.7228 20.2414 53.6558 20.1822C53.5887 20.1231 53.5098 20.079 53.4243 20.0527C53.3388 20.0264 53.2487 20.0187 53.16 20.0299Z" fill="#710089"/>
</svg>
