<svg width="55" height="60" viewBox="0 0 55 60" fill="none" xmlns="http://www.w3.org/2000/svg">
    <path d="M43.38 35.49H11.33C10.5016 35.49 9.83002 36.1616 9.83002 36.99V41.02C9.83002 41.8484 10.5016 42.52 11.33 42.52H43.38C44.2084 42.52 44.88 41.8484 44.88 41.02V36.99C44.88 36.1616 44.2084 35.49 43.38 35.49Z" fill="#F5A463"/>
    <path d="M39.85 58.5H14.87L12.68 42.52H42.04L39.85 58.5Z" fill="#B65F22"/>
    <path d="M48.69 16.03C49.8774 16.03 50.84 15.0674 50.84 13.88C50.84 12.6926 49.8774 11.73 48.69 11.73C47.5026 11.73 46.54 12.6926 46.54 13.88C46.54 15.0674 47.5026 16.03 48.69 16.03Z" fill="#B65F22"/>
    <path d="M48.69 16.08L53.77 39.39L49.7 49.51L45.14 39.39L48.69 16.08Z" fill="#686FB3"/>
    <path d="M48.69 39C48.69 39 46.5 42.39 47.21 44" stroke="#1D1D1B" stroke-width="2" stroke-linecap="round" stroke-linejoin="round"/>
    <path d="M49.7 49.4999V58.4999" stroke="#1D1D1B" stroke-width="2" stroke-linecap="round" stroke-linejoin="round"/>
    <path d="M45.64 58.4999H53.77" stroke="#1D1D1B" stroke-width="2" stroke-linecap="round" stroke-linejoin="round"/>
    <path d="M4.75999 16.03C5.9474 16.03 6.90999 15.0674 6.90999 13.88C6.90999 12.6926 5.9474 11.73 4.75999 11.73C3.57257 11.73 2.60999 12.6926 2.60999 13.88C2.60999 15.0674 3.57257 16.03 4.75999 16.03Z" fill="#B65F22"/>
    <path d="M4.76001 16.08L9.83001 39.39L5.77001 49.51L1.20001 39.39L4.76001 16.08Z" fill="#686FB3"/>
    <path d="M4.76003 39C4.76003 39 2.56003 42.39 3.27003 44" stroke="#1D1D1B" stroke-width="2" stroke-linecap="round" stroke-linejoin="round"/>
    <path d="M5.77002 49.4999V58.4999" stroke="#1D1D1B" stroke-width="2" stroke-linecap="round" stroke-linejoin="round"/>
    <path d="M1.70001 58.4999H9.83001" stroke="#1D1D1B" stroke-width="2" stroke-linecap="round" stroke-linejoin="round"/>
    <path d="M33.09 5.52991V11.1799C33.0843 12.2058 32.8028 13.2112 32.275 14.0909C31.7472 14.9706 30.9925 15.6921 30.09 16.1799C29.2501 16.6457 28.3055 16.8901 27.345 16.8901C26.3846 16.8901 25.44 16.6457 24.6 16.1799C23.6962 15.6938 22.9403 14.9726 22.4123 14.0926C21.8843 13.2125 21.6036 12.2062 21.6 11.1799V6.82991H29.72C30.9681 6.84254 32.1738 6.37745 33.09 5.52991Z" fill="#F4C8A7"/>
    <path d="M25.17 35.4899H14.61V27.9199C14.61 25.7319 15.4792 23.6335 17.0264 22.0863C18.5735 20.5391 20.6719 19.6699 22.86 19.6699L23.07 21.0799L23.33 22.8999L24.69 32.1999L25.17 35.4899Z" fill="#686FB3"/>
    <path d="M39.82 27.92V35.49H29.55L30 32.14L31.14 23L31.4 21L31.57 19.71C33.7511 19.7099 35.8435 20.5736 37.3895 22.1122C38.9356 23.6507 39.8094 25.7389 39.82 27.92Z" fill="#686FB3"/>
    <path d="M30.11 16.21V19.67L27.3 22.49L24.48 19.67H24.62V16.21C25.4599 16.6758 26.4045 16.9202 27.365 16.9202C28.3254 16.9202 29.2701 16.6758 30.11 16.21Z" fill="#F4C8A7"/>
    <path d="M29.98 32.13V32.15L29.55 35.49H25.17L24.69 32.2L26.5 23.39L27.29 22.59L28.18 23.48L29.98 32.13Z" fill="#B65F22"/>
    <path d="M31.57 19.6799L31.4 20.9599L31.14 23.0199L29.98 32.1299L28.18 23.4799L27.29 22.5899L26.5 23.3899L24.69 32.1999L23.33 22.9099L23.07 21.0899L22.86 19.6799H24.48L27.29 22.4799H27.3L30.11 19.6799H31.57Z" fill="#E5E4F2"/>
    <path d="M34.74 1.82996C34.7421 2.52827 34.5961 3.2191 34.3117 3.85688C34.0273 4.49465 33.6109 5.06488 33.09 5.52996C32.1788 6.37274 30.9812 6.83748 29.74 6.82996H21.62V4.66996C21.62 3.91674 21.9192 3.19438 22.4518 2.66177C22.9844 2.12917 23.7068 1.82996 24.46 1.82996H34.74Z" fill="#484646"/>
    <path d="M31.4 20.9599L31.14 23.0199L29.43 24.7299L28.18 23.4799L27.29 22.5899L27.24 22.5499L30.11 19.6799L31.4 20.9599Z" fill="#E5E4F2"/>
    <path d="M27.36 22.5499L27.29 22.5899L26.5 23.3899L25.16 24.7299L23.33 22.9099L23.07 21.0899L24.48 19.6799L27.29 22.4799H27.3L27.36 22.5499Z" fill="#E5E4F2"/>
    <path d="M28.18 23.48V23.47" stroke="#1D1D1B" stroke-width="2" stroke-linecap="round" stroke-linejoin="round"/>
    <g style="mix-blend-mode:multiply" opacity="0.25">
        <path d="M16.12 42.52C15.9209 42.52 15.7237 42.4806 15.5398 42.4041C15.356 42.3276 15.1891 42.2155 15.0487 42.0742C14.9084 41.9329 14.7974 41.7653 14.7221 41.5809C14.6468 41.3966 14.6087 41.1991 14.61 41V37C14.6127 36.6013 14.7729 36.2197 15.0558 35.9387C15.3387 35.6577 15.7213 35.5 16.12 35.5H11.34C10.9413 35.5 10.5587 35.6577 10.2758 35.9387C9.99291 36.2197 9.83266 36.6013 9.83002 37V41C9.83266 41.3987 9.99291 41.7803 10.2758 42.0613C10.5587 42.3423 10.9413 42.5 11.34 42.5H12.68L14.87 58.5H19.65L17.46 42.5L16.12 42.52Z" fill="#1D1D1B"/>
        <path d="M48 13.88C48.0053 13.4404 48.1452 13.013 48.4009 12.6554C48.6566 12.2978 49.0158 12.0272 49.43 11.88C49.1995 11.7947 48.9558 11.7507 48.71 11.75C48.1398 11.75 47.5929 11.9765 47.1897 12.3797C46.7865 12.7829 46.56 13.3298 46.56 13.9C46.56 14.4702 46.7865 15.0171 47.1897 15.4203C47.5929 15.8235 48.1398 16.05 48.71 16.05C48.9558 16.0493 49.1995 16.0053 49.43 15.92C49.0102 15.7692 48.6473 15.4922 48.3913 15.1269C48.1352 14.7617 47.9985 14.3261 48 13.88Z" fill="#1D1D1B"/>
        <path d="M49.95 43.97H49.94L47.88 39.39L50.3 23.48L48.69 16.08L45.14 39.39L47.21 43.97L49.7 49.51L50.99 46.29L49.95 43.97Z" fill="#1D1D1B"/>
        <path d="M4.13001 13.88C4.13228 13.4452 4.26634 13.0213 4.5145 12.6642C4.76266 12.3071 5.11325 12.0337 5.52001 11.88C5.22327 11.7512 4.90128 11.691 4.57804 11.7039C4.2548 11.7168 3.93863 11.8024 3.6531 11.9545C3.36757 12.1066 3.12005 12.3211 2.92896 12.5822C2.73787 12.8432 2.60815 13.144 2.54947 13.4621C2.49078 13.7803 2.50464 14.1075 2.59002 14.4196C2.6754 14.7316 2.83009 15.0203 3.04256 15.2643C3.25504 15.5082 3.51983 15.7011 3.81719 15.8284C4.11456 15.9558 4.43683 16.0145 4.76001 16C5.02085 16.0016 5.27934 15.9506 5.52001 15.85C5.11642 15.7005 4.76758 15.4323 4.51945 15.0806C4.27132 14.7289 4.13555 14.3103 4.13001 13.88Z" fill="#1D1D1B"/>
        <path d="M6.01001 43.97L3.94001 39.39L6.37001 23.48L4.76001 16.08L1.20001 39.39L3.27001 43.97L5.77001 49.51L7.06001 46.29L6.01001 43.97Z" fill="#1D1D1B"/>
        <path d="M26.81 16.21C25.9068 15.723 25.1516 15.0016 24.6236 14.1218C24.0957 13.2419 23.8147 12.236 23.81 11.21V6.82996H21.61V11.18C21.6136 12.2063 21.8942 13.2126 22.4222 14.0926C22.9503 14.9727 23.7061 15.6938 24.61 16.18C25.4464 16.6499 26.3906 16.8945 27.35 16.89C27.7194 16.8895 28.0878 16.8527 28.45 16.78C27.8771 16.6759 27.3239 16.4836 26.81 16.21Z" fill="#1D1D1B"/>
        <path d="M22.91 20L22.86 19.7C20.6728 19.7026 18.5759 20.5726 17.0293 22.1192C15.4827 23.6658 14.6126 25.7627 14.61 27.95V35.52H16.8V27.92C16.8088 26.1124 17.4116 24.3579 18.5157 22.9268C19.6198 21.4956 21.1639 20.4672 22.91 20Z" fill="#1D1D1B"/>
        <path d="M33.43 21L33.56 20C32.9053 19.8393 32.2341 19.7554 31.56 19.75L31.41 21L31.14 23L29.56 35.49H31.56L33.16 23L33.43 21Z" fill="#1D1D1B"/>
        <path d="M29.15 16.92C29.4855 16.9236 29.8205 16.8934 30.15 16.83V16.21C29.5759 16.5308 28.9496 16.7475 28.3 16.85C28.5815 16.8921 28.8654 16.9155 29.15 16.92Z" fill="#1D1D1B"/>
        <path d="M26.27 19.67H26.4V16.83C25.7748 16.7297 25.1722 16.5198 24.62 16.21V19.67H24.48L27.3 22.49L28.19 21.6L26.27 19.67Z" fill="#1D1D1B"/>
        <path d="M26.71 1.82996H24.46C23.7068 1.82996 22.9844 2.12917 22.4518 2.66177C21.9192 3.19438 21.62 3.91674 21.62 4.66996V6.82996H23.87V4.66996C23.87 3.91674 24.1692 3.19438 24.7018 2.66177C25.2344 2.12917 25.9568 1.82996 26.71 1.82996Z" fill="#1D1D1B"/>
    </g>
    <g style="mix-blend-mode:overlay">
        <path d="M43.38 35.49H40.72C41.1178 35.49 41.4993 35.648 41.7806 35.9293C42.0619 36.2106 42.22 36.5922 42.22 36.99V40.99C42.22 41.3878 42.0619 41.7693 41.7806 42.0506C41.4993 42.332 41.1178 42.49 40.72 42.49H43.38C43.777 42.49 44.1581 42.3337 44.4407 42.0548C44.7233 41.7759 44.8847 41.397 44.89 41V37C44.89 36.5995 44.7309 36.2154 44.4477 35.9323C44.1645 35.6491 43.7804 35.49 43.38 35.49Z" fill="white"/>
        <path d="M39.37 42.52L37.18 58.5H39.85L42.04 42.52H39.37Z" fill="white"/>
        <path d="M48.69 11.7299C48.4509 11.7325 48.2141 11.7765 47.99 11.8599C48.3997 12.01 48.7534 12.2824 49.0033 12.6401C49.2532 12.9978 49.3873 13.4236 49.3873 13.8599C49.3873 14.2963 49.2532 14.7221 49.0033 15.0798C48.7534 15.4375 48.3997 15.7098 47.99 15.8599C48.2141 15.9434 48.4509 15.9874 48.69 15.9899C48.9723 15.9899 49.2519 15.9343 49.5128 15.8263C49.7736 15.7182 50.0106 15.5599 50.2103 15.3602C50.4099 15.1606 50.5683 14.9236 50.6763 14.6627C50.7844 14.4019 50.84 14.1223 50.84 13.8399C50.84 13.5576 50.7844 13.278 50.6763 13.0172C50.5683 12.7563 50.4099 12.5193 50.2103 12.3197C50.0106 12.12 49.7736 11.9616 49.5128 11.8536C49.2519 11.7456 48.9723 11.6899 48.69 11.6899V11.7299Z" fill="white"/>
        <path d="M48.69 16.08L47.87 21.52L51.76 39.39L48.64 47.15L49.7 49.51L53.77 39.39L48.69 16.08Z" fill="white"/>
        <path d="M4.76001 11.73C4.52519 11.734 4.29241 11.7745 4.07001 11.85C4.49598 11.9921 4.86645 12.2646 5.12896 12.6289C5.39148 12.9933 5.53273 13.4309 5.53273 13.88C5.53273 14.329 5.39148 14.7667 5.12896 15.131C4.86645 15.4954 4.49598 15.7679 4.07001 15.91C4.29241 15.9854 4.52519 16.0259 4.76001 16.03C5.33022 16.03 5.87708 15.8035 6.28029 15.4003C6.68349 14.9971 6.91001 14.4502 6.91001 13.88C6.91001 13.3098 6.68349 12.7629 6.28029 12.3597C5.87708 11.9565 5.33022 11.73 4.76001 11.73Z" fill="white"/>
        <path d="M4.76 16.08L4 21.05L7.99 39.39L4.79 47.35L5.77 49.51L9.83 39.39L4.76 16.08Z" fill="white"/>
        <path d="M31.33 6.55991V11.1799C31.3243 12.2058 31.0428 13.2112 30.515 14.0909C29.9872 14.9706 29.2325 15.6921 28.33 16.1799C27.7515 16.5067 27.1175 16.7237 26.46 16.8199C26.7514 16.8635 27.0454 16.8869 27.34 16.8899C28.3028 16.8958 29.2505 16.6511 30.09 16.1799C30.9925 15.6921 31.7472 14.9706 32.275 14.0909C32.8028 13.2112 33.0843 12.2058 33.09 11.1799V5.52991C32.5852 5.99713 31.9846 6.34863 31.33 6.55991Z" fill="white"/>
        <path d="M31.57 19.6699V19.8299C33.4499 20.1924 35.1449 21.1982 36.3639 22.6744C37.5829 24.1507 38.2498 26.0054 38.25 27.9199V35.4899H39.84V27.9199C39.84 26.8349 39.626 25.7604 39.2101 24.7582C38.7943 23.7559 38.1848 22.8456 37.4166 22.0792C36.6484 21.3129 35.7365 20.7056 34.7333 20.2922C33.73 19.8788 32.6551 19.6673 31.57 19.6699Z" fill="white"/>
        <path d="M26 16.92C26.2331 16.9349 26.4669 16.9349 26.7 16.92C25.9961 16.8288 25.3168 16.6012 24.7 16.25V16.8C25.1275 16.8884 25.5636 16.9286 26 16.92Z" fill="white"/>
        <path d="M28.7 16.76V19.67L26.59 21.78L27.3 22.49L30.11 19.67V16.21C29.6691 16.4606 29.1942 16.6458 28.7 16.76Z" fill="white"/>
        <path d="M32.72 1.82996C32.4699 2.7542 31.9597 3.58721 31.25 4.22996C30.3382 5.07188 29.141 5.53648 27.9 5.52996H21.62V6.82996H29.74C30.9812 6.83748 32.1788 6.37274 33.09 5.52996C33.6109 5.06488 34.0273 4.49465 34.3117 3.85688C34.5961 3.2191 34.7421 2.52827 34.74 1.82996H32.72Z" fill="white"/>
    </g>
    <path d="M43.38 35.49H11.33C10.5016 35.49 9.83002 36.1616 9.83002 36.99V41.02C9.83002 41.8484 10.5016 42.52 11.33 42.52H43.38C44.2084 42.52 44.88 41.8484 44.88 41.02V36.99C44.88 36.1616 44.2084 35.49 43.38 35.49Z" stroke="#1D1D1B" stroke-width="2" stroke-linecap="round" stroke-linejoin="round"/>
    <path d="M39.85 58.5H14.87L12.68 42.52H42.04L39.85 58.5Z" stroke="#1D1D1B" stroke-width="2" stroke-linecap="round" stroke-linejoin="round"/>
    <path d="M48.69 16.03C49.8774 16.03 50.84 15.0674 50.84 13.88C50.84 12.6926 49.8774 11.73 48.69 11.73C47.5026 11.73 46.54 12.6926 46.54 13.88C46.54 15.0674 47.5026 16.03 48.69 16.03Z" stroke="#1D1D1B" stroke-width="2" stroke-linecap="round" stroke-linejoin="round"/>
    <path d="M48.69 16.08L53.77 39.39L49.7 49.51L45.14 39.39L48.69 16.08Z" stroke="#1D1D1B" stroke-width="2" stroke-linecap="round" stroke-linejoin="round"/>
    <path d="M48.69 39C48.69 39 46.5 42.39 47.21 44" stroke="#1D1D1B" stroke-width="2" stroke-linecap="round" stroke-linejoin="round"/>
    <path d="M49.7 49.4999V58.4999" stroke="#1D1D1B" stroke-width="2" stroke-linecap="round" stroke-linejoin="round"/>
    <path d="M45.64 58.4999H53.77" stroke="#1D1D1B" stroke-width="2" stroke-linecap="round" stroke-linejoin="round"/>
    <path d="M4.75999 16.03C5.9474 16.03 6.90999 15.0674 6.90999 13.88C6.90999 12.6926 5.9474 11.73 4.75999 11.73C3.57257 11.73 2.60999 12.6926 2.60999 13.88C2.60999 15.0674 3.57257 16.03 4.75999 16.03Z" stroke="#1D1D1B" stroke-width="2" stroke-linecap="round" stroke-linejoin="round"/>
    <path d="M4.76001 16.08L9.83001 39.39L5.77001 49.51L1.20001 39.39L4.76001 16.08Z" stroke="#1D1D1B" stroke-width="2" stroke-linecap="round" stroke-linejoin="round"/>
    <path d="M4.76003 39C4.76003 39 2.56003 42.39 3.27003 44" stroke="#1D1D1B" stroke-width="2" stroke-linecap="round" stroke-linejoin="round"/>
    <path d="M5.77002 49.4999V58.4999" stroke="#1D1D1B" stroke-width="2" stroke-linecap="round" stroke-linejoin="round"/>
    <path d="M1.70001 58.4999H9.83001" stroke="#1D1D1B" stroke-width="2" stroke-linecap="round" stroke-linejoin="round"/>
    <path d="M33.09 5.52991V11.1799C33.0843 12.2058 32.8028 13.2112 32.275 14.0909C31.7472 14.9706 30.9925 15.6921 30.09 16.1799C29.2501 16.6457 28.3055 16.8901 27.345 16.8901C26.3846 16.8901 25.44 16.6457 24.6 16.1799C23.6962 15.6938 22.9403 14.9726 22.4123 14.0926C21.8843 13.2125 21.6036 12.2062 21.6 11.1799V6.82991H29.72C30.9681 6.84254 32.1738 6.37745 33.09 5.52991Z" stroke="#1D1D1B" stroke-width="2" stroke-linecap="round" stroke-linejoin="round"/>
    <path d="M25.17 35.4899H14.61V27.9199C14.6126 25.7327 15.4827 23.6358 17.0293 22.0892C18.5759 20.5426 20.6728 19.6726 22.86 19.6699L23.07 21.0899L23.33 22.8999L25.17 35.4899Z" stroke="#1D1D1B" stroke-width="2" stroke-linecap="round" stroke-linejoin="round"/>
    <path d="M39.82 27.92V35.49H29.56L31.14 23L31.41 21L31.57 19.7C33.7528 19.6999 35.8467 20.565 37.393 22.1057C38.9394 23.6464 39.8121 25.7371 39.82 27.92Z" stroke="#1D1D1B" stroke-width="2" stroke-linecap="round" stroke-linejoin="round"/>
    <path d="M30.11 16.21V19.67L27.3 22.49L24.48 19.67H24.62V16.21C25.4599 16.6758 26.4045 16.9202 27.365 16.9202C28.3254 16.9202 29.2701 16.6758 30.11 16.21Z" stroke="#1D1D1B" stroke-width="2" stroke-linecap="round" stroke-linejoin="round"/>
    <path d="M31.57 19.6699L31.41 20.9599L31.14 23.0199L29.56 35.4899H25.17L23.33 22.8999L23.07 21.0899L22.86 19.6699H24.48L27.3 22.4899L30.11 19.6699H31.57Z" stroke="#1D1D1B" stroke-width="2" stroke-linecap="round" stroke-linejoin="round"/>
    <path d="M34.74 1.82996C34.7421 2.52827 34.5961 3.2191 34.3117 3.85688C34.0273 4.49465 33.6109 5.06488 33.09 5.52996C32.1788 6.37274 30.9812 6.83748 29.74 6.82996H21.62V4.66996C21.62 3.91674 21.9192 3.19438 22.4518 2.66177C22.9844 2.12917 23.7068 1.82996 24.46 1.82996H34.74Z" stroke="#1D1D1B" stroke-width="2" stroke-linecap="round" stroke-linejoin="round"/>
    <path d="M31.41 20.9599L31.14 23.0199L29.44 24.7299L27.24 22.5399L30.11 19.6699L31.41 20.9599Z" stroke="#1D1D1B" stroke-width="2" stroke-linecap="round" stroke-linejoin="round"/>
    <path d="M27.37 22.5399L27.3 22.5999L25.16 24.7299L23.33 22.8999L23.07 21.0899L24.48 19.6699L27.3 22.4899L27.37 22.5399Z" stroke="#1D1D1B" stroke-width="2" stroke-linecap="round" stroke-linejoin="round"/>
    <path d="M24.69 32.2L26.51 23.39" stroke="#1D1D1B" stroke-width="2" stroke-linecap="round" stroke-linejoin="round"/>
    <path d="M28.18 23.48L29.98 32.15" stroke="#1D1D1B" stroke-width="2" stroke-linecap="round" stroke-linejoin="round"/>
</svg>
