<svg width="64" height="64" viewBox="0 0 64 64" fill="none" xmlns="http://www.w3.org/2000/svg">
    <path d="M59.89 57.69C59.4138 58.2457 58.83 58.6992 58.1738 59.0232C57.5176 59.3472 56.8026 59.535 56.0718 59.5752C55.3411 59.6154 54.6098 59.5071 53.922 59.257C53.2342 59.0069 52.6042 58.6201 52.07 58.12L38.55 45.45C41.0771 43.6639 43.2055 41.3721 44.8 38.72L59.11 49.91C59.6858 50.3598 60.1644 50.9217 60.5171 51.5616C60.8698 52.2015 61.0893 52.9063 61.1622 53.6333C61.235 54.3604 61.1599 55.0946 60.9413 55.7919C60.7226 56.4891 60.365 57.1347 59.89 57.69Z" fill="#B98EFF"/>
    <path d="M25.43 4.42001C21.8634 4.40981 18.3449 5.24314 15.1618 6.85199C11.9786 8.46083 9.22105 10.7996 7.1141 13.6774C5.00715 16.5551 3.61056 19.8903 3.03833 23.4108C2.4661 26.9312 2.73445 30.537 3.82147 33.9339C4.90849 37.3309 6.78337 40.4226 9.29308 42.9568C11.8028 45.491 14.8762 47.3958 18.2624 48.5158C21.6486 49.6358 25.2517 49.9391 28.7775 49.4011C32.3033 48.8631 35.6519 47.4989 38.55 45.42C41.4904 43.3325 43.8875 40.5704 45.5405 37.3655C47.1934 34.1606 48.0539 30.6061 48.05 27C48.0394 21.0078 45.6516 15.2645 41.4106 11.0311C37.1697 6.79769 31.4223 4.42001 25.43 4.42001ZM7.83001 27C7.83001 23.5191 8.86224 20.1163 10.7961 17.222C12.7301 14.3277 15.4788 12.0718 18.6948 10.7397C21.9108 9.40763 25.4495 9.05909 28.8636 9.73819C32.2777 10.4173 35.4137 12.0935 37.8751 14.5549C40.3365 17.0163 42.0127 20.1524 42.6918 23.5664C43.3709 26.9805 43.0224 30.5193 41.6903 33.7352C40.3582 36.9512 38.1024 39.7 35.208 41.6339C32.3137 43.5678 28.911 44.6 25.43 44.6C20.7638 44.5947 16.2903 42.7387 12.9908 39.4392C9.69129 36.1398 7.83531 31.6662 7.83001 27Z" fill="#565EEC"/>
    <path d="M43 27C43.0059 30.4835 41.978 33.8904 40.0463 36.7893C38.1147 39.6882 35.3663 41.9487 32.1491 43.2845C28.9319 44.6203 25.3906 44.9714 21.9738 44.2932C18.5569 43.6151 15.4181 41.9382 12.9549 39.475C10.4917 37.0118 8.81486 33.873 8.13671 30.4562C7.45857 27.0393 7.80964 23.4981 9.14546 20.2809C10.4813 17.0637 12.7418 14.3152 15.6407 12.3836C18.5396 10.452 21.9465 9.42402 25.43 9.42996C30.0858 9.44315 34.5471 11.2985 37.8393 14.5907C41.1314 17.8828 42.9868 22.3442 43 27Z" fill="#A4BCFF"/>
    <path d="M24.4604 38.7201V35.8501C22.9207 35.8473 21.4131 35.4106 20.1104 34.5901L20.7904 32.6901C22.0118 33.4814 23.435 33.9049 24.8904 33.9101C26.8904 33.9101 28.2804 32.7401 28.2804 31.1201C28.2804 29.5001 27.1704 28.5901 25.0604 27.7301C22.1504 26.6001 20.3604 25.2901 20.3604 22.8101C20.3604 20.3301 22.0404 18.6501 24.6604 18.2301V15.3501H26.4204V18.1101C27.7222 18.1206 28.9996 18.4649 30.1304 19.1101L29.4104 21.0001C28.3322 20.3427 27.0931 19.9966 25.8304 20.0001C23.6304 20.0001 22.8304 21.3101 22.8304 22.4501C22.8304 23.9301 23.8804 24.6701 26.3604 25.6901C29.2904 26.8901 30.7704 28.3701 30.7704 30.9001C30.7505 32.1202 30.2798 33.2897 29.4489 34.1834C28.618 35.0771 27.4858 35.6316 26.2704 35.7401V38.7401L24.4604 38.7201Z" fill="black"/>
    <path d="M45.1396 38.9902L45.1896 39.0202L45.1396 38.9902Z" fill="#BDBBBC"/>
    <path d="M44.8 38.72C44.1159 39.8592 43.3293 40.9337 42.45 41.93C43.4499 41.038 44.3669 40.0573 45.19 39L44.85 38.73" fill="#8968BC"/>
    <path d="M44.8 38.7199C44.0824 39.889 43.2553 40.9872 42.33 41.9999L42.45 41.8899C43.3293 40.8936 44.1159 39.8192 44.8 38.6799" fill="#4045AE"/>
    <path d="M40.8 43.6299C40.303 44.0932 39.7823 44.5305 39.24 44.9399C39.02 45.1199 38.79 45.2899 38.55 45.4499L52.07 58.1199C52.6076 58.6012 53.2358 58.9703 53.9179 59.2056C54.6 59.4409 55.3222 59.5377 56.0422 59.4902C56.7622 59.4427 57.4655 59.2519 58.1107 58.929C58.756 58.6061 59.3303 58.1576 59.8 57.6099C60.0246 57.3319 60.2285 57.0378 60.41 56.7299C59.5814 57.2025 58.6439 57.4507 57.69 57.4499C56.326 57.4549 55.0122 56.9358 54.02 55.9999L40.8 43.6299Z" fill="#8968BC"/>
    <path d="M40.8 43.6201C40.3 44.0801 39.78 44.5201 39.24 44.9401C39.7823 44.5307 40.303 44.0935 40.8 43.6301" fill="#4045AE"/>
    <path d="M38.55 45.45C36.7115 46.7449 34.689 47.7561 32.55 48.45C34.6874 47.7524 36.7095 46.7414 38.55 45.45Z" fill="#BDBBBC"/>
    <path d="M39.24 44.9399L38.55 45.4499C38.79 45.2899 39.02 45.1199 39.24 44.9399Z" fill="#8968BC"/>
    <path d="M10.4104 10.1201C8.79778 11.5426 7.39394 13.1854 6.24037 15.0001C3.42967 19.4363 2.25087 24.7125 2.90633 29.9231C3.5618 35.1337 6.01064 39.9536 9.83248 43.5554C13.6543 47.1572 18.6108 49.3163 23.851 49.6621C29.0913 50.0078 34.2884 48.5186 38.5504 45.4501L39.2404 44.9401C39.7804 44.5201 40.3004 44.0801 40.8004 43.6201C41.3004 43.1601 41.7904 42.6601 42.2704 42.1201C41.6854 42.6311 41.0746 43.1118 40.4404 43.5601C35.9114 46.7465 30.3709 48.1608 24.8688 47.5351C19.3666 46.9095 14.2852 44.2872 10.5873 40.1653C6.88938 36.0433 4.83196 30.7081 4.80488 25.1706C4.7778 19.6331 6.78296 14.278 10.4404 10.1201" fill="#4045AE"/>
    <path d="M14.11 13.5701C12.1715 15.1945 10.6068 17.2186 9.52292 19.5037C8.43904 21.7888 7.86157 24.2811 7.83002 26.8101C7.83267 31.4771 9.6878 35.9522 12.9879 39.2522C16.2879 42.5523 20.763 44.4074 25.43 44.4101H25.65C28.1796 44.3766 30.6722 43.7973 32.9573 42.7117C35.2424 41.6261 37.2661 40.0599 38.89 38.1201C35.5167 40.737 31.3067 42.0378 27.0451 41.7798C22.7835 41.5218 18.7612 39.7226 15.7282 36.7178C12.6952 33.713 10.8586 29.7076 10.5609 25.4486C10.2632 21.1896 11.5246 16.9677 14.11 13.5701Z" fill="#798ABC"/>
    <path d="M59.8902 57.6898L59.1302 56.9998C58.7419 57.4518 58.2662 57.8207 57.7317 58.0842C57.1972 58.3477 56.6149 58.5004 56.0199 58.5331C55.4248 58.5658 54.8293 58.4778 54.2692 58.2744C53.709 58.0711 53.1957 57.7566 52.7602 57.3498L39.2302 44.7198L38.5502 45.4498L39.1202 46.2698C41.7581 44.4107 43.9845 42.0278 45.6602 39.2698L44.8002 38.7498L44.1902 39.5398L58.4902 50.7198C58.9507 51.0858 59.3333 51.5402 59.6155 52.0563C59.8977 52.5724 60.0738 53.1397 60.1334 53.7249C60.1931 54.3101 60.135 54.9013 59.9628 55.4637C59.7905 56.0261 59.5074 56.5484 59.1302 56.9998L59.8902 57.6498L60.6502 58.2998C61.213 57.6415 61.6366 56.876 61.8954 56.0495C62.1541 55.223 62.2427 54.3527 62.1558 53.491C62.0689 52.6293 61.8083 51.7942 61.3897 51.036C60.9711 50.2779 60.4032 49.6124 59.7202 49.0798L45.4202 37.9298C45.308 37.8432 45.1786 37.7815 45.0407 37.7487C44.9028 37.716 44.7594 37.7129 44.6202 37.7398C44.4817 37.7664 44.3504 37.8221 44.235 37.9031C44.1195 37.9841 44.0225 38.0886 43.9502 38.2098C42.4151 40.744 40.3723 42.9332 37.9502 44.6398C37.8299 44.7252 37.73 44.8363 37.6577 44.9649C37.5853 45.0935 37.5424 45.2366 37.5318 45.3838C37.5213 45.531 37.5435 45.6787 37.5968 45.8164C37.6502 45.954 37.7333 46.0781 37.8402 46.1798L51.3902 58.8498C52.023 59.4417 52.7691 59.8995 53.5836 60.1954C54.398 60.4913 55.2639 60.6193 56.1291 60.5717C56.9943 60.524 57.841 60.3017 58.618 59.9181C59.395 59.5346 60.0863 58.9977 60.6502 58.3398L59.8902 57.6898Z" fill="black"/>
    <path d="M25.4303 4.41993V3.41993C21.7109 3.41751 18.0435 4.29348 14.7267 5.97652C11.4099 7.65956 8.53748 10.1021 6.34323 13.1053C4.14897 16.1084 2.69495 19.5873 2.09954 23.2588C1.50413 26.9302 1.78416 30.6903 2.91684 34.233C4.04951 37.7757 6.00282 41.0009 8.61771 43.6459C11.2326 46.2909 14.4352 48.281 17.9647 49.4542C21.4942 50.6273 25.2509 50.9504 28.9289 50.3971C32.6069 49.8437 36.1022 48.4297 39.1303 46.2699C43.2111 43.3675 46.2634 39.2428 47.846 34.4918C49.4287 29.7408 49.4598 24.6097 47.9348 19.8399C46.4098 15.0701 43.4077 10.9087 39.3623 7.95708C35.317 5.00548 30.438 3.41655 25.4303 3.41993V5.41993C30.0196 5.4037 34.4947 6.8496 38.2069 9.54799C41.9191 12.2464 44.6754 16.057 46.076 20.4273C47.4767 24.7976 47.449 29.5005 45.997 33.854C44.5449 38.2075 41.744 41.9854 38.0003 44.6399C35.2303 46.6101 32.0346 47.899 28.6728 48.402C25.3111 48.905 21.8781 48.6078 18.6527 47.5347C15.4274 46.4615 12.5007 44.6427 10.1104 42.2258C7.72017 39.809 5.93374 36.8624 4.89628 33.6254C3.85883 30.3884 3.59961 26.9523 4.1397 23.5963C4.67978 20.2403 6.00393 17.0591 8.00456 14.311C10.0052 11.5629 12.6259 9.32558 15.6537 7.7807C18.6816 6.23582 22.0311 5.42699 25.4303 5.41993V4.41993ZM7.83029 26.9999H8.83029C8.82796 23.1564 10.1586 19.431 12.5955 16.4587C15.0324 13.4864 18.4247 11.4513 22.1941 10.7001C25.9636 9.94897 29.8768 10.5283 33.2669 12.3394C36.6571 14.1505 39.3141 17.0812 40.7853 20.632C42.2565 24.1829 42.4508 28.134 41.3349 31.812C40.219 35.49 37.8622 38.6672 34.666 40.8021C31.4699 42.9369 27.6323 43.8972 23.8074 43.5194C19.9825 43.1415 16.4069 41.4489 13.6903 38.7299C10.579 35.6191 8.83077 31.3997 8.83029 26.9999H6.83029C6.82436 30.6799 7.91018 34.279 9.95036 37.3417C11.9905 40.4044 14.8934 42.7931 18.2916 44.2055C21.6897 45.6179 25.4305 45.9905 29.0405 45.2762C32.6506 44.5619 35.9676 42.7928 38.5718 40.1927C41.1761 37.5927 42.9506 34.2785 43.6707 30.6697C44.3908 27.0608 44.0242 23.3194 42.6173 19.919C41.2104 16.5185 38.8264 13.6118 35.767 11.5667C32.7076 9.52156 29.1103 8.42993 25.4303 8.42993C20.5041 8.4352 15.7807 10.3924 12.2945 13.873C8.80836 17.3535 6.84352 22.0737 6.83029 26.9999H7.83029Z" fill="black"/>
    <path d="M43 26.9999H42C42.0066 30.8504 40.6767 34.5839 38.2374 37.5632C35.7981 40.5426 32.4006 42.5831 28.6245 43.3367C24.8484 44.0902 20.9279 43.5101 17.5319 41.6952C14.1359 39.8804 11.4749 36.9433 10.003 33.3852C8.53108 29.8271 8.33951 25.8685 9.46094 22.1849C10.5824 18.5013 12.9473 15.321 16.1522 13.1867C19.3571 11.0524 23.2033 10.0963 27.0345 10.4817C30.8657 10.8671 34.4444 12.57 37.16 15.2999C40.2604 18.4042 42.0013 22.6125 42 26.9999H44C44 23.3212 42.9091 19.7251 40.8653 16.6663C38.8215 13.6075 35.9166 11.2235 32.5179 9.81575C29.1192 8.40796 25.3794 8.03962 21.7713 8.7573C18.1633 9.47499 14.8491 11.2465 12.2478 13.8477C9.64655 16.449 7.87508 19.7632 7.15739 23.3712C6.4397 26.9793 6.80805 30.7191 8.21584 34.1178C9.62363 37.5165 12.0076 40.4215 15.0664 42.4652C18.1251 44.509 21.7213 45.5999 25.4 45.5999C30.3314 45.5946 35.0593 43.6333 38.5463 40.1462C42.0334 36.6592 43.9947 31.9313 44 26.9999H43Z" fill="black"/>
    <path d="M43 26.9999H42C42.0066 30.8504 40.6767 34.5839 38.2374 37.5632C35.7981 40.5426 32.4006 42.5831 28.6245 43.3367C24.8484 44.0902 20.9279 43.5101 17.5319 41.6952C14.1359 39.8804 11.4749 36.9433 10.003 33.3852C8.53108 29.8271 8.33951 25.8685 9.46094 22.1849C10.5824 18.5013 12.9473 15.321 16.1522 13.1867C19.3571 11.0524 23.2033 10.0963 27.0345 10.4817C30.8657 10.8671 34.4444 12.57 37.16 15.2999C40.2604 18.4042 42.0013 22.6125 42 26.9999H44C44 23.3212 42.9091 19.7251 40.8653 16.6663C38.8215 13.6075 35.9166 11.2235 32.5179 9.81575C29.1192 8.40796 25.3794 8.03962 21.7713 8.7573C18.1633 9.47499 14.8491 11.2465 12.2478 13.8477C9.64655 16.449 7.87508 19.7632 7.15739 23.3712C6.4397 26.9793 6.80805 30.7191 8.21584 34.1178C9.62363 37.5165 12.0076 40.4215 15.0664 42.4652C18.1251 44.509 21.7213 45.5999 25.4 45.5999C30.3314 45.5946 35.0593 43.6333 38.5463 40.1462C42.0334 36.6592 43.9947 31.9313 44 26.9999H43Z" fill="black"/>
    <path d="M24.46 38.7201H25.46V35.8501C25.46 35.5849 25.3546 35.3305 25.1671 35.143C24.9796 34.9555 24.7252 34.8501 24.46 34.8501C23.7288 34.833 23.0029 34.7221 22.3 34.5201C21.7201 34.3634 21.1696 34.1135 20.67 33.7801L20.09 34.5901L21.03 34.9301L21.73 33.0001L20.79 32.6701L20.23 33.5001C21.6163 34.4042 23.2349 34.887 24.89 34.8901C26.005 34.9268 27.0979 34.5731 27.98 33.8901C28.389 33.5541 28.7179 33.1311 28.9428 32.6519C29.1677 32.1727 29.2829 31.6494 29.28 31.1201C29.2837 30.6197 29.1885 30.1236 29 29.6601C28.6898 28.9918 28.2064 28.4186 27.6 28.0001C26.9304 27.5204 26.2008 27.1304 25.43 26.8401C24.2926 26.4574 23.2375 25.8637 22.32 25.0901C22.0199 24.8067 21.7786 24.4669 21.61 24.0901C21.4441 23.6946 21.3624 23.2689 21.37 22.8401C21.3531 21.9755 21.6763 21.1388 22.27 20.5101C22.9605 19.8168 23.8602 19.3705 24.83 19.2401C25.0666 19.2018 25.2816 19.0797 25.4358 18.8962C25.59 18.7126 25.6731 18.4798 25.67 18.2401V16.3501H26.43V15.3501H25.43V18.1101C25.43 18.3753 25.5354 18.6297 25.7229 18.8172C25.9104 19.0047 26.1648 19.1101 26.43 19.1101C27.5623 19.1171 28.6741 19.4131 29.66 19.9701L30.17 19.1101L29.23 18.7501L28.52 20.6301L29.45 20.9901L29.95 20.1201C28.7065 19.3733 27.2804 18.9856 25.83 19.0001C24.7267 18.9507 23.6486 19.3388 22.83 20.0801C22.3448 20.5656 22.0189 21.1873 21.8956 21.8625C21.7724 22.5377 21.8576 23.2345 22.14 23.8601C22.473 24.5168 22.9864 25.065 23.62 25.4401C24.3748 25.9123 25.1715 26.314 26 26.6401C27.1082 27.0196 28.1142 27.6492 28.94 28.4801C29.5269 29.1537 29.8313 30.0277 29.79 30.9201C29.7982 31.8131 29.4779 32.6779 28.89 33.3501C28.1643 34.1333 27.1883 34.6389 26.13 34.7801C25.8934 34.8184 25.6784 34.9405 25.5242 35.124C25.37 35.3076 25.2869 35.5404 25.29 35.7801V37.7801H24.5V38.7801V39.7801H26.29C26.4216 39.7809 26.5521 39.7556 26.6739 39.7059C26.7957 39.6561 26.9066 39.5828 27 39.4901C27.0927 39.3967 27.166 39.2858 27.2158 39.164C27.2655 39.0422 27.2908 38.9117 27.29 38.7801V35.7801H26.29L26.46 36.7801C27.9779 36.5674 29.3726 35.8276 30.4 34.6901C31.3027 33.654 31.7969 32.3243 31.79 30.9501C31.8258 29.5691 31.3443 28.2245 30.44 27.1801C29.4096 26.1228 28.1507 25.3155 26.76 24.8201C25.8963 24.5114 25.0813 24.0803 24.34 23.5401C24.1815 23.4081 24.0521 23.2447 23.96 23.0601C23.8803 22.8845 23.8426 22.6928 23.85 22.5001C23.8473 22.3251 23.8805 22.1514 23.9476 21.9897C24.0146 21.828 24.1142 21.6818 24.24 21.5601C24.4543 21.3654 24.7053 21.2156 24.9784 21.1194C25.2515 21.0232 25.541 20.9827 25.83 21.0001C26.9181 20.9873 27.9882 21.2782 28.92 21.8401C29.0452 21.9107 29.1841 21.9535 29.3274 21.9656C29.4706 21.9777 29.6147 21.9588 29.75 21.9101C29.8869 21.8613 30.0115 21.7832 30.1151 21.6813C30.2187 21.5794 30.2989 21.4561 30.35 21.3201L31.06 19.4401C31.1418 19.22 31.1435 18.9782 31.0649 18.757C30.9863 18.5357 30.8323 18.3492 30.63 18.2301C29.3606 17.4992 27.9247 17.1066 26.46 17.0901V18.0901H27.46V15.3501C27.46 15.0849 27.3546 14.8305 27.1671 14.643C26.9796 14.4555 26.7252 14.3501 26.46 14.3501H24.66C24.3948 14.3501 24.1404 14.4555 23.9529 14.643C23.7653 14.8305 23.66 15.0849 23.66 15.3501V18.2301H24.66L24.5 17.2301C23.0936 17.4264 21.7921 18.0841 20.8 19.1001C19.8623 20.1025 19.3466 21.4275 19.36 22.8001C19.3536 23.5044 19.4932 24.2024 19.77 24.8501C20.1966 25.7758 20.8716 26.5651 21.72 27.1301C22.6529 27.7595 23.6607 28.2701 24.72 28.6501L25.09 27.7201L24.71 28.6501C25.4719 28.9154 26.175 29.3263 26.78 29.8601C26.9492 30.0223 27.085 30.2159 27.18 30.4301C27.2625 30.6475 27.3065 30.8776 27.31 31.1101C27.3132 31.3472 27.2627 31.5819 27.1623 31.7966C27.0618 32.0114 26.914 32.2006 26.73 32.3501C26.2072 32.7349 25.5685 32.929 24.92 32.9001C23.6658 32.9098 22.4347 32.563 21.37 31.9001C21.2441 31.8169 21.101 31.7633 20.9515 31.7433C20.8019 31.7233 20.6498 31.7374 20.5064 31.7845C20.3631 31.8317 20.2323 31.9106 20.1238 32.0155C20.0153 32.1204 19.932 32.2484 19.88 32.3901L19.19 34.3001C19.1168 34.5049 19.1124 34.7279 19.1773 34.9354C19.2423 35.1429 19.3731 35.3236 19.55 35.4501C20.2384 35.901 20.9947 36.2386 21.79 36.4501C22.6624 36.6997 23.5629 36.8375 24.47 36.8601V35.8601H23.47V38.7301C23.4692 38.8617 23.4945 38.9922 23.5442 39.114C23.594 39.2358 23.6673 39.3467 23.76 39.4401C23.8534 39.5328 23.9643 39.6061 24.0861 39.6559C24.2079 39.7056 24.3384 39.7309 24.47 39.7301L24.46 38.7201Z" fill="black"/>
    <path d="M49.5498 44.93L48.9198 44.39C48.819 44.3039 48.6881 44.2612 48.5559 44.2715C48.4237 44.2818 48.3009 44.3443 48.2148 44.445C48.1286 44.5458 48.0859 44.6767 48.0962 44.8089C48.1066 44.9412 48.169 45.0639 48.2698 45.15L48.8998 45.69C48.9454 45.7366 48.9998 45.7736 49.0599 45.7989C49.12 45.8241 49.1846 45.8371 49.2498 45.8371C49.3149 45.8371 49.3795 45.8241 49.4396 45.7989C49.4997 45.7736 49.5541 45.7366 49.5998 45.69C49.6502 45.6388 49.6892 45.5774 49.7143 45.51C49.7394 45.4426 49.7499 45.3706 49.7452 45.2988C49.7404 45.2271 49.7206 45.1571 49.6869 45.0935C49.6532 45.03 49.6065 44.9743 49.5498 44.93ZM54.8598 49.49L51.0598 46.23C50.959 46.1439 50.8281 46.1012 50.6959 46.1115C50.5637 46.1219 50.4409 46.1843 50.3548 46.285C50.2686 46.3858 50.2259 46.5167 50.2362 46.6489C50.2466 46.7812 50.309 46.9039 50.4098 46.99L54.2098 50.25C54.2554 50.2966 54.3098 50.3336 54.3699 50.3589C54.43 50.3841 54.4946 50.3971 54.5598 50.3971C54.6249 50.3971 54.6895 50.3841 54.7496 50.3589C54.8097 50.3336 54.8641 50.2966 54.9098 50.25C54.9602 50.1988 54.9992 50.1374 55.0243 50.07C55.0494 50.0026 55.0599 49.9306 55.0552 49.8588C55.0504 49.7871 55.0306 49.7171 54.9969 49.6535C54.9632 49.59 54.9165 49.5343 54.8598 49.49Z" fill="white"/>
    <path d="M39.62 28.87C39.4217 29.6886 39.0834 30.4667 38.62 31.17C38.5471 31.2818 38.521 31.4177 38.5471 31.5486C38.5733 31.6795 38.6497 31.7949 38.76 31.87C38.8703 31.9424 39.0046 31.9683 39.1338 31.9421C39.2631 31.9158 39.3767 31.8396 39.45 31.73C39.9858 30.9306 40.3784 30.0441 40.61 29.11C40.6375 28.9816 40.6143 28.8476 40.5454 28.7358C40.4765 28.624 40.3671 28.5432 40.24 28.51C40.1757 28.4889 40.1076 28.4816 40.0403 28.4887C39.9729 28.4958 39.9078 28.517 39.8493 28.551C39.7907 28.585 39.74 28.631 39.7005 28.686C39.661 28.741 39.6336 28.8037 39.62 28.87ZM39 22.34C39.5683 23.7276 39.867 25.2107 39.88 26.71V27C39.8774 27.0652 39.8877 27.1303 39.9105 27.1914C39.9333 27.2525 39.9681 27.3084 40.0128 27.3559C40.0575 27.4035 40.1112 27.4415 40.1709 27.468C40.2305 27.4945 40.2948 27.5087 40.36 27.51C40.4257 27.5127 40.4913 27.5024 40.5529 27.4797C40.6146 27.457 40.6713 27.4224 40.7196 27.3778C40.7678 27.3333 40.8069 27.2796 40.8344 27.2199C40.862 27.1602 40.8775 27.0957 40.88 27.03V26.73C40.8594 25.0805 40.5198 23.4506 39.88 21.93C39.8234 21.8088 39.7215 21.7147 39.5962 21.6679C39.4709 21.6212 39.3322 21.6255 39.21 21.68C39.1503 21.7069 39.0966 21.7455 39.0521 21.7934C39.0076 21.8414 38.9731 21.8978 38.9507 21.9594C38.9283 22.0209 38.9185 22.0863 38.9218 22.1517C38.9252 22.217 38.9415 22.2811 38.97 22.34H39Z" fill="white"/>
</svg>
