<svg width="65" height="64" viewBox="0 0 65 64" fill="none" xmlns="http://www.w3.org/2000/svg">
<path d="M46.7398 60.8801H18.7398C18.4684 60.8783 18.2076 60.7744 18.0094 60.5891C17.8111 60.4038 17.6899 60.1507 17.6698 59.8801L16.7598 49.1901H48.7598L47.7998 59.9001C47.7773 60.1663 47.6561 60.4144 47.4599 60.5958C47.2638 60.7771 47.0069 60.8785 46.7398 60.8801Z" fill="#B65F22"/>
<path d="M52.719 44.5901V47.7701C52.719 47.9587 52.6817 48.1455 52.6092 48.3196C52.5367 48.4938 52.4305 48.6519 52.2966 48.7848C52.1628 48.9177 52.0039 49.0228 51.8293 49.0941C51.6546 49.1654 51.4676 49.2014 51.279 49.2001H14.159C13.9695 49.2027 13.7814 49.1677 13.6056 49.097C13.4298 49.0263 13.2698 48.9214 13.1349 48.7884C13 48.6553 12.8928 48.4968 12.8197 48.322C12.7466 48.1471 12.709 47.9595 12.709 47.7701V44.5901C12.709 44.4001 12.7466 44.212 12.8195 44.0367C12.8925 43.8613 12.9995 43.7021 13.1343 43.5683C13.2691 43.4344 13.429 43.3286 13.6048 43.2568C13.7807 43.185 13.969 43.1487 14.159 43.1501H51.279C51.4681 43.1501 51.6553 43.1873 51.83 43.2597C52.0048 43.332 52.1635 43.4381 52.2972 43.5718C52.4309 43.7055 52.537 43.8643 52.6094 44.039C52.6817 44.2137 52.719 44.401 52.719 44.5901Z" fill="#F5A463"/>
<path d="M28.4387 43.1501H16.7188V36.0001C16.724 33.2019 17.8386 30.5201 19.8182 28.5424C21.7977 26.5648 24.4806 25.4527 27.2787 25.4501L23.6087 30.3401L24.9788 32.3901C25.0626 32.503 25.1216 32.6324 25.152 32.7698C25.1824 32.9071 25.1835 33.0493 25.1551 33.1871C25.1268 33.3249 25.0698 33.4552 24.9877 33.5694C24.9056 33.6837 24.8003 33.7793 24.6787 33.8501L23.6087 34.5401L28.4387 43.1501Z" fill="#484646"/>
<path d="M48.7192 36V43.12H37.1992L42.0292 34.51L40.9592 33.82C40.8432 33.7442 40.7434 33.6462 40.6655 33.5316C40.5876 33.4171 40.5331 33.2882 40.5052 33.1525C40.4773 33.0168 40.4766 32.8769 40.503 32.7409C40.5294 32.6049 40.5825 32.4754 40.6592 32.36L42.0292 30.31L38.3692 25.42C41.1343 25.4827 43.7652 26.6247 45.6993 28.6018C47.6334 30.5789 48.7173 33.2342 48.7192 36Z" fill="#484646"/>
<path d="M28.4293 25.4501L27.4493 26.4301L27.2793 25.4501H28.4293Z" fill="#E5E4F2"/>
<path d="M37.6091 29.8901L35.3491 43.1601H30.2991L28.0391 29.8901L30.3991 32.2601L30.8891 31.7701L32.8191 29.8401L34.7391 31.7501L35.2391 32.2601L37.6091 29.8901Z" fill="#E5E4F2"/>
<path d="M38.3692 25.4501L38.1992 26.4501L37.1992 25.4501H38.3692Z" fill="#E5E4F2"/>
<path d="M39.0491 12.5601V16.8401C39.0505 17.6691 38.8881 18.4902 38.5715 19.2564C38.2549 20.0226 37.7901 20.7187 37.2039 21.3049C36.6177 21.8911 35.9216 22.3558 35.1554 22.6725C34.3893 22.9891 33.5682 23.1514 32.7391 23.1501H32.6791C31.0064 23.1475 29.403 22.4818 28.2202 21.299C27.0374 20.1162 26.3718 18.5128 26.3691 16.8401V12.5601H27.0091C27.6784 12.5634 28.3336 12.3673 28.891 11.9969C29.4484 11.6265 29.8829 11.0984 30.1391 10.4801H30.6691C30.9264 11.0976 31.3612 11.6249 31.9184 11.9952C32.4756 12.3655 33.1301 12.5621 33.7991 12.5601H39.0491Z" fill="#F4C8A7"/>
<path d="M42.4995 13.6801V14.6801C42.4995 15.0726 42.3436 15.449 42.066 15.7266C41.7885 16.0041 41.4121 16.1601 41.0195 16.1601H39.0195V12.5601H40.7995V12.2001H41.0395C41.4286 12.2053 41.7999 12.3636 42.0731 12.6406C42.3464 12.9175 42.4996 13.291 42.4995 13.6801Z" fill="#F4C8A7"/>
<path d="M26.3687 12.5601V16.1501H24.3687C23.9762 16.1501 23.5997 15.9941 23.3222 15.7166C23.0446 15.439 22.8887 15.0626 22.8887 14.6701V13.6701C22.8887 13.2775 23.0446 12.9011 23.3222 12.6235C23.5997 12.346 23.9762 12.1901 24.3687 12.1901H24.6087V12.5501L26.3687 12.5601Z" fill="#F4C8A7"/>
<path d="M40.799 7.66003V8.59003C40.7992 8.27785 40.7691 7.96638 40.709 7.66003H40.799Z" stroke="#1D1D1B" stroke-width="2" stroke-linecap="round" stroke-linejoin="round"/>
<path d="M24.7384 7.66003C24.6783 7.96638 24.6482 8.27785 24.6484 8.59003V7.66003H24.7384Z" stroke="#1D1D1B" stroke-width="2" stroke-linecap="round" stroke-linejoin="round"/>
<path d="M40.7984 8.59005V12.59H33.7984C33.3529 12.5914 32.9115 12.5046 32.4996 12.3347C32.0877 12.1648 31.7135 11.9151 31.3984 11.6001C31.0833 11.285 30.8337 10.9108 30.6638 10.4989C30.4939 10.087 30.4071 9.6456 30.4084 9.20005C30.4032 10.0992 30.0429 10.9599 29.4062 11.5948C28.7694 12.2297 27.9076 12.5874 27.0084 12.59H24.6484V8.59005C24.6482 8.27786 24.6783 7.96639 24.7384 7.66005C24.9221 6.56006 25.4468 5.5456 26.2384 4.76005C26.7402 4.25527 27.337 3.85487 27.9944 3.58197C28.6518 3.30907 29.3567 3.16907 30.0684 3.17005H35.3584C36.6335 3.17033 37.8675 3.62098 38.8427 4.44248C39.8179 5.26398 40.4716 6.40353 40.6884 7.66005C40.7553 7.96573 40.7921 8.27721 40.7984 8.59005Z" fill="#484646"/>
<path d="M38.1984 26.4501L37.6084 29.8901L35.2384 32.2601L34.7384 31.7501L32.8184 29.8401L37.1984 25.4501L38.1984 26.4501Z" fill="#E5E4F2"/>
<path d="M32.8192 29.8401L30.8892 31.7701L30.3992 32.2601L28.0392 29.8901L27.4492 26.4301L28.4292 25.4501L32.8192 29.8401Z" fill="#E5E4F2"/>
<path d="M37.1984 21.3V25.45L32.7984 29.83L28.4084 25.45H28.1484V21.24C28.7329 21.8456 29.4336 22.327 30.2086 22.6552C30.9835 22.9834 31.8168 23.1517 32.6584 23.15H32.7184C33.5502 23.1516 34.3741 22.989 35.1428 22.6715C35.9116 22.3541 36.6102 21.888 37.1984 21.3Z" fill="#F4C8A7"/>
<path d="M34.7387 31.7501L34.0887 33.7701H31.5387L30.8887 31.7701L32.8187 29.8401L34.7387 31.7501Z" fill="#B65F22"/>
<path d="M34.0888 33.77L35.3488 43.16H30.2988L31.5388 33.77H34.0888Z" fill="#B65F22"/>
<path d="M40.9596 33.8501L42.0296 34.5401L37.1996 43.1501H35.3496L37.6096 29.8901L38.1996 26.4501L38.3696 25.4501L42.0296 30.3401L40.6596 32.3901C40.5829 32.5055 40.5298 32.6349 40.5034 32.7709C40.477 32.9069 40.4777 33.0468 40.5056 33.1825C40.5335 33.3183 40.588 33.4471 40.6659 33.5617C40.7438 33.6762 40.8436 33.7743 40.9596 33.8501Z" fill="#E5E4F2"/>
<path d="M30.2994 43.1501H28.4394L23.6094 34.5401L24.6794 33.8501C24.8009 33.7793 24.9062 33.6837 24.9883 33.5694C25.0704 33.4552 25.1275 33.3249 25.1558 33.1871C25.1841 33.0493 25.183 32.9071 25.1526 32.7698C25.1222 32.6324 25.0632 32.503 24.9794 32.3901L23.6094 30.3401L27.2794 25.4501L27.4494 26.4501L28.0394 29.9101L30.2994 43.1501Z" fill="#E5E4F2"/>
<g style="mix-blend-mode:multiply" opacity="0.25">
<path d="M21.6388 59.9001L20.7188 49.2101H16.7188L17.6287 59.9001C17.6488 60.1707 17.7701 60.4239 17.9684 60.6092C18.1666 60.7945 18.4274 60.8983 18.6987 60.9001H22.6987C22.4284 60.8981 22.1688 60.7939 21.9722 60.6084C21.7756 60.4229 21.6564 60.1698 21.6388 59.9001Z" fill="#1D1D1B"/>
<path d="M16.7188 47.7701V44.5901C16.7187 44.4001 16.7563 44.212 16.8293 44.0367C16.9023 43.8613 17.0093 43.7021 17.144 43.5683C17.2788 43.4344 17.4387 43.3286 17.6146 43.2568C17.7905 43.185 17.9788 43.1487 18.1688 43.1501H14.1687C13.9788 43.1487 13.7905 43.185 13.6146 43.2568C13.4387 43.3286 13.2788 43.4344 13.144 43.5683C13.0093 43.7021 12.9023 43.8613 12.8293 44.0367C12.7563 44.212 12.7187 44.4001 12.7188 44.5901V47.7701C12.7187 47.9595 12.7564 48.1471 12.8295 48.322C12.9026 48.4968 13.0097 48.6553 13.1446 48.7884C13.2795 48.9214 13.4396 49.0263 13.6154 49.097C13.7912 49.1677 13.9793 49.2027 14.1687 49.2001H18.1688C17.9793 49.2027 17.7912 49.1677 17.6154 49.097C17.4396 49.0263 17.2795 48.9214 17.1446 48.7884C17.0097 48.6553 16.9026 48.4968 16.8295 48.322C16.7564 48.1471 16.7187 47.9595 16.7188 47.7701Z" fill="#1D1D1B"/>
<path d="M27.0688 25.7301L27.2787 25.4501C24.4806 25.4527 21.7977 26.5648 19.8182 28.5424C17.8386 30.5201 16.724 33.2019 16.7188 36.0001V43.1201H18.8787V36.0001C18.8834 33.6149 19.6954 31.3015 21.1826 29.4367C22.6697 27.5718 24.7444 26.2654 27.0688 25.7301Z" fill="#1D1D1B"/>
<path d="M43.6792 33.8501C43.5632 33.7743 43.4634 33.6762 43.3855 33.5617C43.3076 33.4471 43.2531 33.3183 43.2252 33.1825C43.1973 33.0468 43.1966 32.9069 43.223 32.7709C43.2495 32.6349 43.3025 32.5055 43.3792 32.3901L44.7992 30.3401L41.4992 26.0001C40.4886 25.6637 39.4339 25.4784 38.3692 25.4501L42.0292 30.3401L40.6592 32.3901C40.5825 32.5055 40.5294 32.6349 40.503 32.7709C40.4766 32.9069 40.4773 33.0468 40.5052 33.1825C40.5331 33.3183 40.5876 33.4471 40.6655 33.5617C40.7434 33.6762 40.8432 33.7743 40.9592 33.8501L42.0292 34.5401L37.1992 43.1501H39.9192L44.7992 34.5401L43.6792 33.8501Z" fill="#1D1D1B"/>
<path d="M28.4293 25.4501L27.4493 26.4301L27.2793 25.4501H28.4293Z" fill="#1D1D1B"/>
<path d="M38.3692 25.4501L38.1992 26.4501L37.1992 25.4501H38.3692Z" fill="#1D1D1B"/>
<path d="M30.1891 21.2501C29.0397 20.0701 28.3973 18.4874 28.3991 16.8401V12.5601H29.0391C29.4823 12.5591 29.9208 12.4702 30.3293 12.2985C30.7379 12.1269 31.1083 11.8759 31.4191 11.5601C31.095 11.2499 30.8395 10.8751 30.6691 10.4601H30.1391C29.8829 11.0784 29.4484 11.6064 28.891 11.9769C28.3336 12.3473 27.6784 12.5434 27.0091 12.5401H26.3691V16.8201C26.3718 18.4928 27.0374 20.0962 28.2202 21.279C29.403 22.4618 31.0064 23.1274 32.6791 23.1301H32.7391C33.0741 23.1302 33.4085 23.1034 33.7391 23.0501C32.3933 22.8467 31.1486 22.2156 30.1891 21.2501Z" fill="#1D1D1B"/>
<path d="M26.3687 12.5601V16.1501H24.3687C23.9762 16.1501 23.5997 15.9941 23.3222 15.7166C23.0446 15.439 22.8887 15.0626 22.8887 14.6701V13.6701C22.8887 13.2775 23.0446 12.9011 23.3222 12.6235C23.5997 12.346 23.9762 12.1901 24.3687 12.1901H24.6087V12.5501L26.3687 12.5601Z" fill="#1D1D1B"/>
<path d="M40.799 7.66003V8.59003C40.7992 8.27785 40.7691 7.96638 40.709 7.66003H40.799Z" fill="#1D1D1B"/>
<path d="M24.7384 7.66003C24.6783 7.96638 24.6482 8.27785 24.6484 8.59003V7.66003H24.7384Z" fill="#1D1D1B"/>
<path d="M26.7997 7.66005C26.9828 6.55774 27.5116 5.54218 28.3097 4.76005C28.8054 4.25826 29.3955 3.85946 30.0459 3.58658C30.6964 3.31371 31.3943 3.17215 32.0997 3.17005H30.0997C29.3879 3.16907 28.683 3.30907 28.0257 3.58197C27.3683 3.85487 26.7715 4.25527 26.2697 4.76005C25.4781 5.5456 24.9534 6.56006 24.7697 7.66005C24.7096 7.96639 24.6794 8.27786 24.6797 8.59005V12.59H26.6797V8.59005C26.6892 8.27688 26.7294 7.96539 26.7997 7.66005Z" fill="#1D1D1B"/>
<path d="M34.7283 23.15H34.7983C35.6255 23.1514 36.4447 22.9882 37.2083 22.67V21.3C36.2652 22.2385 35.0516 22.8575 33.7383 23.07C34.0658 23.1214 34.3967 23.1482 34.7283 23.15Z" fill="#1D1D1B"/>
<path d="M30.478 25.45H30.218V22.66C29.4474 22.327 28.7506 21.8444 28.168 21.24V25.45H28.428L32.798 29.83L33.798 28.83L30.478 25.45Z" fill="#1D1D1B"/>
</g>
<g style="mix-blend-mode:overlay">
<path d="M45.2691 49.2101L44.3591 59.9001C44.339 60.1707 44.2177 60.4239 44.0195 60.6092C43.8212 60.7945 43.5604 60.8983 43.2891 60.9001H46.7391C47.0094 60.8981 47.269 60.7939 47.4656 60.6084C47.6622 60.4229 47.7814 60.1698 47.7991 59.9001L48.7191 49.2101H45.2691Z" fill="white"/>
<path d="M51.2788 43.15H47.7988C48.1807 43.15 48.547 43.3017 48.8171 43.5718C49.0871 43.8418 49.2388 44.2081 49.2388 44.59V47.77C49.2388 47.9587 49.2015 48.1454 49.129 48.3196C49.0565 48.4937 48.9503 48.6518 48.8165 48.7847C48.6826 48.9177 48.5238 49.0228 48.3491 49.0941C48.1745 49.1653 47.9875 49.2013 47.7988 49.2H51.2388C51.4275 49.2013 51.6145 49.1653 51.7891 49.0941C51.9638 49.0228 52.1226 48.9177 52.2565 48.7847C52.3903 48.6518 52.4965 48.4937 52.569 48.3196C52.6415 48.1454 52.6788 47.9587 52.6788 47.77V44.59C52.679 44.2149 52.5328 43.8546 52.2713 43.5857C52.0098 43.3167 51.6538 43.1604 51.2788 43.15Z" fill="white"/>
<path d="M23.6091 34.5401L24.6791 33.8501C24.8006 33.7793 24.9059 33.6837 24.988 33.5694C25.0701 33.4552 25.1271 33.3249 25.1555 33.1871C25.1838 33.0493 25.1827 32.9071 25.1523 32.7698C25.1219 32.6324 25.0629 32.503 24.9791 32.3901L23.6091 30.3401L27.2791 25.4501C26.5228 25.4613 25.7693 25.545 25.0291 25.7001L21.5391 30.3401L22.9091 32.3901C22.9929 32.503 23.0519 32.6324 23.0823 32.7698C23.1127 32.9071 23.1138 33.0493 23.0855 33.1871C23.0571 33.3249 23.0001 33.4552 22.918 33.5694C22.8359 33.6837 22.7306 33.7793 22.6091 33.8501L21.5391 34.5401L26.3691 43.1501H28.4391L23.6091 34.5401Z" fill="white"/>
<path d="M38.3691 25.4501L38.5291 25.6701C40.9108 26.1591 43.0517 27.4527 44.5923 29.3338C46.1328 31.2148 46.9791 33.5687 46.9891 36.0001V43.1201H48.7191V36.0001C48.7094 33.2395 47.6221 30.5917 45.6888 28.6211C43.7555 26.6504 41.1291 25.5126 38.3691 25.4501Z" fill="white"/>
<path d="M28.4293 25.4501L27.4493 26.4301L27.2793 25.4501H28.4293Z" fill="white"/>
<path d="M38.3692 25.4501L38.1992 26.4501L37.1992 25.4501H38.3692Z" fill="white"/>
<path d="M37.0787 12.5601V16.8401C37.0789 18.3481 36.538 19.8062 35.5545 20.9494C34.5709 22.0926 33.2099 22.845 31.7188 23.0701C32.0494 23.1236 32.3838 23.1504 32.7188 23.1501H32.7787C33.6078 23.1514 34.4289 22.9891 35.195 22.6724C35.9612 22.3558 36.6573 21.891 37.2435 21.3048C37.8297 20.7186 38.2945 20.0225 38.6111 19.2563C38.9278 18.4902 39.0901 17.6691 39.0888 16.8401V12.5601H37.0787Z" fill="white"/>
<path d="M41.0198 12.2001H40.7998V12.5601H40.5498C40.7126 12.6979 40.8434 12.8694 40.9331 13.0628C41.0229 13.2562 41.0696 13.4669 41.0698 13.6801V14.6801C41.0698 15.0726 40.9139 15.4491 40.6364 15.7266C40.3588 16.0042 39.9824 16.1601 39.5898 16.1601H41.0398C41.4324 16.1601 41.8088 16.0042 42.0864 15.7266C42.3639 15.4491 42.5198 15.0726 42.5198 14.6801V13.6801C42.5199 13.484 42.4809 13.2899 42.4053 13.1091C42.3297 12.9282 42.2189 12.7641 42.0793 12.6264C41.9398 12.4887 41.7742 12.3801 41.5924 12.307C41.4105 12.2338 41.2159 12.1974 41.0198 12.2001Z" fill="white"/>
<path d="M24.6482 12.5601V12.2001H24.4082C24.0418 12.1921 23.6855 12.3204 23.4082 12.5601H24.6482Z" fill="white"/>
<path d="M26.3783 12.5601H24.9883V16.1501H26.3783V12.5601Z" fill="white"/>
<path d="M40.799 7.66003V8.59003C40.7992 8.27785 40.7691 7.96638 40.709 7.66003H40.799Z" fill="white"/>
<path d="M24.7384 7.66003C24.6783 7.96638 24.6482 8.27785 24.6484 8.59003V7.66003H24.7384Z" fill="white"/>
<path d="M40.6894 7.66004C40.4725 6.40353 39.8189 5.26398 38.8437 4.44248C37.8685 3.62098 36.6345 3.17033 35.3594 3.17004H33.3594C34.6345 3.17033 35.8685 3.62098 36.8437 4.44248C37.8189 5.26398 38.4725 6.40353 38.6894 7.66004C38.7495 7.96639 38.7796 8.27786 38.7794 8.59004V12.59H40.7994V8.59004C40.793 8.2772 40.7562 7.96573 40.6894 7.66004Z" fill="white"/>
<path d="M35.4099 22.55V25.4501L31.9199 28.9401L32.8199 29.83L37.1999 25.4501V21.3C36.6837 21.8215 36.0772 22.245 35.4099 22.55Z" fill="white"/>
<path d="M30.8899 23.15H30.9499C31.2376 23.1503 31.525 23.1302 31.8099 23.09C30.4232 22.8997 29.141 22.248 28.1699 21.24V22.53C29.0174 22.9416 29.9478 23.1537 30.8899 23.15Z" fill="white"/>
<path d="M32.8191 29.8401L31.8691 30.7901L33.7891 32.7101L33.4491 33.7701H34.0891L34.7391 31.7501L32.8191 29.8401Z" fill="white"/>
<path d="M34.0885 33.77H32.4785L33.7385 43.16H35.3485L34.0885 33.77Z" fill="white"/>
<path d="M40.6598 32.3901L42.0298 30.3401L38.3698 25.4501L38.1998 26.4501L38.0298 27.4501L40.1898 30.3401L38.7998 32.3901C38.7232 32.5055 38.6701 32.6349 38.6436 32.7709C38.6172 32.9069 38.618 33.0468 38.6459 33.1825C38.6737 33.3183 38.7282 33.4471 38.8061 33.5617C38.8841 33.6762 38.9839 33.7743 39.0998 33.8501L40.1698 34.5401L35.3398 43.1501H37.1998L42.0298 34.5401L40.9598 33.8501C40.8439 33.7743 40.7441 33.6762 40.6661 33.5617C40.5882 33.4471 40.5337 33.3183 40.5059 33.1825C40.478 33.0468 40.4772 32.9069 40.5036 32.7709C40.5301 32.6349 40.5832 32.5055 40.6598 32.3901Z" fill="white"/>
<path d="M28.0387 29.8901L27.4487 26.4301L27.2787 25.4501L25.9688 27.2001L26.4287 29.8901L28.6887 43.1601H30.2987L28.0387 29.8901Z" fill="white"/>
</g>
<path d="M46.7398 60.8801H18.7398C18.4684 60.8783 18.2076 60.7744 18.0094 60.5891C17.8111 60.4038 17.6899 60.1507 17.6698 59.8801L16.7598 49.1901H48.7598L47.7998 59.9001C47.7773 60.1663 47.6561 60.4144 47.4599 60.5958C47.2638 60.7771 47.0069 60.8785 46.7398 60.8801Z" stroke="#1D1D1B" stroke-width="2" stroke-linecap="round" stroke-linejoin="round"/>
<path d="M52.719 44.5901V47.7701C52.719 47.9587 52.6817 48.1455 52.6092 48.3196C52.5367 48.4938 52.4305 48.6519 52.2966 48.7848C52.1628 48.9177 52.0039 49.0228 51.8293 49.0941C51.6546 49.1654 51.4676 49.2014 51.279 49.2001H14.159C13.9695 49.2027 13.7814 49.1677 13.6056 49.097C13.4298 49.0263 13.2698 48.9214 13.1349 48.7884C13 48.6553 12.8928 48.4968 12.8197 48.322C12.7466 48.1471 12.709 47.9595 12.709 47.7701V44.5901C12.709 44.4001 12.7466 44.212 12.8195 44.0367C12.8925 43.8613 12.9995 43.7021 13.1343 43.5683C13.2691 43.4344 13.429 43.3286 13.6048 43.2568C13.7807 43.185 13.969 43.1487 14.159 43.1501H51.279C51.4681 43.1501 51.6553 43.1873 51.83 43.2597C52.0048 43.332 52.1635 43.4381 52.2972 43.5718C52.4309 43.7055 52.537 43.8643 52.6094 44.039C52.6817 44.2137 52.719 44.401 52.719 44.5901Z" stroke="#1D1D1B" stroke-width="2" stroke-linecap="round" stroke-linejoin="round"/>
<path d="M28.4387 43.1501H16.7188V36.0001C16.724 33.2019 17.8386 30.5201 19.8182 28.5424C21.7977 26.5648 24.4806 25.4527 27.2787 25.4501L23.6087 30.3401L24.9788 32.3901C25.0626 32.503 25.1216 32.6324 25.152 32.7698C25.1824 32.9071 25.1835 33.0493 25.1551 33.1871C25.1268 33.3249 25.0698 33.4552 24.9877 33.5694C24.9056 33.6837 24.8003 33.7793 24.6787 33.8501L23.6087 34.5401L28.4387 43.1501Z" stroke="#1D1D1B" stroke-width="2" stroke-linecap="round" stroke-linejoin="round"/>
<path d="M48.7192 36V43.12H37.1992L42.0292 34.51L40.9592 33.82C40.8432 33.7442 40.7434 33.6462 40.6655 33.5316C40.5876 33.4171 40.5331 33.2882 40.5052 33.1525C40.4773 33.0168 40.4766 32.8769 40.503 32.7409C40.5294 32.6049 40.5825 32.4754 40.6592 32.36L42.0292 30.31L38.3692 25.42C41.1343 25.4827 43.7652 26.6247 45.6993 28.6018C47.6334 30.5789 48.7173 33.2342 48.7192 36Z" stroke="#1D1D1B" stroke-width="2" stroke-linecap="round" stroke-linejoin="round"/>
<path d="M28.4293 25.4501L27.4493 26.4301L27.2793 25.4501H28.4293Z" stroke="#1D1D1B" stroke-width="2" stroke-linecap="round" stroke-linejoin="round"/>
<path d="M37.6091 29.8901L35.3491 43.1601H30.2991L28.0391 29.8901L30.3991 32.2601L30.8891 31.7701L32.8191 29.8401L34.7391 31.7501L35.2391 32.2601L37.6091 29.8901Z" stroke="#1D1D1B" stroke-width="2" stroke-linecap="round" stroke-linejoin="round"/>
<path d="M38.3692 25.4501L38.1992 26.4501L37.1992 25.4501H38.3692Z" stroke="#1D1D1B" stroke-width="2" stroke-linecap="round" stroke-linejoin="round"/>
<path d="M39.0491 12.5601V16.8401C39.0505 17.6691 38.8881 18.4902 38.5715 19.2564C38.2549 20.0226 37.7901 20.7187 37.2039 21.3049C36.6177 21.8911 35.9216 22.3558 35.1554 22.6725C34.3893 22.9891 33.5682 23.1514 32.7391 23.1501H32.6791C31.0064 23.1475 29.403 22.4818 28.2202 21.299C27.0374 20.1162 26.3718 18.5128 26.3691 16.8401V12.5601H27.0091C27.6784 12.5634 28.3336 12.3673 28.891 11.9969C29.4484 11.6265 29.8829 11.0984 30.1391 10.4801H30.6691C30.9264 11.0976 31.3612 11.6249 31.9184 11.9952C32.4756 12.3655 33.1301 12.5621 33.7991 12.5601H39.0491Z" stroke="#1D1D1B" stroke-width="2" stroke-linecap="round" stroke-linejoin="round"/>
<path d="M42.4995 13.6801V14.6801C42.4995 15.0726 42.3436 15.449 42.066 15.7266C41.7885 16.0041 41.4121 16.1601 41.0195 16.1601H39.0195V12.5601H40.7995V12.2001H41.0395C41.4286 12.2053 41.7999 12.3636 42.0731 12.6406C42.3464 12.9175 42.4996 13.291 42.4995 13.6801Z" stroke="#1D1D1B" stroke-width="2" stroke-linecap="round" stroke-linejoin="round"/>
<path d="M26.3687 12.5601V16.1501H24.3687C23.9762 16.1501 23.5997 15.9941 23.3222 15.7166C23.0446 15.439 22.8887 15.0626 22.8887 14.6701V13.6701C22.8887 13.2775 23.0446 12.9011 23.3222 12.6235C23.5997 12.346 23.9762 12.1901 24.3687 12.1901H24.6087V12.5501L26.3687 12.5601Z" stroke="#1D1D1B" stroke-width="2" stroke-linecap="round" stroke-linejoin="round"/>
<path d="M40.799 7.66003V8.59003C40.7992 8.27785 40.7691 7.96638 40.709 7.66003H40.799Z" stroke="#1D1D1B" stroke-width="2" stroke-linecap="round" stroke-linejoin="round"/>
<path d="M24.7384 7.66003C24.6783 7.96638 24.6482 8.27785 24.6484 8.59003V7.66003H24.7384Z" stroke="#1D1D1B" stroke-width="2" stroke-linecap="round" stroke-linejoin="round"/>
<path d="M40.7984 8.59005V12.59H33.7984C33.3529 12.5914 32.9115 12.5046 32.4996 12.3347C32.0877 12.1648 31.7135 11.9151 31.3984 11.6001C31.0833 11.285 30.8337 10.9108 30.6638 10.4989C30.4939 10.087 30.4071 9.6456 30.4084 9.20005C30.4032 10.0992 30.0429 10.9599 29.4062 11.5948C28.7694 12.2297 27.9076 12.5874 27.0084 12.59H24.6484V8.59005C24.6482 8.27786 24.6783 7.96639 24.7384 7.66005C24.9221 6.56006 25.4468 5.5456 26.2384 4.76005C26.7402 4.25527 27.337 3.85487 27.9944 3.58197C28.6518 3.30907 29.3567 3.16907 30.0684 3.17005H35.3584C36.6335 3.17033 37.8675 3.62098 38.8427 4.44248C39.8179 5.26398 40.4716 6.40353 40.6884 7.66005C40.7553 7.96573 40.7921 8.27721 40.7984 8.59005Z" stroke="#1D1D1B" stroke-width="2" stroke-linecap="round" stroke-linejoin="round"/>
<path d="M38.1984 26.4501L37.6084 29.8901L35.2384 32.2601L34.7384 31.7501L32.8184 29.8401L37.1984 25.4501L38.1984 26.4501Z" stroke="#1D1D1B" stroke-width="2" stroke-linecap="round" stroke-linejoin="round"/>
<path d="M32.8192 29.8401L30.8892 31.7701L30.3992 32.2601L28.0392 29.8901L27.4492 26.4301L28.4292 25.4501L32.8192 29.8401Z" stroke="#1D1D1B" stroke-width="2" stroke-linecap="round" stroke-linejoin="round"/>
<path d="M37.1984 21.3V25.45L32.7984 29.83L28.4084 25.45H28.1484V21.24C28.7329 21.8456 29.4336 22.327 30.2086 22.6552C30.9835 22.9834 31.8168 23.1517 32.6584 23.15H32.7184C33.5502 23.1516 34.3741 22.989 35.1428 22.6715C35.9116 22.3541 36.6102 21.888 37.1984 21.3Z" stroke="#1D1D1B" stroke-width="2" stroke-linecap="round" stroke-linejoin="round"/>
<path d="M34.7387 31.7501L34.0887 33.7701H31.5387L30.8887 31.7701L32.8187 29.8401L34.7387 31.7501Z" stroke="#1D1D1B" stroke-width="2" stroke-linecap="round" stroke-linejoin="round"/>
<path d="M34.0888 33.77L35.3488 43.16H30.2988L31.5388 33.77H34.0888Z" stroke="#1D1D1B" stroke-width="2" stroke-linecap="round" stroke-linejoin="round"/>
<path d="M40.9596 33.8501L42.0296 34.5401L37.1996 43.1501H35.3496L37.6096 29.8901L38.1996 26.4501L38.3696 25.4501L42.0296 30.3401L40.6596 32.3901C40.5829 32.5055 40.5298 32.6349 40.5034 32.7709C40.477 32.9069 40.4777 33.0468 40.5056 33.1825C40.5335 33.3183 40.588 33.4471 40.6659 33.5617C40.7438 33.6762 40.8436 33.7743 40.9596 33.8501Z" stroke="#1D1D1B" stroke-width="2" stroke-linecap="round" stroke-linejoin="round"/>
<path d="M30.2994 43.1501H28.4394L23.6094 34.5401L24.6794 33.8501C24.8009 33.7793 24.9062 33.6837 24.9883 33.5694C25.0704 33.4552 25.1275 33.3249 25.1558 33.1871C25.1841 33.0493 25.183 32.9071 25.1526 32.7698C25.1222 32.6324 25.0632 32.503 24.9794 32.3901L23.6094 30.3401L27.2794 25.4501L27.4494 26.4501L28.0394 29.9101L30.2994 43.1501Z" stroke="#1D1D1B" stroke-width="2" stroke-linecap="round" stroke-linejoin="round"/>
</svg>
