<svg width="65" height="64" viewBox="0 0 65 64" fill="none" xmlns="http://www.w3.org/2000/svg">
<path d="M48.5793 37.49H16.5293C15.7009 37.49 15.0293 38.1616 15.0293 38.99V43.02C15.0293 43.8484 15.7009 44.52 16.5293 44.52H48.5793C49.4077 44.52 50.0793 43.8484 50.0793 43.02V38.99C50.0793 38.1616 49.4077 37.49 48.5793 37.49Z" fill="#F5A463"/>
<path d="M45.0489 60.5H20.0689L17.8789 44.52H47.2389L45.0489 60.5Z" fill="#B65F22"/>
<path d="M53.8883 18.03C55.0757 18.03 56.0383 17.0674 56.0383 15.88C56.0383 14.6926 55.0757 13.73 53.8883 13.73C52.7009 13.73 51.7383 14.6926 51.7383 15.88C51.7383 17.0674 52.7009 18.03 53.8883 18.03Z" fill="#B65F22"/>
<path d="M53.8879 18.08L58.9679 41.39L54.8979 51.51L50.3379 41.39L53.8879 18.08Z" fill="#686FB3"/>
<path d="M53.8892 41C53.8892 41 51.6992 44.39 52.4092 46" stroke="#1D1D1B" stroke-width="2" stroke-linecap="round" stroke-linejoin="round"/>
<path d="M54.8984 51.5V60.5" stroke="#1D1D1B" stroke-width="2" stroke-linecap="round" stroke-linejoin="round"/>
<path d="M50.8379 60.5H58.9679" stroke="#1D1D1B" stroke-width="2" stroke-linecap="round" stroke-linejoin="round"/>
<path d="M9.95859 18.03C11.146 18.03 12.1086 17.0674 12.1086 15.88C12.1086 14.6926 11.146 13.73 9.95859 13.73C8.77118 13.73 7.80859 14.6926 7.80859 15.88C7.80859 17.0674 8.77118 18.03 9.95859 18.03Z" fill="#B65F22"/>
<path d="M9.95844 18.08L15.0284 41.39L10.9684 51.51L6.39844 41.39L9.95844 18.08Z" fill="#686FB3"/>
<path d="M9.95925 41C9.95925 41 7.75925 44.39 8.46925 46" stroke="#1D1D1B" stroke-width="2" stroke-linecap="round" stroke-linejoin="round"/>
<path d="M10.9688 51.5V60.5" stroke="#1D1D1B" stroke-width="2" stroke-linecap="round" stroke-linejoin="round"/>
<path d="M6.89844 60.5H15.0284" stroke="#1D1D1B" stroke-width="2" stroke-linecap="round" stroke-linejoin="round"/>
<path d="M38.2888 7.52991V13.1799C38.2831 14.2058 38.0016 15.2112 37.4738 16.0909C36.946 16.9706 36.1913 17.6921 35.2888 18.1799C34.4489 18.6457 33.5043 18.8901 32.5438 18.8901C31.5834 18.8901 30.6388 18.6457 29.7988 18.1799C28.895 17.6938 28.1391 16.9726 27.6111 16.0926C27.0831 15.2125 26.8024 14.2062 26.7988 13.1799V8.82991H34.9188C36.1669 8.84254 37.3726 8.37745 38.2888 7.52991Z" fill="#F4C8A7"/>
<path d="M30.3686 37.4899H19.8086V29.9199C19.8086 27.7319 20.6778 25.6335 22.225 24.0863C23.7721 22.5391 25.8706 21.6699 28.0586 21.6699L28.2686 23.0799L28.5286 24.8999L29.8886 34.1999L30.3686 37.4899Z" fill="#686FB3"/>
<path d="M45.018 29.92V37.49H34.748L35.198 34.14L36.338 25L36.598 23L36.768 21.71C38.9492 21.7099 41.0416 22.5736 42.5876 24.1122C44.1336 25.6507 45.0075 27.7389 45.018 29.92Z" fill="#686FB3"/>
<path d="M35.3077 18.21V21.67L32.4977 24.49L29.6777 21.67H29.8177V18.21C30.6577 18.6758 31.6023 18.9202 32.5627 18.9202C33.5232 18.9202 34.4678 18.6758 35.3077 18.21Z" fill="#F4C8A7"/>
<path d="M35.1787 34.13V34.15L34.7487 37.49H30.3687L29.8887 34.2L31.6987 25.39L32.4887 24.59L33.3787 25.48L35.1787 34.13Z" fill="#B65F22"/>
<path d="M36.7686 21.6799L36.5986 22.9599L36.3386 25.0199L35.1786 34.1299L33.3786 25.4799L32.4886 24.5899L31.6986 25.3899L29.8886 34.1999L28.5286 24.9099L28.2686 23.0899L28.0586 21.6799H29.6786L32.4886 24.4799H32.4986L35.3086 21.6799H36.7686Z" fill="#E5E4F2"/>
<path d="M39.9384 3.82996C39.9405 4.52827 39.7945 5.2191 39.5101 5.85688C39.2257 6.49465 38.8093 7.06488 38.2884 7.52996C37.3771 8.37274 36.1795 8.83748 34.9384 8.82996H26.8184V6.66996C26.8184 5.91674 27.1176 5.19438 27.6502 4.66177C28.1828 4.12917 28.9051 3.82996 29.6584 3.82996H39.9384Z" fill="#484646"/>
<path d="M36.5975 22.9599L36.3375 25.0199L34.6275 26.7299L33.3775 25.4799L32.4875 24.5899L32.4375 24.5499L35.3075 21.6799L36.5975 22.9599Z" fill="#E5E4F2"/>
<path d="M32.5576 24.5499L32.4876 24.5899L31.6976 25.3899L30.3576 26.7299L28.5276 24.9099L28.2676 23.0899L29.6776 21.6799L32.4876 24.4799H32.4976L32.5576 24.5499Z" fill="#E5E4F2"/>
<path d="M33.3789 25.48V25.47" stroke="#1D1D1B" stroke-width="2" stroke-linecap="round" stroke-linejoin="round"/>
<g style="mix-blend-mode:multiply" opacity="0.25">
<path d="M21.3193 44.52C21.1202 44.52 20.923 44.4806 20.7391 44.4041C20.5553 44.3276 20.3884 44.2155 20.248 44.0742C20.1077 43.9329 19.9967 43.7653 19.9214 43.5809C19.8461 43.3966 19.808 43.1991 19.8093 43V39C19.8119 38.6013 19.9722 38.2197 20.2551 37.9387C20.538 37.6577 20.9205 37.5 21.3193 37.5H16.5393C16.1405 37.5 15.758 37.6577 15.4751 37.9387C15.1922 38.2197 15.0319 38.6013 15.0293 39V43C15.0319 43.3987 15.1922 43.7803 15.4751 44.0613C15.758 44.3423 16.1405 44.5 16.5393 44.5H17.8793L20.0693 60.5H24.8493L22.6593 44.5L21.3193 44.52Z" fill="#1D1D1B"/>
<path d="M53.1978 15.88C53.2031 15.4404 53.343 15.013 53.5987 14.6554C53.8544 14.2978 54.2136 14.0272 54.6278 13.88C54.3973 13.7947 54.1536 13.7507 53.9078 13.75C53.3376 13.75 52.7907 13.9765 52.3875 14.3797C51.9843 14.7829 51.7578 15.3298 51.7578 15.9C51.7578 16.4702 51.9843 17.0171 52.3875 17.4203C52.7907 17.8235 53.3376 18.05 53.9078 18.05C54.1536 18.0493 54.3973 18.0053 54.6278 17.92C54.208 17.7692 53.8451 17.4922 53.5891 17.1269C53.333 16.7617 53.1963 16.3261 53.1978 15.88Z" fill="#1D1D1B"/>
<path d="M55.1479 45.97H55.1379L53.0779 41.39L55.4979 25.48L53.8879 18.08L50.3379 41.39L52.4079 45.97L54.8979 51.51L56.1879 48.29L55.1479 45.97Z" fill="#1D1D1B"/>
<path d="M9.32911 15.88C9.33137 15.4452 9.46543 15.0213 9.71359 14.6642C9.96175 14.3071 10.3123 14.0337 10.7191 13.88C10.4224 13.7512 10.1004 13.691 9.77714 13.7039C9.45389 13.7168 9.13773 13.8024 8.8522 13.9545C8.56667 14.1066 8.31914 14.3211 8.12805 14.5822C7.93697 14.8432 7.80725 15.144 7.74856 15.4621C7.68988 15.7803 7.70374 16.1075 7.78912 16.4196C7.87449 16.7316 8.02918 17.0203 8.24166 17.2643C8.45414 17.5082 8.71892 17.7011 9.01629 17.8284C9.31365 17.9558 9.63593 18.0145 9.95911 18C10.2199 18.0016 10.4784 17.9506 10.7191 17.85C10.3155 17.7005 9.96667 17.4323 9.71855 17.0806C9.47042 16.7289 9.33464 16.3103 9.32911 15.88Z" fill="#1D1D1B"/>
<path d="M11.2084 45.97L9.13844 41.39L11.5684 25.48L9.95844 18.08L6.39844 41.39L8.46844 45.97L10.9684 51.51L12.2584 48.29L11.2084 45.97Z" fill="#1D1D1B"/>
<path d="M32.0086 18.21C31.1054 17.723 30.3502 17.0016 29.8223 16.1218C29.2943 15.2419 29.0133 14.236 29.0086 13.21V8.82996H26.8086V13.18C26.8122 14.2063 27.0928 15.2126 27.6208 16.0926C28.1489 16.9727 28.9047 17.6938 29.8086 18.18C30.645 18.6499 31.5892 18.8945 32.5486 18.89C32.918 18.8895 33.2864 18.8527 33.6486 18.78C33.0757 18.6759 32.5225 18.4836 32.0086 18.21Z" fill="#1D1D1B"/>
<path d="M28.1086 22L28.0586 21.7C25.8714 21.7026 23.7745 22.5726 22.2279 24.1192C20.6813 25.6658 19.8112 27.7627 19.8086 29.95V37.52H21.9986V29.92C22.0074 28.1124 22.6102 26.3579 23.7143 24.9268C24.8184 23.4956 26.3625 22.4672 28.1086 22Z" fill="#1D1D1B"/>
<path d="M38.6278 23L38.7578 22C38.1031 21.8393 37.4319 21.7554 36.7578 21.75L36.6078 23L36.3378 25L34.7578 37.49H36.7578L38.3578 25L38.6278 23Z" fill="#1D1D1B"/>
<path d="M34.348 18.92C34.6836 18.9236 35.0186 18.8934 35.348 18.83V18.21C34.774 18.5308 34.1477 18.7475 33.498 18.85C33.7795 18.8921 34.0635 18.9155 34.348 18.92Z" fill="#1D1D1B"/>
<path d="M31.4677 21.67H31.5977V18.83C30.9725 18.7297 30.37 18.5198 29.8177 18.21V21.67H29.6777L32.4977 24.49L33.3877 23.6L31.4677 21.67Z" fill="#1D1D1B"/>
<path d="M31.9084 3.82996H29.6584C28.9051 3.82996 28.1828 4.12917 27.6502 4.66177C27.1176 5.19438 26.8184 5.91674 26.8184 6.66996V8.82996H29.0684V6.66996C29.0684 5.91674 29.3676 5.19438 29.9002 4.66177C30.4328 4.12917 31.1551 3.82996 31.9084 3.82996Z" fill="#1D1D1B"/>
</g>
<g style="mix-blend-mode:overlay">
<path d="M48.5799 37.49H45.9199C46.3177 37.49 46.6993 37.648 46.9806 37.9293C47.2619 38.2106 47.4199 38.5922 47.4199 38.99V42.99C47.4199 43.3878 47.2619 43.7693 46.9806 44.0506C46.6993 44.332 46.3177 44.49 45.9199 44.49H48.5799C48.977 44.49 49.358 44.3337 49.6406 44.0548C49.9233 43.7759 50.0847 43.397 50.0899 43V39C50.0899 38.5995 49.9308 38.2154 49.6477 37.9323C49.3645 37.6491 48.9804 37.49 48.5799 37.49Z" fill="white"/>
<path d="M44.5689 44.52L42.3789 60.5H45.0489L47.2389 44.52H44.5689Z" fill="white"/>
<path d="M53.8895 13.7299C53.6504 13.7325 53.4135 13.7765 53.1895 13.8599C53.5992 14.01 53.9529 14.2824 54.2028 14.6401C54.4527 14.9978 54.5867 15.4236 54.5867 15.8599C54.5867 16.2963 54.4527 16.7221 54.2028 17.0798C53.9529 17.4375 53.5992 17.7098 53.1895 17.8599C53.4135 17.9434 53.6504 17.9874 53.8895 17.9899C54.1718 17.9899 54.4514 17.9343 54.7122 17.8263C54.9731 17.7182 55.2101 17.5599 55.4097 17.3602C55.6094 17.1606 55.7677 16.9236 55.8758 16.6627C55.9838 16.4019 56.0395 16.1223 56.0395 15.8399C56.0395 15.5576 55.9838 15.278 55.8758 15.0172C55.7677 14.7563 55.6094 14.5193 55.4097 14.3197C55.2101 14.12 54.9731 13.9616 54.7122 13.8536C54.4514 13.7456 54.1718 13.6899 53.8895 13.6899V13.7299Z" fill="white"/>
<path d="M53.8884 18.08L53.0684 23.52L56.9584 41.39L53.8384 49.15L54.8984 51.51L58.9684 41.39L53.8884 18.08Z" fill="white"/>
<path d="M9.95953 13.73C9.72471 13.734 9.49194 13.7745 9.26953 13.85C9.6955 13.9921 10.066 14.2646 10.3285 14.6289C10.591 14.9933 10.7323 15.4309 10.7323 15.88C10.7323 16.329 10.591 16.7667 10.3285 17.131C10.066 17.4954 9.6955 17.7679 9.26953 17.91C9.49194 17.9854 9.72471 18.0259 9.95953 18.03C10.5297 18.03 11.0766 17.8035 11.4798 17.4003C11.883 16.9971 12.1095 16.4502 12.1095 15.88C12.1095 15.3098 11.883 14.7629 11.4798 14.3597C11.0766 13.9565 10.5297 13.73 9.95953 13.73Z" fill="white"/>
<path d="M9.95922 18.08L9.19922 23.05L13.1892 41.39L9.98922 49.35L10.9692 51.51L15.0292 41.39L9.95922 18.08Z" fill="white"/>
<path d="M36.5302 8.55991V13.1799C36.5244 14.2058 36.2429 15.2112 35.7151 16.0909C35.1873 16.9706 34.4326 17.6921 33.5302 18.1799C32.9516 18.5067 32.3176 18.7237 31.6602 18.8199C31.9515 18.8635 32.2456 18.8869 32.5402 18.8899C33.5029 18.8958 34.4506 18.6511 35.2902 18.1799C36.1926 17.6921 36.9473 16.9706 37.4751 16.0909C38.0029 15.2112 38.2844 14.2058 38.2902 13.1799V7.52991C37.7854 7.99713 37.1847 8.34863 36.5302 8.55991Z" fill="white"/>
<path d="M36.7695 21.6699V21.8299C38.6494 22.1924 40.3444 23.1982 41.5634 24.6744C42.7824 26.1507 43.4493 28.0054 43.4495 29.9199V37.4899H45.0395V29.9199C45.0395 28.8349 44.8255 27.7604 44.4096 26.7582C43.9938 25.7559 43.3843 24.8456 42.6161 24.0792C41.8479 23.3129 40.9361 22.7056 39.9328 22.2922C38.9296 21.8788 37.8546 21.6673 36.7695 21.6699Z" fill="white"/>
<path d="M31.1984 18.92C31.4315 18.9349 31.6653 18.9349 31.8984 18.92C31.1946 18.8288 30.5152 18.6012 29.8984 18.25V18.8C30.3259 18.8884 30.762 18.9286 31.1984 18.92Z" fill="white"/>
<path d="M33.8991 18.76V21.67L31.7891 23.78L32.4991 24.49L35.3091 21.67V18.21C34.8682 18.4606 34.3932 18.6458 33.8991 18.76Z" fill="white"/>
<path d="M37.9184 3.82996C37.6683 4.7542 37.158 5.58721 36.4484 6.22996C35.5366 7.07188 34.3394 7.53648 33.0984 7.52996H26.8184V8.82996H34.9384C36.1795 8.83748 37.3771 8.37274 38.2884 7.52996C38.8093 7.06488 39.2257 6.49465 39.5101 5.85688C39.7945 5.2191 39.9405 4.52827 39.9384 3.82996H37.9184Z" fill="white"/>
</g>
<path d="M48.5793 37.49H16.5293C15.7009 37.49 15.0293 38.1616 15.0293 38.99V43.02C15.0293 43.8484 15.7009 44.52 16.5293 44.52H48.5793C49.4077 44.52 50.0793 43.8484 50.0793 43.02V38.99C50.0793 38.1616 49.4077 37.49 48.5793 37.49Z" stroke="#1D1D1B" stroke-width="2" stroke-linecap="round" stroke-linejoin="round"/>
<path d="M45.0489 60.5H20.0689L17.8789 44.52H47.2389L45.0489 60.5Z" stroke="#1D1D1B" stroke-width="2" stroke-linecap="round" stroke-linejoin="round"/>
<path d="M53.8883 18.03C55.0757 18.03 56.0383 17.0674 56.0383 15.88C56.0383 14.6926 55.0757 13.73 53.8883 13.73C52.7009 13.73 51.7383 14.6926 51.7383 15.88C51.7383 17.0674 52.7009 18.03 53.8883 18.03Z" stroke="#1D1D1B" stroke-width="2" stroke-linecap="round" stroke-linejoin="round"/>
<path d="M53.8879 18.08L58.9679 41.39L54.8979 51.51L50.3379 41.39L53.8879 18.08Z" stroke="#1D1D1B" stroke-width="2" stroke-linecap="round" stroke-linejoin="round"/>
<path d="M53.8892 41C53.8892 41 51.6992 44.39 52.4092 46" stroke="#1D1D1B" stroke-width="2" stroke-linecap="round" stroke-linejoin="round"/>
<path d="M54.8984 51.5V60.5" stroke="#1D1D1B" stroke-width="2" stroke-linecap="round" stroke-linejoin="round"/>
<path d="M50.8379 60.5H58.9679" stroke="#1D1D1B" stroke-width="2" stroke-linecap="round" stroke-linejoin="round"/>
<path d="M9.95859 18.03C11.146 18.03 12.1086 17.0674 12.1086 15.88C12.1086 14.6926 11.146 13.73 9.95859 13.73C8.77118 13.73 7.80859 14.6926 7.80859 15.88C7.80859 17.0674 8.77118 18.03 9.95859 18.03Z" stroke="#1D1D1B" stroke-width="2" stroke-linecap="round" stroke-linejoin="round"/>
<path d="M9.95844 18.08L15.0284 41.39L10.9684 51.51L6.39844 41.39L9.95844 18.08Z" stroke="#1D1D1B" stroke-width="2" stroke-linecap="round" stroke-linejoin="round"/>
<path d="M9.95925 41C9.95925 41 7.75925 44.39 8.46925 46" stroke="#1D1D1B" stroke-width="2" stroke-linecap="round" stroke-linejoin="round"/>
<path d="M10.9688 51.5V60.5" stroke="#1D1D1B" stroke-width="2" stroke-linecap="round" stroke-linejoin="round"/>
<path d="M6.89844 60.5H15.0284" stroke="#1D1D1B" stroke-width="2" stroke-linecap="round" stroke-linejoin="round"/>
<path d="M38.2888 7.52991V13.1799C38.2831 14.2058 38.0016 15.2112 37.4738 16.0909C36.946 16.9706 36.1913 17.6921 35.2888 18.1799C34.4489 18.6457 33.5043 18.8901 32.5438 18.8901C31.5834 18.8901 30.6388 18.6457 29.7988 18.1799C28.895 17.6938 28.1391 16.9726 27.6111 16.0926C27.0831 15.2125 26.8024 14.2062 26.7988 13.1799V8.82991H34.9188C36.1669 8.84254 37.3726 8.37745 38.2888 7.52991Z" stroke="#1D1D1B" stroke-width="2" stroke-linecap="round" stroke-linejoin="round"/>
<path d="M30.3686 37.4899H19.8086V29.9199C19.8112 27.7327 20.6813 25.6358 22.2279 24.0892C23.7745 22.5426 25.8714 21.6726 28.0586 21.6699L28.2686 23.0899L28.5286 24.8999L30.3686 37.4899Z" stroke="#1D1D1B" stroke-width="2" stroke-linecap="round" stroke-linejoin="round"/>
<path d="M45.0178 29.92V37.49H34.7578L36.3378 25L36.6078 23L36.7678 21.7C38.9507 21.6999 41.0445 22.565 42.5909 24.1057C44.1372 25.6464 45.0099 27.7371 45.0178 29.92Z" stroke="#1D1D1B" stroke-width="2" stroke-linecap="round" stroke-linejoin="round"/>
<path d="M35.3077 18.21V21.67L32.4977 24.49L29.6777 21.67H29.8177V18.21C30.6577 18.6758 31.6023 18.9202 32.5627 18.9202C33.5232 18.9202 34.4678 18.6758 35.3077 18.21Z" stroke="#1D1D1B" stroke-width="2" stroke-linecap="round" stroke-linejoin="round"/>
<path d="M36.7686 21.6699L36.6086 22.9599L36.3386 25.0199L34.7586 37.4899H30.3686L28.5286 24.8999L28.2686 23.0899L28.0586 21.6699H29.6786L32.4986 24.4899L35.3086 21.6699H36.7686Z" stroke="#1D1D1B" stroke-width="2" stroke-linecap="round" stroke-linejoin="round"/>
<path d="M39.9384 3.82996C39.9405 4.52827 39.7945 5.2191 39.5101 5.85688C39.2257 6.49465 38.8093 7.06488 38.2884 7.52996C37.3771 8.37274 36.1795 8.83748 34.9384 8.82996H26.8184V6.66996C26.8184 5.91674 27.1176 5.19438 27.6502 4.66177C28.1828 4.12917 28.9051 3.82996 29.6584 3.82996H39.9384Z" stroke="#1D1D1B" stroke-width="2" stroke-linecap="round" stroke-linejoin="round"/>
<path d="M36.6075 22.9599L36.3375 25.0199L34.6375 26.7299L32.4375 24.5399L35.3075 21.6699L36.6075 22.9599Z" stroke="#1D1D1B" stroke-width="2" stroke-linecap="round" stroke-linejoin="round"/>
<path d="M32.5676 24.5399L32.4976 24.5999L30.3576 26.7299L28.5276 24.8999L28.2676 23.0899L29.6776 21.6699L32.4976 24.4899L32.5676 24.5399Z" stroke="#1D1D1B" stroke-width="2" stroke-linecap="round" stroke-linejoin="round"/>
<path d="M29.8887 34.2L31.7087 25.39" stroke="#1D1D1B" stroke-width="2" stroke-linecap="round" stroke-linejoin="round"/>
<path d="M33.3789 25.48L35.1789 34.15" stroke="#1D1D1B" stroke-width="2" stroke-linecap="round" stroke-linejoin="round"/>
</svg>
