<svg width="65" height="64" viewBox="0 0 65 64" fill="none" xmlns="http://www.w3.org/2000/svg">
<path d="M37.4002 17.23C37.4002 20.0148 36.5745 22.737 35.0273 25.0525C33.4802 27.3679 31.2812 29.1726 28.7084 30.2383C26.1356 31.3039 23.3046 31.5828 20.5734 31.0395C17.8421 30.4962 15.3333 29.1552 13.3642 27.1861C11.3951 25.217 10.0541 22.7082 9.51078 19.9769C8.9675 17.2456 9.24634 14.4146 10.312 11.8418C11.3777 9.26906 13.1824 7.07007 15.4978 5.52294C17.8133 3.97581 20.5355 3.15003 23.3202 3.15003C25.1696 3.14871 27.0011 3.51201 28.71 4.21913C30.4188 4.92625 31.9715 5.96332 33.2792 7.27103C34.5869 8.57874 35.624 10.1314 36.3311 11.8403C37.0383 13.5491 37.4016 15.3806 37.4002 17.23Z" fill="#466E80"/>
<path d="M37.4002 17.23H36.4002C36.4067 20.2568 35.3633 23.1921 33.4477 25.5357C31.5322 27.8792 28.8632 29.4859 25.8957 30.0819C22.9282 30.6779 19.8458 30.2262 17.174 28.804C14.5022 27.3817 12.4064 25.0768 11.2437 22.2822C10.0811 19.4877 9.92361 16.3764 10.7982 13.4787C11.6727 10.581 13.5251 8.07629 16.0397 6.39152C18.5542 4.70676 21.5753 3.94621 24.5878 4.23953C27.6003 4.53284 30.4179 5.86185 32.5602 8.00003C33.7777 9.20899 34.7439 10.647 35.4029 12.2312C36.062 13.8153 36.4009 15.5143 36.4002 17.23H38.4002C38.4002 14.2475 37.5158 11.3319 35.8588 8.85203C34.2018 6.37214 31.8466 4.4393 29.0911 3.29793C26.3356 2.15656 23.3035 1.85792 20.3783 2.43979C17.453 3.02165 14.766 4.45788 12.6571 6.56686C10.5481 8.67584 9.11186 11.3628 8.53 14.2881C7.94813 17.2133 8.24677 20.2454 9.38814 23.0009C10.5295 25.7564 12.4623 28.1116 14.9422 29.7686C17.4221 31.4256 20.3377 32.31 23.3202 32.31C27.3197 32.31 31.1554 30.7212 33.9834 27.8932C36.8115 25.0652 38.4002 21.2295 38.4002 17.23H37.4002Z" fill="black"/>
<path d="M36.0398 60.47H10.5898C9.79419 60.47 9.03113 60.1539 8.46852 59.5913C7.90591 59.0287 7.58984 58.2657 7.58984 57.47V40.1C7.58984 38.4521 8.24379 36.8715 9.4081 35.7053C10.5724 34.5391 12.1519 33.8827 13.7998 33.88H32.8698C34.5187 33.8826 36.0992 34.5388 37.2651 35.7047C38.431 36.8706 39.0872 38.4512 39.0898 40.1V57.43C39.0898 58.2257 38.7738 58.9887 38.2112 59.5513C37.6486 60.1139 36.8855 60.43 36.0898 60.43" fill="#E57700"/>
<path d="M36.0408 60.47V59.47H10.5908C10.0604 59.47 9.55165 59.2593 9.17657 58.8842C8.8015 58.5091 8.59079 58.0004 8.59079 57.47V40.1C8.58947 39.415 8.72326 38.7364 8.9845 38.1032C9.24574 37.4699 9.6293 36.8944 10.1132 36.4095C10.5971 35.9247 11.1719 35.54 11.8047 35.2775C12.4375 35.0151 13.1158 34.88 13.8008 34.88H32.8708C34.2552 34.88 35.5829 35.43 36.5619 36.4089C37.5408 37.3878 38.0908 38.7156 38.0908 40.1V57.43C38.0781 57.9564 37.8633 58.4578 37.491 58.8302C37.1186 59.2025 36.6172 59.4173 36.0908 59.43V61.43C37.1476 61.417 38.1575 60.9914 38.9049 60.2441C39.6522 59.4967 40.0778 58.4868 40.0908 57.43V40.1C40.0908 38.1851 39.3301 36.3487 37.9761 34.9947C36.6221 33.6407 34.7857 32.88 32.8708 32.88H13.7608C12.8131 32.88 11.8747 33.0668 10.9993 33.4298C10.1239 33.7927 9.32865 34.3247 8.65901 34.9953C7.98937 35.6659 7.45849 36.4619 7.09674 37.3378C6.735 38.2137 6.54947 39.1523 6.55079 40.1V57.43C6.55079 58.4909 6.97222 59.5083 7.72236 60.2584C8.47251 61.0086 9.48992 61.43 10.5508 61.43H36.0408V60.43" fill="black"/>
<path d="M29.1095 53.01L22.8895 58.41L17.5195 52.58L18.3095 46.75L18.6395 44.29L20.0295 33.9H26.6995L26.8795 33.88L28.0895 44.29L28.3795 46.75L29.1095 53.01Z" fill="#CCCCCC"/>
<path d="M29.11 53L28.45 52.24L22.97 57L18.58 52.22L19.3 46.86L19.63 44.41L20.91 34.88H26.79H26.97L26.88 33.88L25.88 34L27.1 44.41L27.4 46.87L28.12 53.13L29.12 53.02L30.12 52.9L29.4 46.63L29.11 44.18L27.87 33.77C27.8398 33.5117 27.7101 33.2753 27.5084 33.111C27.3068 32.9467 27.0491 32.8674 26.79 32.89H20.03C19.7858 32.8879 19.5494 32.9753 19.3651 33.1355C19.1809 33.2958 19.0617 33.5179 19.03 33.76L17.63 44.15L17.3 46.61L16.52 52.43C16.5011 52.5758 16.5146 52.724 16.5596 52.864C16.6045 53.004 16.6798 53.1324 16.78 53.24L22.14 59.08C22.3159 59.2714 22.5593 59.3867 22.8188 59.4016C23.0782 59.4166 23.3333 59.3299 23.53 59.16L29.75 53.75C29.8732 53.6436 29.9686 53.5088 30.0278 53.3571C30.0871 53.2055 30.1084 53.0417 30.09 52.88L29.09 53" fill="black"/>
<path d="M62.2912 15.9999V28.2499C62.2912 28.7227 62.1981 29.1908 62.0172 29.6276C61.8363 30.0644 61.5711 30.4612 61.2368 30.7955C60.9025 31.1298 60.5057 31.395 60.0689 31.5759C59.6321 31.7568 59.164 31.8499 58.6912 31.8499H46.6012L40.7112 33.4199C40.4932 33.481 40.2628 33.4832 40.0436 33.4261C39.8245 33.3691 39.6244 33.255 39.4637 33.0954C39.3031 32.9357 39.1877 32.7364 39.1293 32.5176C39.0708 32.2988 39.0715 32.0684 39.1312 31.8499L39.8612 29.1199C39.7884 28.8323 39.7515 28.5367 39.7512 28.2399V16.0599C39.7512 15.582 39.8458 15.1088 40.0296 14.6677C40.2134 14.2265 40.4827 13.8261 40.8221 13.4896C41.1614 13.153 41.564 12.887 42.0067 12.7068C42.4494 12.5267 42.9233 12.436 43.4012 12.4399H58.6912C59.646 12.4399 60.5617 12.8192 61.2368 13.4944C61.9119 14.1695 62.2912 15.0852 62.2912 16.0399" fill="#CCCCCC"/>
<path d="M62.2909 15.9999H61.2909V28.2499C61.2883 28.9387 61.0135 29.5985 60.5265 30.0855C60.0395 30.5725 59.3797 30.8473 58.6909 30.8499H46.6009H46.3409L40.4509 32.4299H40.4009L40.2009 32.3399L40.1209 32.1499V32.0699L40.8509 29.3399C40.891 29.1689 40.891 28.991 40.8509 28.8199C40.7965 28.6178 40.7696 28.4093 40.7709 28.1999V16.0599C40.7709 15.715 40.839 15.3735 40.9713 15.055C41.1036 14.7365 41.2975 14.4472 41.5418 14.2038C41.7862 13.9604 42.0762 13.7676 42.3952 13.6365C42.7142 13.5054 43.056 13.4386 43.4009 13.4399H58.6909C59.3797 13.4426 60.0395 13.7173 60.5265 14.2044C61.0135 14.6914 61.2883 15.3512 61.2909 16.0399H63.2909C63.2909 14.8199 62.8063 13.6499 61.9436 12.7873C61.0809 11.9246 59.9109 11.4399 58.6909 11.4399H43.4009C42.7947 11.4399 42.1944 11.5595 41.6344 11.7918C41.0745 12.0241 40.5658 12.3646 40.1376 12.7937C39.7094 13.2229 39.37 13.7322 39.139 14.2927C38.9079 14.8532 38.7896 15.4537 38.7909 16.0599V28.2399C38.7903 28.6249 38.8407 29.0083 38.9409 29.3799L39.9409 29.1199L38.9409 28.8599L38.2009 31.5899C38.153 31.7863 38.1295 31.9878 38.1309 32.1899C38.1309 32.7929 38.3698 33.3713 38.7952 33.7986C39.2206 34.2259 39.798 34.4673 40.4009 34.4699C40.6002 34.468 40.7984 34.4411 40.9909 34.3899L46.7609 32.8499H58.7609C59.9809 32.8499 61.1509 32.3653 62.0136 31.5026C62.8763 30.64 63.3609 29.4699 63.3609 28.2499V15.9999H62.3609" fill="black"/>
<path d="M45.1797 19.1801H56.4597" stroke="black" stroke-width="2" stroke-linecap="round" stroke-linejoin="round"/>
<path d="M45.1797 24.63H56.4597" stroke="black" stroke-width="2" stroke-linecap="round" stroke-linejoin="round"/>
<path d="M21.4497 4.29004C18.3379 4.74062 15.4925 6.29708 13.4347 8.6744C11.3768 11.0517 10.2441 14.0908 10.2441 17.235C10.2441 20.3793 11.3768 23.4184 13.4347 25.7957C15.4925 28.173 18.3379 29.7295 21.4497 30.18C18.9076 29.1024 16.739 27.3002 15.2145 24.9982C13.69 22.6961 12.8771 19.9961 12.8771 17.235C12.8771 14.474 13.69 11.774 15.2145 9.47192C16.739 7.16986 18.9076 5.36763 21.4497 4.29004Z" fill="#314D59"/>
<path d="M23.3202 3.15002C19.586 3.15002 16.0047 4.63345 13.3642 7.27396C10.7237 9.91447 9.24023 13.4958 9.24023 17.23C9.24023 20.9643 10.7237 24.5456 13.3642 27.1861C16.0047 29.8266 19.586 31.31 23.3202 31.31C22.7049 31.3023 22.0905 31.2589 21.4802 31.18C22.0936 31.0967 22.7013 30.9764 23.3002 30.82C22.6693 30.6504 22.0511 30.4365 21.4502 30.18C18.3384 29.7294 15.493 28.173 13.4352 25.7957C11.3773 23.4184 10.2446 20.3793 10.2446 17.235C10.2446 14.0907 11.3773 11.0517 13.4352 8.67438C15.493 6.29707 18.3384 4.74061 21.4502 4.29002C22.0494 4.02911 22.6679 3.81514 23.3002 3.65002C22.7024 3.48883 22.0944 3.36855 21.4802 3.29002C22.0898 3.20294 22.7045 3.15618 23.3202 3.15002Z" fill="black"/>
<path d="M14.0108 34.88H13.7608C13.0758 34.88 12.3975 35.0151 11.7647 35.2775C11.1319 35.54 10.5571 35.9247 10.0732 36.4095C9.5893 36.8944 9.20574 37.4699 8.9445 38.1032C8.68327 38.7364 8.54948 39.415 8.55079 40.1V57.43C8.55079 57.9604 8.7615 58.4691 9.13658 58.8442C9.51165 59.2193 10.0204 59.43 10.5508 59.43H11.9308C11.4294 58.8839 11.1479 58.1714 11.1408 57.43V40.1C11.14 39.063 11.3984 38.0422 11.8927 37.1305C12.387 36.2188 13.1013 35.4452 13.9708 34.88" fill="#A05300"/>
<path d="M17.4008 33.88H13.7608C12.1129 33.8827 10.5334 34.5391 9.36904 35.7053C8.20473 36.8715 7.55078 38.4521 7.55078 40.1V57.43C7.55078 58.2257 7.86685 58.9887 8.42946 59.5513C8.99207 60.1139 9.75513 60.43 10.5508 60.43H14.1908C13.7647 60.4334 13.3427 60.346 12.953 60.1735C12.5633 60.0011 12.2149 59.7476 11.9308 59.43H10.5908C10.0603 59.43 9.55164 59.2193 9.17657 58.8442C8.80149 58.4691 8.59078 57.9604 8.59078 57.43V40.1C8.58947 39.415 8.72326 38.7364 8.98449 38.1032C9.24573 37.4699 9.62929 36.8944 10.1132 36.4095C10.5971 35.9247 11.1719 35.54 11.8047 35.2775C12.4374 35.0151 13.1158 34.88 13.8008 34.88H14.0508C15.0608 34.2269 16.238 33.8797 17.4408 33.88" fill="black"/>
<path d="M22.2001 34.9H20.9101L19.6301 44.43L19.3001 46.88L18.5801 52.24L22.5801 56.6L23.2801 56L19.8601 52.28L20.6401 46.45L20.9701 43.99L22.2001 34.9Z" fill="#8E8E8E"/>
<path d="M22.3295 33.9H20.0295L18.6395 44.29L18.3095 46.75L17.5195 52.58L21.8295 57.26L22.5795 56.6L18.5795 52.24L19.2995 46.88L19.6295 44.43L20.9095 34.9H22.1995L22.3295 33.9Z" fill="black"/>
<path d="M43.8706 13.4399H43.4006C42.7075 13.4426 42.0437 13.7198 41.5545 14.2108C41.0653 14.7019 40.7906 15.3668 40.7906 16.0599V28.2399C40.7893 28.4493 40.8162 28.6578 40.8706 28.8599C40.9107 29.031 40.9107 29.2089 40.8706 29.3799L40.1406 32.1099V32.1899L40.2206 32.3799L40.4206 32.4699H40.5006L42.1006 31.9999C42.0911 31.9437 42.0911 31.8862 42.1006 31.8299L42.8306 29.0999C42.7578 28.8123 42.7209 28.5167 42.7206 28.2199V16.0599C42.7204 15.5702 42.8195 15.0855 43.012 14.6351C43.2045 14.1848 43.4864 13.7782 43.8406 13.4399" fill="#8E8E8E"/>
<path d="M46.3999 12.44H43.3999C42.4416 12.4426 41.5234 12.8252 40.8466 13.5038C40.1699 14.1824 39.7899 15.1016 39.7899 16.06V28.24C39.7902 28.5367 39.8271 28.8323 39.8999 29.12L39.1699 31.85C39.1197 32.0395 39.1134 32.2381 39.1515 32.4304C39.1895 32.6228 39.271 32.804 39.3895 32.9601C39.5081 33.1163 39.6608 33.2434 39.8358 33.3318C40.0109 33.4201 40.2038 33.4674 40.3999 33.47C40.5124 33.4894 40.6274 33.4894 40.7399 33.47L42.3999 33C42.2882 32.861 42.2066 32.7004 42.1601 32.5283C42.1137 32.3561 42.1034 32.1763 42.1299 32L40.4799 32.44H40.3999L40.1999 32.35L40.1199 32.16V32.08L40.8499 29.35C40.89 29.1789 40.89 29.001 40.8499 28.83C40.7955 28.6278 40.7686 28.4193 40.7699 28.21V16.06C40.7699 15.7151 40.838 15.3735 40.9703 15.055C41.1026 14.7365 41.2965 14.4472 41.5408 14.2038C41.7852 13.9604 42.0752 13.7676 42.3942 13.6365C42.7132 13.5054 43.055 13.4386 43.3999 13.44H43.9099C44.5783 12.7955 45.4714 12.4368 46.3999 12.44Z" fill="black"/>
<path d="M25.1504 4.28003C27.6955 5.35615 29.8671 7.15838 31.3939 9.46156C32.9206 11.7647 33.7349 14.4668 33.7349 17.23C33.7349 19.9933 32.9206 22.6953 31.3939 24.9985C29.8671 27.3017 27.6955 29.1039 25.1504 30.18C28.2712 29.7391 31.1278 28.1861 33.1947 25.8068C35.2617 23.4274 36.4001 20.3818 36.4004 17.23C36.4001 14.0783 35.2617 11.0326 33.1947 8.65328C31.1278 6.27396 28.2712 4.72099 25.1504 4.28003Z" fill="#77BBD9"/>
<path d="M37.4008 17.23H36.4008C36.4129 20.3889 35.2814 23.4454 33.2153 25.835C31.1493 28.2245 28.2883 29.7857 25.1608 30.23C24.5593 30.485 23.9412 30.6988 23.3108 30.87C23.9122 31.0303 24.5235 31.1506 25.1408 31.23C24.541 31.3138 23.9363 31.3572 23.3308 31.36C25.1835 31.36 27.0181 30.9941 28.729 30.2833C30.44 29.5725 31.9937 28.5307 33.301 27.2178C34.6084 25.9049 35.6435 24.3468 36.347 22.6328C37.0506 20.9188 37.4087 19.0828 37.4008 17.23ZM23.3208 3.15002C23.9261 3.15779 24.5305 3.2012 25.1308 3.28002C24.5141 3.36763 23.9031 3.49118 23.3008 3.65002C23.931 3.81783 24.5491 4.02831 25.1508 4.28002C28.2715 4.72098 31.1281 6.27395 33.1951 8.65328C35.2621 11.0326 36.4005 14.0783 36.4008 17.23H37.4008C37.4008 13.4958 35.9174 9.91447 33.2768 7.27396C30.6363 4.63345 27.055 3.15002 23.3208 3.15002Z" fill="black"/>
<path d="M23.3009 30.82C22.702 30.9764 22.0943 31.0967 21.4809 31.18C22.0912 31.2589 22.7056 31.3023 23.3209 31.31C23.9265 31.3072 24.5312 31.2638 25.1309 31.18C24.5137 31.1006 23.9023 30.9803 23.3009 30.82ZM23.3009 3.15002C22.6852 3.15618 22.0705 3.20294 21.4609 3.29002C22.0751 3.36855 22.6832 3.48883 23.2809 3.65002C23.8832 3.49118 24.4943 3.36763 25.1109 3.28002C24.5107 3.2012 23.9063 3.15779 23.3009 3.15002Z" fill="black"/>
<path d="M32.8698 34.88H32.5898C33.4569 35.4462 34.1683 36.2206 34.6592 37.1324C35.15 38.0442 35.4047 39.0645 35.3998 40.1V57.43C35.3927 58.1714 35.1113 58.8839 34.6098 59.43H36.0198C36.5463 59.4173 37.0477 59.2025 37.42 58.8302C37.7924 58.4578 38.0072 57.9564 38.0198 57.43V40.1C38.0198 38.7156 37.4699 37.3878 36.4909 36.4089C35.512 35.43 34.1843 34.88 32.7998 34.88" fill="#F7CB00"/>
<path d="M32.8709 33.88H29.2109C30.4108 33.8782 31.5852 34.2256 32.5909 34.88H32.8709C34.2554 34.88 35.5831 35.43 36.562 36.4089C37.541 37.3879 38.0909 38.7156 38.0909 40.1V57.43C38.0782 57.9565 37.8635 58.4578 37.4911 58.8302C37.1187 59.2025 36.6174 59.4173 36.0909 59.43H34.6309C34.348 59.7464 34.0011 59.9991 33.6133 60.1715C33.2254 60.3439 32.8054 60.432 32.3809 60.43H36.0409C36.8366 60.43 37.5997 60.1139 38.1623 59.5513C38.7249 58.9887 39.0409 58.2257 39.0409 57.43V40.1C39.0383 38.4512 38.3821 36.8706 37.2162 35.7047C36.0503 34.5388 34.4698 33.8827 32.8209 33.88" fill="black"/>
<path d="M25.9913 34.9H24.6112L25.7113 44.29L26.0013 46.75L26.7213 53.01L23.2812 56L23.6613 56.41L28.0513 52.6L27.3913 46.86V46.87L27.1013 44.41L25.9913 34.9Z" fill="#F0F0F0"/>
<path d="M26.8801 33.88H26.7001H24.5001L24.6101 34.88H25.9901L27.1001 44.39L27.4001 46.87L28.0601 52.61L23.6701 56.42L24.3501 57.16L22.9001 58.42L29.1101 53L28.4001 46.75L28.1101 44.29L26.8801 33.88Z" fill="black"/>
<path d="M23.2801 56L22.5801 56.6L22.9701 57.02L23.6601 56.41L23.2801 56Z" fill="#DDDDDD"/>
<path d="M23.6601 56.41L22.9701 57.02L22.5801 56.6L21.8301 57.26L22.8901 58.41L24.3401 57.15L23.6601 56.41Z" fill="black"/>
<path d="M58.6895 13.44H57.5195C57.8647 13.7721 58.1406 14.1693 58.3311 14.6088C58.5216 15.0482 58.6231 15.5211 58.6295 16V28.25C58.6284 28.7357 58.5295 29.2162 58.3388 29.6629C58.1481 30.1095 57.8695 30.5133 57.5195 30.85H58.6895C59.3783 30.8474 60.0381 30.5726 60.5251 30.0856C61.0121 29.5986 61.2869 28.9388 61.2895 28.25V16C61.2869 15.3113 61.0121 14.6515 60.5251 14.1645C60.0381 13.6774 59.3783 13.4027 58.6895 13.4" fill="#F0F0F0"/>
<path d="M62.2912 16H61.2912V28.25C61.2886 28.9388 61.0138 29.5986 60.5268 30.0856C60.0398 30.5726 59.38 30.8474 58.6912 30.85H57.5212C56.8511 31.4918 55.9591 31.85 55.0312 31.85H58.6912C59.164 31.85 59.6321 31.7569 60.0689 31.576C60.5057 31.3951 60.9025 31.1299 61.2368 30.7956C61.5711 30.4613 61.8363 30.0645 62.0172 29.6277C62.1981 29.1909 62.2912 28.7228 62.2912 28.25V16ZM58.6912 12.4H55.0312C55.9591 12.4 56.8511 12.7583 57.5212 13.4H58.6912C59.38 13.4027 60.0398 13.6774 60.5268 14.1645C61.0138 14.6515 61.2886 15.3113 61.2912 16H62.2912C62.2912 15.0452 61.912 14.1296 61.2368 13.4544C60.5617 12.7793 59.646 12.4 58.6912 12.4Z" fill="black"/>
<path d="M23.3202 32.31C20.3377 32.31 17.4221 31.4256 14.9422 29.7686C12.4623 28.1116 10.5295 25.7564 9.38814 23.0009C8.24677 20.2454 7.94813 17.2133 8.53 14.2881C9.11186 11.3628 10.5481 8.67584 12.6571 6.56686C14.766 4.45788 17.453 3.02165 20.3783 2.43979C23.3035 1.85792 26.3356 2.15656 29.0911 3.29793C31.8466 4.4393 34.2018 6.37214 35.8588 8.85203C37.5158 11.3319 38.4002 14.2475 38.4002 17.23C38.3976 21.2287 36.808 25.0628 33.9805 27.8903C31.153 30.7178 27.3189 32.3074 23.3202 32.31ZM23.3202 4.15003C20.7333 4.15003 18.2044 4.91716 16.0534 6.35441C13.9024 7.79166 12.2259 9.83447 11.2359 12.2245C10.2459 14.6146 9.98688 17.2445 10.4916 19.7818C10.9963 22.3191 12.242 24.6497 14.0713 26.479C15.9006 28.3083 18.2312 29.554 20.7685 30.0587C23.3057 30.5634 25.9357 30.3044 28.3257 29.3144C30.7158 28.3244 32.7586 26.6479 34.1959 24.4969C35.6331 22.3459 36.4002 19.817 36.4002 17.23C36.3976 13.7618 35.0187 10.4364 32.5663 7.984C30.1139 5.5316 26.7885 4.15268 23.3202 4.15003Z" fill="black"/>
<path d="M36.0398 61.47H10.5898C9.52898 61.47 8.51156 61.0486 7.76142 60.2984C7.01127 59.5483 6.58984 58.5309 6.58984 57.47V40.1C6.58984 38.1869 7.34915 36.352 8.701 34.9982C10.0528 33.6445 11.8867 32.8827 13.7998 32.88H32.8698C34.7839 32.8827 36.6188 33.6442 37.9722 34.9976C39.3257 36.3511 40.0872 38.186 40.0898 40.1V57.43C40.0872 58.5024 39.6593 59.53 38.9001 60.2873C38.1409 61.0447 37.1122 61.47 36.0398 61.47ZM13.7598 34.88C12.3771 34.8827 11.052 35.4338 10.0752 36.4124C9.09843 37.3911 8.54984 38.7173 8.54984 40.1V57.43C8.54984 57.9604 8.76056 58.4691 9.13563 58.8442C9.5107 59.2193 10.0194 59.43 10.5498 59.43H36.0398C36.5703 59.43 37.079 59.2193 37.4541 58.8442C37.8291 58.4691 38.0398 57.9604 38.0398 57.43V40.1C38.0398 38.7156 37.4899 37.3878 36.5109 36.4089C35.532 35.43 34.2043 34.88 32.8198 34.88H13.7598Z" fill="black"/>
<path d="M22.8898 59.41C22.751 59.4109 22.6135 59.383 22.4861 59.3279C22.3587 59.2728 22.2441 59.1918 22.1498 59.09L16.7898 53.25C16.6895 53.1424 16.6143 53.014 16.5693 52.874C16.5244 52.734 16.5109 52.5858 16.5298 52.44L19.0398 33.77C19.0715 33.5279 19.1907 33.3058 19.3749 33.1455C19.5591 32.9852 19.7956 32.8979 20.0398 32.9H26.6998C26.8342 32.8759 26.9722 32.8796 27.1052 32.9108C27.2382 32.9421 27.3634 33.0003 27.473 33.0818C27.5827 33.1633 27.6744 33.2665 27.7427 33.3848C27.8109 33.5032 27.8541 33.6343 27.8698 33.77L30.0998 52.89C30.1182 53.0517 30.0968 53.2155 30.0376 53.3671C29.9783 53.5187 29.883 53.6536 29.7598 53.76L23.5398 59.17C23.3586 59.3249 23.1281 59.41 22.8898 59.41ZM18.5798 52.24L22.9698 57L28.0498 52.58L25.9898 34.9H20.9098L18.5798 52.24Z" fill="black"/>
<path d="M40.3995 34.4699C40.1016 34.4708 39.8065 34.412 39.5317 34.2969C39.2569 34.1818 39.0079 34.0128 38.7995 33.7999C38.5126 33.5178 38.3058 33.1645 38.2004 32.7761C38.095 32.3878 38.0947 31.9784 38.1995 31.5899L38.8695 29.0999C38.8176 28.8162 38.7909 28.5284 38.7895 28.2399V16.0599C38.7895 14.8364 39.2749 13.6628 40.1391 12.7966C41.0034 11.9305 42.1759 11.4426 43.3995 11.4399H58.6895C59.9087 11.4426 61.0772 11.9281 61.9393 12.7902C62.8014 13.6523 63.2869 14.8208 63.2895 16.0399V28.2499C63.2869 29.4691 62.8014 30.6376 61.9393 31.4997C61.0772 32.3618 59.9087 32.8473 58.6895 32.8499H46.6895L40.9195 34.3899C40.7495 34.435 40.5752 34.4619 40.3995 34.4699ZM43.3995 13.4699C42.7064 13.4726 42.0425 13.7498 41.5533 14.2408C41.0642 14.7319 40.7895 15.3968 40.7895 16.0899V28.2399C40.7896 28.4492 40.8165 28.6575 40.8695 28.8599C40.9096 29.031 40.9096 29.2089 40.8695 29.3799L40.1395 32.1099C40.1278 32.1582 40.1288 32.2087 40.1422 32.2566C40.1557 32.3044 40.1812 32.348 40.2163 32.3831C40.2515 32.4183 40.295 32.4438 40.3429 32.4572C40.3907 32.4707 40.4412 32.4716 40.4895 32.4599L46.3795 30.8799C46.4659 30.8696 46.5531 30.8696 46.6395 30.8799H58.6895C59.3783 30.8773 60.038 30.6025 60.5251 30.1155C61.0121 29.6285 61.2869 28.9687 61.2895 28.2799V15.9999C61.2869 15.3112 61.0121 14.6514 60.5251 14.1644C60.038 13.6773 59.3783 13.4026 58.6895 13.3999L43.3995 13.4699Z" fill="black"/>
<path d="M56.4597 20.1801H45.1797C44.9145 20.1801 44.6601 20.0747 44.4726 19.8872C44.285 19.6996 44.1797 19.4453 44.1797 19.1801C44.1797 18.9148 44.285 18.6605 44.4726 18.4729C44.6601 18.2854 44.9145 18.1801 45.1797 18.1801H56.4597C56.7249 18.1801 56.9793 18.2854 57.1668 18.4729C57.3543 18.6605 57.4597 18.9148 57.4597 19.1801C57.4597 19.4453 57.3543 19.6996 57.1668 19.8872C56.9793 20.0747 56.7249 20.1801 56.4597 20.1801Z" fill="black"/>
<path d="M56.4597 25.63H45.1797C44.9145 25.63 44.6601 25.5246 44.4726 25.3371C44.285 25.1496 44.1797 24.8952 44.1797 24.63C44.1797 24.3648 44.285 24.1104 44.4726 23.9229C44.6601 23.7354 44.9145 23.63 45.1797 23.63H56.4597C56.7249 23.63 56.9793 23.7354 57.1668 23.9229C57.3543 24.1104 57.4597 24.3648 57.4597 24.63C57.4597 24.8952 57.3543 25.1496 57.1668 25.3371C56.9793 25.5246 56.7249 25.63 56.4597 25.63Z" fill="black"/>
</svg>
