<svg width="221" height="249" viewBox="0 0 221 249" fill="none" xmlns="http://www.w3.org/2000/svg">
<path d="M220.147 139C220.147 119.833 215.107 101.003 205.533 84.3977C195.959 67.7923 182.187 53.9949 165.597 44.389C149.007 34.783 130.184 29.706 111.013 29.6669C91.8415 29.6278 72.997 34.628 56.3683 44.1662C39.7397 53.7044 25.9112 67.4455 16.2693 84.0117C6.62732 100.578 1.51077 119.387 1.43255 138.554C1.35433 157.721 6.31719 176.571 15.8236 193.215C25.33 209.86 39.0459 223.713 55.5961 233.387L76.2936 197.992C65.9497 191.946 57.3773 183.287 51.4358 172.885C45.4943 162.482 42.3925 150.7 42.4414 138.721C42.4903 126.742 45.6881 114.986 51.7143 104.632C57.7405 94.2784 66.3833 85.6903 76.7762 79.7289C87.1691 73.7675 98.9469 70.6424 110.929 70.6668C122.911 70.6912 134.676 73.8644 145.044 79.8681C155.413 85.8718 164.02 94.4952 170.004 104.874C175.988 115.252 179.138 127.021 179.138 139H220.147Z" fill="#C43025" stroke="white"/>
<path d="M55.5957 233.387C72.2113 243.098 91.0963 248.254 110.343 248.332C129.589 248.411 148.516 243.41 165.21 233.834C181.904 224.258 195.775 210.447 205.421 193.795C215.067 177.144 220.147 158.242 220.147 139H179.138C179.138 151.027 175.963 162.84 169.934 173.247C163.905 183.654 155.236 192.286 144.802 198.271C134.368 204.256 122.539 207.382 110.51 207.333C98.481 207.284 86.6779 204.061 76.2932 197.992L55.5957 233.387Z" fill="#C6D3D9" stroke="white"/>
<g filter="url(#filter0_dd_45_5022)">
<rect x="127.926" y="5" width="72" height="48" rx="4" fill="white"/>
<path d="M143.378 16.6H144.278L140.558 25H139.682L135.962 16.6H136.922L140.138 23.896L143.378 16.6ZM150.344 21.844C150.344 21.916 150.332 22.012 150.332 22.108H145.052C145.148 23.428 146.156 24.304 147.536 24.304C148.304 24.304 148.988 24.028 149.468 23.476L149.948 24.028C149.384 24.7 148.508 25.06 147.512 25.06C145.544 25.06 144.2 23.716 144.2 21.844C144.2 19.972 145.508 18.64 147.284 18.64C149.06 18.64 150.344 19.948 150.344 21.844ZM147.284 19.372C146.06 19.372 145.16 20.236 145.052 21.472H149.528C149.42 20.236 148.52 19.372 147.284 19.372ZM155.103 24.004L155.403 24.616C155.067 24.916 154.563 25.06 154.071 25.06C152.883 25.06 152.223 24.388 152.223 23.224V19.408H151.095V18.688H152.223V17.308H153.075V18.688H154.995V19.408H153.075V23.176C153.075 23.92 153.459 24.328 154.167 24.328C154.515 24.328 154.863 24.22 155.103 24.004ZM159.162 18.64C160.794 18.64 161.718 19.456 161.718 21.088V25H160.902V24.016C160.518 24.664 159.774 25.06 158.73 25.06C157.302 25.06 156.426 24.316 156.426 23.224C156.426 22.252 157.05 21.436 158.862 21.436H160.866V21.052C160.866 19.972 160.254 19.384 159.078 19.384C158.262 19.384 157.494 19.672 156.978 20.128L156.594 19.492C157.23 18.952 158.166 18.64 159.162 18.64ZM158.862 24.388C159.822 24.388 160.53 23.932 160.866 23.104V22.072H158.886C157.662 22.072 157.266 22.552 157.266 23.2C157.266 23.932 157.854 24.388 158.862 24.388ZM168.963 16.096H169.815V25H168.999V23.752C168.483 24.604 167.607 25.06 166.563 25.06C164.763 25.06 163.419 23.752 163.419 21.844C163.419 19.936 164.763 18.64 166.563 18.64C167.571 18.64 168.435 19.072 168.963 19.888V16.096ZM166.635 24.304C167.967 24.304 168.975 23.32 168.975 21.844C168.975 20.368 167.967 19.384 166.635 19.384C165.291 19.384 164.283 20.368 164.283 21.844C164.283 23.32 165.291 24.304 166.635 24.304ZM174.768 25.06C172.92 25.06 171.552 23.716 171.552 21.844C171.552 19.972 172.92 18.64 174.768 18.64C176.616 18.64 177.972 19.972 177.972 21.844C177.972 23.716 176.616 25.06 174.768 25.06ZM174.768 24.304C176.112 24.304 177.108 23.32 177.108 21.844C177.108 20.368 176.112 19.384 174.768 19.384C173.424 19.384 172.416 20.368 172.416 21.844C172.416 23.32 173.424 24.304 174.768 24.304ZM181.403 25.06C180.359 25.06 179.351 24.724 178.835 24.28L179.219 23.608C179.723 24.004 180.575 24.316 181.463 24.316C182.663 24.316 183.155 23.908 183.155 23.284C183.155 21.64 179.063 22.936 179.063 20.44C179.063 19.408 179.951 18.64 181.559 18.64C182.375 18.64 183.263 18.868 183.791 19.228L183.419 19.912C182.867 19.528 182.207 19.372 181.559 19.372C180.419 19.372 179.915 19.816 179.915 20.416C179.915 22.12 184.007 20.836 184.007 23.26C184.007 24.352 183.047 25.06 181.403 25.06ZM185.667 19.948C185.319 19.948 185.031 19.66 185.031 19.288C185.031 18.916 185.319 18.64 185.667 18.64C186.015 18.64 186.315 18.916 186.315 19.288C186.315 19.66 186.015 19.948 185.667 19.948ZM185.667 25.06C185.319 25.06 185.031 24.772 185.031 24.4C185.031 24.028 185.319 23.752 185.667 23.752C186.015 23.752 186.315 24.028 186.315 24.4C186.315 24.772 186.015 25.06 185.667 25.06ZM136.034 32.6H138.878V41H138.014V33.368H136.034V32.6ZM143.094 36.044C145.626 36.044 146.586 37.04 146.586 38.528C146.586 39.956 145.59 41.072 143.538 41.072C142.326 41.072 141.174 40.652 140.526 39.992L140.946 39.308C141.486 39.872 142.446 40.28 143.526 40.28C144.954 40.28 145.71 39.584 145.71 38.564C145.71 37.484 145.038 36.812 142.902 36.812H141.114L141.546 32.6H146.142V33.368H142.302L142.014 36.044H143.094Z" fill="black"/>
<path d="M164.185 61L156.926 53H170.926L164.185 61Z" fill="white"/>
</g>
<defs>
<filter id="filter0_dd_45_5022" x="104.476" y="0.6" width="118.9" height="75.1182" filterUnits="userSpaceOnUse" color-interpolation-filters="sRGB">
<feFlood flood-opacity="0" result="BackgroundImageFix"/>
<feColorMatrix in="SourceAlpha" type="matrix" values="0 0 0 0 0 0 0 0 0 0 0 0 0 0 0 0 0 0 127 0" result="hardAlpha"/>
<feOffset dy="1.85"/>
<feGaussianBlur stdDeviation="3.125"/>
<feColorMatrix type="matrix" values="0 0 0 0 0 0 0 0 0 0 0 0 0 0 0 0 0 0 0.19 0"/>
<feBlend mode="normal" in2="BackgroundImageFix" result="effect1_dropShadow_45_5022"/>
<feColorMatrix in="SourceAlpha" type="matrix" values="0 0 0 0 0 0 0 0 0 0 0 0 0 0 0 0 0 0 127 0" result="hardAlpha"/>
<feOffset dy="0.5"/>
<feGaussianBlur stdDeviation="0.875"/>
<feColorMatrix type="matrix" values="0 0 0 0 0 0 0 0 0 0 0 0 0 0 0 0 0 0 0.039 0"/>
<feBlend mode="normal" in2="effect1_dropShadow_45_5022" result="effect2_dropShadow_45_5022"/>
<feBlend mode="normal" in="SourceGraphic" in2="effect2_dropShadow_45_5022" result="shape"/>
</filter>
</defs>
</svg>
