<svg width="221" height="249" viewBox="0 0 221 249" fill="none" xmlns="http://www.w3.org/2000/svg">
<path d="M219.716 139C219.716 119.833 214.676 101.003 205.102 84.3977C195.527 67.7923 181.755 53.9949 165.165 44.389C148.576 34.783 129.752 29.706 110.581 29.6669C91.4098 29.6278 72.5654 34.628 55.9367 44.1662C39.308 53.7044 25.4796 67.4455 15.8376 84.0117C6.19568 100.578 1.07913 119.387 1.00091 138.554C0.922693 157.721 5.88555 176.571 15.392 193.215C24.8984 209.86 38.6142 223.713 55.1645 233.387L75.862 197.992C65.5181 191.946 56.9457 183.287 51.0042 172.885C45.0627 162.482 41.9609 150.7 42.0097 138.721C42.0586 126.742 45.2565 114.986 51.2827 104.632C57.3089 94.2784 65.9517 85.6903 76.3446 79.7289C86.7375 73.7675 98.5153 70.6424 110.497 70.6668C122.479 70.6912 134.244 73.8644 144.613 79.8681C154.981 85.8718 163.589 94.4952 169.573 104.874C175.557 115.252 178.706 127.021 178.706 139H219.716Z" fill="#FFA826" stroke="white"/>
<path d="M55.1641 233.387C71.7796 243.098 90.6646 248.254 109.911 248.332C129.158 248.411 148.084 243.41 164.778 233.834C181.473 224.258 195.344 210.447 204.99 193.795C214.636 177.144 219.715 158.242 219.715 139H178.706C178.706 151.027 175.531 162.84 169.502 173.247C163.474 183.654 154.804 192.286 144.371 198.271C133.937 204.256 122.108 207.382 110.078 207.333C98.0494 207.284 86.2463 204.061 75.8615 197.992L55.1641 233.387Z" fill="#C6D3D9" stroke="white"/>
<g filter="url(#filter0_dd_45_5002)">
<rect x="120.994" y="5" width="91" height="48" rx="4" fill="white"/>
<path d="M131.994 25V17.368H129.042V16.6H135.834V17.368H132.882V25H131.994ZM137.725 19.924C138.121 19.084 138.925 18.64 140.089 18.64V19.468C140.017 19.468 139.945 19.456 139.885 19.456C138.565 19.456 137.761 20.296 137.761 21.784V25H136.909V18.688H137.725V19.924ZM143.828 18.64C145.46 18.64 146.384 19.456 146.384 21.088V25H145.568V24.016C145.184 24.664 144.44 25.06 143.396 25.06C141.968 25.06 141.092 24.316 141.092 23.224C141.092 22.252 141.716 21.436 143.528 21.436H145.532V21.052C145.532 19.972 144.92 19.384 143.744 19.384C142.928 19.384 142.16 19.672 141.644 20.128L141.26 19.492C141.896 18.952 142.832 18.64 143.828 18.64ZM143.528 24.388C144.488 24.388 145.196 23.932 145.532 23.104V22.072H143.552C142.328 22.072 141.932 22.552 141.932 23.2C141.932 23.932 142.52 24.388 143.528 24.388ZM156.57 18.64C158.106 18.64 159.114 19.528 159.114 21.34V25H158.262V21.424C158.262 20.092 157.59 19.408 156.45 19.408C155.154 19.408 154.338 20.248 154.338 21.688V25H153.486V21.424C153.486 20.092 152.814 19.408 151.662 19.408C150.378 19.408 149.55 20.248 149.55 21.688V25H148.698V18.688H149.514V19.84C149.958 19.084 150.774 18.64 151.83 18.64C152.874 18.64 153.69 19.084 154.074 19.972C154.53 19.156 155.43 18.64 156.57 18.64ZM161.856 17.308C161.508 17.308 161.232 17.032 161.232 16.696C161.232 16.372 161.508 16.096 161.856 16.096C162.204 16.096 162.48 16.36 162.48 16.684C162.48 17.032 162.216 17.308 161.856 17.308ZM161.424 25V18.688H162.276V25H161.424ZM167.671 24.004L167.971 24.616C167.635 24.916 167.131 25.06 166.639 25.06C165.451 25.06 164.791 24.388 164.791 23.224V19.408H163.663V18.688H164.791V17.308H165.643V18.688H167.563V19.408H165.643V23.176C165.643 23.92 166.027 24.328 166.735 24.328C167.083 24.328 167.431 24.22 167.671 24.004ZM171.73 18.64C173.362 18.64 174.286 19.456 174.286 21.088V25H173.47V24.016C173.086 24.664 172.342 25.06 171.298 25.06C169.87 25.06 168.994 24.316 168.994 23.224C168.994 22.252 169.618 21.436 171.43 21.436H173.434V21.052C173.434 19.972 172.822 19.384 171.646 19.384C170.83 19.384 170.062 19.672 169.546 20.128L169.162 19.492C169.798 18.952 170.734 18.64 171.73 18.64ZM171.43 24.388C172.39 24.388 173.098 23.932 173.434 23.104V22.072H171.454C170.23 22.072 169.834 22.552 169.834 23.2C169.834 23.932 170.422 24.388 171.43 24.388ZM179.24 24.304C179.972 24.304 180.644 24.016 181.076 23.38L181.712 23.812C181.208 24.628 180.308 25.06 179.24 25.06H179.216L179.072 25.624C179.732 25.684 180.092 26.068 180.092 26.596C180.092 27.244 179.54 27.64 178.736 27.64C178.34 27.64 178.016 27.556 177.728 27.364L177.932 26.908C178.172 27.064 178.436 27.136 178.724 27.136C179.204 27.136 179.468 26.932 179.468 26.572C179.468 26.248 179.228 26.02 178.724 26.02H178.448L178.712 25.024C177.104 24.796 175.988 23.548 175.988 21.844C175.988 19.96 177.356 18.64 179.24 18.64C180.308 18.64 181.208 19.06 181.712 19.888L181.076 20.32C180.644 19.684 179.972 19.384 179.24 19.384C177.86 19.384 176.852 20.368 176.852 21.844C176.852 23.332 177.86 24.304 179.24 24.304ZM184.861 16.828C184.501 16.828 184.261 17.116 184.237 17.596H183.721C183.745 16.792 184.165 16.276 184.801 16.276C185.545 16.276 185.905 17.092 186.373 17.092C186.733 17.092 186.973 16.804 186.997 16.348H187.513C187.489 17.128 187.069 17.644 186.433 17.644C185.689 17.644 185.341 16.828 184.861 16.828ZM185.593 18.64C187.225 18.64 188.149 19.456 188.149 21.088V25H187.333V24.016C186.949 24.664 186.205 25.06 185.161 25.06C183.733 25.06 182.857 24.316 182.857 23.224C182.857 22.252 183.481 21.436 185.293 21.436H187.297V21.052C187.297 19.972 186.685 19.384 185.509 19.384C184.693 19.384 183.925 19.672 183.409 20.128L183.025 19.492C183.661 18.952 184.597 18.64 185.593 18.64ZM185.293 24.388C186.253 24.388 186.961 23.932 187.297 23.104V22.072H185.317C184.093 22.072 183.697 22.552 183.697 23.2C183.697 23.932 184.285 24.388 185.293 24.388ZM193.067 25.06C191.219 25.06 189.851 23.716 189.851 21.844C189.851 19.972 191.219 18.64 193.067 18.64C194.915 18.64 196.271 19.972 196.271 21.844C196.271 23.716 194.915 25.06 193.067 25.06ZM193.067 24.304C194.411 24.304 195.407 23.32 195.407 21.844C195.407 20.368 194.411 19.384 193.067 19.384C191.723 19.384 190.715 20.368 190.715 21.844C190.715 23.32 191.723 24.304 193.067 24.304ZM198.094 19.948C197.746 19.948 197.458 19.66 197.458 19.288C197.458 18.916 197.746 18.64 198.094 18.64C198.442 18.64 198.742 18.916 198.742 19.288C198.742 19.66 198.442 19.948 198.094 19.948ZM198.094 25.06C197.746 25.06 197.458 24.772 197.458 24.4C197.458 24.028 197.746 23.752 198.094 23.752C198.442 23.752 198.742 24.028 198.742 24.4C198.742 24.772 198.442 25.06 198.094 25.06ZM129.102 32.6H131.946V41H131.082V33.368H129.102V32.6ZM136.162 36.044C138.694 36.044 139.654 37.04 139.654 38.528C139.654 39.956 138.658 41.072 136.606 41.072C135.394 41.072 134.242 40.652 133.594 39.992L134.014 39.308C134.554 39.872 135.514 40.28 136.594 40.28C138.022 40.28 138.778 39.584 138.778 38.564C138.778 37.484 138.106 36.812 135.97 36.812H134.182L134.614 32.6H139.21V33.368H135.37L135.082 36.044H136.162ZM144.099 41.072C142.155 41.072 140.751 39.476 140.751 36.8C140.751 34.124 142.155 32.528 144.099 32.528C146.043 32.528 147.459 34.124 147.459 36.8C147.459 39.476 146.043 41.072 144.099 41.072ZM144.099 40.28C145.563 40.28 146.571 39.044 146.571 36.8C146.571 34.556 145.563 33.32 144.099 33.32C142.635 33.32 141.627 34.556 141.627 36.8C141.627 39.044 142.635 40.28 144.099 40.28Z" fill="black"/>
<path d="M166.753 61L159.494 53H173.494L166.753 61Z" fill="white"/>
</g>
<defs>
<filter id="filter0_dd_45_5002" x="107.044" y="0.6" width="118.9" height="75.1182" filterUnits="userSpaceOnUse" color-interpolation-filters="sRGB">
<feFlood flood-opacity="0" result="BackgroundImageFix"/>
<feColorMatrix in="SourceAlpha" type="matrix" values="0 0 0 0 0 0 0 0 0 0 0 0 0 0 0 0 0 0 127 0" result="hardAlpha"/>
<feOffset dy="1.85"/>
<feGaussianBlur stdDeviation="3.125"/>
<feColorMatrix type="matrix" values="0 0 0 0 0 0 0 0 0 0 0 0 0 0 0 0 0 0 0.19 0"/>
<feBlend mode="normal" in2="BackgroundImageFix" result="effect1_dropShadow_45_5002"/>
<feColorMatrix in="SourceAlpha" type="matrix" values="0 0 0 0 0 0 0 0 0 0 0 0 0 0 0 0 0 0 127 0" result="hardAlpha"/>
<feOffset dy="0.5"/>
<feGaussianBlur stdDeviation="0.875"/>
<feColorMatrix type="matrix" values="0 0 0 0 0 0 0 0 0 0 0 0 0 0 0 0 0 0 0.039 0"/>
<feBlend mode="normal" in2="effect1_dropShadow_45_5002" result="effect2_dropShadow_45_5002"/>
<feBlend mode="normal" in="SourceGraphic" in2="effect2_dropShadow_45_5002" result="shape"/>
</filter>
</defs>
</svg>
