<svg width="1013" height="272" viewBox="0 0 1013 272" fill="none" xmlns="http://www.w3.org/2000/svg">
<g clip-path="url(#clip0_45_4878)">
<path d="M218.72 131.724C218.72 113.767 214.299 96.0861 205.845 80.2433C197.392 64.4005 185.168 50.8829 170.253 40.8845C155.337 30.886 138.188 24.7143 120.322 22.9143C102.456 21.1144 84.4209 23.7417 67.8105 30.5642L109.36 131.724H218.72Z" fill="#009262" stroke="white"/>
<path d="M67.8103 30.5642C49.4787 38.0936 33.5377 50.4628 21.691 66.3497C9.8443 82.2366 2.53724 101.044 0.550815 120.762C-1.43561 140.48 1.97324 160.367 10.4131 178.297C18.8529 196.228 32.0064 211.528 48.4678 222.563C64.9292 233.597 84.0796 239.951 103.872 240.946C123.665 241.94 143.356 237.538 160.84 228.209C178.325 218.88 192.946 204.975 203.14 187.981C213.335 170.986 218.72 151.541 218.72 131.724H109.36L67.8103 30.5642Z" fill="#C6D3D9" stroke="white"/>
<g filter="url(#filter0_dd_45_4878)">
<rect x="117.7" width="95" height="48" rx="4" fill="white"/>
<path d="M132.984 18.632V15.8H133.836V19.004C133.044 19.712 131.916 20.072 130.752 20.072C128.196 20.072 126.324 18.26 126.324 15.8C126.324 13.34 128.196 11.528 130.764 11.528C132.036 11.528 133.14 11.936 133.884 12.74L133.332 13.304C132.624 12.608 131.784 12.32 130.8 12.32C128.724 12.32 127.2 13.796 127.2 15.8C127.2 17.792 128.724 19.28 130.788 19.28C131.592 19.28 132.336 19.1 132.984 18.632ZM138.377 13.64C140.009 13.64 140.933 14.456 140.933 16.088V20H140.117V19.016C139.733 19.664 138.989 20.06 137.945 20.06C136.517 20.06 135.641 19.316 135.641 18.224C135.641 17.252 136.265 16.436 138.077 16.436H140.081V16.052C140.081 14.972 139.469 14.384 138.293 14.384C137.477 14.384 136.709 14.672 136.193 15.128L135.809 14.492C136.445 13.952 137.381 13.64 138.377 13.64ZM138.077 19.388C139.037 19.388 139.745 18.932 140.081 18.104V17.072H138.101C136.877 17.072 136.481 17.552 136.481 18.2C136.481 18.932 137.069 19.388 138.077 19.388ZM144.94 20.06C143.896 20.06 142.888 19.724 142.372 19.28L142.756 18.608C143.26 19.004 144.112 19.316 145 19.316C146.2 19.316 146.692 18.908 146.692 18.284C146.692 16.64 142.6 17.936 142.6 15.44C142.6 14.408 143.488 13.64 145.096 13.64C145.912 13.64 146.8 13.868 147.328 14.228L146.956 14.912C146.404 14.528 145.744 14.372 145.096 14.372C143.956 14.372 143.452 14.816 143.452 15.416C143.452 17.12 147.544 15.836 147.544 18.26C147.544 19.352 146.584 20.06 144.94 20.06ZM152.143 19.004L152.443 19.616C152.107 19.916 151.603 20.06 151.111 20.06C149.923 20.06 149.263 19.388 149.263 18.224V14.408H148.135V13.688H149.263V12.308H150.115V13.688H152.035V14.408H150.115V18.176C150.115 18.92 150.499 19.328 151.207 19.328C151.555 19.328 151.903 19.22 152.143 19.004ZM156.351 20.06C154.503 20.06 153.135 18.716 153.135 16.844C153.135 14.972 154.503 13.64 156.351 13.64C158.199 13.64 159.555 14.972 159.555 16.844C159.555 18.716 158.199 20.06 156.351 20.06ZM156.351 19.304C157.695 19.304 158.691 18.32 158.691 16.844C158.691 15.368 157.695 14.384 156.351 14.384C155.007 14.384 153.999 15.368 153.999 16.844C153.999 18.32 155.007 19.304 156.351 19.304ZM161.378 14.948C161.03 14.948 160.742 14.66 160.742 14.288C160.742 13.916 161.03 13.64 161.378 13.64C161.726 13.64 162.026 13.916 162.026 14.288C162.026 14.66 161.726 14.948 161.378 14.948ZM161.378 20.06C161.03 20.06 160.742 19.772 160.742 19.4C160.742 19.028 161.03 18.752 161.378 18.752C161.726 18.752 162.026 19.028 162.026 19.4C162.026 19.772 161.726 20.06 161.378 20.06ZM133.776 36H132.804L130.884 33.3C130.668 33.324 130.452 33.336 130.212 33.336H127.956V36H127.068V27.6H130.212C132.348 27.6 133.644 28.68 133.644 30.48C133.644 31.8 132.948 32.724 131.724 33.12L133.776 36ZM130.188 32.58C131.868 32.58 132.756 31.8 132.756 30.48C132.756 29.136 131.868 28.368 130.188 28.368H127.956V32.58H130.188ZM141.188 33.78C141.188 34.944 140.312 35.952 138.404 36.06V37.44H137.804V36.072C136.628 36.012 135.524 35.58 134.936 34.98L135.284 34.296C135.836 34.836 136.796 35.244 137.804 35.304V32.148C136.484 31.824 135.14 31.416 135.14 29.832C135.14 28.68 135.968 27.684 137.804 27.54V26.16H138.404V27.528C139.304 27.564 140.204 27.828 140.84 28.272L140.54 28.98C139.868 28.548 139.1 28.32 138.404 28.284V31.464C139.76 31.788 141.188 32.172 141.188 33.78ZM136.016 29.808C136.016 30.72 136.82 31.056 137.804 31.308V28.308C136.568 28.416 136.016 29.052 136.016 29.808ZM138.404 35.304C139.724 35.208 140.312 34.596 140.312 33.828C140.312 32.88 139.436 32.556 138.404 32.304V35.304ZM148.376 31.2C150.176 31.296 151.076 32.244 151.076 33.588C151.076 34.992 150.056 36.072 148.028 36.072C146.816 36.072 145.652 35.652 145.004 34.992L145.424 34.308C145.964 34.872 146.936 35.28 148.028 35.28C149.42 35.28 150.188 34.632 150.188 33.588C150.188 32.58 149.48 31.92 147.92 31.92H147.32V31.284L149.648 28.368H145.352V27.6H150.752V28.212L148.376 31.2ZM154.384 31.044C156.916 31.044 157.876 32.04 157.876 33.528C157.876 34.956 156.88 36.072 154.828 36.072C153.616 36.072 152.464 35.652 151.816 34.992L152.236 34.308C152.776 34.872 153.736 35.28 154.816 35.28C156.244 35.28 157 34.584 157 33.564C157 32.484 156.328 31.812 154.192 31.812H152.404L152.836 27.6H157.432V28.368H153.592L153.304 31.044H154.384ZM159.621 36.06C159.273 36.06 158.985 35.772 158.985 35.4C158.985 35.028 159.273 34.752 159.621 34.752C159.969 34.752 160.269 35.028 160.269 35.4C160.269 35.772 159.969 36.06 159.621 36.06ZM164.489 31.2C166.289 31.296 167.189 32.244 167.189 33.588C167.189 34.992 166.169 36.072 164.141 36.072C162.929 36.072 161.765 35.652 161.117 34.992L161.537 34.308C162.077 34.872 163.049 35.28 164.141 35.28C165.533 35.28 166.301 34.632 166.301 33.588C166.301 32.58 165.593 31.92 164.033 31.92H163.433V31.284L165.761 28.368H161.465V27.6H166.865V28.212L164.489 31.2ZM170.497 31.044C173.029 31.044 173.989 32.04 173.989 33.528C173.989 34.956 172.993 36.072 170.941 36.072C169.729 36.072 168.577 35.652 167.929 34.992L168.349 34.308C168.889 34.872 169.849 35.28 170.929 35.28C172.357 35.28 173.113 34.584 173.113 33.564C173.113 32.484 172.441 31.812 170.305 31.812H168.517L168.949 27.6H173.545V28.368H169.705L169.417 31.044H170.497ZM178.434 36.072C176.49 36.072 175.086 34.476 175.086 31.8C175.086 29.124 176.49 27.528 178.434 27.528C180.378 27.528 181.794 29.124 181.794 31.8C181.794 34.476 180.378 36.072 178.434 36.072ZM178.434 35.28C179.898 35.28 180.906 34.044 180.906 31.8C180.906 29.556 179.898 28.32 178.434 28.32C176.97 28.32 175.962 29.556 175.962 31.8C175.962 34.044 176.97 35.28 178.434 35.28ZM183.562 34.752C183.934 34.752 184.198 35.04 184.198 35.4C184.198 35.604 184.15 35.76 184.03 36.096L183.526 37.752H182.95L183.358 36.012C183.106 35.94 182.926 35.712 182.926 35.4C182.926 35.028 183.202 34.752 183.562 34.752ZM188.664 36.072C186.72 36.072 185.316 34.476 185.316 31.8C185.316 29.124 186.72 27.528 188.664 27.528C190.608 27.528 192.024 29.124 192.024 31.8C192.024 34.476 190.608 36.072 188.664 36.072ZM188.664 35.28C190.128 35.28 191.136 34.044 191.136 31.8C191.136 29.556 190.128 28.32 188.664 28.32C187.2 28.32 186.192 29.556 186.192 31.8C186.192 34.044 187.2 35.28 188.664 35.28ZM196.61 36.072C194.666 36.072 193.262 34.476 193.262 31.8C193.262 29.124 194.666 27.528 196.61 27.528C198.554 27.528 199.97 29.124 199.97 31.8C199.97 34.476 198.554 36.072 196.61 36.072ZM196.61 35.28C198.074 35.28 199.082 34.044 199.082 31.8C199.082 29.556 198.074 28.32 196.61 28.32C195.146 28.32 194.138 29.556 194.138 31.8C194.138 34.044 195.146 35.28 196.61 35.28Z" fill="black"/>
<path d="M165.459 56L158.2 48H172.2L165.459 56Z" fill="white"/>
</g>
</g>
<path d="M409.5 224.4H1007.5" stroke="black"/>
<path d="M434.417 232.56V224.4" stroke="black"/>
<path d="M424.668 256.072C423.72 256.072 422.856 255.64 422.34 254.872L422.868 254.272C423.324 254.944 423.936 255.304 424.68 255.304C425.712 255.304 426.24 254.692 426.24 253.456V248.368H423.168V247.6H427.116V253.42C427.116 255.196 426.276 256.072 424.668 256.072ZM435.88 256L434.872 253.756H430.192L429.184 256H428.26L432.1 247.6H432.976L436.816 256H435.88ZM430.516 253.036H434.548L432.532 248.524L430.516 253.036ZM444.35 247.6H445.226V256H444.494L439.094 249.184V256H438.206V247.6H438.938L444.35 254.416V247.6Z" fill="black"/>
<path d="M484.25 232.56V224.4" stroke="black"/>
<path d="M479.687 248.368H474.815V251.668H479.159V252.436H474.815V256H473.927V247.6H479.687V248.368ZM482.408 255.232H487.46V256H481.52V247.6H487.28V248.368H482.408V251.356H486.752V252.112H482.408V255.232ZM495.515 247.6H496.415L492.695 256H491.819L488.099 247.6H489.059L492.275 254.896L495.515 247.6Z" fill="black"/>
<path d="M534.084 232.56V224.4" stroke="black"/>
<path d="M528.993 247.6H529.725V256H528.873V249.28L525.573 254.932H525.153L521.853 249.316V256H521.001V247.6H521.733L525.381 253.828L528.993 247.6ZM538.738 256L537.73 253.756H533.05L532.042 256H531.118L534.958 247.6H535.834L539.674 256H538.738ZM533.374 253.036H537.406L535.39 248.524L533.374 253.036ZM547.771 256H546.799L544.879 253.3C544.663 253.324 544.447 253.336 544.207 253.336H541.951V256H541.063V247.6H544.207C546.343 247.6 547.639 248.68 547.639 250.48C547.639 251.8 546.943 252.724 545.719 253.12L547.771 256ZM544.183 252.58C545.863 252.58 546.751 251.8 546.751 250.48C546.751 249.136 545.863 248.368 544.183 248.368H541.951V252.58H544.183Z" fill="black"/>
<path d="M583.917 232.56V224.4" stroke="black"/>
<path d="M578.484 256L577.476 253.756H572.796L571.788 256H570.864L574.704 247.6H575.58L579.42 256H578.484ZM573.12 253.036H577.152L575.136 248.524L573.12 253.036ZM586.101 251.668C587.181 251.908 587.829 252.616 587.829 253.756C587.829 255.184 586.773 256 584.673 256H580.809V247.6H584.433C586.305 247.6 587.385 248.392 587.385 249.76C587.385 250.72 586.869 251.356 586.101 251.668ZM584.373 248.332H581.697V251.38H584.373C585.717 251.38 586.497 250.864 586.497 249.856C586.497 248.848 585.717 248.332 584.373 248.332ZM584.661 255.268C586.137 255.268 586.941 254.788 586.941 253.684C586.941 252.592 586.137 252.112 584.661 252.112H581.697V255.268H584.661ZM596.564 256H595.592L593.672 253.3C593.456 253.324 593.24 253.336 593 253.336H590.744V256H589.856V247.6H593C595.136 247.6 596.432 248.68 596.432 250.48C596.432 251.8 595.736 252.724 594.512 253.12L596.564 256ZM592.976 252.58C594.656 252.58 595.544 251.8 595.544 250.48C595.544 249.136 594.656 248.368 592.976 248.368H590.744V252.58H592.976Z" fill="black"/>
<path d="M633.75 232.56V224.4" stroke="black"/>
<path d="M631.518 247.6H632.25V256H631.398V249.28L628.098 254.932H627.678L624.378 249.316V256H623.526V247.6H624.258L627.906 253.828L631.518 247.6ZM641.263 256L640.255 253.756H635.575L634.567 256H633.643L637.483 247.6H638.359L642.199 256H641.263ZM635.899 253.036H639.931L637.915 248.524L635.899 253.036ZM643.589 256V247.6H644.477V256H643.589Z" fill="black"/>
<path d="M683.584 232.56V224.4" stroke="black"/>
<path d="M673.129 256.072C672.181 256.072 671.317 255.64 670.801 254.872L671.329 254.272C671.785 254.944 672.397 255.304 673.141 255.304C674.173 255.304 674.701 254.692 674.701 253.456V248.368H671.629V247.6H675.577V253.42C675.577 255.196 674.737 256.072 673.129 256.072ZM681.625 256.072C679.477 256.072 678.169 254.824 678.169 252.412V247.6H679.057V252.376C679.057 254.368 679.993 255.28 681.625 255.28C683.269 255.28 684.205 254.368 684.205 252.376V247.6H685.069V252.412C685.069 254.824 683.773 256.072 681.625 256.072ZM693.889 247.6H694.765V256H694.033L688.633 249.184V256H687.745V247.6H688.477L693.889 254.416V247.6Z" fill="black"/>
<path d="M733.417 232.56V224.4" stroke="black"/>
<path d="M724.477 256.072C723.529 256.072 722.665 255.64 722.149 254.872L722.677 254.272C723.133 254.944 723.745 255.304 724.489 255.304C725.521 255.304 726.049 254.692 726.049 253.456V248.368H722.977V247.6H726.925V253.42C726.925 255.196 726.085 256.072 724.477 256.072ZM732.973 256.072C730.825 256.072 729.517 254.824 729.517 252.412V247.6H730.405V252.376C730.405 254.368 731.341 255.28 732.973 255.28C734.617 255.28 735.553 254.368 735.553 252.376V247.6H736.417V252.412C736.417 254.824 735.121 256.072 732.973 256.072ZM739.093 256V247.6H739.981V255.232H744.685V256H739.093Z" fill="black"/>
<path d="M783.25 232.56V224.4" stroke="black"/>
<path d="M776.728 256L775.72 253.756H771.04L770.032 256H769.108L772.948 247.6H773.824L777.664 256H776.728ZM771.364 253.036H775.396L773.38 248.524L771.364 253.036ZM784.852 254.632V251.8H785.704V255.004C784.912 255.712 783.784 256.072 782.62 256.072C780.064 256.072 778.192 254.26 778.192 251.8C778.192 249.34 780.064 247.528 782.632 247.528C783.904 247.528 785.008 247.936 785.752 248.74L785.2 249.304C784.492 248.608 783.652 248.32 782.668 248.32C780.592 248.32 779.068 249.796 779.068 251.8C779.068 253.792 780.592 255.28 782.656 255.28C783.46 255.28 784.204 255.1 784.852 254.632ZM791.89 256.072C789.346 256.072 787.474 254.248 787.474 251.8C787.474 249.352 789.346 247.528 791.89 247.528C794.41 247.528 796.294 249.34 796.294 251.8C796.294 254.26 794.41 256.072 791.89 256.072ZM791.89 255.28C793.906 255.28 795.406 253.804 795.406 251.8C795.406 249.796 793.906 248.32 791.89 248.32C789.862 248.32 788.35 249.796 788.35 251.8C788.35 253.804 789.862 255.28 791.89 255.28Z" fill="black"/>
<path d="M833.084 232.56V224.4" stroke="black"/>
<path d="M825.534 256.072C824.274 256.072 823.038 255.628 822.414 254.98L822.762 254.296C823.362 254.884 824.43 255.316 825.534 255.316C827.106 255.316 827.79 254.656 827.79 253.828C827.79 251.524 822.618 252.94 822.618 249.832C822.618 248.596 823.578 247.528 825.714 247.528C826.662 247.528 827.646 247.804 828.318 248.272L828.018 248.98C827.298 248.512 826.458 248.284 825.714 248.284C824.178 248.284 823.494 248.968 823.494 249.808C823.494 252.112 828.666 250.72 828.666 253.78C828.666 255.016 827.682 256.072 825.534 256.072ZM831.488 255.232H836.54V256H830.6V247.6H836.36V248.368H831.488V251.356H835.832V252.112H831.488V255.232ZM840.26 256V248.368H837.308V247.6H844.1V248.368H841.148V256H840.26Z" fill="black"/>
<path d="M882.917 232.56V224.4" stroke="black"/>
<path d="M874.892 256.072C872.348 256.072 870.476 254.248 870.476 251.8C870.476 249.352 872.348 247.528 874.892 247.528C877.412 247.528 879.296 249.34 879.296 251.8C879.296 254.26 877.412 256.072 874.892 256.072ZM874.892 255.28C876.908 255.28 878.408 253.804 878.408 251.8C878.408 249.796 876.908 248.32 874.892 248.32C872.864 248.32 871.352 249.796 871.352 251.8C871.352 253.804 872.864 255.28 874.892 255.28ZM884.67 256.072C882.522 256.072 881.214 254.824 881.214 252.412V247.6H882.102V252.376C882.102 254.368 883.038 255.28 884.67 255.28C886.314 255.28 887.25 254.368 887.25 252.376V247.6H888.114V252.412C888.114 254.824 886.818 256.072 884.67 256.072ZM892.258 256V248.368H889.306V247.6H896.098V248.368H893.146V256H892.258Z" fill="black"/>
<path d="M932.75 232.56V224.4" stroke="black"/>
<path d="M926.537 247.6H927.413V256H926.681L921.281 249.184V256H920.393V247.6H921.125L926.537 254.416V247.6ZM933.827 256.072C931.283 256.072 929.411 254.248 929.411 251.8C929.411 249.352 931.283 247.528 933.827 247.528C936.347 247.528 938.231 249.34 938.231 251.8C938.231 254.26 936.347 256.072 933.827 256.072ZM933.827 255.28C935.843 255.28 937.343 253.804 937.343 251.8C937.343 249.796 935.843 248.32 933.827 248.32C931.799 248.32 930.287 249.796 930.287 251.8C930.287 253.804 931.799 255.28 933.827 255.28ZM946.048 247.6H946.948L943.228 256H942.352L938.632 247.6H939.592L942.808 254.896L946.048 247.6Z" fill="black"/>
<path d="M982.584 232.56V224.4" stroke="black"/>
<path d="M970.989 256V247.6H974.409C977.097 247.6 978.909 249.328 978.909 251.8C978.909 254.272 977.097 256 974.409 256H970.989ZM971.877 255.232H974.361C976.593 255.232 978.033 253.816 978.033 251.8C978.033 249.784 976.593 248.368 974.361 248.368H971.877V255.232ZM981.791 255.232H986.843V256H980.903V247.6H986.663V248.368H981.791V251.356H986.135V252.112H981.791V255.232ZM989.291 255.232H994.991V256H988.103V255.388L993.671 248.368H988.187V247.6H994.847V248.212L989.291 255.232Z" fill="black"/>
<path d="M409.5 6.79999V224.4" stroke="black"/>
<path d="M403.5 224.4H409.5" stroke="black"/>
<path d="M375.261 225.946C373.317 225.946 371.913 224.35 371.913 221.674C371.913 218.998 373.317 217.402 375.261 217.402C377.205 217.402 378.621 218.998 378.621 221.674C378.621 224.35 377.205 225.946 375.261 225.946ZM375.261 225.154C376.725 225.154 377.733 223.918 377.733 221.674C377.733 219.43 376.725 218.194 375.261 218.194C373.797 218.194 372.789 219.43 372.789 221.674C372.789 223.918 373.797 225.154 375.261 225.154ZM383.295 225.874V219.328H384.267V220.351H384.352C384.489 220.001 384.709 219.73 385.013 219.537C385.317 219.341 385.682 219.243 386.108 219.243C386.54 219.243 386.899 219.341 387.186 219.537C387.476 219.73 387.702 220.001 387.864 220.351H387.932C388.099 220.013 388.351 219.744 388.686 219.545C389.021 219.344 389.423 219.243 389.892 219.243C390.477 219.243 390.956 219.426 391.328 219.793C391.7 220.156 391.886 220.723 391.886 221.493V225.874H390.881V221.493C390.881 221.01 390.749 220.665 390.484 220.457C390.22 220.25 389.909 220.146 389.551 220.146C389.091 220.146 388.734 220.286 388.482 220.564C388.229 220.839 388.102 221.189 388.102 221.612V225.874H387.08V221.391C387.08 221.018 386.959 220.719 386.717 220.491C386.476 220.261 386.165 220.146 385.784 220.146C385.523 220.146 385.278 220.216 385.051 220.355C384.827 220.494 384.645 220.688 384.506 220.935C384.369 221.179 384.301 221.462 384.301 221.783V225.874H383.295ZM393.725 225.874V219.328H394.731V225.874H393.725ZM394.237 218.237C394.04 218.237 393.871 218.17 393.729 218.037C393.59 217.903 393.521 217.743 393.521 217.555C393.521 217.368 393.59 217.207 393.729 217.074C393.871 216.94 394.04 216.874 394.237 216.874C394.433 216.874 394.6 216.94 394.739 217.074C394.881 217.207 394.952 217.368 394.952 217.555C394.952 217.743 394.881 217.903 394.739 218.037C394.6 218.17 394.433 218.237 394.237 218.237ZM397.578 217.146V225.874H396.573V217.146H397.578Z" fill="black"/>
<path d="M403.5 170H409.5" stroke="black"/>
<path d="M368.21 163.074H371.054V171.474H370.19V163.842H368.21V163.074ZM375.27 166.518C377.802 166.518 378.762 167.514 378.762 169.002C378.762 170.43 377.766 171.546 375.714 171.546C374.502 171.546 373.35 171.126 372.702 170.466L373.122 169.782C373.662 170.346 374.622 170.754 375.702 170.754C377.13 170.754 377.886 170.058 377.886 169.038C377.886 167.958 377.214 167.286 375.078 167.286H373.29L373.722 163.074H378.318V163.842H374.478L374.19 166.518H375.27ZM383.295 171.474V164.928H384.267V165.951H384.352C384.489 165.601 384.709 165.33 385.013 165.137C385.317 164.941 385.682 164.843 386.108 164.843C386.54 164.843 386.899 164.941 387.186 165.137C387.476 165.33 387.702 165.601 387.864 165.951H387.932C388.099 165.613 388.351 165.344 388.686 165.145C389.021 164.944 389.423 164.843 389.892 164.843C390.477 164.843 390.956 165.026 391.328 165.393C391.7 165.756 391.886 166.323 391.886 167.093V171.474H390.881V167.093C390.881 166.61 390.749 166.265 390.484 166.057C390.22 165.85 389.909 165.746 389.551 165.746C389.091 165.746 388.734 165.886 388.482 166.164C388.229 166.439 388.102 166.789 388.102 167.212V171.474H387.08V166.991C387.08 166.618 386.959 166.319 386.717 166.091C386.476 165.861 386.165 165.746 385.784 165.746C385.523 165.746 385.278 165.816 385.051 165.955C384.827 166.094 384.645 166.287 384.506 166.535C384.369 166.779 384.301 167.062 384.301 167.383V171.474H383.295ZM393.725 171.474V164.928H394.731V171.474H393.725ZM394.237 163.837C394.04 163.837 393.871 163.77 393.729 163.637C393.59 163.503 393.521 163.343 393.521 163.155C393.521 162.968 393.59 162.807 393.729 162.674C393.871 162.54 394.04 162.474 394.237 162.474C394.433 162.474 394.6 162.54 394.739 162.674C394.881 162.807 394.952 162.968 394.952 163.155C394.952 163.343 394.881 163.503 394.739 163.637C394.6 163.77 394.433 163.837 394.237 163.837ZM397.578 162.746V171.474H396.573V162.746H397.578Z" fill="black"/>
<path d="M403.5 115.6H409.5" stroke="black"/>
<path d="M367.996 112.274C369.796 112.37 370.696 113.318 370.696 114.662C370.696 116.066 369.676 117.146 367.648 117.146C366.436 117.146 365.272 116.726 364.624 116.066L365.044 115.382C365.584 115.946 366.556 116.354 367.648 116.354C369.04 116.354 369.808 115.706 369.808 114.662C369.808 113.654 369.1 112.994 367.54 112.994H366.94V112.358L369.268 109.442H364.972V108.674H370.372V109.286L367.996 112.274ZM375.261 117.146C373.317 117.146 371.913 115.55 371.913 112.874C371.913 110.198 373.317 108.602 375.261 108.602C377.205 108.602 378.621 110.198 378.621 112.874C378.621 115.55 377.205 117.146 375.261 117.146ZM375.261 116.354C376.725 116.354 377.733 115.118 377.733 112.874C377.733 110.63 376.725 109.394 375.261 109.394C373.797 109.394 372.789 110.63 372.789 112.874C372.789 115.118 373.797 116.354 375.261 116.354ZM383.295 117.074V110.528H384.267V111.551H384.352C384.489 111.201 384.709 110.93 385.013 110.737C385.317 110.541 385.682 110.443 386.108 110.443C386.54 110.443 386.899 110.541 387.186 110.737C387.476 110.93 387.702 111.201 387.864 111.551H387.932C388.099 111.213 388.351 110.944 388.686 110.745C389.021 110.544 389.423 110.443 389.892 110.443C390.477 110.443 390.956 110.626 391.328 110.993C391.7 111.356 391.886 111.923 391.886 112.693V117.074H390.881V112.693C390.881 112.21 390.749 111.865 390.484 111.657C390.22 111.45 389.909 111.346 389.551 111.346C389.091 111.346 388.734 111.486 388.482 111.764C388.229 112.039 388.102 112.389 388.102 112.812V117.074H387.08V112.591C387.08 112.218 386.959 111.919 386.717 111.691C386.476 111.461 386.165 111.346 385.784 111.346C385.523 111.346 385.278 111.416 385.051 111.555C384.827 111.694 384.645 111.887 384.506 112.135C384.369 112.379 384.301 112.662 384.301 112.983V117.074H383.295ZM393.725 117.074V110.528H394.731V117.074H393.725ZM394.237 109.437C394.04 109.437 393.871 109.37 393.729 109.237C393.59 109.103 393.521 108.943 393.521 108.755C393.521 108.568 393.59 108.407 393.729 108.274C393.871 108.14 394.04 108.074 394.237 108.074C394.433 108.074 394.6 108.14 394.739 108.274C394.881 108.407 394.952 108.568 394.952 108.755C394.952 108.943 394.881 109.103 394.739 109.237C394.6 109.37 394.433 109.437 394.237 109.437ZM397.578 108.346V117.074H396.573V108.346H397.578Z" fill="black"/>
<path d="M403.5 61.2H409.5" stroke="black"/>
<path d="M369.268 59.6976V60.4656H367.588V62.6736H366.724V60.4656H361.984V59.8416L366.436 54.2736H367.396L363.1 59.6976H366.748V57.7536H367.588V59.6976H369.268ZM372.223 57.7176C374.755 57.7176 375.715 58.7136 375.715 60.2016C375.715 61.6296 374.719 62.7456 372.667 62.7456C371.455 62.7456 370.303 62.3256 369.655 61.6656L370.075 60.9816C370.615 61.5456 371.575 61.9536 372.655 61.9536C374.083 61.9536 374.839 61.2576 374.839 60.2376C374.839 59.1576 374.167 58.4856 372.031 58.4856H370.243L370.675 54.2736H375.271V55.0416H371.431L371.143 57.7176H372.223ZM388.388 56.3136C389.924 56.3136 390.932 57.2016 390.932 59.0136V62.6736H390.08V59.0976C390.08 57.7656 389.408 57.0816 388.268 57.0816C386.972 57.0816 386.156 57.9216 386.156 59.3616V62.6736H385.304V59.0976C385.304 57.7656 384.632 57.0816 383.48 57.0816C382.196 57.0816 381.368 57.9216 381.368 59.3616V62.6736H380.516V56.3616H381.332V57.5136C381.776 56.7576 382.592 56.3136 383.648 56.3136C384.692 56.3136 385.508 56.7576 385.892 57.6456C386.348 56.8296 387.248 56.3136 388.388 56.3136ZM393.675 54.9816C393.327 54.9816 393.051 54.7056 393.051 54.3696C393.051 54.0456 393.327 53.7696 393.675 53.7696C394.023 53.7696 394.299 54.0336 394.299 54.3576C394.299 54.7056 394.035 54.9816 393.675 54.9816ZM393.243 62.6736V56.3616H394.095V62.6736H393.243ZM396.465 62.6736V53.7696H397.317V62.6736H396.465Z" fill="black"/>
<path d="M403.5 6.79999H409.5" stroke="black"/>
<path d="M365.034 8.95653C366.702 8.95653 367.866 9.94053 367.866 11.4765C367.866 13.0485 366.63 14.0565 364.998 14.0565C362.766 14.0565 361.554 12.5085 361.554 9.85653C361.554 7.00053 363.114 5.51253 365.394 5.51253C366.15 5.51253 366.858 5.64453 367.386 5.96853L367.038 6.66453C366.606 6.37653 366.03 6.26853 365.406 6.26853C363.594 6.26853 362.43 7.43253 362.43 9.71253C362.43 9.90453 362.442 10.1445 362.466 10.3965C362.886 9.47253 363.87 8.95653 365.034 8.95653ZM364.962 13.3245C366.174 13.3245 367.014 12.6165 367.014 11.5005C367.014 10.3965 366.198 9.68853 364.902 9.68853C363.618 9.68853 362.742 10.4805 362.742 11.5245C362.742 12.4485 363.51 13.3245 364.962 13.3245ZM372.214 14.0565C370.27 14.0565 368.866 12.4605 368.866 9.78453C368.866 7.10853 370.27 5.51253 372.214 5.51253C374.158 5.51253 375.574 7.10853 375.574 9.78453C375.574 12.4605 374.158 14.0565 372.214 14.0565ZM372.214 13.2645C373.678 13.2645 374.686 12.0285 374.686 9.78453C374.686 7.54053 373.678 6.30453 372.214 6.30453C370.75 6.30453 369.742 7.54053 369.742 9.78453C369.742 12.0285 370.75 13.2645 372.214 13.2645ZM388.388 7.62453C389.924 7.62453 390.932 8.51253 390.932 10.3245V13.9845H390.08V10.4085C390.08 9.07653 389.408 8.39253 388.268 8.39253C386.972 8.39253 386.156 9.23253 386.156 10.6725V13.9845H385.304V10.4085C385.304 9.07653 384.632 8.39253 383.48 8.39253C382.196 8.39253 381.368 9.23253 381.368 10.6725V13.9845H380.516V7.67253H381.332V8.82453C381.776 8.06853 382.592 7.62453 383.648 7.62453C384.692 7.62453 385.508 8.06853 385.892 8.95653C386.348 8.14053 387.248 7.62453 388.388 7.62453ZM393.675 6.29253C393.327 6.29253 393.051 6.01653 393.051 5.68053C393.051 5.35653 393.327 5.08053 393.675 5.08053C394.023 5.08053 394.299 5.34453 394.299 5.66853C394.299 6.01653 394.035 6.29253 393.675 6.29253ZM393.243 13.9845V7.67253H394.095V13.9845H393.243ZM396.465 13.9845V5.08053H397.317V13.9845H396.465Z" fill="black"/>
<path d="M409.5 224.4H1007.5" stroke="#C6D3D9"/>
<path d="M409.5 170H1007.5" stroke="#C6D3D9"/>
<path d="M409.5 115.6H1007.5" stroke="#C6D3D9"/>
<path d="M409.5 61.2H1007.5" stroke="#C6D3D9"/>
<path d="M409.5 6.79999H1007.5" stroke="#C6D3D9"/>
<path d="M434.417 6.79999V224.4" stroke="#C6D3D9"/>
<path d="M484.25 6.79999V224.4" stroke="#C6D3D9"/>
<path d="M534.083 6.79999V224.4" stroke="#C6D3D9"/>
<path d="M583.917 6.79999V224.4" stroke="#C6D3D9"/>
<path d="M633.75 6.79999V224.4" stroke="#C6D3D9"/>
<path d="M683.583 6.79999V224.4" stroke="#C6D3D9"/>
<path d="M733.417 6.79999V224.4" stroke="#C6D3D9"/>
<path d="M783.25 6.79999V224.4" stroke="#C6D3D9"/>
<path d="M833.083 6.79999V224.4" stroke="#C6D3D9"/>
<path d="M882.917 6.79999V224.4" stroke="#C6D3D9"/>
<path d="M932.75 6.79999V224.4" stroke="#C6D3D9"/>
<path d="M982.583 6.79999V224.4" stroke="#C6D3D9"/>
<path d="M409.5 6.79999V224.4" stroke="#C6D3D9"/>
<path d="M1007.5 6.79999V224.4" stroke="#C6D3D9"/>
<path d="M414.5 136H453.5V224H414.5V136Z" fill="#009262"/>
<path d="M464.316 181H503.316V224.4H464.316V181Z" fill="#009262"/>
<path d="M514.15 159H553.15V224.4H514.15V159Z" fill="#009262"/>
<path d="M563.983 83H602.983V224.4H563.983V83Z" fill="#009262"/>
<path d="M613.5 46H652.5V224H613.5V46Z" fill="#009262"/>
<g filter="url(#filter1_dd_45_4878)">
<rect x="488.2" y="96" width="93" height="48" rx="4" fill="white"/>
<path d="M503.484 114.632V111.8H504.336V115.004C503.544 115.712 502.416 116.072 501.252 116.072C498.696 116.072 496.824 114.26 496.824 111.8C496.824 109.34 498.696 107.528 501.264 107.528C502.536 107.528 503.64 107.936 504.384 108.74L503.832 109.304C503.124 108.608 502.284 108.32 501.3 108.32C499.224 108.32 497.7 109.796 497.7 111.8C497.7 113.792 499.224 115.28 501.288 115.28C502.092 115.28 502.836 115.1 503.484 114.632ZM508.877 109.64C510.509 109.64 511.433 110.456 511.433 112.088V116H510.617V115.016C510.233 115.664 509.489 116.06 508.445 116.06C507.017 116.06 506.141 115.316 506.141 114.224C506.141 113.252 506.765 112.436 508.577 112.436H510.581V112.052C510.581 110.972 509.969 110.384 508.793 110.384C507.977 110.384 507.209 110.672 506.693 111.128L506.309 110.492C506.945 109.952 507.881 109.64 508.877 109.64ZM508.577 115.388C509.537 115.388 510.245 114.932 510.581 114.104V113.072H508.601C507.377 113.072 506.981 113.552 506.981 114.2C506.981 114.932 507.569 115.388 508.577 115.388ZM515.44 116.06C514.396 116.06 513.388 115.724 512.872 115.28L513.256 114.608C513.76 115.004 514.612 115.316 515.5 115.316C516.7 115.316 517.192 114.908 517.192 114.284C517.192 112.64 513.1 113.936 513.1 111.44C513.1 110.408 513.988 109.64 515.596 109.64C516.412 109.64 517.3 109.868 517.828 110.228L517.456 110.912C516.904 110.528 516.244 110.372 515.596 110.372C514.456 110.372 513.952 110.816 513.952 111.416C513.952 113.12 518.044 111.836 518.044 114.26C518.044 115.352 517.084 116.06 515.44 116.06ZM522.643 115.004L522.943 115.616C522.607 115.916 522.103 116.06 521.611 116.06C520.423 116.06 519.763 115.388 519.763 114.224V110.408H518.635V109.688H519.763V108.308H520.615V109.688H522.535V110.408H520.615V114.176C520.615 114.92 520.999 115.328 521.707 115.328C522.055 115.328 522.403 115.22 522.643 115.004ZM526.851 116.06C525.003 116.06 523.635 114.716 523.635 112.844C523.635 110.972 525.003 109.64 526.851 109.64C528.699 109.64 530.055 110.972 530.055 112.844C530.055 114.716 528.699 116.06 526.851 116.06ZM526.851 115.304C528.195 115.304 529.191 114.32 529.191 112.844C529.191 111.368 528.195 110.384 526.851 110.384C525.507 110.384 524.499 111.368 524.499 112.844C524.499 114.32 525.507 115.304 526.851 115.304ZM531.878 110.948C531.53 110.948 531.242 110.66 531.242 110.288C531.242 109.916 531.53 109.64 531.878 109.64C532.226 109.64 532.526 109.916 532.526 110.288C532.526 110.66 532.226 110.948 531.878 110.948ZM531.878 116.06C531.53 116.06 531.242 115.772 531.242 115.4C531.242 115.028 531.53 114.752 531.878 114.752C532.226 114.752 532.526 115.028 532.526 115.4C532.526 115.772 532.226 116.06 531.878 116.06ZM504.276 132H503.304L501.384 129.3C501.168 129.324 500.952 129.336 500.712 129.336H498.456V132H497.568V123.6H500.712C502.848 123.6 504.144 124.68 504.144 126.48C504.144 127.8 503.448 128.724 502.224 129.12L504.276 132ZM500.688 128.58C502.368 128.58 503.256 127.8 503.256 126.48C503.256 125.136 502.368 124.368 500.688 124.368H498.456V128.58H500.688ZM511.688 129.78C511.688 130.944 510.812 131.952 508.904 132.06V133.44H508.304V132.072C507.128 132.012 506.024 131.58 505.436 130.98L505.784 130.296C506.336 130.836 507.296 131.244 508.304 131.304V128.148C506.984 127.824 505.64 127.416 505.64 125.832C505.64 124.68 506.468 123.684 508.304 123.54V122.16H508.904V123.528C509.804 123.564 510.704 123.828 511.34 124.272L511.04 124.98C510.368 124.548 509.6 124.32 508.904 124.284V127.464C510.26 127.788 511.688 128.172 511.688 129.78ZM506.516 125.808C506.516 126.72 507.32 127.056 508.304 127.308V124.308C507.068 124.416 506.516 125.052 506.516 125.808ZM508.904 131.304C510.224 131.208 510.812 130.596 510.812 129.828C510.812 128.88 509.936 128.556 508.904 128.304V131.304ZM515.504 123.6H518.348V132H517.484V124.368H515.504V123.6ZM520.115 123.6H526.283V124.212L522.767 132H521.831L525.287 124.368H520.967V125.94H520.115V123.6ZM527.437 132.06C527.089 132.06 526.801 131.772 526.801 131.4C526.801 131.028 527.089 130.752 527.437 130.752C527.785 130.752 528.085 131.028 528.085 131.4C528.085 131.772 527.785 132.06 527.437 132.06ZM532.305 127.2C534.105 127.296 535.005 128.244 535.005 129.588C535.005 130.992 533.985 132.072 531.957 132.072C530.745 132.072 529.581 131.652 528.933 130.992L529.353 130.308C529.893 130.872 530.865 131.28 531.957 131.28C533.349 131.28 534.117 130.632 534.117 129.588C534.117 128.58 533.409 127.92 531.849 127.92H531.249V127.284L533.577 124.368H529.281V123.6H534.681V124.212L532.305 127.2ZM538.313 127.044C540.845 127.044 541.805 128.04 541.805 129.528C541.805 130.956 540.809 132.072 538.757 132.072C537.545 132.072 536.393 131.652 535.745 130.992L536.165 130.308C536.705 130.872 537.665 131.28 538.745 131.28C540.173 131.28 540.929 130.584 540.929 129.564C540.929 128.484 540.257 127.812 538.121 127.812H536.333L536.765 123.6H541.361V124.368H537.521L537.233 127.044H538.313ZM546.25 132.072C544.306 132.072 542.902 130.476 542.902 127.8C542.902 125.124 544.306 123.528 546.25 123.528C548.194 123.528 549.61 125.124 549.61 127.8C549.61 130.476 548.194 132.072 546.25 132.072ZM546.25 131.28C547.714 131.28 548.722 130.044 548.722 127.8C548.722 125.556 547.714 124.32 546.25 124.32C544.786 124.32 543.778 125.556 543.778 127.8C543.778 130.044 544.786 131.28 546.25 131.28ZM551.379 130.752C551.751 130.752 552.015 131.04 552.015 131.4C552.015 131.604 551.967 131.76 551.847 132.096L551.343 133.752H550.767L551.175 132.012C550.923 131.94 550.743 131.712 550.743 131.4C550.743 131.028 551.019 130.752 551.379 130.752ZM556.481 132.072C554.537 132.072 553.133 130.476 553.133 127.8C553.133 125.124 554.537 123.528 556.481 123.528C558.425 123.528 559.841 125.124 559.841 127.8C559.841 130.476 558.425 132.072 556.481 132.072ZM556.481 131.28C557.945 131.28 558.953 130.044 558.953 127.8C558.953 125.556 557.945 124.32 556.481 124.32C555.017 124.32 554.009 125.556 554.009 127.8C554.009 130.044 555.017 131.28 556.481 131.28ZM564.426 132.072C562.482 132.072 561.078 130.476 561.078 127.8C561.078 125.124 562.482 123.528 564.426 123.528C566.37 123.528 567.786 125.124 567.786 127.8C567.786 130.476 566.37 132.072 564.426 132.072ZM564.426 131.28C565.89 131.28 566.898 130.044 566.898 127.8C566.898 125.556 565.89 124.32 564.426 124.32C562.962 124.32 561.954 125.556 561.954 127.8C561.954 130.044 562.962 131.28 564.426 131.28Z" fill="black"/>
<path d="M534.959 152L527.7 144H541.7L534.959 152Z" fill="white"/>
</g>
<defs>
<filter id="filter0_dd_45_4878" x="105.75" y="-4.4" width="118.9" height="75.1182" filterUnits="userSpaceOnUse" color-interpolation-filters="sRGB">
<feFlood flood-opacity="0" result="BackgroundImageFix"/>
<feColorMatrix in="SourceAlpha" type="matrix" values="0 0 0 0 0 0 0 0 0 0 0 0 0 0 0 0 0 0 127 0" result="hardAlpha"/>
<feOffset dy="1.85"/>
<feGaussianBlur stdDeviation="3.125"/>
<feColorMatrix type="matrix" values="0 0 0 0 0 0 0 0 0 0 0 0 0 0 0 0 0 0 0.19 0"/>
<feBlend mode="normal" in2="BackgroundImageFix" result="effect1_dropShadow_45_4878"/>
<feColorMatrix in="SourceAlpha" type="matrix" values="0 0 0 0 0 0 0 0 0 0 0 0 0 0 0 0 0 0 127 0" result="hardAlpha"/>
<feOffset dy="0.5"/>
<feGaussianBlur stdDeviation="0.875"/>
<feColorMatrix type="matrix" values="0 0 0 0 0 0 0 0 0 0 0 0 0 0 0 0 0 0 0.039 0"/>
<feBlend mode="normal" in2="effect1_dropShadow_45_4878" result="effect2_dropShadow_45_4878"/>
<feBlend mode="normal" in="SourceGraphic" in2="effect2_dropShadow_45_4878" result="shape"/>
</filter>
<filter id="filter1_dd_45_4878" x="475.25" y="91.6" width="118.9" height="75.1182" filterUnits="userSpaceOnUse" color-interpolation-filters="sRGB">
<feFlood flood-opacity="0" result="BackgroundImageFix"/>
<feColorMatrix in="SourceAlpha" type="matrix" values="0 0 0 0 0 0 0 0 0 0 0 0 0 0 0 0 0 0 127 0" result="hardAlpha"/>
<feOffset dy="1.85"/>
<feGaussianBlur stdDeviation="3.125"/>
<feColorMatrix type="matrix" values="0 0 0 0 0 0 0 0 0 0 0 0 0 0 0 0 0 0 0.19 0"/>
<feBlend mode="normal" in2="BackgroundImageFix" result="effect1_dropShadow_45_4878"/>
<feColorMatrix in="SourceAlpha" type="matrix" values="0 0 0 0 0 0 0 0 0 0 0 0 0 0 0 0 0 0 127 0" result="hardAlpha"/>
<feOffset dy="0.5"/>
<feGaussianBlur stdDeviation="0.875"/>
<feColorMatrix type="matrix" values="0 0 0 0 0 0 0 0 0 0 0 0 0 0 0 0 0 0 0.039 0"/>
<feBlend mode="normal" in2="effect1_dropShadow_45_4878" result="effect2_dropShadow_45_4878"/>
<feBlend mode="normal" in="SourceGraphic" in2="effect2_dropShadow_45_4878" result="shape"/>
</filter>
<clipPath id="clip0_45_4878">
<rect width="219" height="246" fill="white"/>
</clipPath>
</defs>
</svg>
