<svg width="220" height="249" viewBox="0 0 220 249" fill="none" xmlns="http://www.w3.org/2000/svg">
<path d="M219.431 139C219.431 119.833 214.392 101.003 204.817 84.3977C195.243 67.7923 181.471 53.9949 164.881 44.389C148.292 34.783 129.468 29.706 110.297 29.6669C91.1257 29.6278 72.2812 34.628 55.6525 44.1662C39.0239 53.7044 25.1954 67.4455 15.5534 84.0117C5.9115 100.578 0.794948 119.387 0.716731 138.554C0.638513 157.721 5.60137 176.571 15.1078 193.215C24.6142 209.86 38.33 223.713 54.8803 233.387L75.5778 197.992C65.2339 191.946 56.6615 183.287 50.72 172.885C44.7785 162.482 41.6767 150.7 41.7256 138.721C41.7745 126.742 44.9723 114.986 50.9985 104.632C57.0247 94.2784 65.6675 85.6903 76.0604 79.7289C86.4533 73.7675 98.2311 70.6424 110.213 70.6668C122.195 70.6912 133.96 73.8644 144.328 79.8681C154.697 85.8718 163.305 94.4952 169.288 104.874C175.272 115.252 178.422 127.021 178.422 139H219.431Z" fill="#009262" stroke="white"/>
<path d="M54.8799 233.387C71.4955 243.098 90.3804 248.254 109.627 248.332C128.874 248.411 147.8 243.41 164.494 233.834C181.189 224.258 195.059 210.447 204.705 193.795C214.351 177.144 219.431 158.242 219.431 139H178.422C178.422 151.027 175.247 162.84 169.218 173.247C163.19 183.654 154.52 192.286 144.086 198.271C133.652 204.256 121.823 207.382 109.794 207.333C97.7652 207.284 85.9621 204.061 75.5774 197.992L54.8799 233.387Z" fill="#C6D3D9" stroke="white"/>
<g filter="url(#filter0_dd_45_5012)">
<rect x="119.71" y="5" width="87" height="48" rx="4" fill="white"/>
<path d="M135.354 25L134.346 22.756H129.666L128.658 25H127.734L131.574 16.6H132.45L136.29 25H135.354ZM129.99 22.036H134.022L132.006 17.524L129.99 22.036ZM140.752 18.64C142.552 18.64 143.896 19.936 143.896 21.844C143.896 23.764 142.552 25.06 140.752 25.06C139.744 25.06 138.88 24.628 138.352 23.812V27.328H137.5V18.688H138.316V19.936C138.832 19.096 139.708 18.64 140.752 18.64ZM140.692 24.304C142.024 24.304 143.044 23.32 143.044 21.844C143.044 20.38 142.024 19.384 140.692 19.384C139.348 19.384 138.34 20.38 138.34 21.844C138.34 23.32 139.348 24.304 140.692 24.304ZM146.448 19.924C146.844 19.084 147.648 18.64 148.812 18.64V19.468C148.74 19.468 148.668 19.456 148.608 19.456C147.288 19.456 146.484 20.296 146.484 21.784V25H145.632V18.688H146.448V19.924ZM152.876 25.06C151.028 25.06 149.66 23.716 149.66 21.844C149.66 19.972 151.028 18.64 152.876 18.64C154.724 18.64 156.08 19.972 156.08 21.844C156.08 23.716 154.724 25.06 152.876 25.06ZM152.876 24.304C154.22 24.304 155.216 23.32 155.216 21.844C155.216 20.368 154.22 19.384 152.876 19.384C151.532 19.384 150.524 20.368 150.524 21.844C150.524 23.32 151.532 24.304 152.876 24.304ZM162.108 18.688H162.948L160.14 25H159.264L156.468 18.688H157.356L159.72 24.064L162.108 18.688ZM166.168 18.64C167.8 18.64 168.724 19.456 168.724 21.088V25H167.908V24.016C167.524 24.664 166.78 25.06 165.736 25.06C164.308 25.06 163.432 24.316 163.432 23.224C163.432 22.252 164.056 21.436 165.868 21.436H167.872V21.052C167.872 19.972 167.26 19.384 166.084 19.384C165.268 19.384 164.5 19.672 163.984 20.128L163.6 19.492C164.236 18.952 165.172 18.64 166.168 18.64ZM165.868 24.388C166.828 24.388 167.536 23.932 167.872 23.104V22.072H165.892C164.668 22.072 164.272 22.552 164.272 23.2C164.272 23.932 164.86 24.388 165.868 24.388ZM175.97 16.096H176.822V25H176.006V23.752C175.49 24.604 174.614 25.06 173.57 25.06C171.77 25.06 170.426 23.752 170.426 21.844C170.426 19.936 171.77 18.64 173.57 18.64C174.578 18.64 175.442 19.072 175.97 19.888V16.096ZM173.642 24.304C174.974 24.304 175.982 23.32 175.982 21.844C175.982 20.368 174.974 19.384 173.642 19.384C172.298 19.384 171.29 20.368 171.29 21.844C171.29 23.32 172.298 24.304 173.642 24.304ZM181.775 25.06C179.927 25.06 178.559 23.716 178.559 21.844C178.559 19.972 179.927 18.64 181.775 18.64C183.623 18.64 184.979 19.972 184.979 21.844C184.979 23.716 183.623 25.06 181.775 25.06ZM181.775 24.304C183.119 24.304 184.115 23.32 184.115 21.844C184.115 20.368 183.119 19.384 181.775 19.384C180.431 19.384 179.423 20.368 179.423 21.844C179.423 23.32 180.431 24.304 181.775 24.304ZM188.41 25.06C187.366 25.06 186.358 24.724 185.842 24.28L186.226 23.608C186.73 24.004 187.582 24.316 188.47 24.316C189.67 24.316 190.162 23.908 190.162 23.284C190.162 21.64 186.07 22.936 186.07 20.44C186.07 19.408 186.958 18.64 188.566 18.64C189.382 18.64 190.27 18.868 190.798 19.228L190.426 19.912C189.874 19.528 189.214 19.372 188.566 19.372C187.426 19.372 186.922 19.816 186.922 20.416C186.922 22.12 191.014 20.836 191.014 23.26C191.014 24.352 190.054 25.06 188.41 25.06ZM192.673 19.948C192.325 19.948 192.037 19.66 192.037 19.288C192.037 18.916 192.325 18.64 192.673 18.64C193.021 18.64 193.321 18.916 193.321 19.288C193.321 19.66 193.021 19.948 192.673 19.948ZM192.673 25.06C192.325 25.06 192.037 24.772 192.037 24.4C192.037 24.028 192.325 23.752 192.673 23.752C193.021 23.752 193.321 24.028 193.321 24.4C193.321 24.772 193.021 25.06 192.673 25.06ZM130.542 36.044C133.074 36.044 134.034 37.04 134.034 38.528C134.034 39.956 133.038 41.072 130.986 41.072C129.774 41.072 128.622 40.652 127.974 39.992L128.394 39.308C128.934 39.872 129.894 40.28 130.974 40.28C132.402 40.28 133.158 39.584 133.158 38.564C133.158 37.484 132.486 36.812 130.35 36.812H128.562L128.994 32.6H133.59V33.368H129.75L129.462 36.044H130.542ZM138.479 41.072C136.535 41.072 135.131 39.476 135.131 36.8C135.131 34.124 136.535 32.528 138.479 32.528C140.423 32.528 141.839 34.124 141.839 36.8C141.839 39.476 140.423 41.072 138.479 41.072ZM138.479 40.28C139.943 40.28 140.951 39.044 140.951 36.8C140.951 34.556 139.943 33.32 138.479 33.32C137.015 33.32 136.007 34.556 136.007 36.8C136.007 39.044 137.015 40.28 138.479 40.28Z" fill="black"/>
<path d="M163.469 61L156.21 53H170.21L163.469 61Z" fill="white"/>
</g>
<defs>
<filter id="filter0_dd_45_5012" x="103.76" y="0.6" width="118.9" height="75.1182" filterUnits="userSpaceOnUse" color-interpolation-filters="sRGB">
<feFlood flood-opacity="0" result="BackgroundImageFix"/>
<feColorMatrix in="SourceAlpha" type="matrix" values="0 0 0 0 0 0 0 0 0 0 0 0 0 0 0 0 0 0 127 0" result="hardAlpha"/>
<feOffset dy="1.85"/>
<feGaussianBlur stdDeviation="3.125"/>
<feColorMatrix type="matrix" values="0 0 0 0 0 0 0 0 0 0 0 0 0 0 0 0 0 0 0.19 0"/>
<feBlend mode="normal" in2="BackgroundImageFix" result="effect1_dropShadow_45_5012"/>
<feColorMatrix in="SourceAlpha" type="matrix" values="0 0 0 0 0 0 0 0 0 0 0 0 0 0 0 0 0 0 127 0" result="hardAlpha"/>
<feOffset dy="0.5"/>
<feGaussianBlur stdDeviation="0.875"/>
<feColorMatrix type="matrix" values="0 0 0 0 0 0 0 0 0 0 0 0 0 0 0 0 0 0 0.039 0"/>
<feBlend mode="normal" in2="effect1_dropShadow_45_5012" result="effect2_dropShadow_45_5012"/>
<feBlend mode="normal" in="SourceGraphic" in2="effect2_dropShadow_45_5012" result="shape"/>
</filter>
</defs>
</svg>
