<svg width="32" height="32" viewBox="0 0 32 32" fill="none" xmlns="http://www.w3.org/2000/svg">
<path d="M14.505 24.34H2.58496C2.23978 24.34 1.95996 24.6198 1.95996 24.965V27.725C1.95996 28.0702 2.23978 28.35 2.58496 28.35H14.505C14.8501 28.35 15.13 28.0702 15.13 27.725V24.965C15.13 24.6198 14.8501 24.34 14.505 24.34Z" fill="#7F1A22" stroke="#7F1A22" stroke-linecap="round" stroke-linejoin="round"/>
<path d="M5.30523 21.345H11.8052C12.2535 21.345 12.6833 21.523 13.0002 21.84C13.3172 22.1569 13.4952 22.5868 13.4952 23.035V24.34H3.61523V23.035C3.61523 22.5868 3.79329 22.1569 4.11022 21.84C4.42716 21.523 4.85702 21.345 5.30523 21.345Z" stroke="#7F1A22" stroke-linecap="round" stroke-linejoin="round"/>
<path d="M15.0241 6.1469L10.29 10.881L14.1438 14.7347L18.8779 10.0006L15.0241 6.1469Z" stroke="#7F1A22" stroke-linecap="round" stroke-linejoin="round"/>
<path d="M9.93965 10.5253L14.5005 15.0861C14.6189 15.2045 14.7128 15.3451 14.7769 15.4998C14.8409 15.6544 14.8739 15.8202 14.8739 15.9877C14.8739 16.1551 14.8409 16.3209 14.7769 16.4756C14.7128 16.6303 14.6189 16.7708 14.5005 16.8892L13.0863 18.3035L6.72231 11.9395L8.13652 10.5253C8.37563 10.2862 8.69993 10.1518 9.03809 10.1518C9.37624 10.1518 9.70054 10.2862 9.93965 10.5253Z" fill="#7F1A22" stroke="#7F1A22" stroke-linecap="round" stroke-linejoin="round"/>
<path d="M19.2293 10.3497L14.6685 5.78888C14.4294 5.54977 14.295 5.22547 14.295 4.88732C14.295 4.54917 14.4294 4.22487 14.6685 3.98576L16.0827 2.57155L22.4466 8.93551L21.0324 10.3497C20.7933 10.5888 20.469 10.7232 20.1309 10.7232C19.7927 10.7232 19.4684 10.5888 19.2293 10.3497Z" fill="#7F1A22" stroke="#7F1A22" stroke-linecap="round" stroke-linejoin="round"/>
<path d="M13.6252 7.54499L11.6652 9.49999L10.8952 8.72999C10.712 8.54306 10.6094 8.29174 10.6094 8.02999C10.6094 7.76824 10.712 7.51692 10.8952 7.32999L11.4552 6.76999C11.6422 6.58676 11.8935 6.48413 12.1552 6.48413C12.417 6.48413 12.6683 6.58676 12.8552 6.76999L13.6252 7.54499Z" fill="#7F1A22" stroke="#7F1A22" stroke-linecap="round" stroke-linejoin="round"/>
<path d="M17.4802 11.397L15.5215 13.3557L25.4387 23.2729L27.3973 21.3142L17.4802 11.397Z" stroke="#7F1A22" stroke-linecap="round" stroke-linejoin="round"/>
<path d="M29.9446 22.0452L28.5516 20.6522C28.4168 20.5175 28.1984 20.5175 28.0637 20.6522L24.8004 23.9155C24.6656 24.0502 24.6656 24.2687 24.8004 24.4034L26.1934 25.7964C26.3281 25.9311 26.5465 25.9311 26.6813 25.7964L29.9446 22.5331C30.0793 22.3984 30.0793 22.1799 29.9446 22.0452Z" fill="#7F1A22" stroke="#7F1A22" stroke-linecap="round" stroke-linejoin="round"/>
</svg>
