<svg width="32" height="32" viewBox="0 0 32 32" fill="none" xmlns="http://www.w3.org/2000/svg">
<path d="M13.3337 22L21.3337 16L13.3337 9.99996V22ZM16.0003 2.66663C8.64033 2.66663 2.66699 8.63996 2.66699 16C2.66699 23.36 8.64033 29.3333 16.0003 29.3333C23.3603 29.3333 29.3337 23.36 29.3337 16C29.3337 8.63996 23.3603 2.66663 16.0003 2.66663ZM16.0003 26.6666C10.1203 26.6666 5.33366 21.88 5.33366 16C5.33366 10.12 10.1203 5.33329 16.0003 5.33329C21.8803 5.33329 26.667 10.12 26.667 16C26.667 21.88 21.8803 26.6666 16.0003 26.6666Z" fill="#7F1A22"/>
</svg>
