<svg width="46" height="54" viewBox="0 0 46 54" fill="none" xmlns="http://www.w3.org/2000/svg">
    <path d="M10.2862 38.9353C13.9572 38.9353 16.9331 35.9594 16.9331 32.2885C16.9331 28.6175 13.9572 25.6416 10.2862 25.6416C6.61525 25.6416 3.63934 28.6175 3.63934 32.2885C3.63934 35.9594 6.61525 38.9353 10.2862 38.9353Z" fill="#7DFF00"/>
    <path d="M10.2862 38.9355C12.7491 38.9355 15.1111 39.9139 16.8527 41.6555C18.5942 43.397 19.5726 45.759 19.5726 48.2219V52.393C19.5726 52.4727 19.5569 52.5517 19.5264 52.6253C19.4959 52.6989 19.4512 52.7658 19.3948 52.8222C19.3385 52.8785 19.2716 52.9232 19.1979 52.9537C19.1243 52.9842 19.0454 52.9999 18.9657 52.9999H1.61641C1.53671 52.9999 1.45779 52.9842 1.38416 52.9537C1.31053 52.9232 1.24363 52.8785 1.18727 52.8222C1.13092 52.7658 1.08622 52.6989 1.05572 52.6253C1.02522 52.5517 1.00952 52.4727 1.00952 52.393V48.2219C1.00952 45.7607 1.98658 43.4001 3.72602 41.6589C5.46547 39.9176 7.82501 38.9381 10.2862 38.9355Z" fill="#7DFF00"/>
    <path d="M34.8893 38.9353C38.5603 38.9353 41.5362 35.9594 41.5362 32.2885C41.5362 28.6175 38.5603 25.6416 34.8893 25.6416C31.2183 25.6416 28.2424 28.6175 28.2424 32.2885C28.2424 35.9594 31.2183 38.9353 34.8893 38.9353Z" fill="#27A3FF"/>
    <path d="M43.5686 52.9999H26.2289C26.0696 53 25.9167 52.9373 25.8031 52.8256C25.6896 52.7139 25.6245 52.562 25.622 52.4027V48.2219C25.6246 45.7598 26.6038 43.3992 28.3447 41.6583C30.0857 39.9173 32.4462 38.9381 34.9084 38.9355C37.3705 38.9381 39.731 39.9173 41.472 41.6583C43.213 43.3992 44.1922 45.7598 44.1947 48.2219V52.4027C44.1935 52.4832 44.1762 52.5627 44.1439 52.6365C44.1117 52.7103 44.065 52.7769 44.0068 52.8325C43.9485 52.8881 43.8797 52.9315 43.8045 52.9603C43.7293 52.989 43.649 53.0025 43.5686 52.9999Z" fill="#27A3FF"/>
    <path d="M33.9068 17.3473L34.7834 22.0579L29.3696 18.8886C28.5827 19.0136 27.787 19.0748 26.9902 19.0716C22.7805 19.0716 19.1392 17.434 17.463 15.0449H18.1855C24.0135 15.0449 28.782 11.9045 28.782 8.01275C28.7823 6.9379 28.4454 5.89003 27.8186 5.01685C33.2999 5.25767 37.6252 8.30175 37.6252 12.0201C37.5385 14.1587 36.1224 16.0564 33.9068 17.3473Z" fill="#E1F4FF"/>
    <path d="M28.7339 8.03221C28.7339 11.8855 24.0136 15.0644 18.1856 15.0644H17.4631C16.8947 15.0644 16.3456 14.9777 15.8062 14.9006L10.402 18.0699L11.2786 13.3497C9.05335 12.0589 7.64691 10.1708 7.64691 8.05148C7.64691 4.19822 12.3672 1.01929 18.1856 1.01929C22.4145 1.01929 26.0462 2.66655 27.732 5.05557C28.3687 5.91879 28.719 6.95971 28.7339 8.03221Z" fill="#FFB000"/>
    <g style="mix-blend-mode:multiply" opacity="0.25">
        <path d="M44.1757 52.4024V48.2217C44.1731 45.7595 43.1939 43.399 41.4529 41.658C39.7119 39.9171 37.3514 38.9379 34.8893 38.9353C34.0758 38.9409 33.2664 39.051 32.481 39.2628C34.4537 39.7909 36.197 40.955 37.4406 42.5748C38.6842 44.1946 39.3585 46.1795 39.3591 48.2217V52.4024C39.3566 52.5617 39.2915 52.7136 39.178 52.8254C39.0644 52.9371 38.9115 52.9997 38.7522 52.9997H43.5688C43.7281 52.9997 43.881 52.9371 43.9945 52.8254C44.1081 52.7136 44.1731 52.5617 44.1757 52.4024Z" fill="black"/>
        <path d="M41.5361 32.2883C41.5384 31.2029 41.2748 30.1334 40.7685 29.1733C40.2621 28.2133 39.5283 27.3918 38.6312 26.7808C37.7341 26.1697 36.701 25.7877 35.6222 25.668C34.5434 25.5483 33.4517 25.6946 32.4424 26.0942C33.6902 26.5799 34.7622 27.4311 35.518 28.5364C36.2737 29.6416 36.6781 30.9494 36.6781 32.2883C36.6781 33.6272 36.2737 34.935 35.518 36.0402C34.7622 37.1455 33.6902 37.9967 32.4424 38.4824C33.4497 38.8739 34.5372 39.014 35.6107 38.8904C36.6843 38.7669 37.7115 38.3834 38.6035 37.7733C39.4954 37.1632 40.2251 36.3448 40.7295 35.389C41.2338 34.4333 41.4974 33.369 41.4976 32.2883H41.5361Z" fill="black"/>
        <path d="M14.1395 52.9997H18.956C19.1153 52.9997 19.2683 52.9371 19.3818 52.8254C19.4953 52.7136 19.5604 52.5617 19.5629 52.4024V48.2217C19.5629 45.7604 18.5859 43.3999 16.8464 41.6586C15.107 39.9174 12.7474 38.9379 10.2862 38.9353C9.47274 38.9409 8.66335 39.051 7.87793 39.2628C9.85061 39.7909 11.5939 40.955 12.8375 42.5748C14.0811 44.1946 14.7555 46.1795 14.756 48.2217V52.4024C14.7547 52.4821 14.7378 52.5608 14.7061 52.634C14.6745 52.7071 14.6287 52.7733 14.5714 52.8288C14.5142 52.8842 14.4466 52.9279 14.3725 52.9572C14.2983 52.9865 14.2192 53.001 14.1395 52.9997Z" fill="black"/>
        <path d="M37.5383 12.0396C37.5383 8.32119 33.2131 5.29638 27.7318 5.03629C26.046 2.64727 22.4143 1 18.1854 1C17.3693 1.0044 16.5547 1.06879 15.7482 1.19266C17.2114 1.51886 18.6403 1.98334 20.0157 2.57984C22.9781 3.88009 25.6483 5.76393 27.8667 8.11889C28.9706 8.21244 30.0207 8.63659 30.8799 9.336C31.7392 10.0354 32.3676 10.9776 32.6832 12.0396C32.9958 13.2941 32.8596 14.6184 32.2984 15.7831C31.7372 16.9478 30.7862 17.8795 29.6103 18.4167L29.3309 18.8887L34.7447 22.058L33.8681 17.3474C36.1223 16.0566 37.5383 14.1589 37.5383 12.0396Z" fill="black"/>
        <path d="M16.9331 32.2883C16.9329 31.2077 16.6692 30.1434 16.1649 29.1876C15.6606 28.2318 14.9309 27.4134 14.039 26.8033C13.147 26.1932 12.1198 25.8097 11.0462 25.6862C9.97265 25.5626 8.88515 25.7027 7.87793 26.0942C9.12568 26.5799 10.1976 27.4311 10.9534 28.5364C11.7092 29.6416 12.1136 30.9494 12.1136 32.2883C12.1136 33.6273 11.7092 34.935 10.9534 36.0402C10.1976 37.1455 9.12568 37.9967 7.87793 38.4824C8.88515 38.874 9.97265 39.014 11.0462 38.8905C12.1198 38.7669 13.147 38.3834 14.039 37.7733C14.9309 37.1632 15.6606 36.3448 16.1649 35.389C16.6692 34.4333 16.9329 33.369 16.9331 32.2883Z" fill="black"/>
    </g>
    <g style="mix-blend-mode:overlay">
        <path d="M25.6031 48.2217V52.4024C25.6056 52.5617 25.6707 52.7136 25.7842 52.8254C25.8978 52.9371 26.0507 52.9997 26.21 52.9997H31.0265C30.8672 52.9997 30.7143 52.9371 30.6008 52.8254C30.4872 52.7136 30.4222 52.5617 30.4197 52.4024V48.2217C30.4179 46.1846 31.0867 44.2036 32.3228 42.5844C33.559 40.9653 35.2937 39.798 37.2592 39.2628C36.4739 39.0502 35.6644 38.9401 34.8509 38.9353C32.3955 38.948 30.0448 39.9317 28.3122 41.6716C26.5795 43.4115 25.6056 45.7662 25.6031 48.2217Z" fill="white"/>
        <path d="M1 48.2217V52.4024C1.00253 52.5617 1.06758 52.7136 1.18112 52.8254C1.29466 52.9371 1.44759 52.9997 1.60689 52.9997H6.42346C6.26416 52.9997 6.11123 52.9371 5.99769 52.8254C5.88415 52.7136 5.8191 52.5617 5.81657 52.4024V48.2217C5.8171 46.1795 6.49146 44.1946 7.73505 42.5748C8.97863 40.955 10.722 39.7909 12.6946 39.2628C11.9094 39.0502 11.0999 38.9401 10.2863 38.9353C7.82424 38.9379 5.4637 39.9171 3.72273 41.658C1.98175 43.399 1.00255 45.7595 1 48.2217Z" fill="white"/>
        <path d="M8.45589 32.2885C8.45744 30.9495 8.86277 29.6421 9.61894 28.5371C10.3751 27.432 11.4469 26.5807 12.6945 26.0944C11.6871 25.7022 10.5993 25.5617 9.52532 25.685C8.45136 25.8082 7.42368 26.1916 6.53135 26.8018C5.63902 27.412 4.90899 28.2306 4.40453 29.1867C3.90007 30.1428 3.63641 31.2075 3.63641 32.2885C3.63641 33.3695 3.90007 34.4342 4.40453 35.3903C4.90899 36.3464 5.63902 37.165 6.53135 37.7752C7.42368 38.3854 8.45136 38.7687 9.52532 38.892C10.5993 39.0152 11.6871 38.8747 12.6945 38.4826C11.4462 37.9973 10.3736 37.1463 9.61726 36.041C8.86092 34.9357 8.45612 33.6278 8.45589 32.2885Z" fill="white"/>
        <path d="M37.259 26.0944C36.2516 25.7022 35.1638 25.5617 34.0898 25.685C33.0159 25.8082 31.9882 26.1916 31.0959 26.8018C30.2035 27.412 29.4735 28.2306 28.969 29.1867C28.4646 30.1428 28.2009 31.2075 28.2009 32.2885C28.2009 33.3695 28.4646 34.4342 28.969 35.3903C29.4735 36.3464 30.2035 37.165 31.0959 37.7752C31.9882 38.3854 33.0159 38.7687 34.0898 38.892C35.1638 39.0152 36.2516 38.8747 37.259 38.4826C36.0112 37.9969 34.9393 37.1456 34.1835 36.0404C33.4277 34.9352 33.0233 33.6274 33.0233 32.2885C33.0233 30.9495 33.4277 29.6418 34.1835 28.5365C34.9393 27.4313 36.0112 26.5801 37.259 26.0944Z" fill="white"/>
        <path d="M29.0516 18.8213C26.4034 18.4722 23.9898 17.1207 22.3084 15.0451C21.7401 15.0451 21.191 14.9584 20.6515 14.8813L18.4841 16.1529C20.8822 18.1234 23.9171 19.151 27.019 19.0429C27.699 19.0389 28.378 18.9906 29.0516 18.8984C29.0493 18.8727 29.0493 18.8469 29.0516 18.8213Z" fill="white"/>
        <path d="M15.8061 14.8814L16.0951 13.3304C13.8698 12.0396 12.4634 10.1515 12.4634 8.03219C12.4634 4.70876 15.9217 1.93441 20.5648 1.19266C19.7776 1.06918 18.9823 1.00478 18.1854 1C12.4056 1 7.64679 4.1404 7.64679 8.03219C7.64679 10.1515 9.05323 12.0396 11.2785 13.3304L10.4019 18.0507L15.8061 14.8814Z" fill="white"/>
    </g>
    <path d="M10.2862 38.9353C13.9572 38.9353 16.9331 35.9594 16.9331 32.2885C16.9331 28.6175 13.9572 25.6416 10.2862 25.6416C6.61525 25.6416 3.63934 28.6175 3.63934 32.2885C3.63934 35.9594 6.61525 38.9353 10.2862 38.9353Z" stroke="black" stroke-width="2" stroke-linecap="round" stroke-linejoin="round"/>
    <path d="M10.2862 38.9355C12.7491 38.9355 15.1111 39.9139 16.8527 41.6555C18.5942 43.397 19.5726 45.759 19.5726 48.2219V52.393C19.5726 52.4727 19.5569 52.5517 19.5264 52.6253C19.4959 52.6989 19.4512 52.7658 19.3948 52.8222C19.3385 52.8785 19.2716 52.9232 19.1979 52.9537C19.1243 52.9842 19.0454 52.9999 18.9657 52.9999H1.61641C1.53671 52.9999 1.45779 52.9842 1.38416 52.9537C1.31053 52.9232 1.24363 52.8785 1.18727 52.8222C1.13092 52.7658 1.08622 52.6989 1.05572 52.6253C1.02522 52.5517 1.00952 52.4727 1.00952 52.393V48.2219C1.00952 45.7607 1.98658 43.4001 3.72602 41.6589C5.46547 39.9176 7.82501 38.9381 10.2862 38.9355Z" stroke="black" stroke-width="2" stroke-linecap="round" stroke-linejoin="round"/>
    <path d="M34.8893 38.9353C38.5603 38.9353 41.5362 35.9594 41.5362 32.2885C41.5362 28.6175 38.5603 25.6416 34.8893 25.6416C31.2183 25.6416 28.2424 28.6175 28.2424 32.2885C28.2424 35.9594 31.2183 38.9353 34.8893 38.9353Z" stroke="black" stroke-width="2" stroke-linecap="round" stroke-linejoin="round"/>
    <path d="M43.5686 52.9999H26.2289C26.0696 53 25.9167 52.9373 25.8031 52.8256C25.6896 52.7139 25.6245 52.562 25.622 52.4027V48.2219C25.6246 45.7598 26.6038 43.3992 28.3447 41.6583C30.0857 39.9173 32.4462 38.9381 34.9084 38.9355C37.3705 38.9381 39.731 39.9173 41.472 41.6583C43.213 43.3992 44.1922 45.7598 44.1947 48.2219V52.4027C44.1935 52.4832 44.1762 52.5627 44.1439 52.6365C44.1117 52.7103 44.065 52.7769 44.0068 52.8325C43.9485 52.8881 43.8797 52.9315 43.8045 52.9603C43.7293 52.989 43.6491 53.0025 43.5686 52.9999Z" stroke="black" stroke-width="2" stroke-linecap="round" stroke-linejoin="round"/>
    <path d="M33.9068 17.3473L34.7834 22.0579L29.3696 18.8886C28.5827 19.0136 27.787 19.0748 26.9902 19.0716C22.7805 19.0716 19.1392 17.434 17.463 15.0449H18.1855C24.0135 15.0449 28.782 11.9045 28.782 8.01275C28.7823 6.9379 28.4454 5.89003 27.8186 5.01685C33.2999 5.25767 37.6252 8.30175 37.6252 12.0201C37.5385 14.1587 36.1224 16.0564 33.9068 17.3473Z" stroke="black" stroke-width="2" stroke-linecap="round" stroke-linejoin="round"/>
    <path d="M31.4791 10.219H28.3868" stroke="black" stroke-width="2" stroke-linecap="round" stroke-linejoin="round"/>
    <path d="M31.4793 13.5327H25.0059" stroke="black" stroke-width="2" stroke-linecap="round" stroke-linejoin="round"/>
    <path d="M28.7339 8.03221C28.7339 11.8855 24.0136 15.0644 18.1856 15.0644H17.4631C16.8947 15.0644 16.3456 14.9777 15.8062 14.9006L10.402 18.0699L11.2786 13.3497C9.05335 12.0589 7.64691 10.1708 7.64691 8.05148C7.64691 4.19822 12.3672 1.01929 18.1856 1.01929C22.4145 1.01929 26.0462 2.66655 27.732 5.05557C28.3687 5.91879 28.719 6.95971 28.7339 8.03221Z" stroke="black" stroke-width="2" stroke-linecap="round" stroke-linejoin="round"/>
    <path d="M13.6676 6.2019H22.7035" stroke="black" stroke-width="2" stroke-linecap="round" stroke-linejoin="round"/>
    <path d="M13.6676 9.52539H22.7035" stroke="black" stroke-width="2" stroke-linecap="round" stroke-linejoin="round"/>
</svg>
