<svg width="32" height="32" viewBox="0 0 32 32" fill="none" xmlns="http://www.w3.org/2000/svg">
<mask id="mask0_45_5061" style="mask-type:alpha" maskUnits="userSpaceOnUse" x="0" y="0" width="32" height="32">
<rect width="32" height="32" fill="#D9D9D9"/>
</mask>
<g mask="url(#mask0_45_5061)">
<path d="M5.33366 28C4.60033 28 3.97255 27.7389 3.45033 27.2167C2.9281 26.6944 2.66699 26.0667 2.66699 25.3333V4L4.90033 6.23333L7.10033 4L9.33366 6.23333L11.567 4L13.767 6.23333L16.0003 4L18.2337 6.23333L20.4337 4L22.667 6.23333L24.9003 4L27.1003 6.23333L29.3337 4V25.3333C29.3337 26.0667 29.0725 26.6944 28.5503 27.2167C28.0281 27.7389 27.4003 28 26.667 28H5.33366ZM5.33366 25.3333H14.667V17.3333H5.33366V25.3333ZM17.3337 25.3333H26.667V22.6667H17.3337V25.3333ZM17.3337 20H26.667V17.3333H17.3337V20ZM5.33366 14.6667H26.667V10.6667H5.33366V14.6667Z" fill="#7F1A22"/>
</g>
</svg>
