<svg width="52" height="52" viewBox="0 0 52 52" fill="none" xmlns="http://www.w3.org/2000/svg">
    <path d="M20.9301 37.2857V39.382C20.9301 39.971 21.1635 40.536 21.5793 40.9533C21.995 41.3706 22.5592 41.6061 23.1482 41.6082C23.4259 41.6113 23.7016 41.5617 23.9607 41.462V43.8101C23.9607 45.4521 23.3084 47.0269 22.1473 48.188C20.9863 49.349 19.4115 50.0013 17.7695 50.0013C17.3454 50.0015 16.9382 49.8358 16.6345 49.5398C16.3309 49.2438 16.1551 48.8408 16.1445 48.417V30.3145H23.2782V30.5826L23.9201 30.9401V35.2057C23.661 35.106 23.3852 35.0563 23.1076 35.0595C22.5186 35.0616 21.9544 35.2971 21.5386 35.7144C21.1229 36.1316 20.8895 36.6967 20.8895 37.2857" fill="#565EEC"/>
    <path d="M12.1874 13.52V27.625H10.8955C9.59663 27.6272 8.34951 27.1161 7.42576 26.203C6.50202 25.2899 5.97648 24.0488 5.96362 22.75V18.4519C5.96362 17.1439 6.48323 15.8894 7.40814 14.9645C8.33304 14.0396 9.58748 13.52 10.8955 13.52H12.1874Z" fill="#B98EFF"/>
    <path d="M23.3025 10.8711V30.3142H14.885C14.171 30.3142 13.4861 30.0311 12.9804 29.527C12.4748 29.0229 12.1897 28.3389 12.1875 27.6248V13.5198C12.2003 12.8129 12.4901 12.1392 12.9946 11.6439C13.4991 11.1485 14.1779 10.871 14.885 10.8711H23.3025Z" fill="#565EEC"/>
    <path d="M42.2501 4.72859V36.4161C42.2549 36.8949 42.1343 37.3667 41.9005 37.7846C41.6666 38.2025 41.3276 38.5519 40.9169 38.7983C40.5063 39.0447 40.0384 39.1794 39.5596 39.1891C39.0809 39.1988 38.6079 39.0831 38.1876 38.8536L23.9445 30.9398L23.3026 30.5823V10.5623L38.1876 2.34797C38.6033 2.11824 39.0716 2.00058 39.5465 2.00656C40.0214 2.01255 40.4866 2.14196 40.8964 2.38208C41.3062 2.62221 41.6464 2.9648 41.8838 3.3762C42.1211 3.78759 42.2474 4.25365 42.2501 4.72859Z" fill="#B98EFF"/>
    <path d="M46.0362 17.7695V23.457C46.0255 24.4511 45.6208 25.4004 44.911 26.0965C44.2012 26.7927 43.2442 27.1787 42.25 27.1701V14.0076C42.7439 14.0065 43.2332 14.1031 43.6897 14.2919C44.1461 14.4807 44.5607 14.7579 44.9096 15.1075C45.2585 15.4571 45.5348 15.8723 45.7225 16.3292C45.9103 16.786 46.0059 17.2755 46.0037 17.7695" fill="#A4BCFF"/>
    <path d="M25.3746 37.2857V39.382C25.371 39.8288 25.2325 40.2641 24.9774 40.6309C24.7222 40.9977 24.3622 41.2788 23.9446 41.4376C23.6854 41.5373 23.4097 41.5869 23.1321 41.5838C22.543 41.5817 21.9789 41.3462 21.5631 40.9289C21.1474 40.5116 20.9139 39.9466 20.9139 39.3576V37.2857C20.9139 36.6967 21.1474 36.1317 21.5631 35.7144C21.9789 35.2971 22.543 35.0616 23.1321 35.0595C23.4097 35.0564 23.6854 35.106 23.9446 35.2057C24.3661 35.3659 24.7288 35.6509 24.9843 36.0225C25.2398 36.3941 25.3759 36.8347 25.3746 37.2857Z" fill="#A4BCFF"/>
    <path d="M18.2243 30.3145H16.1687V48.417C16.1793 48.8408 16.3552 49.2438 16.6588 49.5398C16.9624 49.8358 17.3697 50.0015 17.7937 50.0013C18.2583 49.9994 18.7214 49.9476 19.175 49.847C18.9064 49.7154 18.6793 49.5123 18.5187 49.26C18.3582 49.0077 18.2704 48.716 18.265 48.417V30.3145" fill="#4045AE"/>
    <path d="M42.25 36.4489C42.2503 37.0758 42.0348 37.6837 41.6398 38.1705C41.2447 38.6573 40.6942 38.9932 40.0806 39.122C40.6949 38.9946 41.2463 38.659 41.6416 38.172C42.0369 37.6849 42.2518 37.0762 42.25 36.4489ZM12.1875 27.6251H10.8956C10.2249 27.6241 9.56145 27.4867 8.94549 27.2213C8.32953 26.9559 7.77395 26.5681 7.3125 26.0814C7.77138 26.583 8.3301 26.983 8.95277 27.2559C9.57544 27.5287 10.2483 27.6683 10.9281 27.6657H12.1875C12.1925 28.0822 12.2951 28.4918 12.487 28.8614C12.6789 29.2311 12.9548 29.5507 13.2925 29.7945C12.9516 29.5444 12.6741 29.2178 12.4822 28.8411C12.2903 28.4644 12.1894 28.0479 12.1875 27.6251Z" fill="#BDBBBC"/>
    <path d="M23.7577 30.8342L23.9364 30.9399H23.9446L23.7577 30.8342Z" fill="#4045AE"/>
    <path d="M5.96362 19.2236V22.7499C5.96358 23.3949 6.09153 24.0335 6.34008 24.6287C6.58862 25.2239 6.9528 25.7639 7.41153 26.2173C7.87025 26.6707 8.4144 27.0286 9.01245 27.2702C9.61049 27.5119 10.2505 27.6324 10.8955 27.6249H12.1874V24.1474H10.8874C9.58151 24.1474 8.32914 23.6286 7.40576 22.7052C6.48237 21.7819 5.96362 20.5295 5.96362 19.2236Z" fill="#8968BC"/>
    <path d="M12.1875 24.1882V27.6251C12.1982 28.3335 12.4871 29.0092 12.9918 29.5063C13.4965 30.0034 14.1766 30.2821 14.885 30.282H23.3025V26.8126H14.885C14.1814 26.8149 13.505 26.5415 13.0007 26.0509C12.4964 25.5603 12.2045 24.8916 12.1875 24.1882Z" fill="#4045AE"/>
    <path d="M23.3026 26.8125V30.3306V30.5987L23.7576 30.8506L23.9445 30.9562L28.5676 33.5156L38.1876 38.8456C38.5932 39.0692 39.0488 39.1866 39.512 39.1869C39.7063 39.1898 39.9001 39.168 40.0889 39.1219C40.7009 38.9915 41.2496 38.6548 41.643 38.1682C42.0365 37.6816 42.2508 37.0745 42.2501 36.4488V33.0444C42.2288 33.5101 42.0893 33.9627 41.8447 34.3595C41.6002 34.7564 41.2586 35.0845 40.8522 35.3129C40.4458 35.5413 39.988 35.6625 39.5218 35.665C39.0556 35.6676 38.5965 35.5514 38.1876 35.3275L23.9364 27.4219L23.3026 27.0644V26.8125Z" fill="#8968BC"/>
    <path d="M46.0362 19.9062V23.4162C46.0363 23.9119 45.9381 24.4027 45.7474 24.8603C45.5568 25.3179 45.2774 25.7331 44.9253 26.0821C44.5733 26.4311 44.1557 26.7069 43.6965 26.8936C43.2373 27.0804 42.7457 27.1743 42.25 27.17C43.2456 27.17 44.2003 26.7745 44.9043 26.0706C45.6083 25.3666 46.0037 24.4118 46.0037 23.4162V19.9062" fill="#BDBBBC"/>
    <path d="M46.0362 20.0117C46.0086 20.9945 45.5965 21.9272 44.8885 22.6094C44.1805 23.2916 43.2331 23.6687 42.25 23.6598V27.1698C43.2456 27.1698 44.2003 26.7744 44.9043 26.0704C45.6083 25.3664 46.0037 24.4117 46.0037 23.4161V20.0117" fill="#798ABC"/>
    <path d="M23.1479 35.0595C22.5589 35.0616 21.9947 35.2971 21.579 35.7144C21.1632 36.1317 20.9298 36.6967 20.9298 37.2857V39.382C20.9298 39.971 21.1632 40.536 21.579 40.9533C21.9947 41.3706 22.5589 41.6061 23.1479 41.6082C23.4256 41.6113 23.7013 41.5617 23.9604 41.462H24.0336C23.6345 41.2889 23.2949 41.0028 23.0567 40.639C22.8184 40.2751 22.692 39.8494 22.6929 39.4145V37.2857C22.6925 36.8519 22.8193 36.4275 23.0576 36.0651C23.2958 35.7026 23.6352 35.4179 24.0336 35.2463L23.9604 35.2057C23.7013 35.106 23.4256 35.0564 23.1479 35.0595Z" fill="#798ABC"/>
    <path d="M20.93 37.2857H20.1175V39.382C20.1196 40.1858 20.4393 40.9563 21.007 41.5254C21.5746 42.0946 22.3442 42.4164 23.1481 42.4207C23.5183 42.4291 23.887 42.3713 24.2368 42.2501L23.9443 41.4376H23.1318V43.7857C23.1329 44.4924 22.9945 45.1923 22.7246 45.8453C22.4546 46.4984 22.0585 47.0918 21.5588 47.5914C21.0591 48.0911 20.4658 48.4873 19.8127 48.7572C19.1596 49.0271 18.4597 49.1655 17.7531 49.1645C17.5444 49.1647 17.3437 49.0847 17.1925 48.941C17.0412 48.7973 16.951 48.601 16.9406 48.3926V31.127H23.2618V30.3145H22.4493V30.5826C22.4489 30.7287 22.488 30.8723 22.5623 30.9981C22.6367 31.124 22.7436 31.2274 22.8718 31.2976L23.0912 31.4195V35.2057H23.9037L24.1881 34.4501C23.8443 34.3133 23.4774 34.2443 23.1075 34.247C22.3036 34.2512 21.534 34.573 20.9663 35.1422C20.3987 35.7114 20.079 36.4818 20.0768 37.2857H21.7018C21.7018 37.0573 21.757 36.8323 21.8629 36.6299C21.9688 36.4276 22.1222 36.2539 22.3098 36.1237C22.4975 35.9935 22.7139 35.9108 22.9405 35.8825C23.1672 35.8542 23.3973 35.8813 23.6112 35.9613C23.7338 36.0078 23.8658 36.024 23.9959 36.0084C24.1261 35.9929 24.2506 35.946 24.3587 35.872C24.4678 35.7982 24.5574 35.699 24.6197 35.5829C24.682 35.4669 24.7151 35.3374 24.7162 35.2057V30.9401C24.7251 30.8017 24.6984 30.6633 24.6386 30.5382C24.5789 30.413 24.4881 30.3052 24.375 30.2251L23.7331 29.8676L23.3431 30.5826H24.1556V30.3145C24.1556 30.099 24.07 29.8923 23.9176 29.7399C23.7652 29.5876 23.5586 29.502 23.3431 29.502H16.1687C15.9532 29.502 15.7466 29.5876 15.5942 29.7399C15.4418 29.8923 15.3562 30.099 15.3562 30.3145V48.417C15.3669 49.0564 15.6284 49.666 16.0843 50.1143C16.5403 50.5627 17.1542 50.8139 17.7937 50.8138C18.7137 50.8149 19.625 50.6345 20.4752 50.2829C21.3254 49.9313 22.0979 49.4154 22.7485 48.7649C23.3991 48.1143 23.9149 47.3418 24.2665 46.4916C24.6181 45.6413 24.7985 44.7301 24.7975 43.8101V41.4376C24.7971 41.3058 24.7646 41.1762 24.703 41.0598C24.6414 40.9433 24.5523 40.8437 24.4436 40.7693C24.3348 40.6949 24.2097 40.6481 24.0788 40.6329C23.9479 40.6177 23.8154 40.6345 23.6925 40.682C23.5313 40.742 23.3606 40.7722 23.1887 40.7713C23.0034 40.7713 22.82 40.7347 22.6489 40.6636C22.4778 40.5924 22.3225 40.4881 22.1919 40.3568C22.0613 40.2254 21.9579 40.0695 21.8877 39.898C21.8176 39.7265 21.782 39.5428 21.7831 39.3576V37.2857H20.93Z" fill="black"/>
    <path d="M12.1874 13.52H11.3749V26.8125H10.8955C9.81148 26.8169 8.76978 26.3921 7.99794 25.6309C7.22611 24.8697 6.78685 23.834 6.77613 22.75V18.4519C6.77613 17.3594 7.21013 16.3116 7.98267 15.5391C8.7552 14.7665 9.80298 14.3325 10.8955 14.3325H12.1874V13.52V12.7075H10.8955C10.1408 12.7065 9.39338 12.8543 8.69596 13.1426C7.99854 13.4309 7.36486 13.854 6.83123 14.3876C6.2976 14.9213 5.87452 15.5549 5.58621 16.2524C5.29791 16.9498 5.15006 17.6972 5.15113 18.4519V22.75C5.164 24.2643 5.77514 25.7121 6.85126 26.7776C7.92738 27.843 9.38116 28.4397 10.8955 28.4375H12.1874C12.2943 28.4381 12.4003 28.4176 12.4993 28.3772C12.5983 28.3368 12.6883 28.2772 12.7643 28.2019C12.8396 28.126 12.8991 28.0359 12.9396 27.9369C12.98 27.838 13.0005 27.732 12.9999 27.625V13.52C12.9999 13.3045 12.9143 13.0979 12.7619 12.9455C12.6095 12.7931 12.4029 12.7075 12.1874 12.7075V13.52Z" fill="black"/>
    <path d="M23.3025 10.8714H22.49V29.502H14.885C14.6378 29.5031 14.3929 29.4553 14.1643 29.3615C13.9356 29.2677 13.7277 29.1296 13.5526 28.9552C13.3774 28.7808 13.2385 28.5735 13.1436 28.3453C13.0488 28.117 13 27.8723 13 27.6252V13.5202C13.0085 13.0266 13.2112 12.5563 13.564 12.2111C13.9168 11.8659 14.3914 11.6736 14.885 11.6758H23.3025V10.8633V10.0508H14.885C13.9625 10.0507 13.077 10.4138 12.4201 11.0615C11.7633 11.7093 11.3878 12.5896 11.375 13.512V27.6739C11.3878 28.5956 11.7635 29.4751 12.4206 30.1215C13.0777 30.768 13.9632 31.1293 14.885 31.127H23.3025C23.518 31.127 23.7246 31.0414 23.877 30.8891C24.0294 30.7367 24.115 30.53 24.115 30.3145V10.8714C24.115 10.6559 24.0294 10.4493 23.877 10.2969C23.7246 10.1445 23.518 10.0589 23.3025 10.0589V10.8714Z" fill="black"/>
    <path d="M42.2501 4.72878H41.4376V36.4163C41.4398 36.6743 41.3891 36.93 41.2884 37.1676C41.1878 37.4052 41.0395 37.6196 40.8526 37.7975C40.4857 38.1445 40.0007 38.3391 39.4957 38.3419C39.1712 38.341 38.8524 38.2571 38.5695 38.0982L24.3751 30.225L24.1557 30.1032V11.0744L38.6101 3.05503C38.8927 2.89539 39.2118 2.81143 39.5364 2.81128C40.039 2.81367 40.5216 3.00847 40.8851 3.35565C41.0666 3.53426 41.2094 3.74838 41.3045 3.98464C41.3995 4.2209 41.4449 4.47422 41.4376 4.72878H43.0626C43.0627 4.25281 42.9671 3.78168 42.7814 3.3434C42.5958 2.90512 42.3239 2.50864 41.982 2.17753C41.3135 1.54174 40.4264 1.1869 39.5039 1.18628C38.9152 1.18816 38.3366 1.3391 37.822 1.62503L22.9045 9.88815C22.779 9.9587 22.6745 10.0613 22.6017 10.1855C22.5289 10.3097 22.4904 10.4511 22.4901 10.595V30.5825C22.4897 30.7287 22.5288 30.8723 22.6031 30.9981C22.6775 31.1239 22.7844 31.2274 22.9126 31.2975L23.5626 31.6875L37.8382 39.6013C38.5066 39.9577 39.2711 40.0915 40.0208 39.9834C40.7704 39.8752 41.466 39.5308 42.0064 39C42.3465 38.6689 42.6156 38.2718 42.7972 37.8332C42.9788 37.3945 43.0691 36.9235 43.0626 36.4488V4.76128L42.2501 4.72878Z" fill="black"/>
    <path d="M46.0362 17.7694H45.2237V23.4569C45.213 24.2355 44.894 24.9782 44.3365 25.5219C43.779 26.0657 43.0287 26.3662 42.25 26.3575V27.17H43.0625V14.0075H42.25V14.82C42.6417 14.8156 43.0304 14.8896 43.3932 15.0375C43.7559 15.1854 44.0855 15.4042 44.3625 15.6812C44.6366 15.9554 44.8538 16.281 45.0016 16.6393C45.1494 16.9977 45.2249 17.3817 45.2237 17.7694H46.8487C46.853 16.5522 46.3737 15.3832 45.5162 14.5194C45.0897 14.0926 44.583 13.7544 44.0252 13.5244C43.4674 13.2943 42.8696 13.1768 42.2662 13.1787C42.0508 13.1787 41.8441 13.2643 41.6917 13.4167C41.5394 13.5691 41.4537 13.7757 41.4537 13.9912V27.1537C41.4531 27.2607 41.4736 27.3667 41.5141 27.4657C41.5545 27.5647 41.6141 27.6547 41.6894 27.7306C41.7653 27.8059 41.8553 27.8655 41.9543 27.9059C42.0533 27.9464 42.1593 27.9669 42.2662 27.9662C42.8662 27.9673 43.4605 27.8499 44.0149 27.6208C44.5694 27.3917 45.0732 27.0554 45.4975 26.6312C45.9217 26.207 46.258 25.7032 46.4871 25.1487C46.7162 24.5942 46.8336 23.9999 46.8325 23.4V17.7694H46.0362Z" fill="black"/>
    <path d="M25.3742 37.2856H24.5617V39.3819C24.563 39.668 24.4775 39.9477 24.3165 40.1842C24.1554 40.4206 23.9265 40.6027 23.6598 40.7063C23.4987 40.7663 23.328 40.7966 23.156 40.7956C22.9708 40.7956 22.7873 40.759 22.6163 40.6879C22.4452 40.6167 22.2899 40.5125 22.1592 40.3811C22.0286 40.2497 21.9252 40.0938 21.8551 39.9223C21.7849 39.7508 21.7493 39.5672 21.7504 39.3819V37.2856C21.7504 37.0573 21.8056 36.8322 21.9115 36.6299C22.0174 36.4275 22.1708 36.2538 22.3584 36.1236C22.5461 35.9935 22.7625 35.9107 22.9891 35.8824C23.2158 35.8541 23.4459 35.8812 23.6598 35.9613C23.8449 36.0356 24.0134 36.1461 24.1554 36.2863C24.4198 36.5518 24.5688 36.9109 24.5698 37.2856H26.1948C26.1956 36.671 26.0096 36.0706 25.6613 35.5642C25.3131 35.0578 24.819 34.6692 24.2448 34.45C23.9011 34.3133 23.5341 34.2443 23.1642 34.2469C22.3603 34.2512 21.5907 34.573 21.0231 35.1421C20.4554 35.7113 20.1357 36.4818 20.1335 37.2856V39.3819C20.1357 40.1858 20.4554 40.9562 21.0231 41.5254C21.5907 42.0946 22.3603 42.4164 23.1642 42.4206C23.5289 42.4271 23.8919 42.3693 24.2367 42.25C24.8144 42.0327 25.3117 41.6436 25.6618 41.1353C26.0118 40.6269 26.1978 40.0235 26.1948 39.4063V37.2856H25.3742Z" fill="black"/>
    <path d="M31.2811 9.44946L28.2911 11.1963C28.1983 11.2521 28.1311 11.3421 28.1038 11.4468C28.0764 11.5516 28.0912 11.6629 28.1449 11.757C28.171 11.8034 28.2061 11.8442 28.2483 11.8768C28.2904 11.9095 28.3387 11.9333 28.3902 11.947C28.4417 11.9606 28.4955 11.9638 28.5482 11.9562C28.601 11.9487 28.6517 11.9307 28.6974 11.9032L31.6874 10.1482C31.7339 10.1221 31.7746 10.087 31.8073 10.0448C31.8399 10.0027 31.8638 9.95443 31.8774 9.9029C31.8911 9.85137 31.8942 9.79763 31.8867 9.74486C31.8792 9.69209 31.8611 9.64137 31.8336 9.59571C31.7779 9.50506 31.6895 9.43931 31.5866 9.41209C31.4838 9.38486 31.3744 9.39824 31.2811 9.44946ZM36.1561 6.58133L32.6461 8.62883C32.5943 8.65224 32.548 8.68626 32.5102 8.72869C32.4724 8.77112 32.4439 8.82102 32.4265 8.87516C32.4092 8.92929 32.4034 8.98647 32.4096 9.04298C32.4157 9.09949 32.4337 9.15408 32.4622 9.20322C32.4908 9.25236 32.5294 9.29496 32.5755 9.32826C32.6215 9.36156 32.6741 9.38483 32.7297 9.39655C32.7853 9.40827 32.8428 9.40819 32.8984 9.39631C32.9539 9.38443 33.0064 9.36101 33.0524 9.32758L36.603 7.31258C36.6548 7.28917 36.7011 7.25515 36.739 7.21272C36.7768 7.17029 36.8053 7.12039 36.8226 7.06625C36.8399 7.01212 36.8457 6.95495 36.8396 6.89844C36.8334 6.84193 36.8155 6.78734 36.7869 6.73819C36.7583 6.68905 36.7198 6.64645 36.6737 6.61315C36.6276 6.57985 36.5751 6.55658 36.5195 6.54486C36.4639 6.53314 36.4064 6.53322 36.3508 6.5451C36.2952 6.55698 36.2427 6.5804 36.1968 6.61383L36.1561 6.58133Z" fill="white"/>
</svg>
