<svg width="32" height="32" viewBox="0 0 32 32" fill="none" xmlns="http://www.w3.org/2000/svg">
<path d="M24.535 30H6.38001C6.19813 29.9993 6.01816 29.9629 5.85037 29.8927C5.68259 29.8225 5.53027 29.7199 5.40213 29.5908C5.27398 29.4617 5.17252 29.3087 5.10352 29.1404C5.03452 28.9721 4.99935 28.7919 5.00001 28.61V3.45C5.00133 3.08308 5.14767 2.73157 5.40712 2.47212C5.66657 2.21266 6.01809 2.06632 6.38501 2.065H24.535C24.9019 2.06632 25.2534 2.21266 25.5129 2.47212C25.7724 2.73157 25.9187 3.08308 25.92 3.45V28.61C25.9207 28.7923 25.8853 28.9729 25.816 29.1416C25.7467 29.3102 25.6448 29.4634 25.5161 29.5926C25.3875 29.7217 25.2345 29.8242 25.0662 29.8941C24.8978 29.964 24.7173 30 24.535 30ZM6.38001 3.065C6.27877 3.06632 6.18212 3.10746 6.111 3.17952C6.03988 3.25158 6 3.34875 6.00001 3.45V28.61C6.00001 28.7121 6.04057 28.81 6.11277 28.8822C6.18497 28.9544 6.2829 28.995 6.38501 28.995H24.535C24.5856 28.995 24.6356 28.985 24.6823 28.9657C24.7291 28.9463 24.7715 28.918 24.8072 28.8822C24.843 28.8465 24.8714 28.804 24.8907 28.7573C24.9101 28.7106 24.92 28.6606 24.92 28.61V3.45C24.92 3.39944 24.9101 3.34938 24.8907 3.30267C24.8714 3.25596 24.843 3.21352 24.8072 3.17777C24.7715 3.14202 24.7291 3.11366 24.6823 3.09431C24.6356 3.07496 24.5856 3.065 24.535 3.065H6.38001Z" fill="#7F1A22"/>
<path d="M10.2152 13.4C10.0059 13.401 9.79886 13.3569 9.60816 13.2706C9.41746 13.1843 9.24762 13.0579 9.11024 12.9C8.87124 12.6375 8.73924 12.295 8.74024 11.94C8.74667 11.5508 8.90414 11.1793 9.17938 10.9041C9.45461 10.6289 9.82605 10.4714 10.2152 10.465C10.4089 10.4641 10.6008 10.5022 10.7794 10.5769C10.9581 10.6516 11.1199 10.7615 11.2552 10.9C11.5299 11.1769 11.686 11.5499 11.6902 11.94C11.6876 12.329 11.5309 12.7011 11.2544 12.9747C10.9779 13.2484 10.6042 13.4013 10.2152 13.4Z" fill="#7F1A22"/>
<path d="M13.0555 10.725C12.858 10.7216 12.6631 10.6791 12.4821 10.6002C12.301 10.5213 12.1374 10.4074 12.0005 10.265C11.8367 10.0889 11.7184 9.87541 11.656 9.64315C11.5936 9.41088 11.5889 9.16688 11.6424 8.9324C11.6959 8.69792 11.8059 8.48007 11.9628 8.29784C12.1198 8.1156 12.3189 7.97451 12.5429 7.88686C12.7668 7.7992 13.0088 7.76764 13.2478 7.79492C13.4867 7.8222 13.7154 7.9075 13.9138 8.04338C14.1123 8.17927 14.2745 8.36161 14.3863 8.57453C14.4981 8.78746 14.5562 9.02449 14.5555 9.265C14.561 9.48445 14.5093 9.70157 14.4055 9.895C14.2837 10.1482 14.0917 10.3611 13.8524 10.5083C13.613 10.6555 13.3364 10.7307 13.0555 10.725Z" fill="#7F1A22"/>
<path d="M10.9003 11.755C10.8317 11.7548 10.7639 11.7404 10.7011 11.7129C10.6383 11.6854 10.5819 11.6452 10.5353 11.595C10.49 11.5469 10.4547 11.4903 10.4314 11.4284C10.4082 11.3666 10.3974 11.3008 10.3997 11.2348C10.402 11.1688 10.4174 11.1038 10.445 11.0438C10.4725 10.9838 10.5117 10.9298 10.5603 10.885L12.0003 9.55498C12.0487 9.51003 12.1056 9.47512 12.1676 9.45227C12.2296 9.42943 12.2955 9.4191 12.3615 9.42189C12.4275 9.42468 12.4923 9.44053 12.5522 9.46853C12.6121 9.49652 12.6658 9.5361 12.7103 9.58498C12.7995 9.68257 12.8465 9.81155 12.8408 9.94368C12.8352 10.0758 12.7775 10.2003 12.6803 10.29L11.2403 11.62C11.148 11.7063 11.0266 11.7545 10.9003 11.755Z" fill="#7F1A22"/>
<path d="M16.3897 12.25C16.1946 12.254 16.0006 12.2191 15.8191 12.1473C15.6376 12.0755 15.4722 11.9683 15.3326 11.832C15.193 11.6956 15.0819 11.5328 15.0058 11.353C14.9298 11.1733 14.8903 10.9802 14.8897 10.785C14.8879 10.5713 14.9377 10.3604 15.0347 10.17C15.1514 9.91522 15.3387 9.69924 15.5744 9.54769C15.8102 9.39614 16.0844 9.31539 16.3647 9.31502C16.5583 9.31414 16.7502 9.35219 16.9289 9.42692C17.1075 9.50164 17.2693 9.61152 17.4047 9.75002C17.612 9.95424 17.7535 10.2158 17.8112 10.501C17.8688 10.7862 17.8399 11.0822 17.7281 11.3509C17.6163 11.6196 17.4268 11.8487 17.1839 12.0089C16.9409 12.1691 16.6557 12.2531 16.3647 12.25H16.3897Z" fill="#7F1A22"/>
<path d="M19.77 8.78998C19.3983 8.79184 19.0401 8.65037 18.77 8.39498C18.6241 8.26225 18.5063 8.10151 18.4238 7.92233C18.3413 7.74315 18.2957 7.54919 18.2897 7.35201C18.2838 7.15484 18.3175 6.95847 18.389 6.77462C18.4605 6.59077 18.5683 6.42319 18.7059 6.28187C18.8436 6.14054 19.0082 6.02837 19.1901 5.95202C19.372 5.87567 19.5674 5.83672 19.7647 5.83747C19.962 5.83823 20.1571 5.87869 20.3384 5.95643C20.5197 6.03417 20.6835 6.1476 20.82 6.28998C21.0857 6.56554 21.2359 6.93224 21.24 7.31498C21.2336 7.70332 21.0768 8.07403 20.8027 8.34913C20.5285 8.62423 20.1583 8.78226 19.77 8.78998Z" fill="#7F1A22"/>
<path d="M17.0751 10.6C16.9768 10.5996 16.8808 10.5702 16.7991 10.5155C16.7174 10.4609 16.6537 10.3834 16.6158 10.2927C16.5779 10.202 16.5676 10.1021 16.5861 10.0056C16.6047 9.90907 16.6513 9.82016 16.7201 9.74997L18.7501 7.67997C18.796 7.63302 18.8508 7.59559 18.9112 7.5698C18.9717 7.54402 19.0366 7.53039 19.1023 7.52969C19.168 7.52899 19.2332 7.54125 19.2941 7.56574C19.3551 7.59024 19.4106 7.62651 19.4576 7.67247C19.5045 7.71843 19.542 7.77319 19.5677 7.83362C19.5935 7.89405 19.6072 7.95897 19.6079 8.02467C19.6086 8.09036 19.5963 8.15556 19.5718 8.21652C19.5473 8.27748 19.511 8.33302 19.4651 8.37997L17.4351 10.45C17.3882 10.4978 17.3322 10.5357 17.2703 10.5615C17.2085 10.5873 17.1421 10.6004 17.0751 10.6Z" fill="#7F1A22"/>
<path d="M15.5002 10.89C15.4295 10.8897 15.3596 10.8743 15.2952 10.845L13.7152 10.115C13.6513 10.0904 13.593 10.053 13.5442 10.005C13.4953 9.95695 13.4568 9.89941 13.4311 9.83591C13.4054 9.77241 13.393 9.7043 13.3947 9.63581C13.3964 9.56732 13.4122 9.49992 13.441 9.43777C13.4698 9.37563 13.5111 9.32007 13.5623 9.27456C13.6135 9.22904 13.6736 9.19453 13.7387 9.17317C13.8037 9.15182 13.8725 9.14406 13.9408 9.1504C14.009 9.15673 14.0752 9.17701 14.1352 9.20999L15.7102 9.93499C15.8143 9.98243 15.899 10.0641 15.9502 10.1665C16.0013 10.2688 16.0158 10.3856 15.9913 10.4974C15.9667 10.6091 15.9045 10.7091 15.8152 10.7805C15.7258 10.852 15.6146 10.8906 15.5002 10.89Z" fill="#7F1A22"/>
<path d="M22.685 17.13H7.5C7.36739 17.13 7.24021 17.0773 7.14645 16.9836C7.05268 16.8898 7 16.7626 7 16.63C7 16.4974 7.05268 16.3702 7.14645 16.2765C7.24021 16.1827 7.36739 16.13 7.5 16.13H22.685C22.8176 16.13 22.9448 16.1827 23.0386 16.2765C23.1323 16.3702 23.185 16.4974 23.185 16.63C23.185 16.7626 23.1323 16.8898 23.0386 16.9836C22.9448 17.0773 22.8176 17.13 22.685 17.13Z" fill="#7F1A22"/>
<path d="M22.685 20.11H7.5C7.36739 20.11 7.24021 20.0573 7.14645 19.9635C7.05268 19.8698 7 19.7426 7 19.61C7 19.4774 7.05268 19.3502 7.14645 19.2564C7.24021 19.1627 7.36739 19.11 7.5 19.11H22.685C22.8176 19.11 22.9448 19.1627 23.0386 19.2564C23.1323 19.3502 23.185 19.4774 23.185 19.61C23.185 19.7426 23.1323 19.8698 23.0386 19.9635C22.9448 20.0573 22.8176 20.11 22.685 20.11Z" fill="#7F1A22"/>
<path d="M22.685 23.09H7.5C7.36739 23.09 7.24021 23.0373 7.14645 22.9436C7.05268 22.8498 7 22.7226 7 22.59C7 22.4574 7.05268 22.3302 7.14645 22.2365C7.24021 22.1427 7.36739 22.09 7.5 22.09H22.685C22.8176 22.09 22.9448 22.1427 23.0386 22.2365C23.1323 22.3302 23.185 22.4574 23.185 22.59C23.185 22.7226 23.1323 22.8498 23.0386 22.9436C22.9448 23.0373 22.8176 23.09 22.685 23.09Z" fill="#7F1A22"/>
<path d="M22.685 26.07H7.5C7.36739 26.07 7.24021 26.0173 7.14645 25.9236C7.05268 25.8298 7 25.7026 7 25.57C7 25.4374 7.05268 25.3102 7.14645 25.2165C7.24021 25.1227 7.36739 25.07 7.5 25.07H22.685C22.8176 25.07 22.9448 25.1227 23.0386 25.2165C23.1323 25.3102 23.185 25.4374 23.185 25.57C23.185 25.7026 23.1323 25.8298 23.0386 25.9236C22.9448 26.0173 22.8176 26.07 22.685 26.07Z" fill="#7F1A22"/>
</svg>
