<svg width="52" height="52" viewBox="0 0 52 52" fill="none" xmlns="http://www.w3.org/2000/svg">
    <path d="M21.125 29.6724C21.1201 30.1625 20.9908 30.6432 20.7492 31.0696C20.5076 31.4959 20.1617 31.8539 19.7438 32.1099C19.2842 32.4154 18.7438 32.5767 18.1919 32.573C17.9703 32.5782 17.7489 32.5536 17.5338 32.4999C16.8937 32.3381 16.3245 31.9707 15.9135 31.454C15.5025 30.9373 15.2725 30.3 15.2588 29.6399C15.2631 28.8633 15.5735 28.1197 16.1226 27.5706C16.6717 27.0215 17.4153 26.7111 18.1919 26.7068C18.7572 26.7054 19.3107 26.8692 19.7841 27.1781C20.2576 27.487 20.6305 27.9276 20.8569 28.4455C21.0413 28.8278 21.1331 29.2481 21.125 29.6724Z" fill="#F5C287"/>
    <path d="M33.9788 29.6726C33.9755 30.162 33.8477 30.6426 33.6075 31.069C33.3673 31.4954 33.0225 31.8537 32.6056 32.1101C32.146 32.4156 31.6056 32.5769 31.0538 32.5732C30.6769 32.5766 30.3034 32.5019 29.9569 32.3539C29.8122 32.303 29.6754 32.2319 29.5506 32.1426C29.1137 31.8875 28.7516 31.522 28.5006 31.0828C28.2496 30.6435 28.1186 30.146 28.1206 29.6401V29.4614C28.176 28.7094 28.5197 28.0078 29.0799 27.5031C29.6401 26.9984 30.3735 26.7295 31.1272 26.7526C31.8809 26.7757 32.5965 27.0889 33.1248 27.6269C33.6531 28.1649 33.9532 28.8861 33.9625 29.6401" fill="#F5C287"/>
    <path d="M29.5506 32.175C27.9384 32.5835 26.5485 33.6034 25.675 35.0187C25.1425 35.84 24.8112 36.7753 24.7081 37.7487C24.6032 36.7782 24.2781 35.8445 23.7575 35.0187C22.8481 33.5676 21.4028 32.534 19.7356 32.1425C20.1535 31.8864 20.4994 31.5285 20.741 31.1021C20.9826 30.6757 21.1119 30.195 21.1168 29.705C21.1199 29.2916 21.0282 28.883 20.8487 28.5106C21.2676 28.2947 21.709 28.1257 22.165 28.0068C22.6227 28.2982 23.154 28.453 23.6965 28.453C24.2391 28.453 24.7704 28.2982 25.2281 28.0068C26.3184 28.2563 27.3225 28.792 28.1368 29.5587V29.7375C28.1348 30.2434 28.2659 30.7409 28.5169 31.1801C28.7679 31.6194 29.13 31.9849 29.5668 32.24" fill="#F49DAD"/>
    <path d="M24.7406 38.4474C24.7573 38.6204 24.7573 38.7945 24.7406 38.9674C24.7487 39.0512 24.7487 39.1355 24.7406 39.2193H11.8544C11.8196 38.9499 11.8034 38.6784 11.8056 38.4068C11.8103 36.9694 12.2913 35.5741 13.1734 34.4391C14.0555 33.3042 15.2889 32.4937 16.6806 32.1343C16.9313 32.2948 17.2054 32.4154 17.4931 32.4918C17.7082 32.5455 17.9296 32.5701 18.1513 32.5649C18.7031 32.5686 19.2435 32.4073 19.7031 32.1018C21.3703 32.4933 22.8156 33.5269 23.725 34.9781C24.2456 35.8038 24.5707 36.7375 24.6756 37.7081C24.6756 37.9437 24.6756 38.1712 24.6756 38.4068" fill="#C8A49D"/>
    <path d="M37.6107 38.4476C37.6148 38.7195 37.5958 38.9913 37.5538 39.2601H24.7244C24.7164 39.1763 24.7164 39.092 24.7244 39.0082C24.7411 38.8353 24.7411 38.6611 24.7244 38.4882C24.7244 38.2526 24.7244 38.0251 24.7244 37.7895C24.8164 36.8034 25.1423 35.8536 25.675 35.0188C26.5485 33.6035 27.9385 32.5836 29.5507 32.1751C29.6754 32.2643 29.8122 32.3354 29.9569 32.3863C30.3035 32.5344 30.677 32.6091 31.0538 32.6057C31.6057 32.6093 32.1461 32.4481 32.6057 32.1426C34.0269 32.4785 35.2937 33.2832 36.2017 34.427C37.1097 35.5709 37.606 36.9872 37.6107 38.4476Z" fill="#96B2F1"/>
    <path d="M26.6013 25.472C26.598 25.9614 26.4702 26.442 26.23 26.8684C25.9898 27.2948 25.645 27.6531 25.2281 27.9095C24.7704 28.2009 24.2391 28.3557 23.6966 28.3557C23.154 28.3557 22.6227 28.2009 22.165 27.9095C21.7281 27.6544 21.366 27.2889 21.115 26.8497C20.864 26.4104 20.733 25.9129 20.735 25.407C20.735 24.6291 21.044 23.883 21.5941 23.333C22.1442 22.7829 22.8902 22.4739 23.6681 22.4739C24.446 22.4739 25.1921 22.7829 25.7422 23.333C26.2922 23.883 26.6013 24.6291 26.6013 25.407" fill="#F5C287"/>
    <path d="M40.56 14.1781C40.0959 14.1777 39.6321 14.2021 39.1706 14.2512C37.7977 14.344 36.447 14.6453 35.165 15.145C34.9764 15.219 34.792 15.3031 34.6125 15.3969C34.1295 15.5966 33.6692 15.8472 33.2393 16.1444C31.785 17.1519 30.9318 18.4194 30.9318 19.825C30.9369 20.4826 31.1224 21.1262 31.4681 21.6856L30.5743 23.7981L33.15 23.4569H33.2393V23.5625C33.8492 23.954 34.4938 24.2885 35.165 24.5619C35.8823 24.8335 36.6217 25.0429 37.375 25.1875C38.1771 25.354 38.9933 25.4438 39.8125 25.4556C40.0601 25.4892 40.3101 25.5027 40.56 25.4962C45.8737 25.4962 50.1962 22.9694 50.1962 19.8087C50.1962 16.6481 45.8737 14.1619 40.56 14.1619M35.9693 20.6619C35.7466 20.6651 35.5279 20.6019 35.3412 20.4803C35.1545 20.3587 35.0083 20.1842 34.9211 19.9792C34.834 19.7741 34.81 19.5478 34.852 19.329C34.8941 19.1102 35.0004 18.9089 35.1574 18.7508C35.3143 18.5927 35.5148 18.4849 35.7333 18.4412C35.9518 18.3976 36.1783 18.42 36.384 18.5056C36.5897 18.5912 36.7652 18.7362 36.8882 18.9219C37.0111 19.1077 37.0759 19.326 37.0743 19.5487C37.0743 19.8426 36.9582 20.1245 36.7512 20.333C36.5442 20.5415 36.2631 20.6597 35.9693 20.6619ZM40.3812 20.6619C40.1798 20.6644 39.9821 20.6079 39.8125 20.4994C39.6432 20.4055 39.5024 20.2676 39.4051 20.1002C39.3079 19.9329 39.2577 19.7423 39.26 19.5487C39.2576 19.3519 39.3075 19.1579 39.4046 18.9866C39.5016 18.8154 39.6424 18.6729 39.8125 18.5737C39.983 18.4681 40.1807 18.4144 40.3812 18.4194C40.6611 18.4433 40.9218 18.5713 41.1117 18.7782C41.3017 18.985 41.4071 19.2557 41.4071 19.5366C41.4071 19.8174 41.3017 20.0881 41.1117 20.2949C40.9218 20.5018 40.6611 20.6299 40.3812 20.6537M44.8012 20.6537C44.5791 20.6537 44.362 20.5878 44.1774 20.4642C43.9929 20.3406 43.8492 20.165 43.7646 19.9597C43.6799 19.7543 43.6582 19.5285 43.7021 19.3107C43.7461 19.093 43.8537 18.8932 44.0113 18.7368C44.1689 18.5803 44.3695 18.4741 44.5875 18.4318C44.8055 18.3895 45.0312 18.4128 45.236 18.4989C45.4407 18.5851 45.6152 18.73 45.7375 18.9155C45.8597 19.1009 45.9241 19.3185 45.9225 19.5406C45.9203 19.8366 45.8012 20.1197 45.5912 20.3282C45.3812 20.5367 45.0972 20.6537 44.8012 20.6537Z" fill="#F5C287"/>
    <path d="M37.0744 19.5407C37.0728 19.7609 37.0059 19.9756 36.8822 20.1577C36.7586 20.3399 36.5837 20.4813 36.3797 20.564C36.1757 20.6468 35.9517 20.6672 35.7361 20.6227C35.5205 20.5782 35.323 20.4707 35.1684 20.3139C35.0139 20.1571 34.9094 19.958 34.868 19.7418C34.8266 19.5255 34.8503 19.3019 34.936 19.0991C35.0217 18.8963 35.1657 18.7235 35.3496 18.6026C35.5335 18.4816 35.7492 18.4179 35.9694 18.4195C36.1155 18.4205 36.2601 18.4504 36.3947 18.5073C36.5294 18.5642 36.6515 18.6471 36.7541 18.7512C36.8567 18.8553 36.9378 18.9787 36.9928 19.1141C37.0477 19.2496 37.0754 19.3945 37.0744 19.5407Z" fill="#0FC3E3"/>
    <path d="M41.4943 19.5407C41.4922 19.8353 41.3743 20.1172 41.166 20.3255C40.9577 20.5338 40.6758 20.6517 40.3812 20.6539C40.1798 20.6564 39.9821 20.5999 39.8125 20.4914C39.6432 20.3975 39.5024 20.2596 39.4051 20.0923C39.3079 19.9249 39.2577 19.7343 39.26 19.5407C39.259 19.3453 39.3096 19.153 39.4066 18.9833C39.5036 18.8135 39.6436 18.6723 39.8125 18.5739C39.983 18.4682 40.1807 18.4146 40.3812 18.4195C40.5281 18.4195 40.6735 18.4486 40.8091 18.505C40.9447 18.5615 41.0677 18.6442 41.1712 18.7484C41.2747 18.8526 41.3565 18.9763 41.4119 19.1123C41.4674 19.2483 41.4954 19.3939 41.4943 19.5407Z" fill="#0FC3E3"/>
    <path d="M45.9225 19.5407C45.9241 19.7648 45.8591 19.9842 45.7356 20.1712C45.6121 20.3582 45.4358 20.5042 45.2291 20.5907C45.0224 20.6771 44.7947 20.7002 44.5748 20.6569C44.355 20.6136 44.153 20.5058 43.9946 20.3474C43.8362 20.189 43.7284 19.987 43.6851 19.7672C43.6418 19.5473 43.6649 19.3196 43.7513 19.1129C43.8378 18.9062 43.9838 18.7299 44.1708 18.6064C44.3578 18.4829 44.5772 18.4179 44.8013 18.4195C44.9488 18.4184 45.0951 18.4466 45.2316 18.5026C45.3682 18.5586 45.4922 18.6411 45.5965 18.7455C45.7009 18.8498 45.7834 18.9738 45.8394 19.1104C45.8954 19.2469 45.9236 19.3932 45.9225 19.5407Z" fill="#0FC3E3"/>
    <path d="M19.6625 19.5C20.0072 18.9431 20.1927 18.3024 20.1988 17.6475C20.1988 16.2337 19.3456 14.9662 17.8994 13.9587C17.4656 13.6632 17.0028 13.4127 16.5181 13.2112C16.3386 13.1175 16.1542 13.0334 15.9656 12.9593C14.6836 12.4597 13.3329 12.1583 11.96 12.0656C11.4953 12.027 11.0287 12.0134 10.5625 12.025C5.24877 12.025 0.92627 14.5681 0.92627 17.7125C0.92627 20.8568 5.24877 23.4 10.5625 23.4C10.8124 23.4067 11.0624 23.3931 11.31 23.3593C12.1292 23.3475 12.9454 23.2577 13.7475 23.0912C14.5096 22.9427 15.2572 22.7279 15.9819 22.4493C16.6435 22.1487 17.277 21.7897 17.875 21.3768V21.2875H17.9644L20.5319 21.6287L19.6625 19.5ZM6.32939 18.5006C6.10764 18.499 5.89134 18.4317 5.70786 18.3071C5.52437 18.1826 5.38194 18.0064 5.29856 17.8009C5.21519 17.5954 5.19462 17.3698 5.23946 17.1527C5.2843 16.9355 5.39253 16.7365 5.55047 16.5808C5.70841 16.4251 5.90896 16.3198 6.12677 16.2781C6.34458 16.2364 6.56985 16.2603 6.77411 16.3466C6.97837 16.433 7.15244 16.5779 7.27431 16.7632C7.39618 16.9485 7.46037 17.1657 7.45877 17.3875C7.45879 17.535 7.42946 17.6811 7.37251 17.8172C7.31556 17.9534 7.23211 18.0768 7.12702 18.1804C7.02193 18.284 6.89729 18.3656 6.76036 18.4206C6.62343 18.4756 6.47693 18.5028 6.32939 18.5006ZM11.3181 18.3381C11.1485 18.4466 10.9508 18.5031 10.7494 18.5006C10.4695 18.4767 10.2089 18.3487 10.0189 18.1418C9.82891 17.9349 9.72351 17.6643 9.72351 17.3834C9.72351 17.1025 9.82891 16.8319 10.0189 16.625C10.2089 16.4182 10.4695 16.2901 10.7494 16.2662C10.9512 16.2602 11.15 16.317 11.3181 16.4287C11.4875 16.5246 11.6281 16.6641 11.7253 16.8327C11.8224 17.0013 11.8726 17.1929 11.8706 17.3875C11.8729 17.581 11.8228 17.7716 11.7255 17.939C11.6282 18.1063 11.4875 18.2443 11.3181 18.3381ZM15.1613 18.5006C14.9395 18.499 14.7232 18.4317 14.5397 18.3071C14.3562 18.1826 14.2138 18.0064 14.1304 17.8009C14.0471 17.5954 14.0265 17.3698 14.0713 17.1527C14.1162 16.9355 14.2244 16.7365 14.3823 16.5808C14.5403 16.4251 14.7408 16.3198 14.9586 16.2781C15.1765 16.2364 15.4017 16.2603 15.606 16.3466C15.8103 16.433 15.9843 16.5779 16.1062 16.7632C16.2281 16.9485 16.2922 17.1657 16.2906 17.3875C16.2907 17.535 16.2613 17.6811 16.2044 17.8172C16.1474 17.9534 16.064 18.0768 15.9589 18.1804C15.8538 18.284 15.7292 18.3656 15.5922 18.4206C15.4553 18.4756 15.3088 18.5028 15.1613 18.5006Z" fill="#F5C287"/>
    <path d="M16.2907 17.3875C16.2668 17.6674 16.1388 17.928 15.9319 18.118C15.725 18.308 15.4544 18.4134 15.1735 18.4134C14.8926 18.4134 14.622 18.308 14.4151 18.118C14.2082 17.928 14.0802 17.6674 14.0563 17.3875C14.0431 17.2328 14.0622 17.077 14.1123 16.9301C14.1625 16.7831 14.2426 16.6481 14.3476 16.5338C14.4527 16.4194 14.5803 16.3281 14.7225 16.2656C14.8646 16.2032 15.0182 16.1709 15.1735 16.1709C15.3288 16.1709 15.4824 16.2032 15.6245 16.2656C15.7667 16.3281 15.8943 16.4194 15.9994 16.5338C16.1044 16.6481 16.1845 16.7831 16.2347 16.9301C16.2848 17.077 16.3039 17.2328 16.2907 17.3875Z" fill="#0FC3E3"/>
    <path d="M11.8706 17.3876C11.8729 17.5811 11.8228 17.7717 11.7255 17.9391C11.6282 18.1064 11.4875 18.2443 11.3182 18.3382C11.1485 18.4467 10.9508 18.5032 10.7494 18.5007C10.4696 18.4768 10.2089 18.3487 10.0189 18.1419C9.82892 17.935 9.72351 17.6644 9.72351 17.3835C9.72351 17.1026 9.82892 16.832 10.0189 16.6251C10.2089 16.4182 10.4696 16.2902 10.7494 16.2663C10.9512 16.2603 11.15 16.317 11.3182 16.4288C11.4875 16.5246 11.6281 16.6641 11.7253 16.8328C11.8225 17.0014 11.8726 17.193 11.8706 17.3876Z" fill="#0FC3E3"/>
    <path d="M5.20816 17.3874C5.23214 17.6694 5.36108 17.932 5.56947 18.1235C5.77786 18.3149 6.05052 18.4211 6.33348 18.4211C6.61644 18.4211 6.88909 18.3149 7.09748 18.1235C7.30587 17.932 7.43481 17.6694 7.45879 17.3874C7.47204 17.2316 7.45279 17.0747 7.40225 16.9268C7.35172 16.7788 7.271 16.6429 7.16521 16.5277C7.05943 16.4126 6.93088 16.3206 6.7877 16.2577C6.64453 16.1948 6.48986 16.1624 6.33348 16.1624C6.1771 16.1624 6.02242 16.1948 5.87925 16.2577C5.73608 16.3206 5.60753 16.4126 5.50174 16.5277C5.39595 16.6429 5.31523 16.7788 5.2647 16.9268C5.21416 17.0747 5.19491 17.2316 5.20816 17.3874Z" fill="#0FC3E3"/>
    <path d="M23.2375 28.3726L23.2863 28.4782L23.4407 28.3969H23.2375" fill="#B77682"/>
    <path d="M23.0181 27.9988C23.1007 28.1176 23.1741 28.2425 23.2375 28.3725H23.4406L23.7575 28.2344C23.5182 28.1285 23.271 28.0416 23.0181 27.9744M24.5537 27.9175L24.4725 27.9907H24.6025H24.5537M23.6681 22.5875C22.8915 22.5918 22.1479 22.9022 21.5988 23.4513C21.0496 24.0005 20.7393 24.7441 20.735 25.5207C20.7391 25.97 20.8476 26.4123 21.0519 26.8125C21.7892 26.9221 22.4557 27.3122 22.9125 27.9013C23.211 27.6975 23.4675 27.4382 23.6681 27.1375C23.3436 26.6577 23.1702 26.0918 23.1702 25.5125C23.1702 24.9333 23.3436 24.3673 23.6681 23.8875C23.3698 23.4345 22.9503 23.0742 22.4575 22.8475C22.8361 22.6684 23.2493 22.5741 23.6681 22.5713" fill="#B89165"/>
    <path d="M34.4988 24.2288C34.6369 24.3019 34.8482 24.3994 35.165 24.5294C34.9375 24.4319 34.71 24.3344 34.4988 24.2288Z" fill="#BFBFBF"/>
    <path d="M40.56 14.1782C40.0959 14.1778 39.6321 14.2022 39.1706 14.2514C37.7977 14.3441 36.447 14.6454 35.165 15.1451C34.9764 15.2192 34.792 15.3032 34.6125 15.397C34.1295 15.5968 33.6692 15.8473 33.2393 16.1445C31.785 17.152 30.9318 18.4195 30.9318 19.8251C30.9369 20.4827 31.1224 21.1263 31.4681 21.6857L30.5743 23.7982L33.15 23.457L33.2231 23.2945C33.5446 23.6314 33.9143 23.9189 34.32 24.1476L34.4906 24.237C34.7018 24.3426 34.9293 24.4401 35.1568 24.5376C35.876 24.818 36.6182 25.0355 37.375 25.1876C38.1771 25.3541 38.9933 25.4439 39.8125 25.4557H39.4793C39.8368 25.4557 40.1943 25.3826 40.5437 25.3339C40.3108 25.3014 40.0752 25.2607 39.8368 25.212C39.0748 25.0634 38.3272 24.8487 37.6025 24.5701C36.931 24.2941 36.2864 23.9569 35.6768 23.5626V23.4732L33.8487 21.8482L33.9056 21.7101C33.5599 21.1507 33.3744 20.5071 33.3693 19.8495C33.3693 18.4439 34.1818 17.1764 35.6768 16.1689C36.1075 15.8773 36.5677 15.6322 37.05 15.4376C37.2295 15.3439 37.4139 15.2598 37.6025 15.1857C38.5503 14.8001 39.5402 14.5274 40.5518 14.3732C40.17 14.3164 39.7881 14.2676 39.3981 14.2351C39.78 14.2351 40.17 14.1864 40.56 14.1864" fill="#B89165"/>
    <path d="M18.1837 26.7395C17.4071 26.7438 16.6636 27.0542 16.1144 27.6033C15.5653 28.1525 15.2549 28.896 15.2506 29.6726C15.2502 30.1782 15.382 30.6751 15.6328 31.1141C15.8836 31.553 16.2448 31.9188 16.6806 32.1751C16.9313 32.3356 17.2054 32.4562 17.4931 32.5326C17.6318 32.5666 17.7731 32.5884 17.9156 32.5976C18.2912 32.4197 18.683 32.2782 19.0856 32.1751C18.6498 31.9188 18.2886 31.553 18.0378 31.1141C17.787 30.6751 17.6552 30.1782 17.6556 29.6726C17.6594 29.1116 17.8236 28.5634 18.1288 28.0926C18.434 27.6219 18.8675 27.2482 19.3781 27.0158C19.0011 26.8404 18.5914 26.7463 18.1756 26.7395" fill="#B89165"/>
    <path d="M16.6806 32.175C15.2889 32.5344 14.0555 33.3449 13.1734 34.4799C12.2913 35.6148 11.8103 37.0101 11.8056 38.4475C11.8034 38.7192 11.8196 38.9906 11.8544 39.26H14.2919C14.2571 38.9906 14.2409 38.7192 14.2431 38.4475C14.2466 37.2224 14.5963 36.0232 15.2518 34.9881C15.9073 33.9531 16.842 33.1244 17.9481 32.5975C17.8057 32.5883 17.6643 32.5665 17.5256 32.5326C17.2379 32.4561 16.9638 32.3355 16.7131 32.175" fill="#967B76"/>
    <path d="M10.5625 12.025C5.24877 12.025 0.92627 14.5681 0.92627 17.7125C0.92627 20.8568 5.24877 23.4 10.5625 23.4C10.8124 23.4067 11.0624 23.3931 11.31 23.3593H9.20564C9.66877 23.3593 10.1319 23.2943 10.5788 23.2375C6.44314 22.5062 3.37189 20.3125 3.37189 17.68C3.37189 15.0475 6.44314 12.8456 10.5625 12.1875C10.2213 12.1387 9.86377 12.0981 9.50627 12.0737H9.27877C9.70127 12.0737 10.0913 12.0168 10.5544 12.0168" fill="#B89165"/>
    <path d="M17.8751 21.2876V21.3607L17.9644 21.3038H17.8751" fill="white"/>
    <path d="M10.5625 12.025C10.9525 12.025 11.375 12.025 11.7244 12.0737C11.3344 12.0737 10.9525 12.155 10.5706 12.2118C11.5822 12.366 12.5722 12.6387 13.52 13.0243C13.7085 13.0984 13.8929 13.1825 14.0725 13.2762C14.5572 13.4777 15.02 13.7282 15.4538 14.0237C16.9 15.0312 17.7531 16.2987 17.7531 17.7125C17.7379 18.3445 17.5556 18.9612 17.225 19.5C16.2463 20.7385 14.9762 21.7154 13.5281 22.3437C12.8032 22.6216 12.0556 22.8363 11.2937 22.9856C11.0554 23.0343 10.8198 23.075 10.5869 23.1075C10.9362 23.1562 11.2938 23.1968 11.6513 23.2293H11.3181C12.1373 23.2175 12.9535 23.1277 13.7556 22.9612C14.5177 22.8127 15.2653 22.5979 15.99 22.3193H16.0388C16.5717 22.085 17.0876 21.8135 17.5825 21.5068L17.9156 21.2956V21.2875H18.005L20.5725 21.6287L19.6625 19.5C20.0072 18.9431 20.1927 18.3024 20.1988 17.6475C20.1988 16.2337 19.3456 14.9662 17.8994 13.9587C17.4656 13.6632 17.0028 13.4127 16.5181 13.2112C16.3386 13.1175 16.1541 13.0334 15.9656 12.9593C14.6836 12.4597 13.3329 12.1583 11.96 12.0656C11.4952 12.027 11.0287 12.0134 10.5625 12.025Z" fill="white"/>
    <path d="M10.5626 23.14C10.1157 23.1969 9.65258 23.2375 9.18945 23.2619H11.2938H11.627C11.2695 23.2619 10.912 23.1888 10.5626 23.14ZM10.5626 12.025C10.132 12.025 9.75008 12.025 9.28695 12.0819H9.51445C9.87195 12.0819 10.2295 12.1469 10.5707 12.1957C10.912 12.2444 11.3345 12.09 11.7245 12.0575C11.3426 12.0575 10.9526 12.0088 10.5626 12.0088" fill="#FFFFA0"/>
    <path d="M40.5601 14.1781C40.9907 14.1781 41.3726 14.1781 41.8357 14.235H41.6082C41.2507 14.235 40.8932 14.3 40.5519 14.3488C44.6957 14.9825 47.7588 17.1925 47.7588 19.8088C47.7588 22.425 44.6876 24.6838 40.5438 25.2769C40.9907 25.3338 41.4538 25.3744 41.9169 25.3988C41.4701 25.3988 41.0232 25.4638 40.5601 25.4638C45.8738 25.4638 50.1963 22.9369 50.1963 19.7763C50.1963 16.6156 45.8738 14.1294 40.5601 14.1294" fill="white"/>
    <path d="M40.5437 25.2932C40.1943 25.3419 39.8368 25.3826 39.4793 25.4151H39.8125C40.0601 25.4486 40.3101 25.4622 40.56 25.4557C41.0231 25.4557 41.47 25.4557 41.9168 25.3907C41.4537 25.3907 40.9906 25.3257 40.5437 25.2688M40.5437 14.1538C40.1537 14.1538 39.7312 14.1538 39.3818 14.2026C39.7718 14.2026 40.1537 14.2838 40.5356 14.3407C40.9175 14.3976 41.2343 14.2513 41.5918 14.2269H41.8193C41.3968 14.2269 41.0068 14.1701 40.5437 14.1701" fill="#FFFFA0"/>
    <path d="M24.4725 28.0151C24.2286 28.0792 23.9897 28.1606 23.7575 28.2588L24.0337 28.3807C24.164 28.244 24.3084 28.1215 24.4643 28.0151M22.9043 27.8607L22.7825 27.9419L23.01 27.9988C22.9794 27.9494 22.944 27.9032 22.9043 27.8607ZM23.66 22.5388C24.084 22.5416 24.5025 22.6359 24.8868 22.8151C24.3921 23.0456 23.9684 23.4048 23.66 23.8551C23.986 24.334 24.1588 24.9007 24.1556 25.4801C24.1558 26.059 23.9832 26.6248 23.66 27.1051C23.8937 27.4361 24.1957 27.7131 24.5456 27.9176C24.8398 27.6722 25.1878 27.4996 25.5612 27.4138C25.6627 27.3877 25.7659 27.3687 25.87 27.3569C26.3273 26.8441 26.5841 26.1834 26.5931 25.4963C26.5931 24.7184 26.2841 23.9724 25.734 23.4223C25.1839 22.8722 24.4379 22.5632 23.66 22.5632" fill="white"/>
    <path d="M23.6681 27.0969C23.4676 27.3976 23.211 27.6569 22.9125 27.8607C22.9522 27.9031 22.9876 27.9494 23.0181 27.9988C23.271 28.066 23.5182 28.1529 23.7575 28.2588C23.9897 28.1606 24.2287 28.0791 24.4725 28.015L24.5538 27.9419C24.2039 27.7375 23.9019 27.4604 23.6681 27.1294M23.6681 22.5713C23.2493 22.5741 22.8361 22.6684 22.4575 22.8475C22.9504 23.0742 23.3698 23.4345 23.6681 23.8875C23.9766 23.4372 24.4003 23.0781 24.895 22.8475C24.5107 22.6683 24.0922 22.5741 23.6681 22.5713Z" fill="#FFFFA0"/>
    <path d="M31.0538 26.7395C30.6382 26.7472 30.2287 26.8413 29.8513 27.0158C30.3589 27.2506 30.789 27.6252 31.0912 28.0958C31.3934 28.5664 31.5552 29.1134 31.5576 29.6726C31.5543 30.162 31.4265 30.6426 31.1863 31.069C30.9461 31.4954 30.6013 31.8537 30.1844 32.1101C30.6228 32.2059 31.0482 32.3531 31.4519 32.5489C31.8704 32.4942 32.2707 32.3441 32.6219 32.1101C33.0388 31.8537 33.3836 31.4954 33.6238 31.069C33.864 30.6426 33.9918 30.162 33.9951 29.6726C33.9951 28.8961 33.6872 28.1513 33.1388 27.6015C32.5905 27.0516 31.8466 26.7417 31.0701 26.7395" fill="white"/>
    <path d="M32.6057 32.1426C32.2544 32.3765 31.8541 32.5266 31.4357 32.5813C32.5504 33.1047 33.4934 33.9339 34.1551 34.9725C34.8168 36.011 35.1699 37.2162 35.1732 38.4476C35.1773 38.7195 35.1583 38.9913 35.1163 39.2601H37.5538C37.5958 38.9913 37.6148 38.7195 37.6107 38.4476C37.606 36.9872 37.1097 35.5709 36.2017 34.427C35.2937 33.2832 34.0269 32.4785 32.6057 32.1426Z" fill="white"/>
    <path d="M18.1837 33.4182C17.8933 33.419 17.604 33.3835 17.3224 33.3125C16.949 33.2203 16.5924 33.0695 16.2662 32.8657C15.7599 32.5659 15.3315 32.1508 15.0159 31.6541C14.7003 31.1575 14.5064 30.5933 14.45 30.0076C14.3937 29.4219 14.4764 28.8311 14.6915 28.2834C14.9066 27.7357 15.248 27.2465 15.6878 26.8557C16.1277 26.4648 16.6536 26.1834 17.2228 26.0342C17.7921 25.885 18.3884 25.8724 18.9635 25.9972C19.5385 26.1221 20.0759 26.381 20.532 26.7528C20.9881 27.1246 21.3499 27.5988 21.5881 28.1369C21.8212 28.615 21.9408 29.1406 21.9374 29.6725C21.9406 30.3075 21.7791 30.9325 21.4687 31.4865C21.1583 32.0404 20.7095 32.5044 20.1662 32.8332C19.5791 33.2227 18.8883 33.4266 18.1837 33.4182ZM18.1837 27.5519C17.6213 27.5519 17.0819 27.7753 16.6842 28.173C16.2865 28.5707 16.0631 29.1101 16.0631 29.6725C16.0568 30.0344 16.1459 30.3916 16.3213 30.7082C16.4967 31.0248 16.7523 31.2897 17.0624 31.4763C17.2519 31.5939 17.4571 31.6841 17.6718 31.7444C18.2132 31.8566 18.777 31.7578 19.2481 31.4682C19.5674 31.2886 19.8339 31.0281 20.0207 30.7129C20.2075 30.3977 20.3082 30.0389 20.3124 29.6725C20.3088 29.3906 20.2421 29.113 20.1174 28.86C19.9602 28.4755 19.6927 28.146 19.3486 27.9132C19.0045 27.6804 18.5991 27.5547 18.1837 27.5519Z" fill="#710089"/>
    <path d="M31.0537 33.418C30.5711 33.423 30.0927 33.329 29.648 33.1417C29.4447 33.0664 29.2532 32.9625 29.0793 32.833C28.5354 32.5048 28.0862 32.041 27.7757 31.4869C27.4652 30.9328 27.304 30.3075 27.308 29.6723C27.298 29.5724 27.298 29.4717 27.308 29.3717C27.3965 28.4183 27.8474 27.5353 28.5679 26.9047C29.2884 26.274 30.2234 25.944 31.1801 25.9825C32.1368 26.0211 33.0422 26.4253 33.7095 27.1119C34.3769 27.7984 34.7553 28.7149 34.7668 29.6723C34.7716 30.3067 34.6117 30.9315 34.3026 31.4855C33.9936 32.0395 33.546 32.5038 33.0037 32.833C32.4257 33.2163 31.7472 33.4199 31.0537 33.418ZM28.933 29.6642C28.9303 30.0294 29.0235 30.3888 29.2031 30.7068C29.3827 31.0247 29.6426 31.29 29.9568 31.4761C30.0456 31.5379 30.1409 31.5897 30.2412 31.6305C30.5481 31.7633 30.8831 31.818 31.2163 31.7896C31.5495 31.7613 31.8705 31.6507 32.1505 31.468C32.4614 31.2828 32.7185 31.0198 32.8966 30.7049C33.0747 30.39 33.1676 30.0341 33.1662 29.6723C33.1537 29.1319 32.9346 28.6168 32.5538 28.233C32.173 27.8493 31.6596 27.6261 31.1193 27.6095C30.579 27.5928 30.0528 27.7839 29.6491 28.1435C29.2455 28.5031 28.995 29.0037 28.9493 29.5423C28.9479 29.5834 28.9424 29.6242 28.933 29.6642Z" fill="#710089"/>
    <path d="M24.7081 38.5611C24.5072 38.5623 24.313 38.4891 24.163 38.3556C24.0129 38.222 23.9177 38.0376 23.8956 37.838C23.8086 36.9906 23.5309 36.1739 23.0831 35.4492C22.288 34.1789 21.0237 33.2738 19.5649 32.9305C19.4075 32.8938 19.2646 32.811 19.1545 32.6927C19.0444 32.5744 18.9721 32.426 18.9468 32.2663C18.9215 32.1067 18.9444 31.9432 19.0125 31.7966C19.0807 31.65 19.191 31.5271 19.3293 31.4436C19.6322 31.2584 19.8819 30.9979 20.0542 30.6875C20.2265 30.3771 20.3155 30.0274 20.3124 29.6724C20.3088 29.3904 20.2422 29.1128 20.1174 28.8599C20.0261 28.6697 20.0124 28.4514 20.0791 28.2512C20.1458 28.0511 20.2878 27.8847 20.4749 27.7874C20.9388 27.5358 21.4294 27.3369 21.9374 27.1942C22.0466 27.1643 22.1608 27.1575 22.2727 27.1743C22.3847 27.1911 22.4919 27.2311 22.5874 27.2917C22.9112 27.4951 23.2857 27.603 23.6681 27.603C24.0504 27.603 24.425 27.4951 24.7487 27.2917C24.8414 27.2281 24.9464 27.1844 25.0568 27.1634C25.1673 27.1425 25.281 27.1446 25.3906 27.1699C26.6082 27.4619 27.7285 28.0669 28.6406 28.9249C28.7438 29.0202 28.8205 29.1407 28.8632 29.2746C28.9059 29.4084 28.9132 29.5511 28.8843 29.6886C28.8816 30.0538 28.9748 30.4132 29.1544 30.7312C29.334 31.0491 29.5939 31.3144 29.9081 31.5005C30.0475 31.5812 30.1598 31.7015 30.2307 31.8462C30.3016 31.9909 30.3279 32.1533 30.3062 32.313C30.2834 32.4733 30.2132 32.6232 30.1046 32.7433C29.996 32.8635 29.854 32.9485 29.6968 32.9874C28.2999 33.3377 27.0903 34.21 26.3168 35.4249C25.8416 36.1574 25.5491 36.9933 25.4637 37.8624C25.4378 38.0482 25.3484 38.2193 25.2106 38.3466C25.0729 38.474 24.8953 38.5498 24.7081 38.5611ZM21.2631 31.8011C22.5733 32.4003 23.6803 33.3688 24.4481 34.588C24.5374 34.7342 24.6268 34.8886 24.7081 35.043C24.7974 34.8886 24.8868 34.7261 24.9843 34.5799C25.7197 33.4057 26.7735 32.4646 28.0231 31.8661C27.5957 31.2773 27.3474 30.5776 27.3081 29.8511C26.7339 29.3734 26.0673 29.0193 25.3499 28.8111C24.8433 29.0564 24.2878 29.1838 23.7249 29.1838C23.1621 29.1838 22.6066 29.0564 22.0999 28.8111L21.8806 28.8842C21.9365 29.1294 21.9638 29.3803 21.9618 29.6317C21.9604 30.41 21.7162 31.1684 21.2631 31.8011Z" fill="#710089"/>
    <path d="M24.6918 40.0317H11.8543C11.6572 40.0337 11.466 39.9639 11.3165 39.8353C11.1671 39.7068 11.0694 39.5282 11.0418 39.333C11.0024 39.0395 10.9834 38.7435 10.985 38.4474C10.9893 36.8296 11.53 35.2589 12.5224 33.9813C13.5148 32.7037 14.9029 31.7912 16.4693 31.3867C16.5743 31.3591 16.6837 31.3528 16.7912 31.3681C16.8986 31.3835 17.0019 31.4202 17.095 31.4761C17.2809 31.5949 17.4836 31.6853 17.6962 31.7442C18.2376 31.8564 18.8014 31.7576 19.2724 31.468C19.3652 31.4044 19.4701 31.3607 19.5806 31.3397C19.6911 31.3187 19.8047 31.3209 19.9143 31.3461C21.7901 31.7955 23.4149 32.9623 24.4399 34.5961C25.0233 35.5287 25.3873 36.5817 25.5043 37.6755C25.5043 37.9517 25.545 38.2036 25.545 38.488C25.5603 38.6881 25.5603 38.8891 25.545 39.0892C25.5526 39.1974 25.5526 39.306 25.545 39.4142C25.4992 39.6017 25.3883 39.7668 25.232 39.8799C25.0757 39.9931 24.8842 40.0469 24.6918 40.0317ZM12.6181 38.4067H23.9281C23.9281 38.2036 23.9281 38.0086 23.9281 37.8136C23.7983 36.7024 23.3436 35.6541 22.621 34.8C21.8984 33.9459 20.9399 33.3238 19.8656 33.0117C19.082 33.4058 18.1858 33.5149 17.3306 33.3205C17.0736 33.2596 16.8252 33.1668 16.5912 33.0442C15.4484 33.4055 14.4489 34.1184 13.7354 35.0815C13.0219 36.0445 12.6308 37.2083 12.6181 38.4067Z" fill="#710089"/>
    <path d="M37.5537 40.0318H24.7244C24.5331 40.0353 24.3468 39.9712 24.1982 39.8508C24.0496 39.7304 23.9482 39.5615 23.9119 39.3737C23.8958 39.2388 23.8958 39.1024 23.9119 38.9675C23.9079 38.9079 23.9079 38.8482 23.9119 38.7887C23.9215 38.6752 23.9215 38.561 23.9119 38.4475C23.9119 38.2362 23.9119 38.025 23.9119 37.8137V37.6675C24.0323 36.5682 24.4049 35.5116 25.0006 34.58C25.9893 32.9932 27.5523 31.8493 29.3637 31.3868C29.4788 31.3579 29.5988 31.3546 29.7153 31.3771C29.8318 31.3995 29.942 31.4472 30.0381 31.5168C30.1067 31.5628 30.1803 31.601 30.2575 31.6306C30.5644 31.7634 30.8994 31.8181 31.2326 31.7897C31.5658 31.7614 31.8868 31.6509 32.1669 31.4681C32.2586 31.4056 32.3621 31.3625 32.4711 31.3415C32.5801 31.3206 32.6922 31.3222 32.8006 31.3462C34.4073 31.7135 35.841 32.6168 36.8659 33.9075C37.8908 35.1982 38.4457 36.7994 38.4394 38.4475C38.4382 38.7438 38.4165 39.0397 38.3744 39.3331C38.3466 39.5297 38.2478 39.7094 38.0966 39.8381C37.9454 39.9669 37.7523 40.0358 37.5537 40.0318ZM25.5531 38.4068H36.7981C36.7862 37.1915 36.3854 36.012 35.6543 35.0411C34.9232 34.0702 33.9003 33.359 32.7356 33.0118C32.2617 33.2532 31.7414 33.3898 31.2101 33.4122C30.6787 33.4347 30.1488 33.3424 29.6562 33.1418L29.445 33.0525C28.1682 33.4552 27.0784 34.3029 26.3737 35.4412C25.9277 36.143 25.6497 36.9382 25.5612 37.765C25.5369 37.9762 25.5531 38.1875 25.5531 38.4068Z" fill="#710089"/>
    <path d="M23.6681 29.25C22.9825 29.257 22.31 29.062 21.7344 28.6894C21.1821 28.3612 20.7248 27.895 20.4071 27.3366C20.0895 26.7782 19.9225 26.1468 19.9225 25.5044C19.9225 24.511 20.3171 23.5583 21.0196 22.8559C21.722 22.1534 22.6747 21.7588 23.6681 21.7588C24.6615 21.7588 25.6142 22.1534 26.3167 22.8559C27.0191 23.5583 27.4137 24.511 27.4137 25.5044C27.4185 26.1397 27.2577 26.7653 26.9471 27.3196C26.6365 27.8738 26.1869 28.3375 25.6425 28.665C25.0581 29.054 24.3701 29.2578 23.6681 29.25ZM23.6681 23.3838C23.1057 23.3838 22.5663 23.6072 22.1686 24.0049C21.7709 24.4026 21.5475 24.942 21.5475 25.5044C21.5446 25.8695 21.6386 26.2288 21.8198 26.5456C22.0011 26.8625 22.2632 27.1256 22.5794 27.3082C22.9054 27.5174 23.2847 27.6287 23.6722 27.6287C24.0596 27.6287 24.4389 27.5174 24.765 27.3082C25.0784 27.1253 25.3381 26.863 25.5179 26.5478C25.6976 26.2325 25.791 25.8754 25.7887 25.5125C25.7941 25.2307 25.7433 24.9505 25.6391 24.6885C25.535 24.4265 25.3796 24.1879 25.1822 23.9867C24.9847 23.7855 24.7491 23.6256 24.4891 23.5165C24.2292 23.4074 23.95 23.3512 23.6681 23.3513V23.3838Z" fill="#710089"/>
    <path d="M40.56 26.2925C40.2883 26.2985 40.0165 26.2822 39.7475 26.2437C38.9021 26.2424 38.0587 26.1608 37.2287 26C36.4252 25.8438 35.6369 25.6182 34.8725 25.3256C34.2017 25.0521 33.5549 24.7232 32.9387 24.3425L30.68 24.6431C30.5415 24.6537 30.4026 24.6286 30.2766 24.5702C30.1506 24.5119 30.0416 24.4222 29.9601 24.3097C29.8786 24.1972 29.8273 24.0658 29.8111 23.9278C29.7949 23.7899 29.8143 23.6501 29.8675 23.5218L30.6068 21.7668C30.3159 21.1751 30.1631 20.525 30.16 19.8656C30.16 18.2406 31.0781 16.7212 32.8168 15.5106C33.2962 15.1919 33.805 14.9198 34.3362 14.6981C34.5264 14.6009 34.7217 14.5141 34.9212 14.4381C36.2759 13.9097 37.7035 13.5918 39.1543 13.4956C39.6347 13.445 40.1175 13.4206 40.6006 13.4225C46.4587 13.4225 51.0493 16.2581 51.0493 19.9225C51.0493 23.5868 46.4181 26.2925 40.56 26.2925ZM33.9218 22.9937C34.4169 23.3051 34.9358 23.5768 35.4737 23.8062C36.8689 24.3216 38.3415 24.5963 39.8287 24.6187H39.9425C40.1479 24.6358 40.3545 24.6358 40.56 24.6187C45.3456 24.6187 49.3837 22.4006 49.3837 19.7437C49.3837 17.0868 45.3212 14.9093 40.56 14.9093C40.1212 14.9093 39.6662 14.9093 39.26 14.9743C37.9612 15.0502 36.6816 15.3242 35.4656 15.7868C35.2982 15.8486 35.1353 15.9219 34.9781 16.0062C34.5298 16.1911 34.1023 16.4225 33.7025 16.6968C33.1595 17.007 32.6986 17.4423 32.358 17.9667C32.0174 18.491 31.807 19.0891 31.7443 19.7112C31.7486 20.2169 31.8919 20.7116 32.1587 21.1412C32.2275 21.2521 32.2686 21.3779 32.2785 21.508C32.2884 21.6381 32.2668 21.7687 32.2156 21.8887L31.8743 22.7012L33.0931 22.5306C33.2105 22.5097 33.331 22.5149 33.4461 22.5457C33.5613 22.5766 33.6682 22.6325 33.7593 22.7093C33.8361 22.7893 33.8919 22.887 33.9218 22.9937ZM44.8012 21.4662C44.4184 21.4662 44.0442 21.3526 43.726 21.1397C43.4079 20.9269 43.16 20.6244 43.0139 20.2706C42.8678 19.9168 42.83 19.5275 42.9052 19.1522C42.9805 18.7769 43.1655 18.4323 43.4367 18.1622C43.708 17.8921 44.0533 17.7086 44.429 17.6349C44.8046 17.5612 45.1937 17.6006 45.5469 17.7483C45.9001 17.8959 46.2015 18.145 46.413 18.464C46.6245 18.7831 46.7366 19.1578 46.735 19.5406C46.7307 20.0514 46.5253 20.5399 46.1634 20.9004C45.8014 21.2608 45.312 21.4641 44.8012 21.4662ZM44.8012 19.2318C44.76 19.2307 44.719 19.2379 44.6806 19.253C44.6422 19.268 44.6072 19.2906 44.5776 19.3193C44.5481 19.3481 44.5246 19.3825 44.5086 19.4205C44.4926 19.4585 44.4843 19.4993 44.4843 19.5406C44.4885 19.6218 44.5237 19.6983 44.5827 19.7542C44.6417 19.8102 44.7199 19.8413 44.8012 19.8412C44.8817 19.8412 44.959 19.8098 45.0167 19.7537C45.0744 19.6975 45.1078 19.6211 45.11 19.5406C45.1111 19.4997 45.1039 19.4591 45.0887 19.4211C45.0736 19.3832 45.0509 19.3487 45.022 19.3198C44.9931 19.2909 44.9586 19.2682 44.9207 19.2531C44.8827 19.2379 44.8421 19.2307 44.8012 19.2318ZM40.3812 21.4662C39.8717 21.4599 39.3847 21.2553 39.0236 20.8957C38.6626 20.5362 38.4559 20.0501 38.4475 19.5406C38.4458 19.2039 38.5327 18.8728 38.6996 18.5804C38.8665 18.288 39.1074 18.0447 39.3981 17.875C39.6934 17.6934 40.0346 17.6003 40.3812 17.6068C40.8714 17.6387 41.331 17.8558 41.6669 18.2142C42.0028 18.5726 42.1897 19.0453 42.1897 19.5365C42.1897 20.0277 42.0028 20.5005 41.6669 20.8589C41.331 21.2172 40.8714 21.4344 40.3812 21.4662ZM40.3812 19.2318C40.341 19.2241 40.2996 19.2241 40.2593 19.2318C40.2043 19.2587 40.1578 19.3002 40.1248 19.3518C40.0918 19.4034 40.0737 19.4631 40.0725 19.5243C40.0705 19.5748 40.0834 19.6247 40.1093 19.668C40.1353 19.7112 40.1733 19.746 40.2187 19.7681C40.2659 19.8029 40.3226 19.8227 40.3812 19.825C40.4603 19.8229 40.5356 19.7906 40.5915 19.7346C40.6475 19.6787 40.6798 19.6034 40.6818 19.5243C40.6778 19.4467 40.6446 19.3734 40.5888 19.3192C40.5331 19.265 40.4589 19.2338 40.3812 19.2318ZM35.9693 21.4662C35.5859 21.4694 35.2101 21.3586 34.8898 21.1477C34.5695 20.9368 34.3191 20.6354 34.1705 20.2819C34.0219 19.9284 33.9817 19.5387 34.0551 19.1623C34.1286 18.7859 34.3123 18.4398 34.5829 18.1681C34.8534 17.8963 35.1987 17.7112 35.5748 17.6361C35.9509 17.5611 36.3408 17.5996 36.695 17.7467C37.0491 17.8939 37.3515 18.143 37.5637 18.4624C37.776 18.7818 37.8884 19.1571 37.8868 19.5406C37.8847 20.0492 37.6823 20.5366 37.3234 20.897C36.9644 21.2574 36.478 21.4619 35.9693 21.4662ZM35.9693 19.2318C35.9285 19.2307 35.8878 19.2379 35.8499 19.2531C35.8119 19.2682 35.7774 19.2909 35.7485 19.3198C35.7196 19.3487 35.6969 19.3832 35.6818 19.4211C35.6667 19.4591 35.6595 19.4997 35.6606 19.5406C35.6627 19.6211 35.6962 19.6975 35.7538 19.7537C35.8115 19.8098 35.8888 19.8412 35.9693 19.8412C36.0477 19.8391 36.122 19.8065 36.1767 19.7503C36.2313 19.6942 36.2619 19.6189 36.2618 19.5406C36.2641 19.5008 36.2581 19.461 36.2444 19.4237C36.2307 19.3863 36.2095 19.3521 36.1821 19.3232C36.1547 19.2943 36.1218 19.2713 36.0852 19.2555C36.0486 19.2398 36.0092 19.2318 35.9693 19.2318Z" fill="#710089"/>
    <path d="M35.9693 21.4663C35.5858 21.4695 35.21 21.3587 34.8897 21.1478C34.5694 20.9369 34.319 20.6355 34.1704 20.282C34.0218 19.9285 33.9816 19.5388 34.0551 19.1624C34.1285 18.786 34.3122 18.4399 34.5828 18.1682C34.8534 17.8964 35.1987 17.7113 35.5747 17.6362C35.9508 17.5612 36.3407 17.5997 36.6949 17.7468C37.049 17.894 37.3514 18.1431 37.5637 18.4625C37.7759 18.7819 37.8884 19.1572 37.8868 19.5407C37.8847 20.0493 37.6822 20.5367 37.3233 20.8971C36.9644 21.2575 36.4779 21.462 35.9693 21.4663ZM35.9693 19.2319C35.9284 19.2308 35.8878 19.238 35.8498 19.2532C35.8118 19.2683 35.7774 19.291 35.7485 19.3199C35.7196 19.3488 35.6969 19.3833 35.6817 19.4212C35.6666 19.4592 35.6594 19.4998 35.6605 19.5407C35.6626 19.6212 35.6961 19.6976 35.7538 19.7538C35.8114 19.8099 35.8888 19.8413 35.9693 19.8413C36.0476 19.8392 36.122 19.8066 36.1766 19.7504C36.2312 19.6943 36.2618 19.619 36.2618 19.5407C36.264 19.5009 36.2581 19.4611 36.2443 19.4238C36.2306 19.3864 36.2094 19.3522 36.1821 19.3233C36.1547 19.2944 36.1217 19.2714 36.0851 19.2556C36.0485 19.2399 36.0091 19.2319 35.9693 19.2319Z" fill="#710089"/>
    <path d="M40.3812 21.4661C39.8717 21.4599 39.3847 21.2552 39.0236 20.8957C38.6625 20.5361 38.4558 20.05 38.4474 19.5405C38.4457 19.2039 38.5327 18.8727 38.6995 18.5803C38.8664 18.2879 39.1073 18.0446 39.398 17.8749C39.6933 17.6933 40.0346 17.6002 40.3812 17.6068C40.8713 17.6386 41.331 17.8557 41.6668 18.2141C42.0027 18.5725 42.1896 19.0453 42.1896 19.5365C42.1896 20.0276 42.0027 20.5004 41.6668 20.8588C41.331 21.2172 40.8713 21.4343 40.3812 21.4661ZM40.3812 19.2318C40.3409 19.2241 40.2995 19.2241 40.2593 19.2318C40.2043 19.2586 40.1577 19.3002 40.1247 19.3518C40.0918 19.4034 40.0737 19.463 40.0724 19.5243C40.0705 19.5747 40.0833 19.6246 40.1093 19.6679C40.1352 19.7112 40.1733 19.746 40.2187 19.768C40.2659 19.8028 40.3225 19.8227 40.3812 19.8249C40.4602 19.8228 40.5355 19.7905 40.5915 19.7346C40.6474 19.6786 40.6797 19.6033 40.6818 19.5243C40.6777 19.4466 40.6445 19.3734 40.5888 19.3191C40.533 19.2649 40.4589 19.2337 40.3812 19.2318Z" fill="#710089"/>
    <path d="M44.8012 21.4661C44.4184 21.4661 44.0442 21.3525 43.726 21.1397C43.4078 20.9268 43.16 20.6243 43.0139 20.2705C42.8677 19.9167 42.8299 19.5275 42.9052 19.1521C42.9805 18.7768 43.1654 18.4323 43.4367 18.1621C43.708 17.892 44.0533 17.7085 44.4289 17.6348C44.8046 17.5611 45.1936 17.6006 45.5468 17.7482C45.9 17.8958 46.2015 18.1449 46.413 18.464C46.6245 18.783 46.7365 19.1577 46.7349 19.5405C46.7306 20.0513 46.5253 20.5398 46.1633 20.9003C45.8014 21.2607 45.312 21.464 44.8012 21.4661ZM44.8012 19.2318C44.7599 19.2307 44.7189 19.2379 44.6805 19.2529C44.6421 19.2679 44.6071 19.2905 44.5776 19.3193C44.548 19.348 44.5246 19.3824 44.5085 19.4204C44.4925 19.4584 44.4843 19.4993 44.4843 19.5405C44.4885 19.6217 44.5237 19.6982 44.5827 19.7541C44.6416 19.8101 44.7199 19.8412 44.8012 19.8411C44.8817 19.8412 44.959 19.8098 45.0167 19.7536C45.0743 19.6974 45.1078 19.621 45.1099 19.5405C45.111 19.4997 45.1038 19.459 45.0887 19.421C45.0736 19.3831 45.0509 19.3486 45.022 19.3197C44.9931 19.2908 44.9586 19.2681 44.9206 19.253C44.8827 19.2379 44.842 19.2306 44.8012 19.2318Z" fill="#710089"/>
    <path d="M44.8012 21.4661C44.4184 21.4661 44.0442 21.3525 43.726 21.1397C43.4078 20.9268 43.16 20.6243 43.0139 20.2705C42.8677 19.9167 42.8299 19.5275 42.9052 19.1521C42.9805 18.7768 43.1654 18.4323 43.4367 18.1621C43.708 17.892 44.0533 17.7085 44.4289 17.6348C44.8046 17.5611 45.1936 17.6006 45.5468 17.7482C45.9 17.8958 46.2015 18.1449 46.413 18.464C46.6245 18.783 46.7365 19.1577 46.7349 19.5405C46.7306 20.0513 46.5253 20.5398 46.1633 20.9003C45.8014 21.2607 45.312 21.464 44.8012 21.4661ZM44.8012 19.2318C44.7599 19.2307 44.7189 19.2379 44.6805 19.2529C44.6421 19.2679 44.6071 19.2905 44.5776 19.3193C44.548 19.348 44.5246 19.3824 44.5085 19.4204C44.4925 19.4584 44.4843 19.4993 44.4843 19.5405C44.4885 19.6217 44.5237 19.6982 44.5827 19.7541C44.6416 19.8101 44.7199 19.8412 44.8012 19.8411C44.8817 19.8412 44.959 19.8098 45.0167 19.7536C45.0743 19.6974 45.1078 19.621 45.1099 19.5405C45.111 19.4997 45.1038 19.459 45.0887 19.421C45.0736 19.3831 45.0509 19.3486 45.022 19.3197C44.9931 19.2908 44.9586 19.2681 44.9206 19.253C44.8827 19.2379 44.842 19.2306 44.8012 19.2318Z" fill="#710089"/>
    <path d="M10.5625 24.1393C4.71245 24.1393 0.121826 21.2956 0.121826 17.6799C0.121826 14.0643 4.71245 11.1799 10.5706 11.1799C11.0644 11.1792 11.558 11.2036 12.0493 11.2531C13.4914 11.3655 14.9078 11.697 16.25 12.2362C16.4554 12.3139 16.6561 12.4034 16.8512 12.5043C17.3735 12.7284 17.874 13.0004 18.3462 13.3168C20.0768 14.5274 20.995 16.0306 20.995 17.6799C20.992 18.3368 20.8392 18.9843 20.5481 19.5731L21.2875 21.3281C21.3406 21.4564 21.36 21.5962 21.3438 21.7341C21.3276 21.872 21.2763 22.0035 21.1948 22.1159C21.1133 22.2284 21.0043 22.3181 20.8783 22.3765C20.7523 22.4348 20.6134 22.4599 20.475 22.4493L18.2162 22.1487C17.5907 22.5308 16.9327 22.857 16.25 23.1237C15.4777 23.4218 14.6812 23.6529 13.8693 23.8143C13.0453 23.982 12.2076 24.0745 11.3668 24.0906C11.1005 24.1292 10.8315 24.1455 10.5625 24.1393ZM10.5625 12.8374C5.77683 12.8374 1.7387 15.0556 1.7387 17.7124C1.7387 20.3693 5.8012 22.5468 10.5625 22.5468C10.7679 22.5641 10.9745 22.5641 11.18 22.5468H11.2937C12.0527 22.5308 12.8086 22.4466 13.5525 22.2949C14.2686 22.1502 14.9723 21.9492 15.6568 21.6937C16.1932 21.4609 16.7118 21.1894 17.2087 20.8812C17.2537 20.8139 17.3084 20.7536 17.3712 20.7024C17.4623 20.6256 17.5693 20.5697 17.6844 20.5389C17.7996 20.508 17.9201 20.5028 18.0375 20.5237H18.1268L19.2481 20.6781L18.9068 19.8656C18.8556 19.7456 18.834 19.615 18.8439 19.4849C18.8538 19.3548 18.8949 19.2289 18.9637 19.1181C19.2306 18.6915 19.374 18.1993 19.3781 17.6962C19.3246 17.066 19.1203 16.458 18.7823 15.9234C18.4443 15.3888 17.9826 14.9435 17.4362 14.6249C17.0473 14.363 16.6337 14.1398 16.2012 13.9587C15.99 13.8531 15.8437 13.7799 15.6812 13.7149C14.4693 13.2574 13.1959 12.9835 11.9031 12.9024C11.4643 12.8618 11.0093 12.8374 10.5625 12.8374ZM15.1531 19.3374C14.7706 19.3358 14.3972 19.2209 14.0801 19.007C13.763 18.7932 13.5164 18.4902 13.3716 18.1362C13.2267 17.7823 13.19 17.3933 13.2662 17.0185C13.3424 16.6437 13.528 16.2999 13.7996 16.0306C14.0712 15.7613 14.4165 15.5786 14.7919 15.5056C15.1673 15.4325 15.556 15.4724 15.9087 15.6203C16.2615 15.7681 16.5624 16.0172 16.7736 16.3361C16.9847 16.655 17.0966 17.0294 17.095 17.4118C17.0885 17.9197 16.8817 18.4045 16.5195 18.7606C16.1573 19.1167 15.6691 19.3153 15.1612 19.3131L15.1531 19.3374ZM15.1531 17.1031C15.1133 17.103 15.0738 17.1111 15.0373 17.1268C15.0007 17.1425 14.9677 17.1655 14.9403 17.1944C14.9129 17.2233 14.8917 17.2575 14.878 17.2949C14.8643 17.3323 14.8584 17.3721 14.8606 17.4118C14.8605 17.4902 14.8911 17.5654 14.9457 17.6216C15.0004 17.6777 15.0748 17.7103 15.1531 17.7124C15.2344 17.7126 15.3126 17.6814 15.3716 17.6255C15.4306 17.5695 15.4658 17.493 15.47 17.4118C15.4758 17.368 15.4721 17.3234 15.4592 17.2812C15.4463 17.2389 15.4245 17.1999 15.3952 17.1667C15.366 17.1336 15.3299 17.1072 15.2896 17.0892C15.2492 17.0712 15.2054 17.0621 15.1612 17.0624L15.1531 17.1031ZM10.7412 19.3374C10.2511 19.3056 9.79139 19.0885 9.45552 18.7301C9.11964 18.3717 8.93273 17.8989 8.93273 17.4078C8.93273 16.9166 9.11964 16.4438 9.45552 16.0854C9.79139 15.727 10.2511 15.5099 10.7412 15.4781C11.1093 15.468 11.471 15.5763 11.7731 15.7868C12.0538 15.9536 12.2852 16.1919 12.4437 16.4774C12.6021 16.7629 12.6819 17.0854 12.675 17.4118C12.6736 17.7414 12.5859 18.065 12.4206 18.3501C12.2552 18.6352 12.0179 18.872 11.7325 19.0368C11.4376 19.2204 11.0966 19.3162 10.7493 19.3131L10.7412 19.3374ZM10.7412 17.1031C10.6607 17.1052 10.5843 17.1387 10.5281 17.1963C10.472 17.254 10.4405 17.3313 10.4406 17.4118C10.4387 17.4632 10.4505 17.5142 10.4747 17.5597C10.4989 17.6051 10.5346 17.6433 10.5783 17.6705C10.622 17.6977 10.672 17.7129 10.7235 17.7146C10.7749 17.7162 10.8259 17.7043 10.8712 17.6799C10.9152 17.6552 10.9517 17.6192 10.9772 17.5757C11.0027 17.5321 11.0161 17.4826 11.0161 17.4321C11.0161 17.3817 11.0027 17.3322 10.9772 17.2886C10.9517 17.2451 10.9152 17.2091 10.8712 17.1843C10.8602 17.1568 10.8437 17.1319 10.8227 17.1109C10.8018 17.09 10.7768 17.0735 10.7493 17.0624L10.7412 17.1031ZM6.32933 19.3131C5.94687 19.3115 5.57348 19.1965 5.25638 18.9827C4.93927 18.7688 4.69269 18.4658 4.54782 18.1118C4.40295 17.7579 4.36629 17.3689 4.44248 16.9941C4.51867 16.6193 4.70429 16.2755 4.97586 16.0062C5.24743 15.7369 5.59276 15.5542 5.96818 15.4812C6.3436 15.4081 6.73225 15.4481 7.08497 15.5959C7.4377 15.7438 7.73867 15.9929 7.94982 16.3118C8.16096 16.6307 8.27281 17.005 8.2712 17.3874C8.27014 17.6414 8.21906 17.8926 8.1209 18.1268C8.02273 18.3611 7.8794 18.5736 7.69908 18.7524C7.51876 18.9313 7.30498 19.0728 7.06996 19.169C6.83494 19.2652 6.58327 19.3141 6.32933 19.3131ZM6.32933 17.0787C6.28848 17.0776 6.24783 17.0848 6.20986 17.0999C6.1719 17.115 6.13741 17.1377 6.10851 17.1666C6.07962 17.1955 6.05692 17.23 6.0418 17.268C6.02668 17.3059 6.01946 17.3466 6.02058 17.3874C6.02269 17.4679 6.05616 17.5444 6.11383 17.6005C6.1715 17.6567 6.24883 17.6881 6.32933 17.6881C6.41063 17.6882 6.48886 17.657 6.54784 17.6011C6.60682 17.5451 6.64203 17.4686 6.6462 17.3874C6.64846 17.3449 6.64188 17.3023 6.62686 17.2624C6.61184 17.2224 6.58872 17.1861 6.55895 17.1555C6.52918 17.125 6.49341 17.101 6.45389 17.085C6.41437 17.0689 6.37195 17.0613 6.32933 17.0624V17.0787Z" fill="#710089"/>
    <path d="M15.1612 19.313C14.7787 19.3114 14.4054 19.1964 14.0883 18.9826C13.7711 18.7688 13.5246 18.4658 13.3797 18.1118C13.2348 17.7578 13.1982 17.3689 13.2744 16.9941C13.3505 16.6193 13.5362 16.2755 13.8077 16.0062C14.0793 15.7369 14.4246 15.5542 14.8001 15.4811C15.1755 15.4081 15.5641 15.448 15.9169 15.5959C16.2696 15.7437 16.5705 15.9928 16.7817 16.3117C16.9928 16.6306 17.1047 17.005 17.1031 17.3874C17.1031 17.6417 17.0527 17.8934 16.955 18.1281C16.8572 18.3628 16.7139 18.5758 16.5333 18.7548C16.3528 18.9338 16.1386 19.0753 15.9031 19.1712C15.6676 19.267 15.4154 19.3152 15.1612 19.313ZM15.1612 17.0787C15.1214 17.0786 15.082 17.0867 15.0454 17.1024C15.0088 17.1181 14.9758 17.1411 14.9484 17.17C14.921 17.1989 14.8998 17.2331 14.8861 17.2705C14.8724 17.3079 14.8665 17.3477 14.8687 17.3874C14.8687 17.4658 14.8992 17.541 14.9539 17.5972C15.0085 17.6533 15.0829 17.6859 15.1612 17.688C15.2425 17.6881 15.3207 17.657 15.3797 17.601C15.4387 17.5451 15.4739 17.4686 15.4781 17.3874C15.4803 17.3448 15.4738 17.3022 15.4587 17.2623C15.4437 17.2224 15.4206 17.186 15.3908 17.1555C15.3611 17.125 15.3253 17.1009 15.2858 17.0849C15.2462 17.0689 15.2038 17.0612 15.1612 17.0624V17.0787Z" fill="#710089"/>
    <path d="M10.7494 19.3131C10.2592 19.2813 9.79958 19.0642 9.4637 18.7058C9.12783 18.3474 8.94092 17.8746 8.94092 17.3835C8.94092 16.8923 9.12783 16.4195 9.4637 16.0611C9.79958 15.7027 10.2592 15.4856 10.7494 15.4538C11.1175 15.4437 11.4792 15.5519 11.7813 15.7625C12.062 15.9293 12.2934 16.1676 12.4518 16.4531C12.6103 16.7386 12.6901 17.0611 12.6831 17.3875C12.681 17.7189 12.5912 18.0438 12.4228 18.3292C12.2544 18.6147 12.0134 18.8504 11.7244 19.0125C11.4351 19.2045 11.0965 19.3089 10.7494 19.3131ZM10.7494 17.0788C10.6689 17.0809 10.5925 17.1143 10.5363 17.172C10.4801 17.2297 10.4487 17.307 10.4488 17.3875C10.4469 17.4389 10.4587 17.4899 10.4829 17.5354C10.5071 17.5808 10.5428 17.619 10.5865 17.6462C10.6302 17.6734 10.6802 17.6886 10.7317 17.6903C10.7831 17.6919 10.834 17.68 10.8794 17.6556C10.9316 17.6325 10.9761 17.595 11.0077 17.5476C11.0394 17.5001 11.0569 17.4446 11.0581 17.3875C11.0617 17.3357 11.0497 17.2841 11.0236 17.2392C10.9975 17.1943 10.9586 17.1582 10.9119 17.1356C10.8914 17.1128 10.8664 17.0944 10.8384 17.0818C10.8104 17.0692 10.7801 17.0627 10.7494 17.0625V17.0788Z" fill="#710089"/>
    <path d="M6.32937 19.305C5.94657 19.3034 5.57286 19.1882 5.25559 18.974C4.93832 18.7598 4.69175 18.4563 4.54713 18.1018C4.4025 17.7474 4.36633 17.358 4.44318 16.983C4.52004 16.608 4.70647 16.2642 4.97885 15.9953C5.25124 15.7263 5.59733 15.5442 5.97328 15.4721C6.34922 15.4 6.73812 15.4411 7.09069 15.5902C7.44327 15.7393 7.74366 15.9897 7.95382 16.3096C8.16398 16.6296 8.27445 17.0047 8.27124 17.3875C8.26695 17.8989 8.0602 18.3879 7.69626 18.7472C7.33232 19.1066 6.84083 19.3072 6.32937 19.305ZM6.32937 17.0706C6.28813 17.0706 6.2473 17.0788 6.20931 17.0949C6.17131 17.1109 6.1369 17.1344 6.10812 17.1639C6.07934 17.1934 6.05677 17.2284 6.04174 17.2668C6.02671 17.3052 6.01953 17.3463 6.02062 17.3875C6.03263 17.4618 6.07071 17.5294 6.12802 17.5782C6.18534 17.627 6.25816 17.6538 6.33343 17.6538C6.4087 17.6538 6.48152 17.627 6.53883 17.5782C6.59615 17.5294 6.63423 17.4618 6.64624 17.3875C6.6485 17.3449 6.64192 17.3023 6.6269 17.2624C6.61188 17.2225 6.58876 17.1861 6.55899 17.1556C6.52922 17.125 6.49345 17.101 6.45393 17.085C6.41441 17.069 6.37199 17.0613 6.32937 17.0625V17.0706Z" fill="#710089"/>
    <path d="M6.32937 19.305C5.94657 19.3034 5.57286 19.1882 5.25559 18.974C4.93832 18.7598 4.69175 18.4563 4.54713 18.1018C4.4025 17.7474 4.36633 17.358 4.44318 16.983C4.52004 16.608 4.70647 16.2642 4.97885 15.9953C5.25124 15.7263 5.59733 15.5442 5.97328 15.4721C6.34922 15.4 6.73812 15.4411 7.09069 15.5902C7.44327 15.7393 7.74366 15.9897 7.95382 16.3096C8.16398 16.6296 8.27445 17.0047 8.27124 17.3875C8.26695 17.8989 8.0602 18.3879 7.69626 18.7472C7.33232 19.1066 6.84083 19.3072 6.32937 19.305ZM6.32937 17.0706C6.28813 17.0706 6.2473 17.0788 6.20931 17.0949C6.17131 17.1109 6.1369 17.1344 6.10812 17.1639C6.07934 17.1934 6.05677 17.2284 6.04174 17.2668C6.02671 17.3052 6.01953 17.3463 6.02062 17.3875C6.03263 17.4618 6.07071 17.5294 6.12802 17.5782C6.18534 17.627 6.25816 17.6538 6.33343 17.6538C6.4087 17.6538 6.48152 17.627 6.53883 17.5782C6.59615 17.5294 6.63423 17.4618 6.64624 17.3875C6.6485 17.3449 6.64192 17.3023 6.6269 17.2624C6.61188 17.2225 6.58876 17.1861 6.55899 17.1556C6.52922 17.125 6.49345 17.101 6.45393 17.085C6.41441 17.069 6.37199 17.0613 6.32937 17.0625V17.0706Z" fill="#710089"/>
</svg>
