<svg width="52" height="52" viewBox="0 0 52 52" fill="none" xmlns="http://www.w3.org/2000/svg">
    <path d="M48.6653 21.1289H43.4327V17.2429L48.6653 21.1289Z" fill="#FFB000"/>
    <path d="M43.4327 21.165H48.6653L43.4327 24.4727V21.165Z" fill="#FFB000"/>
    <path d="M3.34375 21.165H8.57628V24.4727L3.34375 21.165Z" fill="#FFB000"/>
    <path d="M8.57628 17.2429V21.1289H3.34375L8.57628 17.2429Z" fill="#FFB000"/>
    <path d="M48.6653 49.7859H3.34375L12.2996 44.1286L14.6764 42.6284L26 35.48L37.3326 42.6284L39.7094 44.1286L48.6653 49.7859Z" fill="#FFB000"/>
    <path d="M26 35.4799L14.6764 42.6284L12.2996 44.1285L3.34375 49.7858V21.165L8.57628 24.4727L14.6764 28.3225L26 35.4799Z" fill="#FFB000"/>
    <path d="M48.6653 21.165V49.7858L39.7094 44.1285L37.3326 42.6284L26 35.4799L43.4327 24.4727L48.6653 21.165Z" fill="#FFB000"/>
    <path d="M43.4327 2.21411V24.4727L26 35.48L14.6764 28.3226L8.57629 24.4727V2.21411H43.4327Z" fill="#E1F4FF"/>
    <path d="M33.2026 13.1853C33.2001 12.868 33.1789 12.5512 33.1394 12.2364L30.5276 11.3327L31.7115 8.83842C31.3312 8.33155 30.8809 7.88122 30.374 7.50091L27.8707 8.65767L26.967 6.04593C26.6521 6.00655 26.3353 5.98543 26.0181 5.98267C25.7159 5.98681 25.4142 6.00794 25.1143 6.04593L24.2106 8.65767L21.626 7.4738C21.1212 7.85651 20.6712 8.30652 20.2885 8.81131L21.4814 11.3056L18.8696 12.2093C18.7733 12.8352 18.7733 13.4722 18.8696 14.0981L21.4814 15.0018L20.2885 17.5051C20.6738 18.0076 21.1235 18.4573 21.626 18.8426L24.1293 17.6497L25.033 20.2614C25.3322 20.3066 25.6342 20.3308 25.9367 20.3337C26.2544 20.3325 26.5715 20.3083 26.8856 20.2614L27.7893 17.6497L30.2927 18.8426C30.7974 18.4599 31.2474 18.0099 31.6302 17.5051L30.4463 15.0018L33.058 14.0981C33.1236 13.7968 33.1719 13.4921 33.2026 13.1853Z" fill="#27A3FF"/>
    <path d="M26 15.2367C27.133 15.2367 28.0514 14.3182 28.0514 13.1852C28.0514 12.0523 27.133 11.1338 26 11.1338C24.867 11.1338 23.9485 12.0523 23.9485 13.1852C23.9485 14.3182 24.867 15.2367 26 15.2367Z" fill="#E1F4FF"/>
    <g style="mix-blend-mode:multiply" opacity="0.25">
        <path d="M48.6653 21.165H44.1467V49.7858H48.6653V21.165Z" fill="black"/>
        <path d="M43.4327 17.243V2.21411H38.9141L38.7967 27.4008L43.4327 24.4727L48.6653 21.129L43.4327 17.243Z" fill="black"/>
        <path d="M43.4327 21.1289H38.9142V21.1651H43.4327V21.1289Z" fill="black"/>
    </g>
    <g style="mix-blend-mode:overlay">
        <path d="M13.0949 2.21411H8.57628V17.243L3.34375 21.129L8.57628 23.4967L13.0135 27.3014L13.0949 2.21411Z" fill="white"/>
        <path d="M7.86235 21.165H3.34375V49.7858H7.86235V21.165Z" fill="white"/>
        <path d="M13.0949 21.1289H8.57629V21.1651H13.0949V21.1289Z" fill="white"/>
    </g>
    <path d="M48.6653 21.1289H43.4327V17.2429L48.6653 21.1289Z" stroke="black" stroke-width="2" stroke-linecap="round" stroke-linejoin="round"/>
    <path d="M43.4327 21.165H48.6653L43.4327 24.4727V21.165Z" stroke="black" stroke-width="2" stroke-linecap="round" stroke-linejoin="round"/>
    <path d="M3.34375 21.165H8.57628V24.4727L3.34375 21.165Z" stroke="black" stroke-width="2" stroke-linecap="round" stroke-linejoin="round"/>
    <path d="M8.57628 17.2429V21.1289H3.34375L8.57628 17.2429Z" stroke="black" stroke-width="2" stroke-linecap="round" stroke-linejoin="round"/>
    <path d="M48.6653 49.7859H3.34375L12.2996 44.1286L14.6764 42.6284L26 35.48L37.3326 42.6284L39.7094 44.1286L48.6653 49.7859Z" stroke="black" stroke-width="2" stroke-linecap="round" stroke-linejoin="round"/>
    <path d="M26 35.4799L14.6764 42.6284L12.2996 44.1285L3.34375 49.7858V21.165L8.57628 24.4727L14.6764 28.3225L26 35.4799Z" stroke="black" stroke-width="2" stroke-linecap="round" stroke-linejoin="round"/>
    <path d="M48.6653 21.165V49.7858L39.7094 44.1285L37.3326 42.6284L26 35.4799L43.4327 24.4727L48.6653 21.165Z" stroke="black" stroke-width="2" stroke-linecap="round" stroke-linejoin="round"/>
    <path d="M43.4327 2.21411V24.4727L26 35.48L14.6764 28.3226L8.57629 24.4727V2.21411H43.4327Z" stroke="black" stroke-width="2" stroke-linecap="round" stroke-linejoin="round"/>
    <path d="M33.2026 13.1853C33.2001 12.868 33.1789 12.5512 33.1394 12.2364L30.5276 11.3327L31.7115 8.83842C31.3312 8.33155 30.8809 7.88122 30.374 7.50091L27.8707 8.65767L26.967 6.04593C26.6521 6.00655 26.3353 5.98543 26.0181 5.98267C25.7159 5.98681 25.4142 6.00794 25.1143 6.04593L24.2106 8.65767L21.626 7.4738C21.1212 7.85651 20.6712 8.30652 20.2885 8.81131L21.4814 11.3056L18.8696 12.2093C18.7733 12.8352 18.7733 13.4722 18.8696 14.0981L21.4814 15.0018L20.2885 17.5051C20.6738 18.0076 21.1235 18.4573 21.626 18.8426L24.1293 17.6497L25.033 20.2614C25.3322 20.3066 25.6342 20.3308 25.9367 20.3337C26.2544 20.3325 26.5715 20.3083 26.8856 20.2614L27.7893 17.6497L30.2927 18.8426C30.7974 18.4599 31.2474 18.0099 31.6302 17.5051L30.4463 15.0018L33.058 14.0981C33.1236 13.7968 33.1719 13.4921 33.2026 13.1853Z" stroke="black" stroke-width="2" stroke-linecap="round" stroke-linejoin="round"/>
    <path d="M26 15.2367C27.133 15.2367 28.0514 14.3182 28.0514 13.1852C28.0514 12.0523 27.133 11.1338 26 11.1338C24.867 11.1338 23.9485 12.0523 23.9485 13.1852C23.9485 14.3182 24.867 15.2367 26 15.2367Z" stroke="black" stroke-width="2" stroke-linecap="round" stroke-linejoin="round"/>
    <path d="M16.032 24.4727H35.977" stroke="black" stroke-width="2" stroke-linecap="round" stroke-linejoin="round"/>
    <path d="M16.2127 46.7856H25.4126" stroke="black" stroke-width="2" stroke-linecap="round" stroke-linejoin="round"/>
    <path d="M27.7351 46.7856H31.6844" stroke="black" stroke-width="2" stroke-linecap="round" stroke-linejoin="round"/>
</svg>
