<svg width="32" height="32" viewBox="0 0 32 32" fill="none" xmlns="http://www.w3.org/2000/svg">
<path d="M23.965 31.45H5.755C5.39541 31.4526 5.03884 31.3843 4.70568 31.249C4.37252 31.1137 4.06932 30.914 3.81342 30.6613C3.55753 30.4087 3.35397 30.1081 3.21439 29.7767C3.07482 29.4453 3.00196 29.0896 3 28.73V4.81501C3 4.08699 3.2892 3.38879 3.80399 2.874C4.31878 2.35921 5.01698 2.07001 5.745 2.07001H9.815C9.94761 2.07001 10.0748 2.12269 10.1686 2.21645C10.2623 2.31022 10.315 2.4374 10.315 2.57001V3.47001C10.3212 3.66139 10.3858 3.84631 10.5 4.00001C10.5852 4.12062 10.6984 4.21869 10.8299 4.28576C10.9615 4.35284 11.1074 4.3869 11.255 4.38501H18.43C18.5737 4.38455 18.7152 4.34928 18.8423 4.28224C18.9695 4.21519 19.0784 4.11835 19.16 4.00001C19.2618 3.85294 19.3175 3.67887 19.32 3.50001V2.57001C19.32 2.4374 19.3727 2.31022 19.4664 2.21645C19.5602 2.12269 19.6874 2.07001 19.82 2.07001H23.965C24.6895 2.07398 25.3828 2.36525 25.8928 2.8799C26.4027 3.39454 26.6877 4.0905 26.685 4.81501V22.315C26.6848 22.4116 26.6566 22.5061 26.6038 22.587C26.551 22.6679 26.4759 22.7318 26.3876 22.771C26.2992 22.8101 26.2015 22.8228 26.1061 22.8076C26.0107 22.7923 25.9217 22.7497 25.85 22.685L23.665 20.685C23.4961 20.923 23.3124 21.1501 23.115 21.365C22.7787 21.734 22.4069 22.0689 22.005 22.365L26.5 26.5C26.5524 26.5473 26.5942 26.6052 26.6227 26.6698C26.6511 26.7345 26.6655 26.8044 26.665 26.875V28.75C26.6585 29.4641 26.3719 30.147 25.867 30.652C25.362 31.1569 24.6791 31.4435 23.965 31.45ZM5.755 3.07001C5.525 3.06869 5.29701 3.11285 5.08415 3.19996C4.87128 3.28706 4.67773 3.41539 4.51463 3.57756C4.35153 3.73973 4.2221 3.93254 4.13378 4.14491C4.04546 4.35727 4 4.58501 4 4.81501V28.73C4.00131 28.9576 4.04752 29.1827 4.13598 29.3925C4.22445 29.6022 4.35343 29.7924 4.51553 29.9522C4.67764 30.1119 4.86968 30.2382 5.08066 30.3236C5.29163 30.409 5.51739 30.452 5.745 30.45H23.965C24.4212 30.45 24.8587 30.2688 25.1812 29.9462C25.5038 29.6237 25.685 29.1862 25.685 28.73V27.075L21 22.835C20.9522 22.795 20.9131 22.7456 20.885 22.69C20.8498 22.6423 20.8181 22.5922 20.79 22.54C20.7349 22.4293 20.7228 22.3021 20.7561 22.1829C20.7893 22.0638 20.8655 21.9612 20.97 21.895C21.4901 21.5678 21.9629 21.1708 22.375 20.715C22.6637 20.3926 22.9246 20.0464 23.155 19.68C23.1951 19.6199 23.2478 19.5692 23.3094 19.5314C23.3709 19.4936 23.44 19.4696 23.5118 19.461C23.5835 19.4524 23.6563 19.4595 23.725 19.4818C23.7938 19.5041 23.8569 19.541 23.91 19.59L25.68 21.2V4.81501C25.682 4.5874 25.639 4.36164 25.5536 4.15067C25.4682 3.93969 25.3419 3.74765 25.1822 3.58554C25.0224 3.42344 24.8322 3.29446 24.6224 3.20599C24.4127 3.11752 24.1876 3.07131 23.96 3.07001H20.32V3.47001C20.32 3.71821 20.2711 3.96397 20.1761 4.19328C20.0812 4.42258 19.9419 4.63094 19.7664 4.80644C19.5909 4.98194 19.3826 5.12116 19.1533 5.21614C18.924 5.31112 18.6782 5.36001 18.43 5.36001H11.24C10.9901 5.36198 10.7422 5.31463 10.5106 5.22066C10.279 5.12668 10.0682 4.98794 9.89033 4.81237C9.71244 4.6368 9.57093 4.42786 9.47392 4.19751C9.37692 3.96717 9.32631 3.71994 9.325 3.47001V3.07001H5.755Z" fill="#7F1A22"/>
<path d="M22.1404 29.035H7.64042C6.89735 29.0377 6.18358 28.7454 5.65581 28.2223C5.12804 27.6992 4.82939 26.9881 4.82542 26.245V6.57C4.82069 6.19752 4.89073 5.82787 5.03141 5.48294C5.17208 5.13801 5.38052 4.8248 5.64439 4.56186C5.90826 4.29892 6.22221 4.09159 6.56763 3.95214C6.91306 3.81269 7.28296 3.74395 7.65542 3.75H10.0704C10.1577 3.75053 10.2433 3.77388 10.3187 3.81774C10.3941 3.8616 10.4568 3.92443 10.5004 4C10.5856 4.12061 10.6988 4.21868 10.8304 4.28576C10.9619 4.35283 11.1078 4.38689 11.2554 4.385H18.4304C18.5741 4.38454 18.7156 4.34928 18.8427 4.28223C18.9699 4.21519 19.0789 4.11835 19.1604 4C19.2062 3.93051 19.2686 3.87354 19.3419 3.83426C19.4152 3.79497 19.4972 3.7746 19.5804 3.775H22.1404C22.5088 3.77697 22.8731 3.85147 23.2127 3.99425C23.5523 4.13703 23.8604 4.3453 24.1195 4.60716C24.3785 4.86902 24.5835 5.17935 24.7227 5.52043C24.8618 5.8615 24.9324 6.22664 24.9304 6.595V20.735C24.9302 20.8316 24.902 20.9261 24.8492 21.007C24.7964 21.0879 24.7213 21.1518 24.633 21.191C24.5447 21.2301 24.4469 21.2428 24.3515 21.2276C24.2561 21.2123 24.1671 21.1697 24.0954 21.105L23.6654 20.71C23.4965 20.948 23.3128 21.1751 23.1154 21.39C22.779 21.7588 22.4072 22.0938 22.0054 22.39L24.7654 24.89C24.8172 24.9367 24.8587 24.9938 24.8871 25.0575C24.9155 25.1213 24.9303 25.1902 24.9304 25.26V26.26C24.9265 26.9974 24.6308 27.7032 24.108 28.2231C23.5852 28.7431 22.8778 29.035 22.1404 29.035ZM7.65542 4.75C7.4159 4.74731 7.17827 4.79258 6.95652 4.88316C6.73477 4.97373 6.53339 5.10777 6.36424 5.27738C6.1951 5.44699 6.06161 5.64873 5.97165 5.87073C5.88169 6.09273 5.83707 6.33049 5.84042 6.57V26.245C5.83904 26.4826 5.88523 26.718 5.97627 26.9374C6.06731 27.1569 6.20135 27.3559 6.3705 27.5227C6.53965 27.6895 6.74048 27.8208 6.96116 27.9088C7.18184 27.9968 7.41789 28.0397 7.65542 28.035H22.1554C22.6298 28.0337 23.0843 27.8447 23.4197 27.5093C23.7551 27.1739 23.9441 26.7193 23.9454 26.245V25.5L21.0004 22.835C20.9527 22.795 20.9135 22.7456 20.8854 22.69C20.8502 22.6423 20.8185 22.5922 20.7904 22.54C20.7353 22.4293 20.7233 22.302 20.7565 22.1829C20.7897 22.0638 20.866 21.9612 20.9704 21.895C21.4905 21.5678 21.9633 21.1708 22.3754 20.715C22.6661 20.3912 22.9287 20.0433 23.1604 19.675C23.2005 19.6149 23.2532 19.5642 23.3148 19.5264C23.3764 19.4886 23.4454 19.4645 23.5172 19.456C23.5889 19.4474 23.6617 19.4545 23.7304 19.4768C23.7992 19.4991 23.8623 19.536 23.9154 19.585V6.57C23.9201 6.3335 23.8776 6.09844 23.7907 5.87847C23.7037 5.65851 23.5738 5.45803 23.4086 5.28869C23.2435 5.11934 23.0463 4.98452 22.8286 4.89204C22.6109 4.79956 22.377 4.75128 22.1404 4.75H19.8204C19.6433 4.94199 19.4284 5.09529 19.1892 5.20026C18.95 5.30523 18.6916 5.35962 18.4304 5.36H11.2404C10.9761 5.36057 10.7145 5.3067 10.4719 5.20176C10.2293 5.09681 10.011 4.94303 9.83042 4.75H7.65542Z" fill="#7F1A22"/>
<path d="M18.4302 5.36H11.2402C10.9903 5.36198 10.7424 5.31462 10.5108 5.22065C10.2792 5.12667 10.0684 4.98793 9.89052 4.81236C9.71263 4.63679 9.57113 4.42785 9.47412 4.1975C9.37711 3.96716 9.3265 3.71994 9.3252 3.47V2.425C9.32916 1.92063 9.53299 1.43842 9.89198 1.08411C10.251 0.72981 10.7358 0.532336 11.2402 0.535H18.4302C18.9294 0.541476 19.4064 0.74268 19.7595 1.09573C20.1125 1.44878 20.3137 1.92575 20.3202 2.425V3.47C20.3202 3.7182 20.2713 3.96397 20.1763 4.19327C20.0813 4.42258 19.9421 4.63093 19.7666 4.80643C19.5911 4.98193 19.3828 5.12115 19.1535 5.21613C18.9242 5.31111 18.6784 5.36 18.4302 5.36ZM11.2402 1.535C11.0018 1.53491 10.7728 1.62787 10.6019 1.7941C10.431 1.96032 10.3317 2.18669 10.3252 2.425V3.47C10.3285 3.66031 10.3895 3.84513 10.5002 4C10.5854 4.12061 10.6986 4.21868 10.8301 4.28576C10.9617 4.35283 11.1076 4.38689 11.2552 4.385H18.4302C18.5739 4.38454 18.7154 4.34928 18.8425 4.28223C18.9696 4.21518 19.0786 4.11835 19.1602 4C19.262 3.85294 19.3177 3.67886 19.3202 3.5V2.425C19.3176 2.18976 19.223 1.9649 19.0566 1.79855C18.8903 1.6322 18.6654 1.5376 18.4302 1.535H11.2402Z" fill="#7F1A22"/>
<path d="M17.72 23.79C16.315 23.7863 14.9414 23.3746 13.7658 22.6051C12.5903 21.8356 11.6635 20.7413 11.098 19.4552C10.5325 18.169 10.3526 16.7463 10.5802 15.3599C10.8078 13.9734 11.433 12.6829 12.38 11.645C13.3082 10.6319 14.5047 9.90282 15.8305 9.54231C17.1564 9.1818 18.5573 9.20467 19.8707 9.60827C21.1841 10.0119 22.3561 10.7796 23.2507 11.8225C24.1454 12.8653 24.7259 14.1405 24.925 15.5C25.03 16.1961 25.03 16.904 24.925 17.6C24.7838 18.5189 24.4699 19.4028 24 20.205C23.7353 20.6243 23.4359 21.0207 23.105 21.39C22.6341 21.9112 22.0941 22.3654 21.5 22.74C20.3571 23.423 19.0514 23.7857 17.72 23.79ZM17.72 10.29H17.41C16.1776 10.356 14.9923 10.7853 14.0035 11.5239C13.0148 12.2626 12.2668 13.2774 11.854 14.4405C11.4412 15.6036 11.3819 16.8629 11.6838 18.0596C11.9856 19.2563 12.635 20.3368 13.55 21.165C14.5464 22.0752 15.811 22.6379 17.1542 22.7686C18.4975 22.8993 19.8468 22.591 21 21.89C21.5161 21.5634 21.9854 21.1681 22.395 20.715C22.6857 20.3913 22.9484 20.0433 23.18 19.675C23.5755 18.9939 23.8385 18.244 23.955 17.465C24.045 16.8684 24.045 16.2616 23.955 15.665C23.7393 14.1726 22.9945 12.8073 21.8565 11.818C20.7185 10.8287 19.2629 10.2811 17.755 10.275L17.72 10.29ZM17.72 21.505C16.4032 21.5342 15.1288 21.0391 14.177 20.1286C13.2253 19.2181 12.6742 17.9668 12.645 16.65C12.6159 15.3332 13.111 14.0588 14.0215 13.107C14.9319 12.1553 16.1832 11.6042 17.5 11.575C18.1572 11.5447 18.814 11.6443 19.4326 11.8683C20.0512 12.0922 20.6195 12.436 21.105 12.88C21.586 13.312 21.9757 13.8357 22.2513 14.4204C22.527 15.0052 22.6829 15.6391 22.71 16.285C22.7754 17.6007 22.3162 18.8887 21.4332 19.8663C20.5503 20.8439 19.3156 21.4315 18 21.5L17.72 21.505ZM17.72 12.59H17.525C17.0126 12.6135 16.5099 12.7388 16.0463 12.9585C15.5828 13.1783 15.1676 13.4881 14.825 13.87C14.4704 14.2531 14.1954 14.7028 14.016 15.1931C13.8366 15.6833 13.7565 16.2043 13.7802 16.7258C13.8039 17.2473 13.9311 17.7589 14.1542 18.2309C14.3773 18.7028 14.692 19.1257 15.08 19.475C15.4646 19.8245 15.9144 20.0945 16.4036 20.2696C16.8928 20.4448 17.4118 20.5215 17.9307 20.4955C18.4497 20.4695 18.9584 20.3412 19.4276 20.118C19.8968 19.8949 20.3174 19.5812 20.665 19.195C21.0104 18.8097 21.2764 18.3601 21.448 17.872C21.6196 17.3838 21.6933 16.8667 21.665 16.35C21.6427 15.8351 21.518 15.3299 21.2982 14.8637C21.0784 14.3976 20.768 13.9799 20.385 13.635C19.6603 12.9637 18.7128 12.5844 17.725 12.57L17.72 12.59Z" fill="#7F1A22"/>
<path d="M17.725 21.5C16.5038 21.502 15.3256 21.0492 14.42 20.23C13.444 19.3475 12.8585 18.1134 12.7924 16.7993C12.7263 15.4851 13.1849 14.1985 14.0675 13.2225C14.95 12.2465 16.184 11.6611 17.4982 11.595C18.8124 11.5288 20.099 11.9875 21.075 12.87C21.5593 13.3058 21.9526 13.8332 22.232 14.4218C22.5115 15.0103 22.6717 15.6484 22.7033 16.2992C22.7349 16.95 22.6373 17.6005 22.4162 18.2134C22.1951 18.8263 21.8548 19.3893 21.415 19.87C20.9484 20.385 20.3788 20.7963 19.7431 21.0771C19.1075 21.3579 18.4199 21.502 17.725 21.5ZM17.725 12.6C17.1773 12.5977 16.6353 12.7104 16.134 12.9309C15.6327 13.1514 15.1833 13.4748 14.815 13.88C14.4447 14.2607 14.155 14.7122 13.9632 15.2074C13.7713 15.7027 13.6814 16.2315 13.6986 16.7623C13.7159 17.2931 13.84 17.815 14.0635 18.2967C14.2871 18.7785 14.6055 19.2102 14.9997 19.5661C15.3939 19.9219 15.8559 20.1947 16.3579 20.3679C16.8599 20.5412 17.3917 20.6114 17.9215 20.5745C18.4513 20.5375 18.9682 20.394 19.4413 20.1527C19.9144 19.9114 20.334 19.5772 20.675 19.17C21.3755 18.3964 21.7405 17.3766 21.6899 16.3342C21.6393 15.2918 21.1771 14.312 20.405 13.61C19.6711 12.948 18.7182 12.5811 17.73 12.58L17.725 12.6Z" fill="#7F1A22"/>
<path d="M17.725 21.5C16.5038 21.502 15.3256 21.0492 14.42 20.23C13.444 19.3475 12.8585 18.1134 12.7924 16.7993C12.7263 15.4851 13.1849 14.1985 14.0675 13.2225C14.95 12.2465 16.184 11.6611 17.4982 11.595C18.8124 11.5288 20.099 11.9875 21.075 12.87C21.5593 13.3058 21.9526 13.8332 22.232 14.4218C22.5115 15.0103 22.6717 15.6484 22.7033 16.2992C22.7349 16.95 22.6373 17.6005 22.4162 18.2134C22.1951 18.8263 21.8548 19.3893 21.415 19.87C20.9484 20.385 20.3788 20.7963 19.7431 21.0771C19.1075 21.3579 18.4199 21.502 17.725 21.5ZM17.725 12.6C17.1773 12.5977 16.6353 12.7104 16.134 12.9309C15.6327 13.1514 15.1833 13.4748 14.815 13.88C14.4447 14.2607 14.155 14.7122 13.9632 15.2074C13.7713 15.7027 13.6814 16.2315 13.6986 16.7623C13.7159 17.2931 13.84 17.815 14.0635 18.2967C14.2871 18.7785 14.6055 19.2102 14.9997 19.5661C15.3939 19.9219 15.8559 20.1947 16.3579 20.3679C16.8599 20.5412 17.3917 20.6114 17.9215 20.5745C18.4513 20.5375 18.9682 20.394 19.4413 20.1527C19.9144 19.9114 20.334 19.5772 20.675 19.17C21.3755 18.3964 21.7405 17.3766 21.6899 16.3342C21.6393 15.2918 21.1771 14.312 20.405 13.61C19.6711 12.948 18.7182 12.5811 17.73 12.58L17.725 12.6Z" fill="#7F1A22"/>
<path d="M28.5446 29.045C28.0901 29.0424 27.6543 28.8631 27.3296 28.545L20.9996 22.835C20.9519 22.7949 20.9127 22.7456 20.8846 22.69C20.8494 22.6423 20.8177 22.5922 20.7896 22.54C20.7345 22.4292 20.7225 22.302 20.7557 22.1829C20.789 22.0638 20.8652 21.9612 20.9696 21.895C21.4897 21.5678 21.9625 21.1707 22.3746 20.715C22.6653 20.3912 22.928 20.0433 23.1596 19.675C23.1997 19.6149 23.2524 19.5641 23.314 19.5263C23.3756 19.4885 23.4446 19.4645 23.5164 19.456C23.5881 19.4474 23.6609 19.4545 23.7297 19.4768C23.7984 19.4991 23.8615 19.536 23.9146 19.585L30.2496 25.335C30.5999 25.6595 30.8104 26.1074 30.8365 26.5842C30.8626 27.0609 30.7024 27.5292 30.3896 27.89L29.8546 28.45C29.702 28.6223 29.5162 28.7621 29.3083 28.8609C29.1004 28.9597 28.8746 29.0155 28.6446 29.025L28.5446 29.045ZM21.9996 22.395L27.9996 27.825C28.0751 27.8991 28.1652 27.9565 28.2643 27.9936C28.3633 28.0306 28.4691 28.0464 28.5746 28.04C28.6701 28.0344 28.7634 28.0098 28.8493 27.9678C28.9351 27.9257 29.0117 27.867 29.0746 27.795L29.6146 27.225C29.7542 27.0622 29.8258 26.8521 29.8146 26.638C29.8034 26.4239 29.7103 26.2223 29.5546 26.075L23.6646 20.71C23.4957 20.9479 23.312 21.1751 23.1146 21.39C22.7769 21.7608 22.4034 22.0974 21.9996 22.395Z" fill="#7F1A22"/>
<path d="M17.5954 18.765H17.5454H17.1754L16.8704 18.725C16.7704 18.725 16.6754 18.68 16.5754 18.65L16.2754 18.545C16.2891 18.4217 16.3125 18.2996 16.3454 18.18C16.3804 18.055 16.4204 17.93 16.4654 17.795C16.6262 17.8616 16.7939 17.9102 16.9654 17.94C17.1303 17.9699 17.2978 17.9833 17.4654 17.98C17.6773 17.9927 17.8886 17.9459 18.0754 17.845C18.1474 17.8001 18.2056 17.7362 18.2435 17.6603C18.2815 17.5844 18.2977 17.4995 18.2904 17.415C18.2928 17.3284 18.2739 17.2426 18.2354 17.165C18.1962 17.1025 18.1453 17.0481 18.0854 17.005C18.0203 16.9641 17.9517 16.9289 17.8804 16.9L17.6604 16.805L17.3304 16.665C17.2016 16.6114 17.0763 16.5496 16.9554 16.48C16.8463 16.4184 16.7483 16.3389 16.6654 16.245C16.5803 16.1547 16.5155 16.0473 16.4754 15.93C16.4277 15.7884 16.4057 15.6394 16.4104 15.49C16.4009 15.3277 16.4244 15.1652 16.4794 15.0123C16.5344 14.8593 16.6198 14.7191 16.7304 14.6C16.9691 14.3704 17.2802 14.2308 17.6104 14.205V13.535C17.6981 13.5094 17.789 13.4959 17.8804 13.495C17.9734 13.4968 18.0658 13.5102 18.1554 13.535V14.175C18.3236 14.1886 18.4906 14.2136 18.6554 14.25C18.8247 14.2867 18.9917 14.3334 19.1554 14.39C19.1269 14.6374 19.0594 14.8787 18.9554 15.105L18.7654 15.025C18.6965 15.0014 18.6264 14.9813 18.5554 14.965L18.3104 14.925C18.2055 14.9193 18.1003 14.9193 17.9954 14.925H17.7804C17.7118 14.9337 17.6455 14.9558 17.5854 14.99C17.5266 15.0245 17.477 15.0725 17.4404 15.13C17.4077 15.2005 17.3908 15.2773 17.3908 15.355C17.3908 15.4327 17.4077 15.5095 17.4404 15.58C17.4685 15.6356 17.5076 15.685 17.5554 15.725C17.6083 15.7658 17.6653 15.8009 17.7254 15.83L17.9154 15.91L18.2904 16.065C18.4454 16.13 18.5904 16.2 18.7204 16.265C18.8255 16.3282 18.9199 16.4075 19.0004 16.5C19.0915 16.6008 19.1627 16.7178 19.2104 16.845C19.2596 17.007 19.2832 17.1757 19.2804 17.345C19.297 17.6626 19.1974 17.9754 19.0004 18.225C18.7844 18.4836 18.486 18.6601 18.1554 18.725V19.45C18.0674 19.4739 17.9766 19.4857 17.8854 19.485C17.7926 19.4854 17.7001 19.4736 17.6104 19.45L17.5954 18.765Z" fill="#7F1A22"/>
</svg>
