<svg width="32" height="32" viewBox="0 0 32 32" fill="none" xmlns="http://www.w3.org/2000/svg">
<path d="M16.0003 2.66669C8.64033 2.66669 2.66699 8.64002 2.66699 16C2.66699 23.36 8.64033 29.3334 16.0003 29.3334C23.3603 29.3334 29.3337 23.36 29.3337 16C29.3337 8.64002 23.3603 2.66669 16.0003 2.66669ZM5.33366 16C5.33366 10.1067 10.107 5.33335 16.0003 5.33335C18.467 5.33335 20.7337 6.17335 22.5337 7.58669L7.58699 22.5334C6.17366 20.7334 5.33366 18.4667 5.33366 16ZM16.0003 26.6667C13.5337 26.6667 11.267 25.8267 9.46699 24.4134L24.4137 9.46669C25.827 11.2667 26.667 13.5334 26.667 16C26.667 21.8934 21.8937 26.6667 16.0003 26.6667Z" fill="#7F1A22"/>
</svg>
