<svg width="33" height="32" viewBox="0 0 33 32" fill="none" xmlns="http://www.w3.org/2000/svg">
<path d="M12.5003 18.3337C9.38033 18.3337 3.16699 19.8937 3.16699 23.0003V25.3337H21.8337V23.0003C21.8337 19.8937 15.6203 18.3337 12.5003 18.3337ZM6.28699 22.667C7.40699 21.8937 10.1137 21.0003 12.5003 21.0003C14.887 21.0003 17.5937 21.8937 18.7137 22.667H6.28699ZM12.5003 16.0003C15.0737 16.0003 17.167 13.907 17.167 11.3337C17.167 8.76033 15.0737 6.66699 12.5003 6.66699C9.92699 6.66699 7.83366 8.76033 7.83366 11.3337C7.83366 13.907 9.92699 16.0003 12.5003 16.0003ZM12.5003 9.33366C13.607 9.33366 14.5003 10.227 14.5003 11.3337C14.5003 12.4403 13.607 13.3337 12.5003 13.3337C11.3937 13.3337 10.5003 12.4403 10.5003 11.3337C10.5003 10.227 11.3937 9.33366 12.5003 9.33366ZM21.887 18.4137C23.4337 19.5337 24.5003 21.027 24.5003 23.0003V25.3337H29.8337V23.0003C29.8337 20.307 25.167 18.7737 21.887 18.4137ZM20.5003 16.0003C23.0737 16.0003 25.167 13.907 25.167 11.3337C25.167 8.76033 23.0737 6.66699 20.5003 6.66699C19.7803 6.66699 19.1137 6.84033 18.5003 7.13366C19.3403 8.32033 19.8337 9.77366 19.8337 11.3337C19.8337 12.8937 19.3403 14.347 18.5003 15.5337C19.1137 15.827 19.7803 16.0003 20.5003 16.0003Z" fill="#7F1A22"/>
</svg>
