<svg width="32" height="32" viewBox="0 0 32 32" fill="none" xmlns="http://www.w3.org/2000/svg">
<mask id="mask0_45_4744" style="mask-type:alpha" maskUnits="userSpaceOnUse" x="0" y="0" width="32" height="32">
<rect width="32" height="32" fill="#D9D9D9"/>
</mask>
<g mask="url(#mask0_45_4744)">
<path d="M12.9333 24.9334L11.0667 23.0667L14.1333 20L11.0667 16.9334L12.9333 15.0667L16 18.1334L19.0667 15.0667L20.9333 16.9334L17.8667 20L20.9333 23.0667L19.0667 24.9334L16 21.8667L12.9333 24.9334ZM6.66667 29.3334C5.93333 29.3334 5.30556 29.0722 4.78333 28.55C4.26111 28.0278 4 27.4 4 26.6667V8.00002C4 7.26669 4.26111 6.63891 4.78333 6.11669C5.30556 5.59446 5.93333 5.33335 6.66667 5.33335H8V2.66669H10.6667V5.33335H21.3333V2.66669H24V5.33335H25.3333C26.0667 5.33335 26.6944 5.59446 27.2167 6.11669C27.7389 6.63891 28 7.26669 28 8.00002V26.6667C28 27.4 27.7389 28.0278 27.2167 28.55C26.6944 29.0722 26.0667 29.3334 25.3333 29.3334H6.66667ZM6.66667 26.6667H25.3333V13.3334H6.66667V26.6667ZM6.66667 10.6667H25.3333V8.00002H6.66667V10.6667Z" fill="#7F1A22"/>
</g>
</svg>
