<svg width="64" height="64" viewBox="0 0 64 64" fill="none" xmlns="http://www.w3.org/2000/svg">
<path d="M58.1191 55.14H6.12914C5.43326 55.14 4.86914 55.7041 4.86914 56.4V58.35C4.86914 59.0459 5.43326 59.61 6.12914 59.61H58.1191C58.815 59.61 59.3791 59.0459 59.3791 58.35V56.4C59.3791 55.7041 58.815 55.14 58.1191 55.14Z" fill="#F5A463"/>
<path d="M58.1191 23.86H6.12914C5.43326 23.86 4.86914 24.4241 4.86914 25.12V29.02C4.86914 29.7159 5.43326 30.28 6.12914 30.28H58.1191C58.815 30.28 59.3791 29.7159 59.3791 29.02V25.12C59.3791 24.4241 58.815 23.86 58.1191 23.86Z" fill="#F5A463"/>
<path d="M55.539 30.28H8.70898V55.15H55.539V30.28Z" fill="#EDBE65"/>
<path d="M43.3 23.8601H21L22.39 13.4301C22.5593 12.1841 23.1743 11.0417 24.1211 10.2143C25.068 9.38694 26.2826 8.9307 27.54 8.93005H36.8C38.0574 8.9307 39.272 9.38694 40.2189 10.2143C41.1657 11.0417 41.7807 12.1841 41.95 13.4301L43.3 23.8601Z" fill="#B65F22"/>
<path d="M36.3484 34.71H27.8984V50.71H36.3484V34.71Z" fill="#F5A463"/>
<path d="M50.1591 36.41H42.7891V49H50.1591V36.41Z" fill="#F5A463"/>
<path d="M21.4286 36.41H14.0586V49H21.4286V36.41Z" fill="#F5A463"/>
<path d="M56.8487 20.91H48.9688V23.86H56.8487V20.91Z" fill="#B65F22"/>
<path d="M51.78 12.69L50.28 14.19L44 7.93999L45.5 6.43999C45.6142 6.32569 45.7499 6.23502 45.8991 6.17317C46.0484 6.11131 46.2084 6.07947 46.37 6.07947C46.5316 6.07947 46.6916 6.11131 46.8409 6.17317C46.9901 6.23502 47.1258 6.32569 47.24 6.43999L51.78 11C51.9959 11.2284 52.1162 11.5307 52.1162 11.845C52.1162 12.1593 51.9959 12.4616 51.78 12.69Z" fill="#B65F22"/>
<path d="M47.7754 6.9563L48.6946 6.03706C48.9553 5.77639 49.3089 5.62994 49.6775 5.62994C50.0462 5.62994 50.3997 5.77639 50.6604 6.03706L52.1877 7.56441C52.3168 7.69348 52.4192 7.84672 52.489 8.01536C52.5589 8.184 52.5949 8.36475 52.5949 8.54729C52.5949 8.72983 52.5589 8.91058 52.489 9.07922C52.4192 9.24786 52.3168 9.40109 52.1877 9.53017L51.2685 10.4494L47.7754 6.9563Z" fill="#B65F22"/>
<path d="M51.2383 6.59998H54.4183C54.7728 6.60081 55.1222 6.68431 55.4389 6.84384C55.7555 7.00337 56.0305 7.23454 56.2421 7.51897C56.4538 7.80341 56.5961 8.13327 56.658 8.48237C56.7198 8.83146 56.6994 9.19016 56.5983 9.52998L53.2483 20.91" stroke="#E5E4F2" stroke-miterlimit="10"/>
<path d="M48.5786 12.4901L47.9586 13.1101C47.6784 13.3847 47.3237 13.5709 46.9385 13.6454C46.5533 13.72 46.1548 13.6796 45.7924 13.5293C45.43 13.379 45.1198 13.1254 44.9004 12.8002C44.681 12.4749 44.5622 12.0924 44.5586 11.7001C44.5608 11.1754 44.7691 10.6726 45.1386 10.3001L45.7686 9.68005L48.5786 12.4901Z" fill="#686FB3"/>
<path d="M16.1289 19.37H9.12891V23.85H16.1289V19.37Z" fill="#F5A463"/>
<path d="M17.9988 17.92V19.4C17.9988 19.583 17.9261 19.7586 17.7967 19.888C17.6673 20.0174 17.4918 20.09 17.3088 20.09H16.1288V19.37H9.12883V20.09H7.99883C7.8149 20.0901 7.63835 20.0177 7.50736 19.8886C7.37636 19.7595 7.30146 19.584 7.29883 19.4V17.93C7.29883 17.5216 7.46108 17.1299 7.74988 16.8411C8.03869 16.5523 8.43039 16.39 8.83883 16.39H16.4588C16.6606 16.3887 16.8606 16.4273 17.0474 16.5036C17.2342 16.5799 17.404 16.6924 17.5472 16.8346C17.6903 16.9768 17.8039 17.1459 17.8814 17.3322C17.9589 17.5185 17.9988 17.7183 17.9988 17.92Z" fill="#B65F22"/>
<path d="M12.6284 22.38C12.6284 22.38 4.69841 28.55 8.70841 36.38" stroke="#E5E4F2" stroke-miterlimit="10"/>
<g style="mix-blend-mode:multiply" opacity="0.25">
<path d="M9.83984 58.35V56.41C9.83984 56.0732 9.97365 55.7502 10.2118 55.512C10.45 55.2738 10.773 55.14 11.1098 55.14H13.6798V30.28H11.1098C10.9422 30.28 10.7763 30.2469 10.6215 30.1824C10.4668 30.118 10.3263 30.0235 10.2083 29.9045C10.0902 29.7855 9.99686 29.6443 9.93363 29.4891C9.8704 29.3339 9.83852 29.1676 9.83984 29V25.12C9.83984 24.9537 9.87276 24.789 9.9367 24.6355C10.0006 24.482 10.0944 24.3426 10.2124 24.2255C10.3305 24.1084 10.4706 24.0158 10.6246 23.9531C10.7786 23.8903 10.9435 23.8587 11.1098 23.86H6.10984C5.94354 23.8587 5.77862 23.8903 5.62459 23.9531C5.47056 24.0158 5.33048 24.1084 5.21242 24.2255C5.09435 24.3426 5.00065 24.482 4.9367 24.6355C4.87276 24.789 4.83984 24.9537 4.83984 25.12V29C4.83984 29.3368 4.97365 29.6599 5.21182 29.898C5.44999 30.1362 5.77302 30.27 6.10984 30.27H8.70984V55.14H6.13984C5.80302 55.14 5.47999 55.2738 5.24182 55.512C5.00365 55.7502 4.86984 56.0732 4.86984 56.41V58.35C4.86984 58.5163 4.90276 58.681 4.9667 58.8345C5.03065 58.9881 5.12435 59.1274 5.24242 59.2445C5.36048 59.3617 5.50056 59.4543 5.65459 59.517C5.80862 59.5797 5.97354 59.6113 6.13984 59.61H11.1398C10.971 59.6154 10.8029 59.5868 10.6454 59.5258C10.4879 59.4649 10.3442 59.373 10.2229 59.2554C10.1016 59.1379 10.0052 58.9972 9.93943 58.8416C9.87363 58.6861 9.83976 58.5189 9.83984 58.35Z" fill="#1D1D1B"/>
<path d="M30.77 8.93005H27.5C26.2426 8.9307 25.028 9.38694 24.0811 10.2143C23.1343 11.0417 22.5193 12.1841 22.35 13.4301L21 23.8601H24.27L25.66 13.4301C25.8283 12.1909 26.4375 11.0539 27.3761 10.2274C28.3146 9.4009 29.5195 8.94032 30.77 8.93005Z" fill="#1D1D1B"/>
<path d="M30.6504 34.71H27.9004V50.71H30.6504V34.71Z" fill="#1D1D1B"/>
<path d="M45.5391 36.41H42.7891V49H45.5391V36.41Z" fill="#1D1D1B"/>
<path d="M16.8105 36.41H14.0605V49H16.8105V36.41Z" fill="#1D1D1B"/>
<path d="M51.1907 20.91H48.9707V23.86H51.1907V20.91Z" fill="#1D1D1B"/>
<path d="M45.61 12.75C45.6122 12.2253 45.8205 11.7225 46.19 11.35L46.82 10.73L45.08 9L46.58 7.5C46.6942 7.38571 46.8299 7.29504 46.9791 7.23318C47.1284 7.17132 47.2884 7.13948 47.45 7.13948C47.6116 7.13948 47.7716 7.17132 47.9209 7.23318C48.0701 7.29504 48.2058 7.38571 48.32 7.5L48.83 8.01L49.75 7.08C49.8804 6.94696 50.0359 6.84127 50.2076 6.76912C50.3794 6.69696 50.5637 6.6598 50.75 6.6598C50.9363 6.6598 51.1206 6.69696 51.2924 6.76912C51.4641 6.84127 51.6196 6.94696 51.75 7.08L50.75 6.08C50.6211 5.94445 50.466 5.83653 50.2941 5.76278C50.1222 5.68903 49.9371 5.651 49.75 5.651C49.5629 5.651 49.3778 5.68903 49.2059 5.76278C49.034 5.83653 48.8789 5.94445 48.75 6.08L47.78 7L47.27 6.49C47.1558 6.37571 47.0201 6.28504 46.8709 6.22318C46.7216 6.16132 46.5616 6.12948 46.4 6.12948C46.2384 6.12948 46.0784 6.16132 45.9291 6.22318C45.7799 6.28504 45.6442 6.37571 45.53 6.49L44 7.94L45.74 9.68L45.11 10.3C44.7405 10.6725 44.5322 11.1753 44.53 11.7C44.5296 12.2281 44.7381 12.735 45.11 13.11C45.2926 13.2899 45.5059 13.4356 45.74 13.54C45.6474 13.2872 45.6032 13.0192 45.61 12.75Z" fill="#1D1D1B"/>
<path d="M10.3593 20.09C10.1763 20.09 10.0008 20.0173 9.87139 19.8879C9.74199 19.7585 9.6693 19.583 9.6693 19.4V17.93C9.6693 17.7278 9.70913 17.5275 9.78652 17.3407C9.86391 17.1538 9.97735 16.9841 10.1204 16.8411C10.2634 16.6981 10.4331 16.5846 10.62 16.5072C10.8068 16.4298 11.0071 16.39 11.2093 16.39H8.8193C8.41086 16.39 8.01916 16.5523 7.73035 16.8411C7.44155 17.1299 7.2793 17.5216 7.2793 17.93V19.4C7.28192 19.5839 7.35683 19.7594 7.48782 19.8885C7.61882 20.0177 7.79536 20.09 7.9793 20.09H9.1293V23.85H11.5193V20.09H10.3593Z" fill="#1D1D1B"/>
</g>
<g style="mix-blend-mode:overlay">
<path d="M41.9108 13.4301C41.7415 12.1841 41.1265 11.0417 40.1796 10.2143C39.2328 9.38694 38.0182 8.9307 36.7608 8.93005H33.0508C34.3082 8.9307 35.5228 9.38694 36.4696 10.2143C37.4165 11.0417 38.0315 12.1841 38.2008 13.4301L39.5908 23.8601H43.3008L41.9108 13.4301Z" fill="white"/>
<path d="M58.1212 30.28C58.2888 30.28 58.4548 30.2469 58.6095 30.1824C58.7642 30.118 58.9047 30.0235 59.0228 29.9045C59.1408 29.7855 59.2341 29.6443 59.2974 29.4891C59.3606 29.3339 59.3925 29.1676 59.3912 29V25.12C59.3912 24.9537 59.3583 24.789 59.2943 24.6355C59.2304 24.482 59.1367 24.3426 59.0186 24.2255C58.9005 24.1084 58.7604 24.0158 58.6064 23.9531C58.4524 23.8903 58.2875 23.8587 58.1212 23.86H55.2712C55.4375 23.8587 55.6024 23.8903 55.7564 23.9531C55.9105 24.0158 56.0505 24.1084 56.1686 24.2255C56.2867 24.3426 56.3804 24.482 56.4443 24.6355C56.5083 24.789 56.5412 24.9537 56.5412 25.12V29C56.5412 29.3368 56.4074 29.6599 56.1692 29.898C55.931 30.1362 55.608 30.27 55.2712 30.27H52.7012V55.14H55.2712C55.608 55.14 55.931 55.2738 56.1692 55.512C56.4074 55.7502 56.5412 56.0732 56.5412 56.41V58.35C56.5412 58.5163 56.5083 58.681 56.4443 58.8345C56.3804 58.9881 56.2867 59.1274 56.1686 59.2445C56.0505 59.3617 55.9105 59.4543 55.7564 59.517C55.6024 59.5797 55.4375 59.6113 55.2712 59.61H58.1212C58.2875 59.6113 58.4524 59.5797 58.6064 59.517C58.7604 59.4543 58.9005 59.3617 59.0186 59.2445C59.1367 59.1274 59.2304 58.9881 59.2943 58.8345C59.3583 58.681 59.3912 58.5163 59.3912 58.35V56.41C59.3912 56.0732 59.2574 55.7502 59.0192 55.512C58.781 55.2738 58.458 55.14 58.1212 55.14H55.5512V30.28H58.1212Z" fill="white"/>
<path d="M36.3598 34.7101H33.5098V50.7101H36.3598V34.7101Z" fill="white"/>
<path d="M50.1605 36.41H47.3105V49H50.1605V36.41Z" fill="white"/>
<path d="M21.4301 36.41H18.5801V49H21.4301V36.41Z" fill="white"/>
<path d="M56.8497 20.91H55.1797V23.86H56.8497V20.91Z" fill="white"/>
<path d="M52.1993 7.55005L51.1993 6.55005C51.3323 6.6804 51.438 6.83599 51.5102 7.0077C51.5823 7.17941 51.6195 7.36379 51.6195 7.55005C51.6195 7.7363 51.5823 7.92069 51.5102 8.0924C51.438 8.26411 51.3323 8.4197 51.1993 8.55005L50.2693 9.47005L50.7793 9.98005C50.8936 10.0943 50.9843 10.2299 51.0461 10.3792C51.108 10.5285 51.1398 10.6885 51.1398 10.85C51.1398 11.0116 51.108 11.1716 51.0461 11.3209C50.9843 11.4702 50.8936 11.6058 50.7793 11.72L49.2793 13.22L50.2793 14.22L51.7793 12.72C51.8936 12.6058 51.9843 12.4702 52.0461 12.3209C52.108 12.1716 52.1398 12.0116 52.1398 11.85C52.1398 11.6885 52.108 11.5285 52.0461 11.3792C51.9843 11.2299 51.8936 11.0943 51.7793 10.98L51.2793 10.48L52.1993 9.56005C52.3326 9.42884 52.4385 9.2724 52.5108 9.09986C52.5831 8.92732 52.6203 8.74212 52.6203 8.55505C52.6203 8.36798 52.5831 8.18278 52.5108 8.01024C52.4385 7.83769 52.3326 7.68126 52.1993 7.55005Z" fill="white"/>
<path d="M46.9995 12.12C46.7119 12.4043 46.3448 12.5948 45.9466 12.6662C45.5485 12.7376 45.1381 12.6866 44.7695 12.52C44.9037 12.8117 45.106 13.0669 45.3596 13.2638C45.6131 13.4608 45.9104 13.5939 46.2262 13.6518C46.542 13.7096 46.8671 13.6906 47.1741 13.5963C47.481 13.502 47.7607 13.3352 47.9895 13.11L48.6095 12.49L47.6095 11.49L46.9995 12.12Z" fill="white"/>
<path d="M16.4402 16.3901H15.0502C15.4569 16.3901 15.8471 16.5509 16.1357 16.8376C16.4242 17.1242 16.5876 17.5134 16.5902 17.9201V19.4001C16.5876 19.584 16.5127 19.7595 16.3817 19.8886C16.2507 20.0177 16.0742 20.0901 15.8902 20.0901H14.7402V23.8501H16.1302V20.0901H17.2802C17.3733 20.0941 17.4663 20.0793 17.5535 20.0464C17.6407 20.0136 17.7204 19.9634 17.7876 19.8989C17.8549 19.8344 17.9085 19.757 17.945 19.6712C17.9815 19.5855 18.0003 19.4933 18.0002 19.4001V17.9201C18.0003 17.7166 17.9597 17.5152 17.881 17.3275C17.8022 17.1399 17.6868 16.9699 17.5416 16.8274C17.3963 16.685 17.2241 16.5729 17.035 16.4978C16.8459 16.4227 16.6437 16.3861 16.4402 16.3901Z" fill="white"/>
</g>
<path d="M58.1191 55.14H6.12914C5.43326 55.14 4.86914 55.7041 4.86914 56.4V58.35C4.86914 59.0459 5.43326 59.61 6.12914 59.61H58.1191C58.815 59.61 59.3791 59.0459 59.3791 58.35V56.4C59.3791 55.7041 58.815 55.14 58.1191 55.14Z" stroke="#1D1D1B" stroke-width="2" stroke-linecap="round" stroke-linejoin="round"/>
<path d="M58.1191 23.86H6.12914C5.43326 23.86 4.86914 24.4241 4.86914 25.12V29.02C4.86914 29.7159 5.43326 30.28 6.12914 30.28H58.1191C58.815 30.28 59.3791 29.7159 59.3791 29.02V25.12C59.3791 24.4241 58.815 23.86 58.1191 23.86Z" stroke="#1D1D1B" stroke-width="2" stroke-linecap="round" stroke-linejoin="round"/>
<path d="M55.539 30.28H8.70898V55.15H55.539V30.28Z" stroke="#1D1D1B" stroke-width="2" stroke-linecap="round" stroke-linejoin="round"/>
<path d="M43.3 23.8601H21L22.39 13.4301C22.5593 12.1841 23.1743 11.0417 24.1211 10.2143C25.068 9.38694 26.2826 8.9307 27.54 8.93005H36.8C38.0574 8.9307 39.272 9.38694 40.2189 10.2143C41.1657 11.0417 41.7807 12.1841 41.95 13.4301L43.3 23.8601Z" stroke="#1D1D1B" stroke-width="2" stroke-linecap="round" stroke-linejoin="round"/>
<path d="M36.3484 34.71H27.8984V50.71H36.3484V34.71Z" stroke="#1D1D1B" stroke-width="2" stroke-linecap="round" stroke-linejoin="round"/>
<path d="M50.1591 36.41H42.7891V49H50.1591V36.41Z" stroke="#1D1D1B" stroke-width="2" stroke-linecap="round" stroke-linejoin="round"/>
<path d="M21.4286 36.41H14.0586V49H21.4286V36.41Z" stroke="#1D1D1B" stroke-width="2" stroke-linecap="round" stroke-linejoin="round"/>
<path d="M56.8487 20.91H48.9688V23.86H56.8487V20.91Z" stroke="#1D1D1B" stroke-width="2" stroke-linecap="round" stroke-linejoin="round"/>
<path d="M51.78 12.69L50.28 14.19L44 7.93999L45.5 6.43999C45.6142 6.32569 45.7499 6.23502 45.8991 6.17317C46.0484 6.11131 46.2084 6.07947 46.37 6.07947C46.5316 6.07947 46.6916 6.11131 46.8409 6.17317C46.9901 6.23502 47.1258 6.32569 47.24 6.43999L51.78 11C51.9959 11.2284 52.1162 11.5307 52.1162 11.845C52.1162 12.1593 51.9959 12.4616 51.78 12.69Z" stroke="#1D1D1B" stroke-width="2" stroke-linecap="round" stroke-linejoin="round"/>
<path d="M47.7754 6.9563L48.6946 6.03706C48.9553 5.77639 49.3089 5.62994 49.6775 5.62994C50.0462 5.62994 50.3997 5.77639 50.6604 6.03706L52.1877 7.56441C52.3168 7.69348 52.4192 7.84672 52.489 8.01536C52.5589 8.184 52.5949 8.36475 52.5949 8.54729C52.5949 8.72983 52.5589 8.91058 52.489 9.07922C52.4192 9.24786 52.3168 9.40109 52.1877 9.53017L51.2685 10.4494L47.7754 6.9563Z" stroke="#1D1D1B" stroke-width="2" stroke-linecap="round" stroke-linejoin="round"/>
<path d="M51.2383 6.59998H54.4183C54.7728 6.60081 55.1222 6.68431 55.4389 6.84384C55.7555 7.00337 56.0305 7.23454 56.2421 7.51897C56.4538 7.80341 56.5961 8.13327 56.658 8.48237C56.7198 8.83146 56.6994 9.19016 56.5983 9.52998L53.2483 20.91" stroke="#1D1D1B" stroke-width="2" stroke-linecap="round" stroke-linejoin="round"/>
<path d="M48.5786 12.4901L47.9586 13.1101C47.6784 13.3847 47.3237 13.5709 46.9385 13.6454C46.5534 13.72 46.1548 13.6796 45.7924 13.5293C45.43 13.379 45.1198 13.1254 44.9004 12.8002C44.681 12.4749 44.5622 12.0924 44.5586 11.7001C44.5608 11.1754 44.7691 10.6726 45.1386 10.3001L45.7686 9.68005L48.5786 12.4901Z" stroke="#1D1D1B" stroke-width="2" stroke-linecap="round" stroke-linejoin="round"/>
<path d="M16.1289 19.37H9.12891V23.85H16.1289V19.37Z" stroke="#1D1D1B" stroke-width="2" stroke-linecap="round" stroke-linejoin="round"/>
<path d="M17.9988 17.92V19.4C17.9988 19.583 17.9261 19.7586 17.7967 19.888C17.6673 20.0174 17.4918 20.09 17.3088 20.09H16.1288V19.37H9.12883V20.09H7.99883C7.8149 20.0901 7.63835 20.0177 7.50736 19.8886C7.37636 19.7595 7.30146 19.584 7.29883 19.4V17.93C7.29883 17.5216 7.46108 17.1299 7.74988 16.8411C8.03869 16.5523 8.43039 16.39 8.83883 16.39H16.4588C16.6606 16.3887 16.8606 16.4273 17.0474 16.5036C17.2342 16.5799 17.404 16.6924 17.5472 16.8346C17.6903 16.9768 17.8039 17.1459 17.8814 17.3322C17.9589 17.5185 17.9988 17.7183 17.9988 17.92Z" stroke="#1D1D1B" stroke-width="2" stroke-linecap="round" stroke-linejoin="round"/>
<path d="M12.6284 22.38C12.6284 22.38 4.69841 28.55 8.70841 36.38" stroke="#1D1D1B" stroke-width="2" stroke-linecap="round" stroke-linejoin="round"/>
</svg>
