<svg width="28" height="24" viewBox="0 0 28 24" fill="none" xmlns="http://www.w3.org/2000/svg">
    <path d="M5.99999 18.6667H12.6667V16H5.99999V18.6667ZM19.3333 18.6667H22V16H19.3333V18.6667ZM5.99999 13.3333H12.6667V10.6667H5.99999V13.3333ZM19.3333 13.3333H22V5.33333H19.3333V13.3333ZM5.99999 8H12.6667V5.33333H5.99999V8ZM3.33332 24C2.59999 24 1.97221 23.7389 1.44999 23.2167C0.927768 22.6944 0.666656 22.0667 0.666656 21.3333V2.66667C0.666656 1.93333 0.927768 1.30556 1.44999 0.783333C1.97221 0.261111 2.59999 0 3.33332 0H24.6667C25.4 0 26.0278 0.261111 26.55 0.783333C27.0722 1.30556 27.3333 1.93333 27.3333 2.66667V21.3333C27.3333 22.0667 27.0722 22.6944 26.55 23.2167C26.0278 23.7389 25.4 24 24.6667 24H3.33332ZM3.33332 21.3333H24.6667V2.66667H3.33332V21.3333Z" fill="#7F1A22"/>
</svg>
