<svg width="24" height="24" viewBox="0 0 24 24" fill="none" xmlns="http://www.w3.org/2000/svg">
    <path d="M2.66667 24C1.93333 24 1.30556 23.7389 0.783333 23.2167C0.261111 22.6944 0 22.0667 0 21.3333V2.66667C0 1.93333 0.261111 1.30556 0.783333 0.783333C1.30556 0.261111 1.93333 0 2.66667 0H21.3333C22.0667 0 22.6944 0.261111 23.2167 0.783333C23.7389 1.30556 24 1.93333 24 2.66667V21.3333C24 22.0667 23.7389 22.6944 23.2167 23.2167C22.6944 23.7389 22.0667 24 21.3333 24H2.66667ZM2.66667 21.3333H21.3333V5.33333H2.66667V21.3333ZM12 18.6667C10.1778 18.6667 8.55 18.1722 7.11667 17.1833C5.68333 16.1944 4.64444 14.9111 4 13.3333C4.64444 11.7556 5.68333 10.4722 7.11667 9.48333C8.55 8.49444 10.1778 8 12 8C13.8222 8 15.45 8.49444 16.8833 9.48333C18.3167 10.4722 19.3556 11.7556 20 13.3333C19.3556 14.9111 18.3167 16.1944 16.8833 17.1833C15.45 18.1722 13.8222 18.6667 12 18.6667ZM12 16.6667C13.2444 16.6667 14.3778 16.3722 15.4 15.7833C16.4222 15.1944 17.2222 14.3778 17.8 13.3333C17.2222 12.2889 16.4222 11.4722 15.4 10.8833C14.3778 10.2944 13.2444 10 12 10C10.7556 10 9.62222 10.2944 8.6 10.8833C7.57778 11.4722 6.77778 12.2889 6.2 13.3333C6.77778 14.3778 7.57778 15.1944 8.6 15.7833C9.62222 16.3722 10.7556 16.6667 12 16.6667ZM12 15.3333C12.5556 15.3333 13.0278 15.1389 13.4167 14.75C13.8056 14.3611 14 13.8889 14 13.3333C14 12.7778 13.8056 12.3056 13.4167 11.9167C13.0278 11.5278 12.5556 11.3333 12 11.3333C11.4444 11.3333 10.9722 11.5278 10.5833 11.9167C10.1944 12.3056 10 12.7778 10 13.3333C10 13.8889 10.1944 14.3611 10.5833 14.75C10.9722 15.1389 11.4444 15.3333 12 15.3333Z" fill="#7F1A22"/>
</svg>
