<svg width="16" height="16" viewBox="0 0 16 16" fill="none" xmlns="http://www.w3.org/2000/svg">
<g clip-path="url(#clip0_2167_21617)">
<path d="M4.01547 7.10374C5.08213 9.20004 6.80065 10.9112 8.89695 11.9852L10.5266 10.3556C10.7266 10.1556 11.0229 10.0889 11.2821 10.1778C12.1118 10.4519 13.0081 10.6 13.9266 10.6C14.334 10.6 14.6673 10.9334 14.6673 11.3408V13.926C14.6673 14.3334 14.334 14.6667 13.9266 14.6667C6.97102 14.6667 1.33398 9.02967 1.33398 2.07411C1.33398 1.66671 1.66732 1.33337 2.07473 1.33337H4.66732C5.07472 1.33337 5.40806 1.66671 5.40806 2.07411C5.40806 3.00004 5.55621 3.88893 5.83028 4.71856C5.91176 4.97782 5.8525 5.26671 5.6451 5.47411L4.01547 7.10374Z" fill="black"/>
</g>
<defs>
<clipPath id="clip0_2167_21617">
<rect width="16" height="16" fill="white"/>
</clipPath>
</defs>
</svg>
