<svg width="32" height="32" viewBox="0 0 32 32" fill="none" xmlns="http://www.w3.org/2000/svg">
    <circle cx="16" cy="16" r="16" fill="#007AB7"/>
    <path fill-rule="evenodd" clip-rule="evenodd" d="M12.8248 13.6605H10.4423V21.3334H12.8248V13.6605ZM13.0196 11.23C13.0196 10.4671 12.3997 9.84619 11.638 9.84619C10.8719 9.84619 10.2563 10.4671 10.2563 11.23C10.2563 11.9928 10.8719 12.6138 11.638 12.6138C12.3997 12.6138 13.0196 11.9928 13.0196 11.23ZM16.6022 13.6605H14.326V21.3334H16.704V17.5368C16.704 16.5389 16.89 15.5676 18.13 15.5676C19.3522 15.5676 19.3655 16.7119 19.3655 17.6034V21.3334H21.7435V17.1288C21.7435 15.062 21.2963 13.4742 18.8872 13.4742C17.727 13.4742 16.952 14.1084 16.6332 14.7116H16.6022V13.6605Z" fill="white"/>
</svg>
