<svg width="32" height="32" viewBox="0 0 32 32" fill="none" xmlns="http://www.w3.org/2000/svg">
    <circle cx="16" cy="16" r="16" fill="#45AEE4"/>
    <path fill-rule="evenodd" clip-rule="evenodd" d="M12.0182 17.0796L8.75501 15.7951C8.42359 15.6641 8.42071 15.1706 8.75119 15.0362L22.1433 9.58748C22.4272 9.47166 22.7202 9.73401 22.6584 10.0485L20.2551 22.2409C20.1984 22.5288 19.8784 22.6593 19.6525 22.4862L16.3718 19.9741C16.1725 19.8215 15.9009 19.8296 15.7103 19.9935L13.8913 21.5574C13.6802 21.7395 13.3621 21.6381 13.2812 21.3637L12.0182 17.0796ZM19.4551 12.2532L13.0776 16.3958C12.8332 16.555 12.7181 16.8663 12.7971 17.1578L13.4866 19.7131C13.5356 19.8942 13.7848 19.8756 13.8085 19.6885L13.9878 18.2872C14.0216 18.0234 14.141 17.7803 14.326 17.5987L19.5892 12.4387C19.6876 12.3424 19.5697 12.179 19.4551 12.2532Z" fill="white"/>
    <path d="M13.0777 16.3958L19.4551 12.2531C19.5698 12.1789 19.6877 12.3424 19.5893 12.4387L14.326 17.5986C14.141 17.7802 14.0217 18.0233 13.9879 18.2871L13.8086 19.6885C13.7848 19.8756 13.5356 19.8941 13.4867 19.713L12.7971 17.1577C12.7182 16.8662 12.8333 16.5549 13.0777 16.3958Z" fill="#EAEAEA"/>
</svg>
