<svg width="32" height="32" viewBox="0 0 32 32" fill="none" xmlns="http://www.w3.org/2000/svg">
    <circle cx="16" cy="16" r="16" fill="#2AA3EF"/>
    <path fill-rule="evenodd" clip-rule="evenodd" d="M22.564 11.9292C22.0813 12.1433 21.5615 12.2881 21.017 12.3536C21.5731 12.0199 22.0002 11.4926 22.201 10.864C21.6804 11.1726 21.1043 11.3966 20.4903 11.517C19.9991 10.9935 19.2993 10.6666 18.5247 10.6666C17.0371 10.6666 15.8308 11.872 15.8308 13.3594C15.8308 13.5712 15.8555 13.7762 15.901 13.9735C13.6628 13.8615 11.6787 12.7887 10.3502 11.1596C10.1178 11.5574 9.9857 12.0199 9.9857 12.5136C9.9857 13.4478 10.4615 14.2722 11.1836 14.7545C10.7418 14.7408 10.3263 14.6197 9.96407 14.4178C9.96407 14.4292 9.96407 14.4406 9.96407 14.452C9.96407 15.7565 10.8916 16.8446 12.1243 17.0922C11.898 17.1539 11.6609 17.1867 11.4145 17.1867C11.2415 17.1867 11.0724 17.1699 10.9079 17.1379C11.2508 18.2077 12.2456 18.9865 13.4241 19.0086C12.502 19.7301 11.3404 20.1606 10.0784 20.1606C9.86135 20.1606 9.64664 20.1484 9.43579 20.1233C10.6275 20.8875 12.0432 21.3333 13.5647 21.3333C18.5185 21.3333 21.2279 17.2301 21.2279 13.6718C21.2279 13.5545 21.2248 13.4394 21.2201 13.3236C21.7461 12.9441 22.2033 12.4694 22.564 11.93V11.9292Z" fill="white"/>
</svg>
