<svg width="32" height="32" viewBox="0 0 32 32" fill="none" xmlns="http://www.w3.org/2000/svg">
    <circle cx="16" cy="16" r="16" fill="#2F75EC"/>
    <path fill-rule="evenodd" clip-rule="evenodd" d="M11.5024 11.4899H20.4819C20.9896 11.4764 21.4862 11.6474 21.8876 11.974L21.376 12.3223L15.9753 15.9709L14.5696 15.0116C14.5407 14.9826 14.5062 14.9604 14.4684 14.9466L10.6056 12.3194L10.0967 11.974C10.4922 11.6357 10.993 11.4633 11.5024 11.4899ZM9.74248 12.4286L10.2176 12.7533L13.9314 15.289L10.2513 19.3037L9.85212 19.7377C9.57475 19.3309 9.42891 18.8415 9.43604 18.3414L9.43885 13.6507C9.43488 13.2222 9.53968 12.8004 9.74248 12.4286ZM21.3422 19.7022L17.589 15.6167L16.1552 16.5909L16.1074 16.6145H16.0849C16.0616 16.6176 16.038 16.6176 16.0147 16.6145C15.9913 16.6176 15.9677 16.6176 15.9444 16.6145H15.9219L15.8544 16.5909L14.4319 15.6226L10.659 19.714L10.2542 20.1539C10.6255 20.4046 11.0613 20.5293 11.5024 20.5111H20.4988C20.9382 20.514 21.369 20.3827 21.7386 20.1332L21.3422 19.7022ZM22.5623 13.6596V18.3414C22.5812 18.8405 22.4385 19.3316 22.1575 19.7347L21.7555 19.2949L18.0782 15.2772L21.7892 12.7533L22.2671 12.4315C22.4727 12.804 22.5749 13.2293 22.5623 13.6596Z" fill="white"/>
</svg>
