<svg width="32" height="32" viewBox="0 0 32 32" fill="none" xmlns="http://www.w3.org/2000/svg">
    <path d="M3.20001 14.4H8.00001V27.2H3.20001V14.4Z" fill="#7F1A22"/>
    <path d="M20.8 16.528C24.096 13.536 27.2 10.736 27.2 8.30399C27.2 6.35199 25.648 4.79999 23.68 4.79999C22.56 4.79999 21.504 5.31199 20.8 6.14399C20.096 5.31199 19.04 4.79999 17.92 4.79999C15.952 4.79999 14.4 6.35199 14.4 8.31999C14.4 10.736 17.504 13.536 20.8 16.528Z" fill="#7F1A22"/>
    <path d="M24 20.8H17.6L14.272 19.52L14.848 18.032L17.888 19.2H19.84C20.368 19.2 20.784 18.784 20.784 18.256C20.784 17.856 20.544 17.504 20.176 17.376L12.304 14.4H9.60001V24.928L18.048 27.2L27.2 24C27.2 22.24 25.76 20.8 24 20.8Z" fill="#7F1A22"/>
</svg>