<svg width="24" height="28" viewBox="0 0 24 28" fill="none" xmlns="http://www.w3.org/2000/svg">
    <path d="M10.6 22.4666L5.86667 17.7333L7.8 15.8L10.6 18.6L16.2 13L18.1333 14.9333L10.6 22.4666ZM2.66667 27.3333C1.93333 27.3333 1.30556 27.0722 0.783333 26.55C0.261111 26.0277 0 25.4 0 24.6666V5.99996C0 5.26663 0.261111 4.63885 0.783333 4.11663C1.30556 3.5944 1.93333 3.33329 2.66667 3.33329H4V0.666626H6.66667V3.33329H17.3333V0.666626H20V3.33329H21.3333C22.0667 3.33329 22.6944 3.5944 23.2167 4.11663C23.7389 4.63885 24 5.26663 24 5.99996V24.6666C24 25.4 23.7389 26.0277 23.2167 26.55C22.6944 27.0722 22.0667 27.3333 21.3333 27.3333H2.66667ZM2.66667 24.6666H21.3333V11.3333H2.66667V24.6666ZM2.66667 8.66663H21.3333V5.99996H2.66667V8.66663Z" fill="#7F1A22"/>
</svg>