<svg width="126" height="97" viewBox="0 0 126 97" fill="none" xmlns="http://www.w3.org/2000/svg">
    <path d="M44.6705 96.6452C43.9016 96.6452 43.1805 96.5105 42.5072 96.2412C41.8338 95.9719 41.2474 95.5939 40.7478 95.1074C40.2526 94.6208 39.8573 94.0474 39.5662 93.3828C39.2751 92.7181 39.1274 91.9927 39.1274 91.2151V91.1846C39.1274 90.4244 39.2708 89.712 39.5575 89.0473C39.8442 88.3827 40.2395 87.8006 40.7391 87.3053C41.2387 86.8101 41.8382 86.4235 42.5289 86.1411C43.2196 85.8631 43.9755 85.7197 44.7922 85.7197C45.3439 85.7197 45.8478 85.7718 46.2952 85.8761C46.747 85.9804 47.1554 86.1324 47.529 86.3279C47.9026 86.5234 48.2414 86.758 48.5412 87.0273C48.8409 87.2966 49.1103 87.592 49.3448 87.9135L47.1033 89.6077C46.7948 89.2298 46.4603 88.9257 46.0911 88.7085C45.7218 88.4869 45.2787 88.3783 44.7574 88.3783C44.3795 88.3783 44.032 88.4522 43.7235 88.5955C43.4108 88.7389 43.1414 88.9387 42.9199 89.1863C42.694 89.4383 42.5159 89.7337 42.3899 90.0725C42.2639 90.4114 42.1987 90.7719 42.1987 91.1542V91.1846C42.1987 91.5756 42.2639 91.9405 42.3899 92.288C42.5159 92.6312 42.694 92.931 42.9199 93.1829C43.1458 93.4349 43.4151 93.6304 43.7235 93.7781C44.0363 93.9214 44.3795 93.9953 44.7574 93.9953C45.0355 93.9953 45.2874 93.9649 45.5177 93.9041C45.7479 93.8433 45.9564 93.7564 46.1476 93.6391C46.3387 93.5261 46.5168 93.3871 46.6862 93.2351C46.8557 93.0787 47.0207 92.9092 47.1858 92.7181L49.4274 94.2777C49.1711 94.6165 48.893 94.9336 48.589 95.2247C48.2892 95.5157 47.946 95.7633 47.5594 95.9762C47.1771 96.1847 46.747 96.3498 46.2692 96.4714C45.7957 96.5931 45.257 96.6495 44.6662 96.6495" fill="#BE1F3F"/>
    <path d="M61.374 85.9238H64.5192L67.0822 89.9943L69.6452 85.9238H72.7947V96.4323H69.832V90.3983L67.0909 94.5122H67.0301L64.3063 90.4287V96.4323H61.374V85.9238Z" fill="#BE1F3F"/>
    <path d="M77.6426 85.8505H80.5141L85.0884 96.4327H81.8955L81.1136 94.5561H76.9693L76.2004 96.4327H73.0682L77.6426 85.8505ZM80.2534 92.3058L79.0545 89.3171L77.8424 92.3058H80.2534Z" fill="#BE1F3F"/>
    <path d="M53.65 85.8505H56.5215L61.0958 96.4327H57.9029L57.1209 94.5561H52.9766L52.2077 96.4327H49.0756L53.65 85.8505ZM56.2608 92.3058L55.0618 89.3171L53.8498 92.3058H56.2608Z" fill="#BE1F3F"/>
    <path d="M53.5326 84.1953L56.6082 84.2084L57.7421 85.8635L55.7655 85.8504L55.0704 84.8817L54.3319 85.8504H52.4466L53.5326 84.1953Z" fill="#BE1F3F"/>
    <path d="M85.3664 85.9242H90.449C91.2788 85.9242 91.9782 86.0242 92.5516 86.224C93.125 86.4238 93.5898 86.7062 93.9504 87.0624C94.5846 87.6619 94.9018 88.4786 94.9018 89.5081V89.5386C94.9018 90.3509 94.7019 91.0199 94.3023 91.5499C93.9026 92.0799 93.3639 92.4839 92.6906 92.7662L95.2536 96.4284H91.8174L89.654 93.2485H88.3508V96.4284H85.3707V85.9199L85.3664 85.9242ZM90.31 90.9678C90.8226 90.9678 91.2136 90.8548 91.4916 90.6289C91.7697 90.403 91.9043 90.1033 91.9043 89.721V89.6906C91.9043 89.2692 91.7609 88.9564 91.4742 88.7523C91.1875 88.5481 90.7922 88.4439 90.2926 88.4439H88.3421V90.9678H90.3057H90.31Z" fill="#BE1F3F"/>
    <path d="M99.3501 85.8505H102.222L106.796 96.4327H103.603L102.821 94.5561H98.6768L97.9079 96.4327H94.7758L99.3501 85.8505ZM101.961 92.3058L100.762 89.3171L99.5499 92.3058H101.961Z" fill="#BE1F3F"/>
    <path d="M111.292 96.6152C110.332 96.6152 109.416 96.4675 108.551 96.1765C107.687 95.8854 106.922 95.4466 106.257 94.8602L107.917 92.9184C108.99 93.7568 110.154 94.1782 111.401 94.1782C111.801 94.1782 112.105 94.1173 112.313 93.9914C112.522 93.8654 112.626 93.6873 112.626 93.457V93.4266C112.626 93.318 112.6 93.2181 112.548 93.1356C112.496 93.0487 112.4 92.9662 112.265 92.888C112.126 92.8098 111.944 92.7316 111.714 92.6577C111.483 92.5839 111.184 92.5057 110.814 92.4231C110.241 92.2928 109.711 92.1495 109.22 91.9974C108.729 91.841 108.304 91.6412 107.939 91.3979C107.574 91.1547 107.287 90.8506 107.078 90.4856C106.87 90.1207 106.766 89.669 106.766 89.1303V89.0999C106.766 88.609 106.861 88.1615 107.048 87.7532C107.239 87.3449 107.513 86.9886 107.878 86.6889C108.243 86.3891 108.677 86.1589 109.19 85.9938C109.702 85.8288 110.28 85.7462 110.923 85.7462C111.844 85.7462 112.665 85.8635 113.386 86.1024C114.107 86.337 114.759 86.6889 115.345 87.1537L113.855 89.2172C113.364 88.8783 112.861 88.6177 112.344 88.4439C111.827 88.2702 111.327 88.1789 110.845 88.1789C110.489 88.1789 110.219 88.2441 110.037 88.3744C109.859 88.5047 109.767 88.6655 109.767 88.8523V88.8827C109.767 89.0043 109.794 89.1086 109.854 89.1955C109.911 89.2867 110.006 89.3692 110.145 89.4431C110.284 89.5169 110.471 89.5908 110.715 89.669C110.953 89.7428 111.258 89.821 111.627 89.8992C112.239 90.0295 112.795 90.1816 113.291 90.3553C113.786 90.5291 114.207 90.742 114.559 90.9939C114.907 91.2459 115.172 91.5456 115.358 91.9018C115.541 92.2581 115.636 92.6794 115.636 93.166V93.1964C115.636 93.7351 115.532 94.2173 115.324 94.6343C115.115 95.0557 114.82 95.4119 114.442 95.7073C114.064 96.0027 113.608 96.2286 113.078 96.3806C112.543 96.537 111.953 96.6109 111.297 96.6109" fill="black"/>
    <path d="M116.309 85.9238H120.914C121.592 85.9238 122.204 86.0064 122.756 86.1714C123.308 86.3365 123.777 86.5755 124.168 86.8926C124.559 87.2097 124.854 87.5963 125.067 88.0568C125.276 88.5173 125.38 89.0386 125.38 89.6163V89.6467C125.38 90.268 125.263 90.811 125.033 91.2845C124.802 91.7537 124.481 92.149 124.072 92.4704C123.664 92.7919 123.173 93.0308 122.608 93.1916C122.039 93.3523 121.423 93.4305 120.758 93.4305H119.285V96.4323H116.305V85.9238H116.309ZM120.701 91.1498C121.231 91.1498 121.648 91.0282 121.953 90.7806C122.252 90.533 122.404 90.1985 122.404 89.7771V89.7467C122.404 89.2949 122.252 88.9517 121.953 88.7128C121.648 88.4782 121.227 88.3566 120.684 88.3566H119.285V91.1498H120.697H120.701Z" fill="black"/>
    <path d="M4.81765 93.6181H3.14949V96.42H0V86.0332H4.95231C7.80206 86.0332 9.43546 87.3669 9.43546 89.7214C9.43546 91.2636 8.80122 92.3887 7.64568 93.0273L9.79603 96.42H6.22079L4.8133 93.6181H4.81765ZM4.95231 91.2462C5.89065 91.2462 6.438 90.7422 6.438 89.8082C6.438 88.8743 5.89065 88.4008 4.95231 88.4008H3.14949V91.2462H4.95231Z" fill="black"/>
    <path d="M12.9976 88.4008V90.0342H18.0151V92.4017H12.9976V94.0481H18.6797V96.42H9.84814V86.0332H18.5277V88.4008H12.9976Z" fill="black"/>
    <path d="M24.0447 86.0332C27.4853 86.0332 29.7572 88.0923 29.7572 91.2201C29.7572 94.3479 27.4375 96.42 23.9404 96.42H19.3965V86.0332H24.0491H24.0447ZM22.546 94.0047H24.1359C25.5738 94.0047 26.5469 92.91 26.5469 91.2505C26.5469 89.591 25.5 88.4659 23.9882 88.4659H22.5503V94.009L22.546 94.0047Z" fill="black"/>
    <path d="M33.2545 88.4008V90.0342H38.2719V92.4017H33.2545V94.0481H38.9366V96.42H30.105V86.0332H38.7845V88.4008H33.2545Z" fill="black"/>
    <path d="M26.8337 26.935C26.7468 26.8177 29.2491 17.947 37.7288 10.2622C43.9539 4.62352 57.2991 -3.16113 75.2142 1.34807C87.4343 4.42371 94.9235 13.5333 94.9235 13.5333L79.2717 25.206C79.2717 25.206 70.6442 14.8192 53.385 15.0364C36.1258 15.2536 26.8337 26.935 26.8337 26.935Z" fill="#BE1F3F"/>
    <path d="M50.2877 25.2016C50.2877 25.2016 45.4179 30.8273 45.4179 40.5624C45.4179 50.2976 54.2669 58.5211 64.6667 58.5211C75.0666 58.5211 79.2717 52.461 79.2717 52.461L94.7368 64.8244C94.7368 64.8244 83.2422 78.6387 63.8544 78.1348C42.8418 77.5831 28.1587 61.7661 28.1587 47.2698C28.1587 40.5147 32.694 25.1973 50.2833 25.1973" fill="#BE1F3F"/>
</svg>