<svg width="28" height="24" viewBox="0 0 28 24" fill="none" xmlns="http://www.w3.org/2000/svg">
    <path d="M3.33335 24C2.60002 24 1.97224 23.7389 1.45002 23.2167C0.927798 22.6944 0.666687 22.0667 0.666687 21.3333V0L2.90002 2.23333L5.10002 0L7.33335 2.23333L9.56669 0L11.7667 2.23333L14 0L16.2334 2.23333L18.4334 0L20.6667 2.23333L22.9 0L25.1 2.23333L27.3334 0V21.3333C27.3334 22.0667 27.0722 22.6944 26.55 23.2167C26.0278 23.7389 25.4 24 24.6667 24H3.33335ZM3.33335 21.3333H12.6667V13.3333H3.33335V21.3333ZM15.3334 21.3333H24.6667V18.6667H15.3334V21.3333ZM15.3334 16H24.6667V13.3333H15.3334V16ZM3.33335 10.6667H24.6667V6.66667H3.33335V10.6667Z" fill="#7F1A22"/>
</svg>